<?xml version="1.0" encoding="utf-8"?>
<!-- Generator: Adobe Illustrator 22.1.0, SVG Export Plug-In . SVG Version: 6.00 Build 0)  -->
<svg version="1.0" id="Layer_1" xmlns="http://www.w3.org/2000/svg" xmlns:xlink="http://www.w3.org/1999/xlink" x="0px" y="0px"
	 viewBox="0 0 120 60" style="enable-background:new 0 0 120 60;" xml:space="preserve">
<style type="text/css">
	.st0{fill:#FFFFFF;}
	.st1{fill-rule:evenodd;clip-rule:evenodd;fill:#CC2128;}
	.st2{fill:#FCB713;}
	.st3{fill-rule:evenodd;clip-rule:evenodd;fill:#FCB713;}
	.st4{fill:#CC2128;}
</style>
<g>
	<g>
		<g>
			<path class="st0" d="M44.3,29.5h-0.2H40h-0.2l-0.1,0.2c-1.4,2.2-1.8,4.4-1.1,5.9c0.5,1,1.4,1.7,2.8,2.1l0,2.4v0l0,0
				c0,0.1,0,0.5-0.4,0.6c-0.2,0-0.4,0.1-0.5,0.1c-0.3,0.1-0.5,0.1-0.6,0.3c-0.1,0.1,0,0.3,0.1,0.4l0.1,0.1h0.2H44h0.2l0.1-0.1
				c0.1-0.2,0.2-0.3,0.1-0.4c-0.1-0.2-0.3-0.3-0.6-0.3c-0.1,0-0.3-0.1-0.5-0.1c-0.3-0.1-0.4-0.4-0.4-0.7v-2.4c1.4-0.3,2.3-1,2.7-2
				c1-2.2-0.6-5.1-1.1-5.9L44.3,29.5L44.3,29.5z"/>
			<g>
				<path class="st1" d="M41.7,37.4l0,2.6c0,0,0,0.8-0.7,1c-0.7,0.2-1.1,0.1-0.9,0.4H44c0.2-0.2-0.1-0.2-0.9-0.4
					c-0.5-0.1-0.6-0.7-0.7-1v-2.6c4.2-0.8,3.3-4.8,1.7-7.5H40C38.4,32.6,37.5,36.5,41.7,37.4z"/>
			</g>
		</g>
		<path class="st2" d="M83.6,38.8v-3.3c0-1.3-0.3-4.9,1-5.5c0.7-0.3,1-1,1-1.9v-3.7c0,0-0.1-0.1-0.1-0.1c0-0.1,0-0.6,0-0.6
			c0-0.1,0,0,0.1-0.1c0-0.1,0-0.1,0-0.2c0-0.3,0.5-0.3,0.9-0.3c0.4,0,0.9,0,0.9,0.3c0,0.2,0,0.2,0,0.2c0.1,0.1,0.1,0,0.1,0.1
			c0,0.1,0,0.6,0,0.6l0,0.1v4c0.1,0.8,0.4,1.3,1,1.6c1.3,0.6,1,4.2,1,5.5v3.3h9c-1,0-3.4-0.6-3.4-2.4l-0.5-16.8
			c0-1.8,1.5-2.7,2.6-2.8l-12.7,0l-2,4.5l-2,0l-2-4.5l-12.7,0c1.1,0,2.6,0.9,2.6,2.8L68,36.4c0,1.8-2.4,2.4-3.4,2.4h9v-3.3
			c0-1.3-0.3-4.9,1-5.5c0.7-0.3,0.9-0.8,1-1.6v-4l0-0.1c0-0.1,0-0.6,0-0.6c0-0.1,0,0,0.1-0.1c0-0.1,0-0.1,0-0.2
			c0-0.3,0.5-0.3,0.9-0.3c0.4,0,0.9,0,0.9,0.3c0,0.2,0,0.2,0,0.2c0.1,0.1,0.1,0,0.1,0.1c0,0.1,0,0.6,0,0.6c0,0.1-0.1,0.1-0.1,0.1
			v3.7c0.1,0.9,0.3,1.6,1,1.9c1.3,0.6,1,4.2,1,5.5v3.3L83.6,38.8z"/>
		<g>
			<path class="st3" d="M59,32.1C55.6,21.6,51.3,8.6,51.3,8c-0.2-1.4,1.1-2.1,1.8-2.2l-16,0c0.7,0.1,2.4,0.6,2.3,2.2
				c0,0.7-0.6,2.2-0.8,2.8l-2,5.7c-1.6-1-3.5-1.9-5.6-2.3c-3.1-0.7-6.4-0.4-8.6,2.7c-0.6,0.9-1,2-1.1,3.2v1.1
				c0.2,3.2,2.6,6.3,7.6,6.7l0.1-0.3c-1.2,0.1-2.5-0.3-3.7-1.2c-2.7-1.9-3.4-5.6-1.6-8.1c1.6-2.2,4.5-2.8,7-1.7
				c1.6,0.5,3.3,1.5,4.9,2.5l-4.5,13c-0.9,2.4-1.9,4.8-4.3,5.9c-0.4,0.2-2.1,0.8-2.1,0.8h14c-1.3-0.1-4.2-1.2-3.8-3.6
				c0.2-1.1,0.5-2.6,0.9-3.7l3.3-10.3c0.4,0.2,0.8,0.5,1.2,0.8c0.8,0.5,1.6,1.2,2.3,1.9c3.2,3,6.6,7.3,6.3,11
				c-0.2,2.2-2.6,3.8-4.2,3.9h19.8c0,0-1.3-0.5-1.8-0.7C60.5,37.1,59.7,34.2,59,32.1 M42.8,20.5c-0.8-0.7-1.7-1.3-2.7-2l2-6.3
				l0.7,2.3l2.7,8.7C45,22.5,44.1,21.5,42.8,20.5z"/>
			<path class="st2" d="M24.4,19.2c-1.2,2.3-0.3,5.4,2,6.8c1,0.6,2.1,0.8,3,0.7l0.9-3.7c-4.2,0.2-5.7-3.1-4.5-4.9
				c0.8-1.3,2.3-1.4,4-1C27.7,16.4,25.5,17.2,24.4,19.2"/>
		</g>
		<g>
			<path class="st4" d="M25.5,47.7c0-0.4,0-0.7-0.1-0.9c-0.1-0.2-0.3-0.3-0.5-0.3v-0.3h5.2c0.6,0,1.1,0,1.4,0.1
				c0.5,0.2,0.7,0.5,0.7,1c0,0.4-0.2,0.8-0.7,1.2c-0.3,0.2-0.7,0.5-1.3,0.7c0.7,0.1,1.4,0.4,1.8,0.8c0.6,0.4,0.8,1,0.8,1.7
				c0,0.4-0.1,0.8-0.3,1.1c-0.2,0.3-0.5,0.6-0.9,0.8c-0.3,0.2-0.6,0.3-1,0.3C30.3,54,29.9,54,29.4,54h-4.6v-0.3
				c0.2,0,0.4-0.1,0.5-0.3c0.1-0.2,0.1-0.5,0.1-0.9V47.7z M27.9,49.3c0.5-0.1,0.9-0.3,1.2-0.5c0.5-0.3,0.7-0.6,0.7-1
				c0-0.2-0.1-0.4-0.3-0.5c-0.2-0.1-0.5-0.2-0.7-0.2c-0.2,0-0.3,0-0.4,0c-0.1,0-0.2,0.1-0.3,0.1c0,0-0.1,0.1-0.1,0.2
				c0,0.1,0,0.2,0,0.2v0.1V49.3z M27.9,52.5c0,0.3,0,0.5,0.1,0.6c0.1,0.1,0.3,0.1,0.6,0.1c0.5,0,0.9-0.1,1.3-0.4
				c0.3-0.3,0.5-0.7,0.5-1.2c0-0.4-0.1-0.8-0.3-1.1c-0.2-0.3-0.5-0.6-0.9-0.8l-1.2,0.4V52.5z"/>
			<path class="st4" d="M36.1,52.5c0,0.4,0,0.8,0.1,1c0.1,0.2,0.3,0.3,0.5,0.3V54H33v-0.3c0.2,0,0.4-0.1,0.5-0.3
				c0.1-0.2,0.1-0.5,0.1-0.9v-4.8c0-0.4,0-0.7-0.1-0.9c-0.1-0.2-0.3-0.3-0.5-0.3v-0.3h3.8v0.3c-0.2,0-0.4,0.1-0.5,0.3
				c-0.1,0.2-0.2,0.5-0.2,0.9V50l2.3-2.2c0-0.4-0.1-0.7-0.2-0.9c-0.1-0.2-0.3-0.3-0.5-0.3v-0.3h3.8v0.3c-0.2,0-0.4,0.1-0.5,0.3
				c-0.1,0.2-0.1,0.5-0.1,0.9v4.8c0,0.4,0,0.7,0.1,0.9c0.1,0.2,0.3,0.3,0.5,0.3V54h-3.8v-0.3c0.3,0,0.4-0.1,0.5-0.3
				c0.1-0.2,0.2-0.5,0.2-1v-3.6l-2.3,2.2V52.5z"/>
			<path class="st4" d="M44.7,52.5c0,0.4,0,0.8,0.1,1c0.1,0.2,0.3,0.3,0.5,0.3V54h-3.8v-0.3c0.2,0,0.4-0.1,0.5-0.3
				c0.1-0.2,0.1-0.5,0.1-0.9v-4.8c0-0.8-0.2-1.2-0.6-1.2v-0.3h3.8v0.3c-0.2,0-0.4,0.1-0.5,0.3c-0.1,0.2-0.2,0.5-0.2,0.9v0.6H47v-0.6
				c0-0.4-0.1-0.7-0.2-0.9c-0.1-0.2-0.3-0.3-0.5-0.3v-0.3h3.8v0.3c-0.2,0-0.4,0.1-0.5,0.3c-0.1,0.2-0.1,0.5-0.1,0.9v4.8
				c0,0.4,0,0.7,0.1,0.9c0.1,0.2,0.3,0.3,0.5,0.3V54h-3.8v-0.3c0.3,0,0.4-0.1,0.5-0.3c0.1-0.2,0.2-0.5,0.2-1v-3.3h-2.3V52.5z"/>
			<path class="st4" d="M51.9,47.8v4.7c0,0.4,0.1,0.8,0.2,0.9c0.1,0.2,0.3,0.3,0.6,0.3V54h-2.4v-0.3c0.2,0,0.4-0.1,0.5-0.3
				c0.1-0.2,0.1-0.5,0.1-0.9v-4.8c0-0.4,0-0.7-0.1-0.9c-0.1-0.2-0.3-0.3-0.5-0.3v-0.3h4v0.3c-0.1,0-0.1,0.1-0.2,0.1
				c-0.1,0-0.1,0.1-0.1,0.2c0,0.1,0,0.1,0,0.2c0,0.1,0,0.1,0.1,0.2l0.1,0.3l0.7,1.6l0.8-1.7c0.1-0.2,0.1-0.2,0.1-0.3
				c0.1-0.1,0.1-0.2,0.1-0.3c0-0.1-0.1-0.2-0.2-0.3v-0.3h3.7v0.3c-0.2,0-0.4,0.1-0.5,0.3c-0.1,0.2-0.1,0.5-0.1,0.9v4.8
				c0,0.4,0,0.7,0.1,0.9c0.1,0.2,0.3,0.3,0.5,0.3V54h-3.7v-0.3c0.2,0,0.4-0.1,0.5-0.3c0.1-0.2,0.2-0.5,0.2-0.9v-4.7l-2.3,4.6
				L51.9,47.8z"/>
			<path class="st4" d="M61.6,52.3c-0.1,0.2-0.1,0.3-0.2,0.5c0,0.2-0.1,0.3-0.1,0.4c0,0.2,0,0.3,0.1,0.4c0.1,0.1,0.2,0.1,0.4,0.1V54
				h-2.6v-0.3c0.3-0.1,0.5-0.2,0.7-0.5c0.1-0.1,0.2-0.4,0.4-0.8l1.9-4.9c0-0.1,0.1-0.2,0.1-0.3c0-0.1,0.1-0.2,0.1-0.3
				c0-0.2-0.1-0.3-0.3-0.3v-0.3h3.4v0.3c-0.1,0-0.2,0-0.2,0.1c0,0-0.1,0.1-0.1,0.2c0,0,0.1,0.4,0.3,1c0.4,1.1,0.6,1.8,0.7,2.1
				c0.3,0.8,0.6,1.7,0.8,2.5c0.2,0.5,0.3,0.7,0.3,0.8c0.2,0.3,0.4,0.5,0.7,0.5V54h-4.1v-0.3c0.2,0,0.3-0.1,0.5-0.2
				c0.1-0.1,0.2-0.3,0.2-0.5c0-0.3-0.1-0.5-0.3-0.8c-0.2-0.2-0.4-0.5-0.7-0.6c-0.3-0.2-0.5-0.3-0.8-0.4c-0.3-0.1-0.6-0.1-0.9-0.1
				L61.6,52.3z M63.2,47.8L62.4,50c0.3,0,0.6,0.1,0.8,0.2c0.3,0.1,0.6,0.2,0.8,0.4L63.2,47.8z"/>
			<path class="st4" d="M68.8,47.7c0-0.4,0-0.7-0.1-0.9c-0.1-0.2-0.3-0.3-0.5-0.3v-0.3h4.9c0.4,0,0.8,0,1,0c0.2,0,0.5,0.1,0.7,0.1
				c0.2,0.1,0.4,0.2,0.6,0.4c0.2,0.2,0.3,0.5,0.3,0.7c0,0.8-0.6,1.5-1.7,2c-0.6,0.3-1.5,0.6-2.7,0.9v2.1c0,0.8,0.2,1.2,0.7,1.2V54
				h-3.8v-0.3c0.2,0,0.4-0.1,0.5-0.3c0.1-0.2,0.1-0.5,0.1-0.9V47.7z M71.3,49.6c0.5-0.1,0.9-0.3,1.3-0.5c0.4-0.3,0.7-0.7,0.7-1.1
				c0-0.3-0.1-0.5-0.3-0.7C72.6,47.1,72.3,47,72,47c-0.3,0-0.5,0.1-0.6,0.2c-0.1,0.1-0.1,0.3-0.1,0.6V48V49.6z"/>
			<path class="st4" d="M84.2,54h-3.9v-0.3c0.2,0,0.3,0,0.4-0.1c0.1-0.1,0.2-0.2,0.2-0.3c0-0.2-0.1-0.5-0.2-0.9
				c-0.1-0.4-0.3-0.7-0.4-1c-0.1-0.3-0.3-0.6-0.5-0.9c-0.2-0.2-0.4-0.5-0.6-0.8l-0.4,0.4v2.4c0,0.8,0.2,1.2,0.7,1.2V54h-3.8v-0.3
				c0.2,0,0.4-0.1,0.5-0.3c0.1-0.2,0.1-0.5,0.1-0.9v-4.8c0-0.4,0-0.7-0.1-0.9c-0.1-0.2-0.3-0.3-0.5-0.3v-0.3h3.7l0,0.3
				c-0.2,0-0.4,0.1-0.5,0.3c-0.1,0.2-0.1,0.5-0.1,0.9v1.4L80,48c0.2-0.2,0.3-0.3,0.5-0.5c0.2-0.2,0.3-0.4,0.3-0.6
				c0-0.1-0.1-0.2-0.2-0.3c-0.1-0.1-0.2-0.1-0.4-0.1v-0.3h3.4v0.3c-0.4,0.1-0.8,0.2-1.2,0.4c-0.3,0.2-0.7,0.4-1,0.7l-0.6,0.5
				c0.6,0.6,1.1,1.3,1.6,2.1c0.4,0.7,0.7,1.5,1,2.4c0.1,0.3,0.2,0.5,0.3,0.6c0.1,0.2,0.3,0.3,0.5,0.3V54z"/>
			<path class="st4" d="M84,54v-0.3c0.2,0,0.4-0.1,0.5-0.3c0.1-0.2,0.1-0.5,0.1-0.9v-4.8c0-0.4,0-0.7-0.1-0.9
				c-0.1-0.2-0.3-0.3-0.5-0.3v-0.3h5.4h0.2c0.2,0,0.3,0,0.5,0c0.1,0,0.2-0.1,0.3-0.2l0.6,2.7l-0.3,0.1c-0.2-0.6-0.5-1-0.9-1.3
				c-0.5-0.3-1-0.5-1.6-0.5c-0.5,0-0.8,0.1-0.9,0.2c-0.1,0.1-0.2,0.4-0.2,0.8v0.3v0.4h0.4h0.3c0.4,0,0.7,0,0.9-0.1
				c0.3-0.1,0.4-0.4,0.4-0.8l0.2,0l0.5,3l-0.2,0c-0.1-0.2-0.2-0.3-0.2-0.5c-0.1-0.1-0.2-0.3-0.3-0.4c-0.2-0.2-0.4-0.3-0.6-0.3
				c-0.2,0-0.4-0.1-0.7-0.1h-0.3h-0.3v2.3c0,0.6,0.1,0.9,0.3,1.1c0.2,0.2,0.4,0.3,0.9,0.3c0.7,0,1.3-0.2,1.9-0.6
				c0.5-0.4,0.9-0.9,1.2-1.6l0.2,0.1l-1,3.1c-0.1-0.1-0.2-0.1-0.3-0.1c-0.1,0-0.3,0-0.4,0H84z"/>
			<path class="st4" d="M96,52.5c0,0.4,0.1,0.8,0.2,1c0.1,0.2,0.4,0.3,0.7,0.3V54h-4.3v-0.3c0.4,0,0.6-0.1,0.7-0.3
				c0.1-0.2,0.2-0.5,0.2-1v-5.4c-0.6,0-1,0.1-1.4,0.4c-0.4,0.3-0.7,0.7-0.8,1.3l-0.2,0l0.6-2.7c0,0.1,0.1,0.1,0.2,0.2
				c0.1,0,0.2,0,0.4,0h0.2h0.2h4.2h0.3c0.2,0,0.3,0,0.5,0c0.1,0,0.2-0.1,0.3-0.2l0.5,2.7l-0.2,0c-0.2-0.6-0.5-1-0.8-1.2
				c-0.4-0.3-0.8-0.5-1.4-0.5V52.5z"/>
		</g>
		<rect x="24.9" y="42.2" class="st1" width="73.5" height="0.7"/>
	</g>
</g>
</svg>
