<?xml version="1.0" encoding="utf-8"?>
<!-- Generator: Adobe Illustrator 22.1.0, SVG Export Plug-In . SVG Version: 6.00 Build 0)  -->
<svg version="1.0" id="Layer_1" xmlns="http://www.w3.org/2000/svg" xmlns:xlink="http://www.w3.org/1999/xlink" x="0px" y="0px"
	 viewBox="0 0 120 60" style="enable-background:new 0 0 120 60;" xml:space="preserve">
<g id="logo_b" transform="translate(79.000000, 0.000000)">
	<g id="Group-2">
		<g id="Page-1_1_">
			<g id="Group-3" transform="translate(20.098039, 0.305555)">
				<g id="Clip-2">
				</g>
				<path id="Fill-1" d="M-27.6,29.8c-0.5-1.4-1.3-2.7-2.3-3.7c-0.4-0.4-0.7-0.7-1.2-0.9c-0.5-0.3-1.1-0.5-1.6-0.6
					c-0.1-0.1-0.2-0.2-0.4-0.3c0.1-0.1,0.2-0.2,0.3-0.3c0.1-0.1,0.3-0.1,0.4-0.2c2.3-0.8,3.7-2.5,4.4-4.6c0.5-1.1,0.5-2.3,0.5-3.5
					c0-0.3,0-0.6-0.1-0.8c-0.4-1.6-0.9-3-1.9-4.2c-0.6-0.8-1.5-1.6-2.3-2.3c-1-1-2.4-1.7-3.8-2.1c-1.5-0.5-3.1-0.8-4.9-1.1
					c-0.6-0.1-1.2-0.1-1.8,0c-0.6,0-1.3,0.1-1.8,0.1c-0.6,0.1-1,0.2-1.5,0.3c-0.9,0.1-1.6,0.9-2.5,0.7l0,0c-1.2,0.5-2.4,1-3.4,1.7
					c1.7,0,3.2,0.3,4.7,0.7c1.5,0.5,2.7,1.3,3.5,2.3c1-0.2,1.9-0.2,2.9-0.1c1.1,0.2,2.2,0.3,3.2,0.9c0.6,0.4,1.4,0.7,2,1.3
					c1,0.8,1.6,1.9,1.7,3.3c0,1.3-0.4,2.5-1.3,3.4c-1.3,1.5-2.9,1.8-4.8,1.8c-0.1,0-0.3,0-0.4,0.1c-0.6,0.2-0.5,0.6-0.5,1
					c0,1.3,0,2.7,0,4c0,0.4,0.2,0.6,0.6,0.6c0.6,0,1.2,0,1.7,0.1c0.6,0.1,1.2,0.3,1.8,0.5c0.5,0.2,0.9,0.5,1.4,0.8
					c0.6,0.5,1,0.8,1.3,1.6c0.2,0.6,0.4,1,0.5,1.6c0.1,1.6-0.4,2.9-1.4,3.9c-1.2,1.1-2.6,1.7-4.2,1.4c-1.1-0.2-1.8-0.6-2.8-1.5
					c-0.4-0.4-0.6-0.4-1,0c-1.1,1-2,2-3.1,3c-0.4,0.4-0.5,0.7,0,1.1c0.5,0.5,1,0.8,1.5,1.3c0.9,0.6,1.9,1.2,2.9,1.5
					c0.8,0.3,1.7,0.3,2.6,0.5c1.4,0.2,2.8,0,4.1-0.5c1.7-0.6,3.3-1.3,4.4-2.7c0.6-0.6,1.1-1.3,1.6-1.9c0.3-0.4,0.5-0.7,0.6-1.1
					c0.3-0.7,0.6-1.5,0.7-2.3c0.2-0.7,0.2-1.5,0.2-2.3C-27.3,31.4-27.4,30.5-27.6,29.8z"/>
			</g>
			<g id="Group-6" transform="translate(0.000000, 0.703932)">
				<g id="Clip-5">
				</g>
				<path id="Fill-4" d="M-2.4,14.3C-3.8,15.2-4,17-3.2,18.3c3.1,4.6,4.1,10.2,2.6,15.6C-3.3,44-13.8,50-24,47.3
					c-5-1.3-9-4.5-11.6-8.8c-2.6-4.4-3.2-9.5-1.8-14.4c2.1-7.8,9-13.4,17.1-14c1.1-0.1,1.9-0.7,2.4-1.6c-0.2,0-0.4,0-0.5,0
					c-2.9-0.2-5.3-1.5-7.2-3.3c-8.5,2.3-15.2,8.8-17.6,17.5c-1.7,6.4-0.8,13.1,2.5,18.8c3.3,5.7,8.7,9.9,15.2,11.6
					c1.6,0.5,3.1,0.6,4.7,0.8c11.7,0.8,22.7-6.6,26-18.2c1.9-6.9,0.6-14.4-3.4-20.3C0.8,13.8-1,13.5-2.4,14.3z"/>
			</g>
			<path id="Stroke-7" d="M-17.9,37.5v5.9c-6.3,0-11.2-5-11.2-11.1h5.9C-23.3,35.1-20.9,37.5-17.9,37.5z"/>
			<path id="Stroke-9" d="M-23.3,32.2c0,1.7-1.3,2.9-2.9,2.9s-2.9-1.3-2.9-2.9V20.3c0-1.7,1.3-2.9,2.9-2.9s2.9,1.3,2.9,2.9V32.2z"/>
		</g>
	</g>
</g>
</svg>
