<?xml version="1.0" encoding="utf-8"?>
<!-- Generator: Adobe Illustrator 22.1.0, SVG Export Plug-In . SVG Version: 6.00 Build 0)  -->
<svg version="1.0" id="Layer_1" xmlns="http://www.w3.org/2000/svg" xmlns:xlink="http://www.w3.org/1999/xlink" x="0px" y="0px"
	 viewBox="0 0 120 60" style="enable-background:new 0 0 120 60;" xml:space="preserve">
<style type="text/css">
	.st0{fill:#009EA0;}
</style>
<g>
	<path class="st0" d="M101.1,34.3c0.2-0.7,0.3-1.4,0.3-2.2c0-2.6-0.8-4.7-2.4-6.2c-1.7-1.7-4-2.4-6.8-2.4l0,0
		c-2.5,0-4.6,0.9-6.5,2.7c-0.3,0.4-0.7,0.7-0.9,1.1c-0.3-0.5-0.7-0.9-1.1-1.4c-1.7-1.7-4-2.4-6.8-2.4l0,0c-2.1,0-4,0.6-5.5,1.9
		l0.7-1.6c-1.2-0.2-2.1-0.4-2.8-0.4c-2.6,0-4.6,1.2-5.8,3.6v-3.3h-3h-0.6h-3.6C56,23.4,56,23,56,22.7c0-1.3,0.4-2.4,1.1-3.2
		c0.8-0.8,1.6-1.2,2.7-1.2c0.6,0,1.3,0.2,2.1,0.4l1-2.7c-1.2-0.4-2.4-0.5-3.3-0.5c-2.1,0-3.8,0.8-5.1,2.2c-1.3,1.4-1.9,3.5-1.9,6.1
		h-3V26l-0.1-0.1c-1.7-1.7-4-2.4-6.8-2.4l0,0c-2.5,0-4.6,0.9-6.5,2.7l-0.1,0.1l0,0l-0.1,0.1L36,26.4l0,0l-0.1,0.1l0,0l-0.1,0.1l0,0
		c-0.1,0.1-0.1,0.2-0.2,0.2l0,0l-0.1,0.1l0,0l-0.1,0.1l0,0L35.5,27l0,0l-0.1,0.1l0,0l-0.1,0.1l-0.1,0.1l0,0l0,0c0,0,0,0.1-0.1,0.1
		c0,0,0,0,0,0.1c0,0,0,0.1-0.1,0.1c0,0,0,0-0.1,0.1v0.1l0,0c-0.3-0.5-0.7-1-1.1-1.5c-1.7-1.8-3.7-2.7-6.3-2.9c-0.2,0-0.3,0-0.5,0
		c-0.9,0-1.8,0.2-2.8,0.6c-0.9,0.4-1.6,0.8-1.9,1.3v-9.9h-3.9v29.1h1.8l1.3-1.8c0.5,0.5,1.2,0.9,2.1,1.3s1.9,0.5,2.8,0.5
		c0.2,0,0.5,0,0.7,0c2.7-0.2,4.7-1.1,6.3-2.9c0.4-0.4,0.8-0.8,1-1.4c0.1,0.2,0.2,0.3,0.3,0.5l0,0v0.1c0.1,0.1,0.1,0.1,0.1,0.2l0,0
		l0.1,0.1l0,0l0.1,0.1c0,0,0,0,0,0.1l0.1,0.1l0,0c0,0,0,0,0.1,0.1c0,0,0,0,0.1,0.1l0,0l0,0c0,0,0,0,0.1,0.1l0,0l0.1,0.1l0,0l0.1,0.1
		l0,0l0.1,0.1l0,0c0,0,0,0,0.1,0.1l0,0l0,0l0.1,0.1c1.8,1.7,4,2.6,6.5,2.6l0,0c1.7,0,3.3-0.3,4.8-0.8c1.1-0.4,2-0.9,2.6-1.4
		l-1.5-2.6c-1.4,1.2-3.1,1.8-5.2,1.8c-0.2,0-0.5,0-0.7,0c-1.5-0.2-2.7-0.7-3.8-1.7c-1.3-1.3-2-3.1-2-5.5h5.7h9
		c0.2-0.7,0.3-1.4,0.3-2.2c0-2.1-0.5-3.9-1.6-5.3h2.3V44h3.6V26.8h3.6v17.3H63V32.5c0-1.7,0.5-3.1,1.4-4.3c1-1.1,2.1-1.7,3.3-1.7
		c0.5,0,1.1,0.2,1.7,0.4c-1.6,1.9-2.4,4.4-2.4,7.4c0,3.3,1,5.8,3,7.7c1.8,1.7,4,2.6,6.5,2.6l0,0c1.8,0,3.3-0.3,4.8-0.8
		c1.1-0.4,2.1-0.9,2.6-1.4l-1.5-2.6c-1.4,1.2-3.1,1.8-5.2,1.8c-0.2,0-0.5,0-0.7,0c-1.5-0.2-2.7-0.7-3.7-1.7c-1.3-1.3-2-3.1-2-5.5
		h5.7h5.8c0,3.2,1.1,5.7,3,7.6c1.8,1.7,4,2.6,6.5,2.6l0,0c1.7,0,3.3-0.3,4.8-0.8c1.1-0.4,2.1-0.9,2.6-1.4l-1.5-2.6
		c-1.4,1.2-3.1,1.8-5.2,1.8c-0.2,0-0.5,0-0.7,0C90.3,41.5,89.1,41,88,40c-1.3-1.3-2-3.1-2-5.5h5.7h9.3V34.3z M30.9,39.7L30.9,39.7
		c-0.8,0.9-2,1.4-3.6,1.7c-0.5,0.1-1.1,0.1-1.7,0.1c-0.5,0-1.1-0.2-2.1-0.7c-0.9-0.5-1.4-0.8-1.4-1V28c0.2-0.3,0.8-0.7,1.5-1.1
		c0.8-0.4,1.4-0.6,1.9-0.6c0.6,0,1.1,0.1,1.7,0.2c1.3,0.3,2.4,0.8,3.3,1.7c1.2,1.3,1.8,3.1,1.8,5.4C32.5,36.6,32,38.5,30.9,39.7
		L30.9,39.7z M42.6,31.7L42.6,31.7H37c0.2-1.5,0.7-2.7,1.7-3.7c1.1-1,2.4-1.5,3.9-1.6c0.1,0,0.1,0,0.2,0c1.7,0,3,0.5,4.1,1.6
		c0.9,1,1.4,2.2,1.4,3.6L42.6,31.7L42.6,31.7z M76.8,31.7L76.8,31.7h-5.6c0.2-1.5,0.7-2.7,1.7-3.7s2.4-1.5,3.9-1.6
		c0.1,0,0.2,0,0.2,0c1.7,0,3.1,0.5,4.1,1.6c0.9,1,1.4,2.2,1.4,3.6L76.8,31.7L76.8,31.7z M86.5,31.7L86.5,31.7
		c0.2-1.5,0.8-2.7,1.7-3.7c1.1-1,2.4-1.5,3.9-1.6c0.1,0,0.2,0,0.2,0c1.7,0,3.1,0.5,4.1,1.6c0.9,1,1.4,2.2,1.4,3.6h-5.6L86.5,31.7
		L86.5,31.7z"/>
</g>
</svg>
