<?xml version="1.0" encoding="utf-8"?>
<!-- Generator: Adobe Illustrator 22.1.0, SVG Export Plug-In . SVG Version: 6.00 Build 0)  -->
<svg version="1.0" id="Layer_1" xmlns="http://www.w3.org/2000/svg" xmlns:xlink="http://www.w3.org/1999/xlink" x="0px" y="0px"
	 viewBox="0 0 120 60" style="enable-background:new 0 0 120 60;" xml:space="preserve">
<style type="text/css">
	.st0{fill:#231F20;}
</style>
<g>
	<g>
		<path class="st0" d="M31.5,44.2c0-0.2,0.1-0.3,0.3-0.3h1c0.2,0,0.3-0.1,0.4-0.3l2.5-14c0-0.2,0.2-0.3,0.4-0.3h4.2
			c0.2,0,0.3,0.1,0.3,0.3l-0.3,14c0,0.2,0.1,0.3,0.3,0.3h0.6c0.2,0,0.3,0.1,0.3,0.3v3.7c0,0.2-0.1,0.3-0.3,0.3h-1.6
			c-0.2,0-0.3-0.1-0.3-0.3v-1.6c0-0.2-0.1-0.3-0.3-0.3h-5.2c-0.2,0-0.3,0.1-0.3,0.3v1.6c0,0.2-0.1,0.3-0.3,0.3h-1.4
			c-0.2,0-0.3-0.1-0.3-0.3V44.2z M38,43.9c0.3,0,0.3,0,0.3-0.3l0.3-11.9c0-0.3,0-0.3-0.3-0.3h-0.8c-0.3,0-0.3,0-0.4,0.3l-1.9,11.9
			c0,0.3,0,0.3,0.3,0.3H38z"/>
		<path class="st0" d="M48.3,29.3c0.2,0,0.3,0.1,0.4,0.3l3.2,16c0,0.2-0.1,0.3-0.3,0.3h-1.4c-0.2,0-0.3-0.1-0.4-0.3l-0.5-2.6
			c-0.1-0.3-0.1-0.3-0.4-0.3h-3.8c-0.3,0-0.3,0-0.4,0.3l-0.5,2.6c0,0.2-0.2,0.3-0.4,0.3h-1.4c-0.2,0-0.3-0.1-0.3-0.3l3.3-16
			c0-0.2,0.2-0.3,0.4-0.3H48.3z M47.3,32.1c0-0.2-0.5-0.2-0.5,0l-1.5,8.2c-0.1,0.3,0,0.4,0.5,0.4h2.4c0.4,0,0.6-0.1,0.5-0.4
			L47.3,32.1z"/>
		<path class="st0" d="M88.2,29.3c0.2,0,0.3,0.1,0.3,0.3v16c0,0.2-0.1,0.3-0.3,0.3h-1.6c-0.2,0-0.3-0.1-0.3-0.3V35.5
			c0-0.2-0.1-0.2-0.1,0l-4.1,10.2C82,45.9,81.8,46,81.6,46h-1.3c-0.2,0-0.3-0.1-0.3-0.3v-16c0-0.2,0.1-0.3,0.3-0.3h1.6
			c0.2,0,0.3,0.1,0.3,0.3v10.2c0,0.2,0.1,0.2,0.1,0l4.1-10.3c0.1-0.2,0.3-0.3,0.4-0.3H88.2z"/>
		<path class="st0" d="M60.3,42.1c0-1.1-0.3-1.9-1.1-2.7c-0.6-0.6-1.9-0.9-2.9-0.9h-0.4h-0.2c-0.2,0-0.3-0.1-0.3-0.3v-6.5
			c0-0.2,0.1-0.3,0.3-0.3h3.9c0.2,0,0.3-0.1,0.3-0.3v-1.4c0-0.2-0.1-0.3-0.3-0.3h-6.1c-0.2,0-0.3,0.1-0.3,0.3v16
			c0,0.2,0.1,0.3,0.3,0.3H55h0.3h0h0.3h0.2h0.4c1.1,0,2.3-0.3,2.9-0.9c0.8-0.8,1.1-1.6,1.1-2.7V42.1z M58.3,42.3
			c0,0.9-0.6,1.7-1.5,1.7h-1h-0.2c-0.2,0-0.3-0.1-0.3-0.3v-2.7c0-0.2,0.1-0.3,0.3-0.3h0.2h1C57.7,40.6,58.3,41.3,58.3,42.3
			L58.3,42.3z"/>
		<path class="st0" d="M78.6,42.1c0-1.1-0.3-1.9-1.1-2.7c-0.6-0.6-1.9-0.9-2.9-0.9h-0.4H74c-0.2,0-0.3-0.1-0.3-0.3v-6.5
			c0-0.2,0.1-0.3,0.3-0.3h3.9c0.2,0,0.3-0.1,0.3-0.3v-1.4c0-0.2-0.1-0.3-0.3-0.3h-6.1c-0.2,0-0.3,0.1-0.3,0.3v16
			c0,0.2,0.1,0.3,0.3,0.3h1.6h0.3h0H74h0.2h0.4c1.1,0,2.3-0.3,2.9-0.9c0.7-0.8,1.1-1.6,1.1-2.7V42.1z M76.6,42.3
			c0,0.9-0.6,1.7-1.5,1.7h-1H74c-0.2,0-0.3-0.1-0.3-0.3v-2.7c0-0.2,0.1-0.3,0.3-0.3h0.2h1C76,40.6,76.6,41.3,76.6,42.3L76.6,42.3z"
			/>
		<path class="st0" d="M69.1,29.3h-4.8c-0.2,0-0.3,0.1-0.3,0.3c0,0-1.2,11.9-1.2,11.9c-0.1,0.4-0.1,0.8-0.3,1.3
			c-0.1,0.3-0.3,0.6-0.6,0.8c-0.1,0.1-0.3,0.2-0.4,0.3c-0.1,0-0.3,0.1-0.4,0.1c-0.2,0-0.2,0.1-0.2,0.3v1.4c0,0.2,0.1,0.3,0.2,0.3
			c1,0,1.9-0.6,2.6-1.2c0.7-0.7,0.9-1.8,1-2.8l1.1-10.3c0-0.2,0.2-0.3,0.3-0.3h0.7c0.2,0,0.3,0.1,0.3,0.3v14c0,0.2,0.1,0.3,0.3,0.3
			h1.6c0.2,0,0.3-0.1,0.3-0.3v-16C69.4,29.5,69.3,29.3,69.1,29.3"/>
	</g>
	<g>
		<g>
			<path class="st0" d="M61.4,17.8c0,0.8-0.6,1.4-1.4,1.4c-0.8,0-1.4-0.6-1.4-1.4c0-0.8,0.6-1.4,1.4-1.4
				C60.8,16.4,61.4,17,61.4,17.8"/>
			<g>
				<path class="st0" d="M58.5,22.5c-0.4,0.8-1.3,1.8-2.2,2.2l-1.8,0.7c-0.8,0.4-1.2,0-0.8-0.8l0.7-1.9c0.4-0.8,1.3-1.8,2.2-2.1
					l1.9-0.7c0.8-0.4,1.1,0,0.8,0.8L58.5,22.5z"/>
				<path class="st0" d="M61.5,22.5c0.4,0.8,1.3,1.8,2.2,2.2l1.8,0.7c0.8,0.4,1.2,0,0.8-0.8l-0.7-1.9c-0.4-0.8-1.3-1.8-2.2-2.1
					l-1.9-0.7c-0.8-0.4-1.1,0-0.8,0.8L61.5,22.5z"/>
			</g>
			<path class="st0" d="M73.8,18.2c-0.1-0.5-0.3-1.5-1.4-3.2C69.1,10,63.2,4.8,60,4.8c0,0,0,0,0,0c0,0,0,0,0,0
				c-3.2,0-9,5.3-12.3,10.2c-1.1,1.6-1.3,2.7-1.4,3.2c-0.1,0.5-0.1,0.9,0.2,1c0.3,0.1,0.5-0.1,0.7-0.5c0.1-0.3,0.1-0.1,0.2-0.4
				c0.2-0.4,0.9-1,1.4-1c0.7,0,1.3,0.5,1.3,1.2c0,0.5,0.2,0.7,0.5,0.7c0.4,0,0.5-0.4,0.7-0.7c0.4-0.8,1.1-1.2,1.5-1.2
				c0.3,0,0.5,0.1,0.8,0.3c0.2,0.2,0.5,0.4,0.5,0.8c0,0.1-0.1,0.8,0.5,0.8c0.4,0,0.5-0.4,0.7-0.7c0.3-0.7,1-1.3,1.8-1.3h0.8
				c0.3,0,0.4-0.2,0.6-0.6c0.3-0.6,1-1,1.7-1c0.7,0,1.3,0.4,1.7,1c0.2,0.3,0.3,0.6,0.6,0.6h0.8c0.8,0,1.5,0.6,1.8,1.3
				c0.1,0.3,0.2,0.7,0.7,0.7c0.5,0,0.5-0.7,0.5-0.8c0-0.3,0.3-0.6,0.5-0.8c0.2-0.2,0.5-0.3,0.8-0.3c0.4,0,1.1,0.4,1.5,1.2
				c0.2,0.3,0.2,0.7,0.7,0.7c0.3,0,0.5-0.2,0.5-0.7c0-0.6,0.6-1.2,1.3-1.2c0.5,0,1.2,0.6,1.4,1c0.1,0.2,0.1,0.1,0.2,0.4
				c0.2,0.3,0.4,0.5,0.7,0.5C73.9,19.1,73.8,18.7,73.8,18.2z M62.9,14.7h-5.9c-2.2,0-3-1.5-1.8-3.4l2.7-4.2c1.2-1.9,3.1-1.9,4.3,0
				l2.7,4.2C66,13.2,65.1,14.7,62.9,14.7z"/>
		</g>
	</g>
	<g>
		<polygon class="st0" points="63.9,50 63.9,55.2 63.2,55.2 63.2,51.8 61.9,55.2 61.2,55.2 61.2,50 61.9,50 61.9,53.4 63.2,50 		"/>
		<path class="st0" d="M69.8,55.2v-1.6c-0.2,0.1-0.4,0.1-0.6,0.1c-0.4,0-0.7-0.1-1-0.4c-0.3-0.2-0.4-0.5-0.4-0.9V50h0.8v2.5
			c0,0.3,0.3,0.5,0.6,0.5c0.3,0,0.6-0.2,0.6-0.5V50h0.8v5.2H69.8z"/>
		<path class="st0" d="M78.3,50v5.2h-0.7v-3.4l-1.2,3.4h-0.7V50h0.7v3.4l1.2-3.4H78.3z M77,49.4c-0.7,0-1.1-0.4-1.1-1v-0.1h0.5v0.1
			c0,0.2,0.2,0.4,0.5,0.4V49.4z M77,48.9c0.3,0,0.5-0.2,0.5-0.4v-0.1h0.5v0.1c0,0.6-0.4,1-1.1,1V48.9z"/>
		<polygon class="st0" points="41.7,55.2 41.7,50 42.4,50 42.4,52.3 43.6,50 44.3,50 43.1,52.3 44.2,55.2 43.5,55.2 42.7,53 
			42.4,53.7 42.4,55.2 		"/>
		<path class="st0" d="M51,55.2v-0.8h-0.7c-0.3,0-0.6-0.1-0.8-0.4c-0.2-0.2-0.3-0.5-0.3-0.9V52c0-0.3,0.1-0.6,0.3-0.9
			c0.2-0.2,0.5-0.4,0.8-0.4H51V50h0.7v0.8h0.7c0.3,0,0.6,0.1,0.8,0.4c0.2,0.2,0.3,0.5,0.3,0.9v1.3c0,0.3-0.1,0.6-0.3,0.9
			c-0.2,0.2-0.5,0.4-0.8,0.4h-0.7v0.8H51z M51,53.8v-2.4h-0.7c-0.3,0-0.5,0.2-0.5,0.5v1.3c0,0.3,0.2,0.5,0.5,0.5H51z M51.7,51.4v2.4
			h0.7c0.3,0,0.5-0.2,0.5-0.5v-1.3c0-0.3-0.2-0.5-0.5-0.5H51.7z"/>
		<path class="st0" d="M45.3,51.2c0-0.3,0.1-0.6,0.3-0.9c0.2-0.2,0.5-0.3,0.8-0.4c0,0,0.4,0,0.4,0c0.3,0,0.6,0.1,0.8,0.4
			c0.2,0.2,0.3,0.5,0.3,0.9V54c0,0.3-0.1,0.6-0.3,0.9c-0.2,0.2-0.5,0.4-0.8,0.4c0,0-0.4,0-0.4,0c-0.3,0-0.6-0.1-0.8-0.4
			c-0.2-0.2-0.3-0.5-0.3-0.9V51.2z M46,54.1c0,0.3,0.2,0.5,0.4,0.5c0,0,0.4,0,0.4,0c0.3,0,0.5-0.2,0.5-0.5v-3c0-0.3-0.2-0.5-0.5-0.5
			c0,0-0.4,0-0.4,0c-0.3,0-0.5,0.2-0.5,0.5V54.1z"/>
		<path class="st0" d="M73.5,50l1,5.2h-0.6l-0.2-1h-1.2l-0.2,1h-0.7l1-5.2H73.5z M73.1,51.1l-0.5,2.5h0.9l-0.4-2L73.1,51.1z"/>
		<polygon class="st0" points="54.8,55.2 54.8,50 57.2,50 57.2,50.6 55.5,50.6 55.5,52.6 56.7,52.6 56.7,53.3 55.5,53.3 55.5,54.6 
			57.2,54.6 57.2,55.2 		"/>
	</g>
</g>
</svg>
