<?xml version="1.0" encoding="utf-8"?>
<!-- Generator: Adobe Illustrator 22.1.0, SVG Export Plug-In . SVG Version: 6.00 Build 0)  -->
<svg version="1.1" id="Layer_1" xmlns="http://www.w3.org/2000/svg" xmlns:xlink="http://www.w3.org/1999/xlink" x="0px" y="0px"
	 viewBox="0 0 120 60" style="enable-background:new 0 0 120 60;" xml:space="preserve">
<style type="text/css">
	.st0{fill:#000100;}
</style>
<g>
	<path class="st0" d="M92.6,33.8c0.8-0.5,1.8-1.8,1.1-2.8c-0.3,0.5-1.1,0.7-1.6,0.8c-0.5,0.2-1.1,0.6-1.6,0.7c0-0.4-0.1-0.9-0.4-1.2
		c-0.6,0.5-0.4,1.5-0.2,2.1c-0.9-0.4-1.5-1.6-1.6-2.5c-0.1-1,0.7-1.7,1.2-2.5c1.1-1.6,4.5-1.9,5.6-2c1.8-0.9,2.6-1.5,4.2-2
		c1.7-0.6,2.6-0.2,4.4-0.2c0.8,0,1.5,0,2.3,0.2c0.9,0.3,1.8,0.8,2.5,1.2c0.6,0.4,1,0.9,1.8,0.4c0.8-0.5,1-1.6,0.9-2.5
		c-0.1-1.7-1.4-2.8-1.9-4.2c-0.4-0.9-0.4-2.2,0.1-3.1c0.2-0.4,0.6-0.9,1.1-1c0.6-0.1,0.9,0.5,1.4,0.7c0.4,0.1,1.7,0.4,1.7,0.5
		c0,0.1-1.2,0.5-1.5,0.5c-0.7-0.1-1.3,0.6-1.3,1.4c0.1,1.1,0.8,2.1,1.4,3c1.3,2,0.9,4.1-0.4,5.9c-0.4,0.5-0.9,1.1-1.2,1.7
		c-0.2,0.5-0.1,0.9-0.1,1.4c0,0.4-0.1,0.8-0.2,1.2c-0.3,0.8-0.9,1.4-1.6,1.8c-1.4,1-2.9,0.6-4.4,0.4c-0.8-0.1-1.6-0.2-2.4-0.2
		c-0.9,0-1.7,0.2-2.6,0.5c-0.7,0.2-1.5,0.2-2.2,0.5c-0.6,0.3-1.1,1-1.4,1.6c-0.1,0.3-0.4,0.7-0.5,1c-0.1,0.4-0.1,0.8-0.2,1.2
		c-0.1,0.8-0.3,1.6-0.4,2.3c-0.1,0.3,0,0.8-0.1,1.1c-0.1,0.3-0.6,0.4-0.9,0.6c-0.6,0.4-1.1,0.9-1.8,1.1c-0.3,0.1-0.6,0.1-0.9,0.3
		c0.5-0.4,0.2-1.3,0.9-1.6c-0.3-1,0.9-0.9,1.2-1.3c0.4-0.5,0.6-1.6,0.7-2.2c0.3-0.9,0.4-1.9,0.4-2.8c0-0.5-0.1-0.9-0.1-1.4
		c0-0.5,0-0.5,0.5-0.6c0.6-0.2,1.8-0.5,2.2-1.1c-0.6,0.2-1.4,0.1-2.1,0.3c-0.6,0.2-1.4,0.8-2.1,0.4L92.6,33.8L92.6,33.8z M104,35.1
		c0.7,1,0.2,2.2,0.1,2.3c-0.2,0.3-0.4,0.6,1,1.5c1.7,1.1,3.5,1.9,4.9,3.4c0.3,0.3,0.9,0.6,1.1,0.8c0.3,0.5,0.1,0.9,0.7,1.2
		c0.3,0.1,0.6,0.2,0.8-0.1c0.3,0.6,1.9,0.2,2.4,0.4c0-0.2-0.1-0.5-0.2-0.6c-0.3-0.3-1.4-0.3-1.8-0.6c-0.5-0.3-0.8-0.8-1.1-1.2
		c-0.8-0.9-1.8-1.4-2.7-2.1c-1.2-0.9-2.6-1.4-3.2-2.5c-0.3-0.6,0-1.7,0-2.6c-0.5,0-1.4-0.1-1.9-0.3L104,35.1L104,35.1z M5,32.3V21.9
		h3.5c1.4,0,2.5,0.2,3.4,0.7c0.8,0.4,1.5,1.1,2,1.9c0.5,0.8,0.7,1.7,0.7,2.7c0,0.7-0.1,1.4-0.4,2c-0.3,0.6-0.6,1.2-1.1,1.7
		c-0.5,0.5-1.1,0.9-1.8,1.1c-0.4,0.1-0.7,0.3-1.1,0.3c-0.3,0.1-0.9,0.1-1.9,0.1L5,32.3C5,32.4,5,32.3,5,32.3z M8.4,23.2H6.5V31h1.9
		c0.7,0,1.3-0.1,1.7-0.1c0.4-0.1,0.7-0.2,1-0.4c0.3-0.2,0.5-0.4,0.8-0.6c0.7-0.7,1.1-1.7,1.1-2.8c0-1.1-0.4-2-1.1-2.8
		c-0.3-0.3-0.6-0.5-0.9-0.7c-0.4-0.2-0.7-0.3-1-0.3C9.6,23.3,9.1,23.2,8.4,23.2L8.4,23.2z M21.7,29h-4.8c0,0.7,0.3,1.2,0.6,1.6
		c0.4,0.4,0.9,0.6,1.6,0.6c0.9,0,1.7-0.3,2.5-0.8v1.3c-0.4,0.3-0.8,0.5-1.2,0.6c-0.4,0.1-0.9,0.2-1.4,0.2c-0.8,0-1.4-0.1-1.8-0.5
		c-0.5-0.3-0.9-0.8-1.1-1.3c-0.3-0.5-0.4-1.2-0.4-1.8c0-1,0.3-1.9,0.9-2.5c0.6-0.7,1.4-1,2.3-1c0.9,0,1.6,0.3,2.2,0.9
		c0.5,0.7,0.8,1.5,0.8,2.6L21.7,29L21.7,29L21.7,29z M16.9,28.2h3.4c0-0.5-0.2-1-0.5-1.2c-0.3-0.3-0.7-0.4-1.1-0.4
		c-0.5,0-0.9,0.1-1.2,0.4C17.2,27.2,17,27.7,16.9,28.2L16.9,28.2z M22.9,21.9h1.4v10.5h-1.4V21.9L22.9,21.9z M26.5,22.6
		c0.2,0,0.4,0.1,0.6,0.2c0.1,0.1,0.2,0.4,0.2,0.6c0,0.2-0.1,0.4-0.2,0.6c-0.1,0.1-0.4,0.2-0.6,0.2c-0.2,0-0.4-0.1-0.6-0.2
		c-0.1-0.1-0.2-0.4-0.2-0.6c0-0.2,0.1-0.4,0.2-0.6C26.1,22.7,26.3,22.6,26.5,22.6z M25.9,25.5h1.4v6.9h-1.4V25.5z M33,25.5h1.5l-3,7
		H31l-3.1-7h1.5l1.9,4.2L33,25.5z M40.7,29h-4.8c0,0.7,0.3,1.2,0.6,1.6c0.4,0.4,0.9,0.6,1.6,0.6c0.9,0,1.7-0.3,2.5-0.8v1.3
		c-0.4,0.3-0.8,0.5-1.2,0.6c-0.4,0.1-0.9,0.2-1.4,0.2c-0.8,0-1.4-0.1-1.8-0.5c-0.5-0.3-0.9-0.8-1.1-1.3c-0.3-0.5-0.4-1.2-0.4-1.8
		c0-1,0.3-1.9,0.9-2.5c0.6-0.7,1.4-1,2.3-1c0.9,0,1.6,0.3,2.2,0.9c0.5,0.7,0.8,1.5,0.8,2.6L40.7,29C40.7,29,40.7,29,40.7,29z
		 M35.9,28.2h3.4c0-0.5-0.2-1-0.5-1.2c-0.3-0.3-0.7-0.4-1.1-0.4s-0.9,0.1-1.2,0.4C36.2,27.2,36,27.7,35.9,28.2L35.9,28.2z
		 M43.3,25.5V27l0.1-0.1c0.6-1.1,1.3-1.6,2-1.6c0.5,0,1,0.3,1.6,0.8l-0.7,1.2c-0.5-0.4-0.9-0.7-1.3-0.7c-0.4,0-0.8,0.2-1.1,0.6
		c-0.3,0.4-0.5,0.9-0.5,1.5v3.6H42v-6.8H43.3L43.3,25.5z M52.2,25.5h1.5l-4.9,10.4h-1.5l2.3-5L47,25.5h1.5l1.9,3.9L52.2,25.5z
		 M67,22.7v0.9c-1.3-0.7-2.5-1-3.7-1c-1.3,0-2.4,0.4-3.2,1.3c-0.9,0.9-1.3,2-1.3,3.3c0,1.3,0.4,2.4,1.3,3.3c0.9,0.9,2,1.3,3.3,1.3
		c1.1,0,2.4-0.4,3.7-1.1v0.8c-1.2,0.7-2.4,1-3.7,1c-1.6,0-2.9-0.5-3.9-1.5c-1.1-1-1.6-2.3-1.6-3.8c0-1.5,0.5-2.8,1.6-3.9
		c1.1-1,2.4-1.5,3.9-1.5C64.5,21.8,65.7,22.1,67,22.7L67,22.7z M68.9,21.9v10.5h-0.7V21.9L68.9,21.9z M75.4,32.4v-1.1h0
		c-0.3,0.4-0.6,0.8-1,1c-0.3,0.2-0.8,0.3-1.3,0.3c-0.7,0-1.4-0.2-1.8-0.7c-0.5-0.5-0.7-1.2-0.7-2v-4.3h0.7v4.2
		c0,0.7,0.2,1.1,0.5,1.5c0.4,0.4,0.8,0.5,1.4,0.5c0.5,0,0.9-0.1,1.2-0.3c0.3-0.2,0.7-0.6,1-1.1v-4.8h0.7v6.9L75.4,32.4L75.4,32.4z
		 M77.7,32V21.9h0.7v4.6c0.7-0.7,1.6-1.1,2.5-1.1c0.9,0,1.6,0.3,2.2,0.9c0.6,0.6,0.9,1.4,0.9,2.4c0,1.2-0.4,2.1-1,2.8
		c-0.7,0.7-1.6,1-2.8,1C79.4,32.5,78.6,32.3,77.7,32z M78.5,27.3v4.2c0.6,0.2,1.1,0.3,1.7,0.3c0.9,0,1.6-0.3,2.2-0.9
		c0.6-0.6,0.9-1.3,0.9-2.2c0-0.8-0.2-1.5-0.7-2c-0.4-0.5-1-0.8-1.7-0.8C80,25.9,79.2,26.4,78.5,27.3z"/>
</g>
</svg>
