<?xml version="1.0" encoding="utf-8"?>
<!-- Generator: Adobe Illustrator 22.1.0, SVG Export Plug-In . SVG Version: 6.00 Build 0)  -->
<svg version="1.0" id="Layer_1" xmlns="http://www.w3.org/2000/svg" xmlns:xlink="http://www.w3.org/1999/xlink" x="0px" y="0px"
	 viewBox="0 0 120 60" style="enable-background:new 0 0 120 60;" xml:space="preserve">
<style type="text/css">
	.st0{fill-rule:evenodd;clip-rule:evenodd;fill:#FFFFFF;}
	.st1{fill-rule:evenodd;clip-rule:evenodd;fill:#E13A3E;}
	.st2{fill-rule:evenodd;clip-rule:evenodd;fill:#0078A9;}
</style>
<g>
	<path class="st0" d="M88.3,31.9c0.9-0.9,0.9-2.4,0-3.3L61.4,1.7c-0.9-0.9-2.4-0.9-3.3,0L31.7,28.1c-0.9,0.9-0.9,2.4,0,3.3
		l26.9,26.9c0.9,0.9,2.4,0.9,3.3,0L88.3,31.9L88.3,31.9z"/>
	<path class="st1" d="M59.4,29.5L46.5,42.4c-0.7,0.7-1.8,0.7-2.5,0L32.8,31.1c-0.7-0.7-0.7-1.8,0-2.5l12.9-12.9L59.4,29.5L59.4,29.5
		z"/>
	<path class="st1" d="M46.5,14.9l12-12c0.7-0.7,1.8-0.7,2.5,0l11.3,11.3c0.7,0.7,0.7,1.8,0,2.5l-12,12L46.5,14.9L46.5,14.9z"/>
	<path class="st2" d="M87.2,31.7c0.7-0.7,0.7-1.8,0-2.5L75.6,17.6c-0.7-0.7-1.8-0.7-2.5,0L47.4,43.3c-0.7,0.7-0.7,1.8,0,2.5L59,57.4
		c0.7,0.7,1.8,0.7,2.5,0L87.2,31.7L87.2,31.7z"/>
	<path class="st0" d="M49.2,45l1.4-1.4c1.2-1.2,2.9-1.5,4.6,0.2c1.4,1.4,1.5,3,0.4,4.1l-1.7,1.7L49.2,45L49.2,45z M53.7,46.9
		L53.7,46.9c0.5-0.5,0.6-1.1,0-1.7c-0.6-0.6-1.2-0.6-1.7-0.1l-0.1,0.1L53.7,46.9L53.7,46.9z"/>
	<path class="st0" d="M59.2,41.1c1.1,1.1,0.9,2.4,0.1,3.2c-0.8,0.8-2.2,1-3.2-0.1c-1.1-1.1-1-2.5-0.2-3.3
		C56.7,40.1,58,39.9,59.2,41.1L59.2,41.1z M57.2,43c0.3,0.3,0.6,0.3,0.8,0.1c0.2-0.2,0.2-0.5-0.1-0.8c-0.3-0.3-0.6-0.3-0.8-0.1
		C56.9,42.4,56.9,42.7,57.2,43L57.2,43z"/>
	<path class="st0" d="M59.7,38.4L59.7,38.4c-0.3-0.5-0.2-1.1,0.1-1.4c0.4-0.4,0.9-0.4,1.4-0.1l0,0c-0.3-0.6-0.3-1.1,0.1-1.5
		c0.6-0.6,1.5-0.3,2.2,0.4l2,2L64.4,39l-1.6-1.6c-0.2-0.2-0.4-0.4-0.6-0.2c-0.2,0.2,0.1,0.4,0.3,0.6l1.6,1.6l-1.2,1.2L61.2,39
		c-0.2-0.2-0.4-0.4-0.6-0.2c-0.2,0.2,0.1,0.4,0.3,0.6l1.6,1.6l-1.2,1.2L57.9,39l1.2-1.2L59.7,38.4L59.7,38.4z"/>
	<path class="st0" d="M62.9,34l1.3-1.3l3.3,3.3l-1.3,1.3L62.9,34L62.9,34z M63.3,31.6c0.5,0.5,0.4,1.1,0.1,1.5
		c-0.4,0.4-0.9,0.5-1.5-0.1c-0.5-0.5-0.5-1.1-0.1-1.5C62.2,31.2,62.8,31.2,63.3,31.6L63.3,31.6z"/>
	<path class="st0" d="M66.5,31.5L66.5,31.5c-0.1-0.6-0.1-1.1,0.3-1.5c0.6-0.6,1.5-0.3,2.2,0.4l2,2l-1.3,1.3l-1.6-1.6
		c-0.2-0.2-0.5-0.5-0.7-0.2c-0.2,0.2,0.1,0.5,0.2,0.7l1.6,1.6L68,35.4l-3.3-3.3l1.2-1.2L66.5,31.5L66.5,31.5z"/>
	<path class="st0" d="M73,27.3c1.1,1.1,0.9,2.4,0.1,3.2c-0.8,0.8-2.2,1-3.2-0.1c-1.1-1.1-1-2.5-0.2-3.3C70.5,26.2,71.8,26.1,73,27.3
		L73,27.3z M71,29.2c0.3,0.3,0.6,0.3,0.8,0.1c0.2-0.2,0.2-0.5-0.1-0.8c-0.3-0.3-0.6-0.3-0.8-0.1C70.7,28.5,70.8,28.9,71,29.2
		L71,29.2z"/>
	<polygon class="st0" points="72.3,25.8 70.6,23 71.8,21.8 73.2,24.9 72.3,25.8 	"/>
	<path class="st0" d="M75.1,25.8l0.1,0c0.3,0,0.7-0.1,0.9-0.3c0.1-0.1,0.1-0.2,0-0.4c-0.2-0.2-0.3,0-0.5,0.1
		c-0.5,0.3-1.1,0.5-1.7-0.1c-0.8-0.8-0.5-1.8,0.1-2.4c0.3-0.3,0.8-0.6,1.3-0.7l0.6,1.2c-0.3,0-0.6,0.1-0.9,0.3
		c-0.1,0.1-0.2,0.2,0,0.3c0.2,0.2,0.3,0,0.5-0.1c0.5-0.4,1.1-0.5,1.8,0.1c0.8,0.8,0.5,1.9-0.1,2.5c-0.4,0.4-1,0.7-1.6,0.8L75.1,25.8
		L75.1,25.8z"/>
	<path class="st0" d="M55.5,51.2l1.7-1.7c0.9-0.9,2.1-0.9,3.2,0.2c0.9,0.9,1.1,2,0.3,2.8L60,53.1l1.4,1.4l-1.3,1.3L55.5,51.2
		L55.5,51.2z M58.8,52l0.1-0.1c0.2-0.2,0.4-0.5,0.1-0.9c-0.4-0.4-0.7-0.1-0.9,0.1L58,51.2L58.8,52L58.8,52z"/>
	<path class="st0" d="M60.5,48.9l1.3-1.3l3.3,3.3l-1.3,1.3L60.5,48.9L60.5,48.9z M60.8,46.5c0.5,0.5,0.4,1.1,0.1,1.5
		c-0.4,0.4-0.9,0.5-1.5-0.1c-0.5-0.5-0.5-1.1-0.1-1.5C59.8,46.1,60.4,46.1,60.8,46.5L60.8,46.5z"/>
	<polygon class="st0" points="65.8,46.8 66,47.5 66,47.5 66.2,47.2 67,46.5 68.2,47.7 65.4,50.5 65.2,50.2 64.5,48 64.4,47.4 
		64.4,47.4 64.2,47.7 63.5,48.3 62.3,47.1 65,44.4 65.2,44.6 65.8,46.8 	"/>
	<polygon class="st0" points="68.8,43.8 68.9,44.5 69,44.5 69.2,44.2 69.9,43.5 71.2,44.7 68.4,47.5 68.2,47.3 67.5,45 67.4,44.4 
		67.4,44.4 67.1,44.7 66.5,45.3 65.3,44.1 68,41.4 68.1,41.6 68.8,43.8 	"/>
	<path class="st0" d="M73,42L73,42c0,0.6,0,1-0.3,1.3c-0.7,0.7-2,0.2-2.8-0.6c-0.8-0.8-1.3-2.1-0.6-2.8c0.3-0.3,0.7-0.4,1.2-0.3l0,0
		l-0.4-0.3l1.2-1.2l3.3,3.3l-1.2,1.2L73,42L73,42z M72,41.6c0.2-0.2,0.1-0.6-0.2-0.8c-0.3-0.3-0.6-0.3-0.8-0.1
		c-0.2,0.2-0.1,0.5,0.1,0.8C71.4,41.7,71.7,41.8,72,41.6L72,41.6z"/>
	<path class="st0" d="M71,35c0.5-0.5,1.2-0.6,1.8-0.1c0.6,0.5,0.5,1.3,0.1,1.8c-0.5,0.5-1.2,0.6-1.8,0.1C70.5,36.3,70.5,35.5,71,35
		L71,35z M72.7,36.5c0.4-0.4,0.3-1-0.1-1.4c-0.4-0.4-1-0.3-1.4,0c-0.4,0.4-0.3,1,0.1,1.4C71.7,37,72.3,36.9,72.7,36.5L72.7,36.5z
		 M71.1,35.8l0.4-0.4c0.2-0.3,0.5-0.3,0.7-0.1c0.2,0.2,0.2,0.4,0,0.5l0.7,0.1l-0.2,0.2L72,36l-0.1,0.1l0.5,0.4l-0.2,0.2L71.1,35.8
		L71.1,35.8z M71.7,35.9l0.2-0.2c0.1-0.1,0.2-0.2,0-0.3c-0.1-0.1-0.2,0-0.3,0.1l-0.2,0.2L71.7,35.9L71.7,35.9z"/>
	<path class="st0" d="M42.8,32.6c1.3-1.3,1.3-3.4,0-4.6c-1.3-1.3-3.4-1.3-4.6,0c-1.3,1.3-1.3,3.4,0,4.6
		C39.5,33.9,41.6,33.9,42.8,32.6L42.8,32.6z"/>
	<path class="st0" d="M52.7,32.6c1.3-1.3,1.3-3.4,0-4.6c-1.3-1.3-3.4-1.3-4.6,0c-1.3,1.3-1.3,3.4,0,4.6
		C49.3,33.9,51.4,33.9,52.7,32.6L52.7,32.6z"/>
	<path class="st0" d="M62.3,17.6c1.3-1.3,1.3-3.4,0-4.6c-1.3-1.3-3.4-1.3-4.6,0c-1.3,1.3-1.3,3.4,0,4.6C58.9,18.9,61,18.9,62.3,17.6
		L62.3,17.6z"/>
</g>
</svg>
