<?xml version="1.0" encoding="utf-8"?>
<!-- Generator: Adobe Illustrator 22.1.0, SVG Export Plug-In . SVG Version: 6.00 Build 0)  -->
<svg version="1.0" id="Layer_1" xmlns="http://www.w3.org/2000/svg" xmlns:xlink="http://www.w3.org/1999/xlink" x="0px" y="0px"
	 viewBox="0 0 120 60" style="enable-background:new 0 0 120 60;" xml:space="preserve">
<style type="text/css">
	.st0{fill:#C8102E;}
</style>
<g>
	<path class="st0" d="M7.9,26.2v7.7H6v-2.8H2.9v2.9H1v-7.7h1.9v3.1H6v-3.1L7.9,26.2L7.9,26.2z M29.8,33.9h-1.9v-3.8l-1.7,2.6h-1.1
		L23.4,30v3.9h-1.9v-7.7h1.4l2.7,4.1l2.7-4.1h1.4L29.8,33.9L29.8,33.9z M14.7,25.9c-3,0-5.5,2.3-5.5,5.2c0,1,0.3,2,0.8,2.8h2.6
		c-0.8-0.6-1.3-1.6-1.3-2.7c0-1.8,1.5-3.3,3.3-3.3s3.3,1.5,3.3,3.3c0,1.1-0.5,2-1.3,2.7h2.6c0.5-0.8,0.8-1.8,0.8-2.8
		C20.2,28.2,17.8,25.9,14.7,25.9L14.7,25.9z"/>
	<path class="st0" d="M12.9,32c0.3,0.8,0.9,1.3,1.8,1.3c0.8,0,1.5-0.5,1.8-1.3C16.5,32,12.9,32,12.9,32z M33.3,27.9v1.4h3.4v1.6
		h-3.4v1.3h3.9v1.6h-5.8v-7.7h5.8v1.6L33.3,27.9L33.3,27.9z M93.8,31.8c0,1.3-1,2.1-2.7,2.1h-3.9v-7.7h3.7c1.7,0,2.6,0.8,2.6,2
		c0,0.7-0.4,1.5-1.1,1.7C93.3,30.2,93.8,31,93.8,31.8L93.8,31.8z M89.1,27.8v1.6h1.4c0.7,0,1.1-0.4,1.1-0.8c0-0.5-0.4-0.7-1.1-0.7
		L89.1,27.8C89.1,27.8,89.1,27.8,89.1,27.8z M91.9,31.5c0-0.5-0.4-0.7-1.1-0.7h-1.8v1.5h1.7C91.6,32.3,91.9,32,91.9,31.5z
		 M99.7,32.6h-3.2l-0.5,1.3h-2l3.2-7.7H99l3.2,7.7h-2C100.2,33.9,99.7,32.6,99.7,32.6z M99.1,31l-1-2.6L97,31H99.1L99.1,31z
		 M109.9,26.2v7.7h-1.5l-3.7-4.2v4.2h-1.9v-7.7h1.5l3.7,4.3v-4.3H109.9z M114.5,31.1l-1.1,1.3v1.6h-1.9v-7.7h1.9v3.5l3.1-3.5h2.3
		l-2.9,3.4l3.2,4.3h-2.4L114.5,31.1z M55.1,33.9l-1.5-2.2h-1.4v2.2h-1.9v-7.7h3.4c1.9,0,3.2,1,3.2,2.7c0,1-0.5,1.8-1.3,2.3l1.8,2.7
		C57.3,33.9,55.1,33.9,55.1,33.9z M52.2,30h1.4c0.7,0,1.3-0.4,1.3-1c0-0.6-0.6-1-1.3-1h-1.4V30z M60.1,27.9v1.4h3.4v1.6h-3.4v1.3H64
		v1.6h-5.8v-7.7H64v1.6L60.1,27.9L60.1,27.9z M72.5,30.1c0,2.3-1.7,3.9-4.1,3.9h-3.1v-7.7h3.1C70.8,26.2,72.5,27.8,72.5,30.1z
		 M70.6,30.1c0-1.2-0.9-2.1-2.2-2.1h-1.2v4.2h1.2C69.6,32.2,70.6,31.3,70.6,30.1z M75.4,26.2v7.7h-1.9v-7.7L75.4,26.2z M82.7,28
		h-2.2v6h-1.9v-6h-2.2v-1.7h6.3V28z M47.1,31.2c-0.3,0.7-0.9,1.1-1.8,1.1c-1.2,0-2.1-0.9-2.1-2.2c0-1.3,0.9-2.2,2.1-2.2
		c0.8,0,1.5,0.4,1.8,1.1h2c-0.4-1.8-1.8-2.9-3.8-2.9c-2.3,0-4.1,1.7-4.1,4c0,2.3,1.8,4,4.1,4c1.9,0,3.4-1.2,3.8-2.9
		C49.2,31.2,47.1,31.2,47.1,31.2z"/>
</g>
</svg>
