<?xml version="1.0" encoding="utf-8"?>
<!-- Generator: Adobe Illustrator 22.1.0, SVG Export Plug-In . SVG Version: 6.00 Build 0)  -->
<svg version="1.0" id="Layer_1" xmlns="http://www.w3.org/2000/svg" xmlns:xlink="http://www.w3.org/1999/xlink" x="0px" y="0px"
	 viewBox="0 0 120 60" style="enable-background:new 0 0 120 60;" xml:space="preserve">
<style type="text/css">
	.st0{fill:none;}
	.st1{fill:#FF4133;}
	.st2{fill:#F1F1F1;}
</style>
<g transform="translate(5 6)">
	<path d="M0.1,14.8c-0.1,0-0.2,0.1-0.2,0.2c0,0,0,0,0,0v2.9h-3.2V15c0-0.1-0.1-0.2-0.2-0.2h-1.3C-4.9,14.8-5,14.9-5,15v7.6
		c0,0.1,0.1,0.2,0.2,0.2h1.3c0.1,0,0.2-0.1,0.2-0.2v-3h3.2v3c0,0.1,0.1,0.2,0.2,0.2h1.3c0.1,0,0.2-0.1,0.2-0.2V15
		c0-0.1-0.1-0.2-0.2-0.2H0.1z M4.3,14.8c-0.1,0-0.2,0.1-0.2,0.2c0,0,0,0,0,0v7.6c0,0.1,0.1,0.2,0.2,0.2h4.6c0.1,0,0.2-0.1,0.2-0.2
		v-1.2c0-0.1-0.1-0.2-0.2-0.2c0,0,0,0,0,0H5.8v-1.6h2.6c0.1,0,0.2-0.1,0.2-0.2v-1.2c0-0.1-0.1-0.2-0.2-0.2H5.8v-1.4h3.1
		c0.1,0,0.2-0.1,0.2-0.2V15c0-0.1-0.1-0.2-0.2-0.2H4.3L4.3,14.8z M14.5,14.7h0.1c0.1,0,0.2,0.1,0.2,0.1l3.1,6.9
		c-0.1,0-0.2,0.1-0.2,0.2c-0.2,0.2-0.4,0.5-0.5,0.8c0,0,0,0,0,0h-0.1c-0.1-0.1-0.2-0.3-0.3-0.4c-0.2-0.1-0.3-0.2-0.5-0.2l-0.3-0.6
		h-3l-0.4,0.9c-0.1,0.1-0.2,0.3-0.4,0.3H11c-0.2,0-0.3-0.1-0.2-0.3l3.5-7.7C14.3,14.8,14.4,14.7,14.5,14.7L14.5,14.7z M14.6,18.2
		L13.7,20h1.7L14.6,18.2L14.6,18.2L14.6,18.2z M20.2,14.8C20,14.8,20,14.9,20,15v7.1c0,0,0.1,0,0.1,0l0,0h0c0.3,0,0.6,0.2,0.7,0.4
		c0,0.1,0.1,0.2,0.1,0.3H21c0.1-0.4,0.3-0.8,0.5-1.1c0.1-0.2,0.3-0.4,0.6-0.6h-0.4v-4.7h1.1c0.7,0,1.3,0.3,1.7,0.9
		c0.1,0,0.3,0,0.4,0c0.3,0,0.6,0.2,0.7,0.5c0.1,0.2,0.1,0.4,0.1,0.6c-0.1,0.7-0.2,1.4-0.2,2c0,0.5-0.1,1-0.1,1.5
		c0.9-0.8,1.4-1.9,1.4-3.1c0-2.2-1.8-4-3.9-4C22.9,14.8,20.2,14.8,20.2,14.8z M28.4,17c0,1.4,1.2,2.1,2.2,2.5
		c0.8,0.3,1.1,0.7,1.1,1.2c0,0.4-0.3,0.7-0.8,0.7c-0.7,0-1.5-0.6-1.6-0.6c-0.1-0.1-0.3-0.1-0.4,0.1l-0.5,1c-0.1,0.2-0.1,0.2,0.1,0.3
		c0.3,0.3,1.1,0.9,2.5,0.9c1.6,0,2.6-1.2,2.6-2.4c0-1.6-1.4-2.3-2.2-2.6c-0.9-0.4-1.2-0.7-1.2-1.1c0-0.3,0.3-0.6,0.7-0.6
		c0.7,0,1.5,0.6,1.6,0.7c0.1,0.1,0.3,0,0.4-0.1l0.6-0.9c0-0.1,0.1-0.3-0.1-0.4c-0.3-0.3-1.2-0.9-2.4-0.9
		C29.3,14.7,28.4,15.8,28.4,17z M7.5,25.2c-0.1,0-0.2,0.1-0.2,0.2v2.9H4.1v-2.9c0-0.1-0.1-0.2-0.2-0.2H2.6c-0.1,0-0.2,0.1-0.2,0.2
		V33c0,0.1,0.1,0.2,0.2,0.2h1.3c0.1,0,0.2-0.1,0.2-0.2v-3h3.2v3c0,0.1,0.1,0.2,0.2,0.2h1.3C8.9,33.2,9,33.1,9,33v-7.6
		c0-0.1-0.1-0.2-0.2-0.2C8.8,25.2,7.5,25.2,7.5,25.2z M15.7,27.3L15.7,27.3l2.6,5.6c0.1,0.1,0,0.3-0.2,0.3h-1.2
		c-0.2,0-0.3-0.1-0.4-0.3L16.1,32h-3l-0.4,0.9c-0.1,0.1-0.2,0.3-0.4,0.3H11c-0.2,0-0.3-0.2-0.2-0.3l2.5-5.5c0.1,0.1,0.1,0.1,0.2,0.2
		l0,0c0.3,0.2,0.6,0.4,0.9,0.4c0.1,0,0.1,0,0.2,0l0,0C15,27.9,15.4,27.7,15.7,27.3z M14.5,28.5l-0.8,1.9h1.7L14.5,28.5L14.5,28.5z
		 M25.9,25.2C25.9,25.2,25.9,25.2,25.9,25.2c-0.3,0.3-0.5,0.5-0.8,0.6l0,0c-0.1,0-0.2,0.1-0.3,0.1v3.5h0L21,25.7
		c-0.1,0.1-0.2,0.2-0.3,0.2c-0.2,0.1-0.4,0.2-0.7,0.1c-0.1,0-0.1,0-0.2,0l0,6.9c0,0.1,0.1,0.2,0.2,0.2h1.3c0.1,0,0.2-0.1,0.2-0.2
		v-4.3h0l4.4,4.6c0,0,0.1,0.1,0.1,0.1h0.2c0.1,0,0.2-0.1,0.2-0.2v-7.7c0-0.1-0.1-0.2-0.2-0.2C26.3,25.2,25.9,25.2,25.9,25.2z
		 M29.3,25.2H32c2.2,0,3.9,1.8,3.9,4c0,2.2-1.8,4-3.9,4h-2.7c-0.1,0-0.2-0.1-0.2-0.2v-7.6C29.1,25.3,29.2,25.2,29.3,25.2z
		 M30.9,26.8v4.7h1.1c1.3,0,2.2-1,2.2-2.3c0-1.3-0.9-2.3-2.2-2.3H30.9z M37.6,27.3c0,1.4,1.2,2.1,2.2,2.5c0.8,0.3,1.1,0.7,1.1,1.2
		c0,0.4-0.3,0.7-0.8,0.7c-0.7,0-1.5-0.6-1.6-0.6c-0.1-0.1-0.3-0.1-0.4,0.1l-0.5,1c-0.1,0.2-0.1,0.2,0.1,0.3c0.3,0.3,1.1,0.9,2.5,0.9
		c1.6,0,2.6-1.2,2.6-2.4c0-1.5-1.4-2.2-2.3-2.6c-0.9-0.4-1.2-0.7-1.2-1.1c0-0.3,0.3-0.6,0.7-0.6c0.7,0,1.5,0.6,1.6,0.7
		c0.1,0.1,0.3,0,0.4-0.1l0.6-0.9c0-0.1,0.1-0.3-0.1-0.4c-0.3-0.3-1.2-0.9-2.4-0.9C38.4,25.1,37.6,26.2,37.6,27.3L37.6,27.3z"/>
	<path d="M14.2,22.7c0.2-0.2,0.5-0.3,0.9-0.3c0,0,0.1,0,0.1,0c0.1,0,0.3,0.1,0.4,0.2c0.1,0.1,0.2,0.2,0.3,0.3
		c0.1-0.1,0.2-0.2,0.3-0.2c0.1,0,0.2,0,0.4,0c0.1,0,0.2,0.1,0.3,0.2c0.1,0.1,0.1,0.2,0.1,0.4c0,0.2-0.1,0.4-0.1,0.7
		c0,0.3-0.1,0.6-0.1,0.8c0,0.3,0,0.5,0,0.7c0,0.2,0.1,0.3,0.2,0.3c0.1,0,0.1-0.1,0.2-0.3c0.1-0.2,0.2-0.4,0.3-0.6
		c0.1-0.2,0.2-0.5,0.2-0.7c0.1-0.2,0.1-0.4,0.1-0.5c0-0.1,0.1-0.2,0.2-0.2c0.1,0,0.1-0.1,0.2-0.1c0.1,0,0.1,0,0.2,0.1
		c0,0.1,0.1,0.1,0,0.2c0,0.1-0.1,0.2-0.1,0.4c0,0.2-0.1,0.4-0.2,0.6c-0.1,0.2-0.2,0.5-0.3,0.7c-0.1,0.2-0.2,0.5-0.3,0.7
		c-0.1,0.2-0.3,0.3-0.4,0.5c-0.2,0.1-0.3,0.2-0.5,0.1c-0.3,0-0.5-0.2-0.7-0.5c-0.1,0.3-0.2,0.5-0.3,0.7c-0.1,0.2-0.3,0.4-0.6,0.5
		c-0.2,0.1-0.4,0.2-0.6,0.1c-0.3,0-0.5-0.2-0.7-0.5c-0.2-0.3-0.3-0.6-0.4-1c-0.1-0.4-0.1-0.8,0-1.2c0-0.4,0.2-0.8,0.3-1.2
		C13.7,23.3,13.9,23,14.2,22.7L14.2,22.7z M14.3,26.6c0.1,0.2,0.2,0.3,0.3,0.3c0.1,0,0.3-0.1,0.4-0.3c0.1-0.2,0.2-0.4,0.3-0.7
		c0.1-0.3,0.2-0.6,0.2-0.9c0-0.3,0.1-0.6,0-0.9c0-0.2-0.1-0.3-0.1-0.5c-0.1-0.2-0.1-0.3-0.3-0.3c-0.2,0-0.3,0.1-0.4,0.3
		c-0.1,0.2-0.2,0.4-0.3,0.7c-0.1,0.3-0.1,0.6-0.2,0.9c0,0.3,0,0.6,0,0.9C14.2,26.2,14.3,26.4,14.3,26.6z"/>
	<path d="M18.5,22.1c-0.2,0-0.3,0.1-0.4,0.2c-0.1,0.1-0.2,0.3-0.3,0.5c0,0.2-0.1,0.5-0.1,0.7c0,0.3,0,0.5,0,0.8l0,0.8
		c0,0.3,0,0.5,0,0.7c0,0.2,0,0.3,0.2,0.3c0.1,0.1,0.2,0.1,0.4,0.1c0.1,0,0.3-0.1,0.4-0.2c0.1-0.1,0.2-0.2,0.2-0.3
		c0-0.2,0-0.3,0.1-0.5c0-0.2,0.1-0.4,0.1-0.6c0.1-0.2,0.1-0.3,0.2-0.5c0.1-0.1,0.1-0.2,0.2-0.2c0,0.1,0,0.2,0,0.4c0,0.2,0,0.4,0,0.6
		c0,0.2,0.1,0.4,0.2,0.5c0.1,0.1,0.3,0.2,0.6,0.2c0.2,0,0.4-0.1,0.5-0.4c0.2-0.2,0.4-0.5,0.5-0.7c0.2-0.3,0.3-0.5,0.4-0.8
		c0.1-0.3,0.2-0.5,0.2-0.6c0-0.1,0-0.2,0-0.2c0,0-0.1-0.1-0.2-0.1c-0.1,0-0.1,0-0.2,0.1c-0.1,0-0.1,0.1-0.1,0.2
		c0,0.1-0.1,0.3-0.2,0.5c-0.1,0.2-0.2,0.4-0.3,0.6c-0.1,0.2-0.2,0.3-0.3,0.5c-0.1,0.1-0.2,0.2-0.2,0.2c0,0-0.1-0.1-0.1-0.2
		c0-0.2,0-0.4,0-0.5c0-0.2,0-0.4,0-0.6c0-0.2,0.1-0.4,0.1-0.5c0.1-0.1,0-0.3,0-0.3c-0.1-0.1-0.2-0.1-0.3-0.1c-0.1,0-0.3,0.1-0.4,0.1
		c-0.1,0.1-0.2,0.2-0.3,0.3c-0.1,0.2-0.2,0.4-0.3,0.6c-0.1,0.2-0.2,0.5-0.3,0.8c0-0.1,0-0.3,0-0.4c0-0.2,0-0.3,0.1-0.5
		c0-0.2,0.1-0.4,0.1-0.6c0-0.2,0.1-0.4,0.1-0.5c0-0.2,0-0.3-0.1-0.3c-0.1,0-0.2-0.1-0.2-0.1C18.6,22.1,18.5,22.1,18.5,22.1z"/>
	<g>
		<path id="a" d="M24.8,17.8c0.1,0,0.3,0,0.4,0.1c0.1,0.1,0.2,0.2,0.1,0.4c0,0.1-0.1,0.4-0.1,0.7c0,0.4-0.1,0.8-0.1,1.3
			c-0.1,0.5-0.1,1-0.1,1.5c0,0.5-0.1,0.9-0.1,1.4c0,0.4,0,0.8,0,1c0,0.3,0.1,0.4,0.2,0.4c0.1,0,0.2-0.1,0.3-0.3
			c0.1-0.2,0.2-0.4,0.3-0.7c0.1-0.3,0.2-0.5,0.2-0.7c0.1-0.2,0.1-0.4,0.1-0.5c0-0.1,0.1-0.2,0.1-0.2c0.1,0,0.1-0.1,0.2-0.1
			s0.1,0,0.2,0.1c0,0.1,0.1,0.1,0,0.3c0,0.2-0.1,0.4-0.1,0.6c-0.1,0.3-0.2,0.7-0.3,1c-0.1,0.3-0.3,0.7-0.6,1
			c-0.2,0.3-0.5,0.5-0.8,0.5c-0.2,0-0.4,0-0.5-0.2c-0.1-0.2-0.2-0.4-0.3-0.7c-0.1,0.2-0.2,0.4-0.3,0.6c-0.1,0.2-0.3,0.3-0.5,0.4
			c-0.2,0.1-0.4,0.2-0.6,0.1c-0.3,0-0.5-0.2-0.7-0.4c-0.2-0.2-0.3-0.5-0.4-0.9c-0.1-0.4-0.1-0.7,0-1.1c0-0.4,0.2-0.7,0.3-1.1
			c0.2-0.3,0.4-0.6,0.6-0.8c0.3-0.2,0.6-0.3,1-0.3c0.2,0,0.4,0.1,0.5,0.3c0-0.6,0.1-1.2,0.2-1.7c0.1-0.5,0.1-0.9,0.1-1.2
			c0-0.3,0.1-0.5,0.2-0.6C24.5,17.9,24.6,17.8,24.8,17.8C24.8,17.8,24.8,17.8,24.8,17.8z M22.5,24.9c0.1,0.2,0.2,0.2,0.3,0.2
			c0.1,0,0.3-0.1,0.4-0.2c0.1-0.2,0.2-0.4,0.3-0.6c0.1-0.3,0.2-0.5,0.2-0.8c0.1-0.3,0.1-0.5,0-0.8c0-0.1-0.1-0.3-0.1-0.4
			C23.6,22,23.5,22,23.4,22c-0.2,0-0.3,0.1-0.4,0.2c-0.1,0.2-0.2,0.4-0.3,0.6c-0.1,0.2-0.1,0.5-0.2,0.8c0,0.3-0.1,0.5,0,0.8
			S22.4,24.7,22.5,24.9L22.5,24.9z"/>
	</g>
</g>
<g id="Петрович_Logo_7_">
	<g id="img_logo_authorization_7_" transform="translate(-4.000000, -8.000000)">
		<rect id="Rectangle_7_" x="64.3" y="29.2" class="st0" width="59.7" height="17.7"/>
		<path id="img_logo_splash_7_" class="st1" d="M93.9,35.6c0.3,0.3,0.5,0.7,0.5,1c0.1,0.4-0.1,1-0.5,1.6c-0.4,0.7-0.9,1.3-1.4,1.8
			c-0.6,0.5-1,0.8-1.3,0.8c-0.3,0-0.6-0.3-1-0.9c-0.1,0.6-0.3,1.1-0.3,1.7L89.6,43c-0.1,0.4-0.1,0.6-0.2,0.8
			c-0.1,0.2-0.2,0.3-0.4,0.3c-0.1,0-0.2,0-0.3-0.1c-0.1,0-0.3-0.1-0.4-0.1c-0.3-0.1-0.4-0.1-0.6-0.2c-0.1-0.1-0.2-0.2-0.2-0.3
			c0-0.1,0-0.3,0-0.4c0-0.2,0.1-0.6,0.3-1.3c0.2-0.7,0.4-1.4,0.6-2.1c0.2-0.7,0.4-1.7,0.7-3c-0.3-0.1-0.6-0.5-0.7-1.1
			c0-0.2,0.1-0.4,0.3-0.5c0.3-0.1,0.6-0.3,1-0.3c0.4-0.1,0.8-0.1,1.2-0.1c0.6,0,1.2,0.1,1.7,0.3C93.2,35,93.6,35.2,93.9,35.6
			L93.9,35.6z M92.2,37.5c0.3-0.3,0.4-0.6,0.3-0.9c-0.1-0.4-0.4-0.5-0.9-0.5c-0.1,0-0.2,0-0.3,0c-0.2,0-0.4,0.1-0.5,0.1
			c-0.1,0.1-0.2,0.2-0.2,0.3c0,0.1-0.1,0.4-0.2,0.9c-0.1,0.7-0.2,1.3-0.3,1.7c0.4-0.1,0.7-0.3,1.2-0.6
			C91.6,38.2,91.9,37.8,92.2,37.5L92.2,37.5z M107.6,38c-0.3,0.5-0.8,0.9-1.3,1.1c0.3,0.2,0.6,0.4,0.7,0.7c0.2,0.2,0.3,0.5,0.3,0.7
			c0.1,0.4,0,0.9-0.3,1.5c-0.3,0.6-0.7,1.1-1.2,1.5c-0.5,0.4-1,0.6-1.4,0.6c-0.5,0-0.9-0.3-1.4-0.8c-0.1,0.3-0.2,0.5-0.2,0.7
			c-0.1,0.1-0.2,0.2-0.3,0.2c-0.1,0-0.2-0.1-0.4-0.2c-0.2-0.1-0.4-0.3-0.6-0.4c-0.2-0.2-0.3-0.3-0.3-0.3c0-0.2,0-0.5,0.1-0.8
			c0.1-0.3,0.3-0.7,0.4-1.1c0.2-0.4,0.3-1,0.5-1.8c0.2-0.8,0.3-1.7,0.5-2.8c-0.3-0.1-0.6-0.2-0.8-0.4c-0.2-0.2-0.3-0.5-0.4-0.7
			c0-0.2,0.1-0.4,0.4-0.5c0.3-0.1,0.7-0.2,1.4-0.3c0.6-0.1,1.1-0.2,1.5-0.2c0.8,0,1.6,0.2,2.1,0.6c0.6,0.4,0.9,0.9,1.1,1.5
			C108,37,107.9,37.5,107.6,38L107.6,38z M105.2,41.3c0.2-0.3,0.3-0.7,0.2-1c-0.1-0.4-0.4-0.6-1-0.6c-0.2,0-0.5,0-0.8,0.1
			c-0.1,0.4-0.2,0.7-0.3,1.1c-0.1,0.4-0.3,0.9-0.4,1.6c0.4,0,0.9-0.1,1.3-0.3C104.7,41.9,105,41.6,105.2,41.3L105.2,41.3z
			 M106.1,37.2c0.2-0.3,0.3-0.5,0.2-0.7c0-0.2-0.2-0.3-0.3-0.5c-0.2-0.1-0.4-0.2-0.8-0.2c-0.4,0-0.8,0.1-1.1,0.2
			c0.2,0.1,0.3,0.3,0.3,0.4c0,0.3,0,1-0.2,2.2c0.4-0.1,0.7-0.3,1.1-0.6C105.6,37.7,105.9,37.5,106.1,37.2L106.1,37.2z M100.3,36.1
			c0.2,0.4,0.3,0.8,0.4,1.3c0.2,1.1,0.2,2.2-0.1,3.2c-0.3,1-0.8,1.9-1.4,2.5c-0.6,0.6-1.3,0.9-2,0.9c-0.3,0-0.6-0.1-1-0.3
			c-0.4-0.2-0.7-0.4-1-0.8c-0.3-0.4-0.5-0.8-0.6-1.4c-0.2-0.9-0.2-1.8,0-2.7c0.2-0.9,0.5-1.6,0.9-2.3c0.4-0.7,0.8-1.2,1.2-1.6
			c0.4-0.4,0.7-0.6,1-0.6c0.1,0,0.3,0.1,0.6,0.3c0.2,0.2,0.5,0.4,0.6,0.6c0.1,0,0.2-0.1,0.3-0.2c0.1-0.1,0.2-0.1,0.3-0.1
			c0.1,0,0.2,0.1,0.4,0.3C100,35.5,100.1,35.8,100.3,36.1L100.3,36.1z M99.3,39c0.1-0.6,0.1-1.2,0-1.8c-0.1-0.7-0.4-1.1-0.7-1.1
			c-0.2,0-0.5,0.2-0.8,0.5c-0.3,0.4-0.6,0.8-0.8,1.4c-0.3,0.6-0.4,1.2-0.6,1.9c-0.1,0.7-0.1,1.3,0,2c0.1,0.3,0.1,0.5,0.3,0.6
			c0.1,0.2,0.2,0.2,0.3,0.2c0.3,0,0.5-0.2,0.8-0.5c0.3-0.3,0.6-0.8,0.9-1.4C99,40.2,99.2,39.6,99.3,39L99.3,39z M75.8,35.2
			c-0.1-0.3,0.4-0.6,1.3-0.7c0.9-0.1,1.8-0.2,2.5-0.2c0.3,0,0.6,0.1,0.8,0.2c0.2,0.1,0.4,0.4,0.6,0.8c0.1,0.2,0.2,0.4,0.2,0.5
			c0,0.1-0.1,0.2-0.2,0.2l-0.1,0l-0.1,0c-0.6,0-1-0.1-1.1-0.1c-0.4,0-0.7,0-0.8,0c-0.1,0-0.3,0.1-0.3,0.2c-0.1,0.1-0.2,0.3-0.3,0.7
			c-0.3,0.7-0.5,1.2-0.6,1.7c0.5-0.1,1-0.1,1.4-0.1c0.5,0,0.8,0.1,0.9,0.3c0,0,0,0.1,0,0.1l0,0.1c0,0.1,0,0.2,0,0.3
			c0,0.2,0,0.3,0,0.3c0,0.1-0.2,0.1-0.3,0.1c-0.2,0-0.5,0-1,0l-1.2,0c-0.1,0.4-0.3,0.8-0.4,1.4c-0.1,0.6-0.2,1-0.1,1.2
			c0,0.1,0.1,0.1,0.1,0.2c0,0,0.1,0.1,0.3,0.1c0.6,0,1,0,1.3-0.1c0.3-0.1,0.5-0.1,0.8-0.2c0.3-0.1,0.5-0.1,0.7-0.1
			c0.1,0,0.2,0.1,0.3,0.3c0.1,0.4,0.1,0.6,0,0.7c0,0.1-0.1,0.2-0.3,0.3c-0.3,0.1-0.8,0.2-1.5,0.4c-0.7,0.1-1.2,0.2-1.8,0.2
			c-0.3,0-0.7-0.1-1-0.2c-0.4-0.2-0.6-0.5-0.7-1c-0.1-0.5,0-1.3,0.3-2.5c0.3-1.2,0.5-2,0.8-2.6l0.6-1.5c-0.2,0-0.4-0.1-0.5-0.3
			C75.9,35.9,75.8,35.6,75.8,35.2L75.8,35.2z M109.9,43.2c-0.2,0.2-0.3,0.4-0.4,0.5c-0.1,0.1-0.2,0.1-0.3,0.1
			c-0.2,0-0.4-0.1-0.7-0.3c-0.3-0.2-0.5-0.4-0.5-0.5c0-0.2,0-0.7,0.2-1.5c0.2-0.8,0.5-2.4,1.2-4.8c0,0,0.1-0.3,0.2-0.8
			c0.1-0.5,0.2-0.9,0.3-1.1c0.1-0.3,0.2-0.4,0.4-0.4c0.1,0,0.2,0.1,0.4,0.2c0.2,0.1,0.4,0.3,0.5,0.4c0.2,0.2,0.2,0.3,0.3,0.3
			c0,0.1,0,0.2,0,0.4c0,0.2-0.1,0.5-0.3,1c-0.1,0.5-0.3,1-0.4,1.5c-0.1,0.5-0.3,1.2-0.5,2c0.1-0.2,0.4-0.5,0.9-1.1
			c0.5-0.6,1.1-1.2,1.7-1.9c0.6-0.7,1.2-1.3,1.7-1.8c0.5-0.5,0.8-0.7,1-0.7c0.2,0,0.3,0.1,0.5,0.3c0.2,0.2,0.3,0.4,0.3,0.6
			c0,0.3-0.2,0.6-0.8,1.2c-0.3,0.9-0.5,1.8-0.6,2.6c-0.1,0.8-0.2,1.7-0.3,2.5c-0.1,0.9-0.1,1.4-0.1,1.7c0,0.3-0.1,0.4-0.3,0.4
			c-0.1,0-0.3-0.1-0.5-0.2c-0.2-0.1-0.4-0.3-0.6-0.4c-0.2-0.2-0.3-0.4-0.3-0.6c0-0.2,0-0.4,0-0.6c0-0.2,0-0.4,0.1-0.6
			c0-0.2,0.1-0.6,0.3-1.2l0.4-1.7c-0.3,0.4-0.6,0.7-0.8,1c-0.3,0.3-0.5,0.6-0.8,1l-0.9,1.1c-0.3,0.4-0.5,0.6-0.6,0.8
			C110.1,42.8,110,43,109.9,43.2L109.9,43.2z M122.6,35.5c0.2,0.1,0.3,0.3,0.3,0.4c0,0,0,0.2-0.1,0.4c-0.1,0.2-0.2,0.5-0.3,0.7
			c-0.2,0.7-0.4,1.2-0.5,1.7c-0.1,0.4-0.2,0.9-0.3,1.4c-0.1,0.5-0.2,1.3-0.3,2.2l0,0.7c0,0.4-0.1,0.7-0.1,0.9
			c-0.1,0.2-0.2,0.3-0.3,0.3c0,0-0.2-0.1-0.3-0.2c-0.2-0.1-0.3-0.2-0.5-0.3c-0.4-0.2-0.6-0.4-0.6-0.6c0-0.1,0-0.5,0.1-1
			c0.1-0.5,0.2-1,0.3-1.6c0.1-0.6,0.2-0.9,0.3-1.1c-0.3,0.1-0.6,0.2-1.1,0.3c-0.5,0.1-0.8,0.2-1,0.2c-0.3,0-0.6-0.2-0.9-0.5
			c-0.3-0.4-0.5-0.7-0.5-1c-0.1-0.3,0-0.8,0.2-1.4c0.2-0.7,0.4-1.3,0.7-1.8c0.3-0.6,0.4-0.8,0.6-0.8c0.1,0,0.2,0.1,0.4,0.2
			c0.2,0.1,0.3,0.3,0.5,0.4c0.2,0.2,0.2,0.3,0.3,0.3c0,0.1,0,0.1,0,0.2c0,0.1-0.1,0.2-0.1,0.3c-0.1,0.1-0.1,0.3-0.2,0.5
			c-0.1,0.3-0.2,0.6-0.3,1c-0.1,0.4-0.1,0.6-0.1,0.8c0,0.2,0.2,0.3,0.3,0.3c0.1,0,0.3,0,0.6-0.1c0.3-0.1,0.5-0.1,0.7-0.1l0.5-0.1
			c0.1-0.2,0.2-0.6,0.3-1.2c0.2-0.5,0.3-1,0.5-1.5c0.2-0.5,0.4-0.7,0.5-0.7c0,0,0.2,0.1,0.4,0.2C122.3,35.2,122.5,35.3,122.6,35.5
			L122.6,35.5z M75.2,33.7c-0.1,0.2-0.2,0.6-0.3,1.1c-0.3,1.3-0.8,3.2-0.9,4.1c-0.2,1.3-0.3,2.7-0.4,3.6c0,0.5-0.1,1-0.4,1.3
			c-0.2,0.2-0.4,0.3-0.7,0.4c-0.1,0.1-0.6-0.1-0.7-0.3c-0.5-1.4,0-3.9,0.6-6.8c0.3-1.2,0.4-1.7,0.5-2c0-0.2,0.1-0.4,0.1-0.6
			c0-0.1,0.1-0.4,0.1-0.6c0-0.2,0-0.4-0.1-0.4c-0.3,0.1-0.7,0.2-0.9,0.2c-0.2,0-1.3,0-1.8,0.4c-0.1,0.1-0.2,0.2-0.2,0.3
			c-0.1,0.5-0.1,0.9-0.2,1.4c0,0.3-0.1,0.4-0.1,0.7c-0.1,1-1,4.5-1.2,5.3c0.1,0.1-0.6,1.9-1.6,1.3c-0.5-0.9,0.1-3.3,0.4-4.2
			c0.2-1.5,0.7-3,0.9-4.3c-0.7,0.2-2.1,0.6-2.7,0.3c-0.3-0.2-0.3-0.5-0.1-1.1c0.3-0.7,1.3-0.9,1.9-1.1c1.8-0.7,3.2-1,4.2-1.1
			c1.4-0.2,3-0.2,4,0c0.4,0.1,0.7,0.3,0.7,0.4c0.1,0.2,0.1,0.6,0.1,0.8c-0.1,0.3-0.2,0.6-0.5,0.7C75.8,33.4,75.5,33,75.2,33.7
			L75.2,33.7L75.2,33.7z M83.8,44.1c-0.1,0-0.3,0-0.5-0.1c-0.2-0.1-0.4-0.2-0.6-0.3c-0.2-0.1-0.3-0.3-0.3-0.4c0-0.2,0-0.5,0.1-1.1
			c0.1-0.6,0.2-1.2,0.4-1.9c0.2-0.7,0.3-1.4,0.5-2.2c0.2-0.8,0.3-1.4,0.5-1.8c-0.9,0.1-1.4,0.1-1.5,0.1c-0.4,0-0.7-0.3-0.9-1
			c0-0.2,0.1-0.4,0.6-0.5c0.4-0.1,1.1-0.2,2.2-0.3c0.2,0,0.4,0,0.8-0.1c0.4,0,0.6,0,0.8-0.1c0.2,0,0.3,0,0.4,0
			c0.3,0,0.6,0.1,0.8,0.2c0.2,0.1,0.4,0.3,0.6,0.4c0.1,0.2,0.2,0.3,0.2,0.5c0,0.2,0,0.3-0.2,0.4c-0.2,0.1-0.5,0.1-1,0.1
			c-0.4,0-0.7,0.1-0.9,0.1c-0.4,1.3-0.7,2.5-0.9,3.5c-0.2,1-0.4,1.9-0.5,2.7c-0.1,0.8-0.2,1.4-0.2,1.5C84,44,83.9,44.1,83.8,44.1
			L83.8,44.1z"/>
	</g>
</g>
<rect x="54.1" y="10" class="st2" width="1" height="40"/>
</svg>
