<?xml version="1.0" encoding="utf-8"?>
<!-- Generator: Adobe Illustrator 22.1.0, SVG Export Plug-In . SVG Version: 6.00 Build 0)  -->
<svg version="1.0" id="Layer_1" xmlns="http://www.w3.org/2000/svg" xmlns:xlink="http://www.w3.org/1999/xlink" x="0px" y="0px"
	 viewBox="0 0 120 60" style="enable-background:new 0 0 120 60;" xml:space="preserve">
<style type="text/css">
	.st0{fill:#7EBF00;}
	.st1{fill:#C70536;}
</style>
<g>
	<path id="Fill-7" class="st0" d="M22.9,31.4c-1.3,0-2.3-1-2.3-2.3c0-1.3,1-2.3,2.3-2.3c1.3,0,2.3,1,2.3,2.3
		C25.2,30.3,24.2,31.4,22.9,31.4 M28,26.2l1.2-1.2l-2.4-2.4l-1.3,1.3c-0.8-0.3-1.6-0.5-2.5-0.5c-3.1,0-5.7,2.5-5.7,5.7
		c0,3.1,2.6,5.7,5.7,5.7c0.8,0,1.6-0.2,2.3-0.4v1.5c0,1.3-1,2.4-2.4,2.4c-1.1,0-2-0.8-2.3-1.8L18,39c1,1.7,2.9,2.7,4.9,2.7
		c3.2,0,5.8-2.6,5.8-5.9c0,0,0-3.7,0-6.7C28.7,28,28.5,27.1,28,26.2"/>
	<path id="Fill-9" class="st1" d="M93.7,27.1c-1.3,0-2.3,1-2.3,2.3c0,1.3,1,2.3,2.3,2.3c1.3,0,2.3-1,2.3-2.3
		C96.1,28.1,95,27.1,93.7,27.1 M96,24.1v-4.4h3.6c0,3.1,0,6.5,0,9.6c0,3.1-2.6,5.7-5.7,5.7S88,32.6,88,29.3c0-3.1,2.6-5.7,5.7-5.7
		C94.5,23.7,95.3,23.8,96,24.1"/>
	<path id="Fill-11" class="st1" d="M105.5,25.2C105.6,25.2,105.6,25.2,105.5,25.2L105.5,25.2L105.5,25.2c1.2,0.2,2.3,0.7,3,1.4
		c0.9,0.9,1.5,2.2,1.5,3.6c0,1.4-0.5,2.6-1.5,3.6c-0.9,0.9-2.2,1.5-3.6,1.5s-2.6-0.5-3.6-1.5c-0.3-0.3-0.5-0.5-0.7-0.9l2.7-2.7l0,0
		l0,0l0,0c0,0.4,0.2,0.8,0.4,1.1c0.3,0.3,0.7,0.4,1.1,0.4s0.8-0.2,1.1-0.4c0.3-0.3,0.4-0.7,0.4-1.1c0-0.4-0.2-0.8-0.4-1.1
		c-0.3-0.3-0.5-0.3-0.9-0.4c-0.1,0-0.1,0-0.2,0h-0.1l0,0l0,0l0,0l0,0c-1-0.2-1.9-0.6-2.6-1.3c-0.8-0.8-1.3-2-1.3-3.2
		c0-1.2,0.5-2.4,1.3-3.2c0.9-0.8,2-1.3,3.2-1.3c1.3,0,2.4,0.5,3.2,1.3c0.2,0.2,0.3,0.4,0.5,0.6l-2.6,2.6h-0.1c0-0.3-0.1-0.6-0.3-0.8
		c-0.2-0.2-0.4-0.3-0.8-0.3c-0.3,0-0.6,0.1-0.8,0.3c-0.2,0.2-0.3,0.4-0.3,0.8c0,0.3,0.1,0.6,0.3,0.8C105,25,105.2,25.1,105.5,25.2"
		/>
	<path id="Fill-13" class="st1" d="M11.7,20.4c0-0.6,0.2-1,0.6-1.5c0.4-0.4,1-0.6,1.5-0.6c0.6,0,1.1,0.2,1.5,0.6
		c0.4,0.4,0.6,0.9,0.6,1.5s-0.2,1-0.6,1.5c-0.4,0.4-0.9,0.6-1.5,0.6c-0.6,0-1-0.2-1.5-0.6C11.9,21.4,11.7,20.9,11.7,20.4"/>
	<polygon id="Fill-15" class="st1" points="15.6,23.9 15.6,34.7 12.1,34.7 12.1,27.3 10,27.3 10,23.9 15,23.9 	"/>
	<path class="st0" d="M58.3,19.2c-5.6,0-10.1,4.5-10.1,10.1s4.5,10.1,10.1,10.1s10.1-4.5,10.1-10.1S63.9,19.2,58.3,19.2z M58.3,33.3
		c-2.3,0-4.1-1.8-4.1-4c0-2.3,1.8-4,4.1-4c2.3,0,4.1,1.8,4.1,4C62.4,31.5,60.6,33.3,58.3,33.3z"/>
	<path class="st0" d="M38.6,20.9c-4.6,0-8.4,3.7-8.4,8.4s3.7,8.4,8.4,8.4s8.4-3.7,8.4-8.4S43.2,20.9,38.6,20.9z M38.6,32.6
		c-1.8,0-3.4-1.5-3.4-3.3c0-1.8,1.6-3.3,3.4-3.3c1.8,0,3.3,1.5,3.3,3.3S40.4,32.6,38.6,32.6z"/>
	<path class="st0" d="M78.2,20.9c-4.6,0-8.4,3.7-8.4,8.4s3.7,8.4,8.4,8.4s8.4-3.7,8.4-8.4S82.8,20.9,78.2,20.9z M78.2,32.6
		c-1.8,0-3.4-1.5-3.4-3.3c0.1-1.8,1.6-3.3,3.4-3.3s3.4,1.5,3.4,3.3S80.1,32.6,78.2,32.6z"/>
</g>
</svg>
