<?xml version="1.0" encoding="utf-8"?>
<!-- Generator: Adobe Illustrator 22.1.0, SVG Export Plug-In . SVG Version: 6.00 Build 0)  -->
<svg version="1.1" id="Layer_1" xmlns="http://www.w3.org/2000/svg" xmlns:xlink="http://www.w3.org/1999/xlink" x="0px" y="0px"
	 viewBox="0 0 120 60" style="enable-background:new 0 0 120 60;" xml:space="preserve">
<style type="text/css">
	.st0{fill:#231F20;}
</style>
<path class="st0" d="M89,21.3v3.4h-2.4v4.2H89v7.4c0,2.6,0.5,4.3,1.5,5.4c0.9,0.9,2.4,1.6,4.2,1.6c1.5,0,2.9-0.2,3.6-0.5l0-4.3
	c-0.5,0.1-0.9,0.1-1.7,0.1c-1.7,0-2.2-1-2.2-3.2v-6.6h4v-4.2h-4v-4.9L89,21.3L89,21.3z M73.5,42.8h5.6v-9.2c0-0.4,0-0.9,0.1-1.3
	c0.4-1.7,1.8-2.9,3.8-2.9c0.6,0,1.1,0.1,1.5,0.1v-5.3c-0.4-0.1-0.7-0.1-1.2-0.1c-1.8,0-3.9,1.1-4.9,3.8h-0.1l-0.2-3.3h-4.8
	c0.1,1.6,0.1,3.3,0.1,6V42.8L73.5,42.8z M60.7,28.3c2.5,0,3.6,2.7,3.6,5.4c0,3.3-1.4,5.5-3.6,5.5c-2.4,0-3.7-2.3-3.7-5.5
	C57,31,58,28.3,60.7,28.3 M60.8,24.2c-5.8,0-9.6,3.7-9.6,9.6c0,5.9,4.1,9.3,9.3,9.3c4.8,0,9.5-3,9.5-9.7C70,28,66.3,24.2,60.8,24.2
	 M37.5,22.1c0.4-0.1,1.2-0.2,2.3-0.2c2.8,0,4.4,1.4,4.4,3.7c0,2.5-1.8,4-4.8,4c-0.8,0-1.4,0-1.9-0.1V22.1L37.5,22.1z M31.9,42.8h5.6
	v-9c0.5,0.1,1.2,0.1,1.9,0.1c3.3,0,6.1-0.9,8.1-2.6c1.5-1.4,2.3-3.5,2.3-5.9c0-2.4-1-4.5-2.7-5.8c-1.7-1.3-4.1-2-7.6-2
	c-3.4,0-5.9,0.2-7.6,0.5V42.8L31.9,42.8z M24.5,16.8c-1.8,0-3,1.2-3,2.8c0,1.6,1.1,2.8,2.9,2.8c1.9,0,3-1.3,3-2.8
	C27.4,18,26.3,16.8,24.5,16.8 M27.2,24.7h-5.6v18.1h5.6V24.7L27.2,24.7z"/>
</svg>
