<?xml version="1.0" encoding="utf-8"?>
<!-- Generator: Adobe Illustrator 22.1.0, SVG Export Plug-In . SVG Version: 6.00 Build 0)  -->
<svg version="1.1" id="Layer_1" xmlns="http://www.w3.org/2000/svg" xmlns:xlink="http://www.w3.org/1999/xlink" x="0px" y="0px"
	 viewBox="0 0 120 60" style="enable-background:new 0 0 120 60;" xml:space="preserve">
<style type="text/css">
	.st0{fill:#FFFFFF;stroke:#FFFFFF;stroke-width:2.237;}
	.st1{fill:#ED1C24;}
	.st2{fill:#FFFFFF;}
</style>
<g>
	<path class="st0" d="M30.2,50.8h-0.2C19,50.8,10,41.8,10,30.5s9-20.3,20.1-20.3l0.2,0h59.8c11,0.1,19.9,9.1,19.9,20.3
		s-8.9,20.2-19.9,20.3L30.2,50.8L30.2,50.8z"/>
	<path class="st1" d="M30.2,50.8h-0.2C19,50.8,10,41.8,10,30.5s9-20.3,20.1-20.3l0.2,0h59.8c11,0.1,19.9,9.1,19.9,20.3
		s-8.9,20.2-19.9,20.3L30.2,50.8L30.2,50.8z"/>
	<g>
		<path class="st2" d="M78.6,23.1H79v-1.7c0-0.2,0.2-0.7,0.7-0.7c0.4,0,0.5,0.3,0.5,0.6v1.8h0.4v-1.7c0-0.4,0.3-0.7,0.7-0.7
			c0.4,0,0.5,0.3,0.5,0.6v1.8h0.4v-2c0-0.6-0.4-0.8-0.9-0.8c-0.3,0-0.7,0.2-0.8,0.5c-0.1-0.3-0.4-0.5-0.7-0.5
			c-0.4,0-0.7,0.2-0.9,0.5h0v-0.4h-0.4L78.6,23.1L78.6,23.1z M85.4,20.3h-0.5l-0.7,2.3h0l-0.8-2.3h-0.5l1,2.7h0.5L85.4,20.3z
			 M86,23.1h0.4v-2.7H86V23.1L86,23.1z M86.4,19.3H86v0.6h0.4V19.3z M89.7,19.3h-0.4v1.4h0c-0.2-0.3-0.6-0.4-0.9-0.4
			c-0.8,0-1.2,0.7-1.2,1.4c0,0.8,0.4,1.4,1.2,1.4c0.4,0,0.7-0.1,0.9-0.4h0v0.4h0.4V19.3z M87.6,21.7c0-0.5,0.2-1.1,0.8-1.1
			c0.6,0,0.9,0.5,0.9,1c0,0.5-0.2,1-0.8,1C87.9,22.7,87.6,22.2,87.6,21.7z M92.4,22.2c-0.1,0.4-0.3,0.5-0.7,0.5
			c-0.6,0-0.9-0.4-0.8-0.9h2c0-0.7-0.3-1.6-1.2-1.6c-0.7,0-1.3,0.6-1.3,1.4c0,0.8,0.4,1.4,1.3,1.4c0.6,0,1-0.3,1.2-0.9L92.4,22.2
			L92.4,22.2z M90.9,21.4c0-0.4,0.3-0.8,0.8-0.8c0.4,0,0.8,0.3,0.8,0.8L90.9,21.4L90.9,21.4z M93.6,21.7c0,0.8,0.5,1.4,1.3,1.4
			c0.9,0,1.3-0.6,1.3-1.4c0-0.8-0.5-1.4-1.3-1.4C94,20.3,93.6,20.9,93.6,21.7z M94,21.7c0-0.7,0.4-1,0.8-1c0.5,0,0.8,0.4,0.8,1
			c0,0.7-0.4,1-0.8,1C94.4,22.7,94,22.4,94,21.7z M97,22.5h0.7v0.7H97V22.5z M98.5,23.1h0.4v-1.2c0-0.7,0.3-1.1,1-1.1v-0.5
			c-0.5,0-0.8,0.2-1,0.6h0v-0.6h-0.4V23.1L98.5,23.1z M102.8,20.3h-0.4v1.5c0,0.5-0.3,0.9-0.8,0.9c-0.3,0-0.6-0.2-0.6-0.6v-1.9h-0.4
			v1.8c0,0.6,0.2,1,0.9,1c0.4,0,0.7-0.2,0.9-0.5h0v0.4h0.4L102.8,20.3L102.8,20.3z"/>
	</g>
	<g>
		<path class="st2" d="M46.9,19.2h0.3l0.4,0.6h0.2l-0.4-0.7c0.2,0,0.4-0.1,0.4-0.4c0-0.3-0.2-0.4-0.5-0.4h-0.6v1.5h0.2
			C46.9,19.9,46.9,19.2,46.9,19.2z M46.9,18.6h0.3c0.2,0,0.3,0,0.3,0.2c0,0.2-0.2,0.2-0.4,0.2h-0.3V18.6z"/>
		<path class="st2" d="M47.2,20.4c0.7,0,1.3-0.6,1.3-1.3c0-0.7-0.6-1.3-1.3-1.3c-0.7,0-1.3,0.5-1.3,1.3
			C45.8,19.9,46.5,20.4,47.2,20.4L47.2,20.4z M47.2,18.1c0.6,0,1,0.5,1,1.1c0,0.6-0.5,1.1-1,1.1c-0.6,0-1.1-0.4-1.1-1.1
			C46.1,18.5,46.6,18.1,47.2,18.1L47.2,18.1z M45.6,37.9c0,0.8-0.6,1.4-1.4,1.4c-0.8,0-1.4-0.6-1.4-1.4c0,0,0,0,0,0
			c0-0.8,0.6-1.4,1.4-1.4c0,0,0,0,0,0C44.9,36.5,45.6,37.1,45.6,37.9L45.6,37.9z M62.9,20.8c-2.1-1.2-11.2,1.5-14.2,11.5
			c-0.3,0.1-2,0.5-2,0.5l-0.7,2l2.6-0.8c0,0-0.3,4.8,4,4.9c3.4-0.1,5.2-5,4.1-8.4c-0.2,0.1-2.9,1.4-2.9,1.4s0.6,3.8-0.9,4.2
			c-0.5,0.1-1.1-1.4-0.5-3.7C59.6,28.6,64.2,21.5,62.9,20.8L62.9,20.8z M60,23c1.4-0.1-5.3,7-7,7.4C52.5,30.1,57.3,23.7,60,23z"/>
		<path class="st2" d="M59,29.9v1.4c0,0,1.8-1.2,2-1c0,0.6-2.3,6-2.3,6.8c0,0.5,0.4,2.4,2.6,1.4c1.1-0.5,3.9-2.8,3.9-2.8
			s-0.5,1.2-0.3,2.1c0.2,1,1.4,1.2,2.4,0.8c1.1-0.4,2.3-1.2,2.8-1.8c-0.1-0.4-0.3-0.8-0.4-1.2c0,0-0.9,0.9-1.2,0.8
			c-0.2-0.1,2.7-8.8,2.7-8.8s-3-0.1-3.3-0.1c-0.5,2.3-3.3,8-5.2,8.3c-0.7,0,2.3-6.8,2.5-7.6c0.2-1-0.5-1.5-1.4-1.3
			C62.7,27.4,59,29.9,59,29.9z M79.6,27.5c0,0-0.4,0.9-0.4,1.1c-0.4-0.7-1.7-1.9-4.4-0.2c-2.8,1.8-4,5-3.7,8.3
			c0.4,2.8,3.4,3.1,5.4,0.7c-0.2,0.6-2.3,7.2-2.3,7.2l3.3,0l5.4-17C82.8,27.5,79.6,27.5,79.6,27.5z M76,35.7c-0.5,0.3-1.2,0.7-1.3-1
			c-0.1-1.9,1.5-4.1,1.8-4.5c0.8-0.9,1.7-0.9,1.7,0.5C78.1,32.4,77.1,35,76,35.7z M26.6,38.7c-1.7-1.8-0.4-5-0.1-7.9
			c-0.4,0.4-4,9-7.3,8.6c-2.9-0.9-2.6-4.3-1.7-6.7h4.8c-1.5,4.1,0.6,2.4,1.9-0.2c2.8-5.6,2.9-6.1,6-14.6h5.2
			c-1.6,4.8-3,9.5-3.7,14.5c0,0.2,0.1,0.4,0.3,0.3c1.1-0.2,7.2-13.9,7.7-14.8h5c0,0.5-5.6,15.9-4.7,17.4c0.5,0.8,1.1-0.7,1.7-1.4
			l0.8,0.8c-1.7,1.8-3.6,5.2-6.3,4.6c-0.4-0.1-0.7-0.3-1-0.6c-2.8-2.5,2.3-11.5,1.7-12.1c-0.2,0-0.3,0.5-0.6,1.1
			c-1.6,3.2-5.1,11.7-8.1,11.7C27.8,39.5,26.9,39,26.6,38.7z M86,36.1c6.1-3.2,7.6-7.3,5.7-8.5c-2.8-1.6-10.4,1.2-9.5,8.9
			c-0.4,0.2-1.2,0.7-1.2,0.7l0.6,1.5c0,0,1.1-0.7,1.4-0.9c3.9,3.2,8.2-2,8.2-2l-0.7-1.2C90.4,34.7,87.2,37.8,86,36.1z M86.9,31.4
			c0.9-1.6,2.3-2.8,3-2.3c0.7,0.5-0.7,3-4,5.6C85.7,34.5,86,33,86.9,31.4z"/>
		<path class="st2" d="M96.1,27.7l3.5-0.1c0,0-5,4-4.2,7.7c0.6,2.3,2.7,1.2,3.8-1.4c0.2-0.5,1.6-3.9,0.7-3.9c-0.9,0-1.8,1.8-1.8,1.8
			l-1-1c0,0,2-2.8,4.2-3.6c0.3-0.1,1.9-0.4,1.9,1.9c0.1,1.1-1.1,7-5.1,9.1c-3.7,1.9-5.3-0.4-5.6-1.1C90.5,32.1,96.1,27.7,96.1,27.7z
			"/>
	</g>
</g>
</svg>
