<?xml version="1.0" encoding="utf-8"?>
<!-- Generator: Adobe Illustrator 22.1.0, SVG Export Plug-In . SVG Version: 6.00 Build 0)  -->
<svg version="1.0" id="Layer_1" xmlns="http://www.w3.org/2000/svg" xmlns:xlink="http://www.w3.org/1999/xlink" x="0px" y="0px"
	 viewBox="0 0 120 60" style="enable-background:new 0 0 120 60;" xml:space="preserve">
<style type="text/css">
	.st0{fill:#C0C1C3;}
	.st1{fill:#F7BBCA;}
	.st2{fill:#97D6D6;}
</style>
<g id="XMLID_29_">
	<g id="XMLID_233_">
		<path id="XMLID_261_" class="st0" d="M19.6,12c-0.1,0.6-0.4,1-0.7,1.4c-0.4,0.4-1,0.7-1.7,0.7c-0.9,0-1.6-0.3-2.2-0.9
			c-0.4-0.5-0.6-1.2-0.6-2c0-0.8,0.3-1.4,0.7-1.9c0.5-0.6,1.1-0.8,1.9-0.7c1,0.1,1.7,0.6,2.2,1.3C19.6,10.6,19.8,11.3,19.6,12z
			 M16.7,9.5c-0.2,0-0.5,0.2-0.7,0.4c-0.2,0.2-0.3,0.5-0.5,0.9c-0.2,0.6-0.2,1.2-0.1,1.6c0.2,0.7,0.6,1,1.4,1.1c0.6,0,1.1-0.3,1.3-1
			c0.2-0.7,0.2-1.3,0-1.8C17.7,9.8,17.3,9.4,16.7,9.5z"/>
		<path id="XMLID_259_" class="st0" d="M23,9.9c-0.2,0-0.4,0-0.5,0.1c0.1,0.8,0.2,1.7,0.4,2.6c0.1,0.8,0,1.3-0.3,1.4
			c-0.2,0-0.3,0-0.4-0.2c-0.1-0.2-0.2-0.6-0.3-1c0-0.5-0.3-2-0.3-2.6c-0.3,0.1-0.6,0.1-0.9,0c-0.4,0-0.6-0.2-0.6-0.5
			c-0.1-0.5,0.4-0.8,1.3-0.8c0.3,0,0.7,0,1.2,0c0.5,0,0.8,0,1,0c0.2,0,0.4,0.1,0.5,0.3c0.1,0.1,0.1,0.2,0.2,0.4
			C24.2,9.8,23.5,9.8,23,9.9z"/>
		<path id="XMLID_257_" class="st0" d="M29.1,14.2c-0.4,0-0.7-0.2-0.8-0.5c-0.1-0.3-0.1-0.9,0-1.7c0.3-2.2,0.7-3.6,1.2-4.5
			c0.6-0.9,1.2-1.1,1.8-0.8C31.9,7,32.5,7.8,33,9.1c0.3,0.6,0.5,0.8,0.8,0.7c0.2-0.1,0.4-0.4,0.7-0.9c1.1-1.6,2.6-2.3,3.6-0.2
			c0.6,1.4,1,2.6,1.2,3.7c0,0.2,0,0.4-0.1,0.6c-0.2,0.3-0.6,0.6-1.1,0.4c-0.3-0.1-0.5-0.3-0.7-0.7c-0.2-0.3-0.3-0.8-0.4-1.5
			c-0.1-0.7-0.2-1.2-0.3-1.5c-0.2-0.5-0.5-0.6-0.9-0.2c0,0-0.3,0.4-1,1.5c-0.4,0.6-0.8,0.9-1.3,0.9c-0.6,0.1-1.1-0.3-1.5-1
			c-0.1-0.2-0.6-1.3-0.7-1.4c-0.5-1-0.9-0.7-1,0.3c-0.1,0.5-0.1,2.4-0.2,2.8C30.1,13.5,29.9,14.2,29.1,14.2z"/>
		<path id="XMLID_254_" class="st0" d="M43.6,13.7c-0.7,0.4-1.4,0.5-2.3,0.3c-0.7-0.1-1.3-0.6-1.6-1.3c-0.3-0.6-0.3-1.3,0-2.1
			C40,9.9,40.4,9.4,41,9c0.7-0.4,1.4-0.4,2.3-0.1c0.2,0.1,0.4,0.1,0.8,0.2c0.2,0,0.4,0.1,0.4,0.2c0.3,0.7,0.5,1.8,0.5,3.6
			c0,0.6-0.1,0.9-0.4,1.1c-0.3,0.2-0.5,0-0.6-0.2C43.9,13.7,43.8,13.7,43.6,13.7z M43,12.5c0.4-0.4,0.6-0.9,0.6-1.6
			c0-0.7-0.3-1.2-0.9-1.4c-0.7-0.2-1.3,0-1.6,0.5c-0.3,0.5-0.7,1.7-0.3,2.4c0.1,0.3,0.3,0.4,0.5,0.6C41.8,13.3,42.4,13.1,43,12.5z"
			/>
		<path id="XMLID_252_" class="st0" d="M46.2,14.1c-0.3,0-0.5-0.1-0.6-0.4c-0.1-0.2-0.1-0.6,0-1.2c0.2-1.5,0.5-2.5,0.9-3.1
			c0.4-0.6,0.8-0.8,1.3-0.5c0.4,0.2,0.8,0.8,1.2,1.7c0.2,0.4,0.4,0.6,0.6,0.5c0.1-0.1,0.3-0.3,0.5-0.6c0.8-1.1,1.8-1.6,2.5-0.2
			c0.4,1,0.7,1.8,0.8,2.6c0,0.2,0,0.3-0.1,0.4c-0.1,0.2-0.4,0.5-0.8,0.3c-0.2-0.1-0.3-0.2-0.5-0.5c-0.1-0.2-0.2-0.6-0.2-1
			c-0.1-0.5-0.1-0.9-0.2-1.1c-0.2-0.3-0.4-0.4-0.6-0.2c0,0-0.2,0.3-0.7,1c-0.3,0.4-0.6,0.6-0.9,0.7c-0.4,0-0.7-0.2-1-0.7
			c-0.1-0.1-0.4-0.9-0.5-1c-0.3-0.7-0.6-0.5-0.7,0.2c0,0.3-0.1,1.7-0.1,2C47,13.7,46.8,14.1,46.2,14.1z"/>
		<path id="XMLID_249_" class="st0" d="M58.2,9.3c0.8-0.6,1.8-0.7,3.3-0.4c0.4-0.2,0.6-0.2,0.8,0c0.2,0.2,0.3,0.6,0.3,1.2
			c0.1,2.3,0.1,3.8-0.1,4.7c-0.4,2-1.6,2.8-3.5,2.5c-0.4-0.1-0.7-0.3-1-0.6c-0.3-0.3-0.4-0.6-0.3-0.8c0.1-0.2,0.3-0.2,0.4-0.2
			c0.1,0,0.2,0.1,0.4,0.2c0.5,0.4,0.8,0.6,1.1,0.6c1.1,0.1,1.7-0.6,1.8-2.1c0-0.3,0-0.4-0.1-0.5c-0.1,0-0.3,0-0.7,0.1
			c-1.1,0.4-2,0.2-2.6-0.4c-0.6-0.6-0.9-1.3-0.8-2.2C57.3,10.4,57.6,9.7,58.2,9.3z M59,10.2c-0.4,0.4-0.5,1-0.5,1.7
			c0.1,0.8,0.4,1.2,1,1.3c0.8,0.1,1.3-0.1,1.7-0.7c0.2-0.4,0.3-0.9,0.3-1.6c0-0.8-0.3-1.3-0.8-1.5C60.1,9.3,59.6,9.6,59,10.2z"/>
		<path id="XMLID_247_" class="st0" d="M68,10.4c0.2,0.5,0.3,1,0.4,1.5c0.1,0.4,0,0.8,0,1.2c-0.1,0.6-0.4,0.9-0.8,0.8
			c-0.4,0-0.5-0.4-0.5-1.2c0-0.5,0-1-0.2-1.5c-0.2-0.7-0.4-1.1-0.8-1.1c-0.6,0-0.9,0.6-1.1,1.8c-0.2,1.2-0.5,1.9-0.9,2
			c-0.2,0-0.3,0-0.5,0c-0.2-0.1-0.4-0.2-0.5-0.4c-0.1-0.2,0-0.4,0.1-0.5c0.3-0.2,0.4-0.3,0.5-0.4c0.1-0.3,0.3-0.6,0.4-1
			c0.1-0.6,0.2-0.9,0.3-1c0.3-0.7,0.7-1.2,1.5-1.5c0.5-0.2,1-0.1,1.4,0.1C67.5,9.4,67.8,9.8,68,10.4z"/>
		<path id="XMLID_244_" class="st0" d="M69,13.8c-0.4,0.1-0.6,0-0.6-0.3c0-0.3,0.1-0.5,0.4-0.7c0.2-0.1,0.5-0.2,0.9-0.4
			c0.3-0.1,0.5-0.2,0.6-0.3c0.1-0.1-0.1-0.3-0.4-0.4c-0.5-0.2-0.8-0.6-1-1.2c-0.2-0.5-0.1-1,0.2-1.3c0.2-0.2,0.5-0.4,1-0.5
			c0.5-0.1,0.9-0.1,1.3-0.1C72,8.7,72.3,9,72.6,9.3c0.2,0.4,0.3,0.8,0.3,1.4c0,0.1,0,0.3,0,0.7c0,0.5,0,0.9-0.1,1.1
			c0,0.6-0.1,1-0.3,1.2c-0.1,0.2-0.2,0.2-0.4,0.2c-0.2,0-0.4-0.1-0.5-0.2c-0.1-0.1-0.1-0.2,0-0.4c0.1-0.5,0-0.7-0.3-0.7
			c-0.2,0-0.5,0.2-1.1,0.6C69.6,13.6,69.2,13.8,69,13.8z M69.9,10.1c0,0.2,0,0.4,0.2,0.6c0.2,0.2,0.4,0.4,0.7,0.5
			c0.3,0.1,0.5,0.1,0.7,0.1c0.2-0.1,0.4-0.3,0.4-0.6c0-0.6-0.4-1.1-0.9-1.2C70.4,9.2,70,9.6,69.9,10.1z"/>
		<path id="XMLID_242_" class="st0" d="M78,14.2c-0.4,0-0.7-0.2-0.8-0.5c-0.1-0.3-0.1-0.9,0-1.7c0.3-2.2,0.7-3.6,1.2-4.5
			c0.6-0.9,1.2-1.1,1.8-0.8c0.6,0.3,1.2,1.1,1.7,2.4c0.3,0.6,0.5,0.8,0.8,0.7c0.2-0.1,0.4-0.4,0.7-0.9c1.1-1.6,2.6-2.3,3.6-0.2
			c0.6,1.4,1,2.6,1.2,3.7c0,0.2,0,0.4-0.1,0.6c-0.2,0.3-0.6,0.6-1.1,0.4c-0.3-0.1-0.5-0.3-0.7-0.7c-0.2-0.3-0.3-0.8-0.4-1.5
			c-0.1-0.7-0.2-1.2-0.3-1.5c-0.2-0.5-0.5-0.6-0.9-0.2c0,0-0.3,0.4-1,1.5c-0.4,0.6-0.8,0.9-1.3,0.9c-0.6,0.1-1.1-0.3-1.5-1
			c-0.1-0.2-0.6-1.3-0.7-1.4c-0.5-1-0.9-0.7-1,0.3c-0.1,0.5-0.1,2.4-0.2,2.8C79.1,13.5,78.8,14.2,78,14.2z"/>
		<path id="XMLID_239_" class="st0" d="M92.6,13.7c-0.7,0.4-1.4,0.5-2.3,0.3c-0.7-0.1-1.3-0.6-1.6-1.3c-0.3-0.6-0.3-1.3,0-2.1
			c0.2-0.7,0.7-1.3,1.2-1.6c0.7-0.4,1.4-0.4,2.3-0.1C92.4,9,92.6,9.1,93,9.2c0.2,0,0.4,0.1,0.4,0.2c0.3,0.7,0.5,1.8,0.5,3.6
			c0,0.6-0.1,0.9-0.4,1.1c-0.3,0.2-0.5,0-0.6-0.2C92.8,13.7,92.7,13.7,92.6,13.7z M92,12.5c0.4-0.4,0.6-0.9,0.6-1.6
			c0-0.7-0.3-1.2-0.9-1.4c-0.7-0.2-1.3,0-1.6,0.5c-0.3,0.5-0.7,1.7-0.3,2.4c0.1,0.3,0.3,0.4,0.5,0.6C90.7,13.3,91.3,13.1,92,12.5z"
			/>
		<path id="XMLID_237_" class="st0" d="M95.2,14.1c-0.3,0-0.5-0.1-0.6-0.4c-0.1-0.2-0.1-0.6,0-1.2C94.8,11,95,10,95.4,9.4
			c0.4-0.6,0.8-0.8,1.3-0.5c0.4,0.2,0.8,0.8,1.2,1.7c0.2,0.4,0.4,0.6,0.6,0.5c0.1-0.1,0.3-0.3,0.5-0.6c0.8-1.1,1.8-1.6,2.5-0.2
			c0.4,1,0.7,1.8,0.8,2.6c0,0.2,0,0.3-0.1,0.4c-0.1,0.2-0.4,0.5-0.8,0.3c-0.2-0.1-0.3-0.2-0.5-0.5c-0.1-0.2-0.2-0.6-0.2-1
			c-0.1-0.5-0.1-0.9-0.2-1.1c-0.2-0.3-0.4-0.4-0.6-0.2c0,0-0.2,0.3-0.7,1c-0.3,0.4-0.6,0.6-0.9,0.7c-0.4,0-0.7-0.2-1-0.7
			c-0.1-0.1-0.4-0.9-0.5-1c-0.3-0.7-0.6-0.5-0.7,0.2c0,0.3-0.1,1.7-0.1,2C95.9,13.7,95.7,14.1,95.2,14.1z"/>
		<path id="XMLID_234_" class="st0" d="M104.6,3.2c0.3,0,0.4,0.8,0.3,2.3c-0.1,1.1-0.1,2.3,0,3.6c0.1,0.6,0.1,1,0.1,1.3
			c0,0.4-0.1,0.6-0.3,0.7c-0.5,0.2-0.9-0.4-1.2-1.7c-0.3-1.5-0.3-2.7-0.1-3.7C103.6,4,104,3.2,104.6,3.2z M104.2,12.4
			c0.1-0.2,0.2-0.2,0.4-0.2c0.4,0,0.6,0.2,0.8,0.6c0.2,0.4,0.3,0.8,0.2,1c-0.1,0.2-0.2,0.3-0.5,0.3c-0.2,0-0.5-0.1-0.7-0.3
			c-0.2-0.2-0.3-0.5-0.4-0.8C104.1,12.8,104.1,12.6,104.2,12.4z"/>
	</g>
	<g id="XMLID_30_">
		<g id="XMLID_34_">
			<path id="XMLID_55_" class="st1" d="M15.9,36.7c-1,0-1.5-0.7-1.5-2.1v-9.4c0-1.4,0.5-2,1.4-2c0.6,0,1.1,0.3,1.6,1l5.6,7.4v-6.2
				c0-1.4,0.5-2.1,1.5-2.1c1,0,1.5,0.7,1.5,2.1V35c0,1.2-0.5,1.9-1.4,1.9c-0.6,0-1.2-0.4-1.7-1.1l-5.5-7.2v6.1
				C17.4,36,16.9,36.7,15.9,36.7z"/>
			<path id="XMLID_52_" class="st1" d="M33.1,23.1c1.1,0,1.8,0.6,2.2,1.7l3.3,9.5c0.1,0.4,0.2,0.7,0.2,0.9c0,0.4-0.1,0.7-0.4,1
				c-0.3,0.3-0.6,0.4-1.1,0.4c-0.8,0-1.3-0.5-1.6-1.4l-0.5-1.6h-4.7l-0.5,1.7c-0.3,0.9-0.8,1.3-1.5,1.3c-0.4,0-0.8-0.1-1-0.4
				c-0.3-0.3-0.4-0.6-0.4-1c0-0.3,0-0.6,0.1-0.9l3.5-9.4C31.3,23.8,32,23.1,33.1,23.1z M33,26.4l-1.5,4.7h3L33,26.4L33,26.4z"/>
			<path id="XMLID_49_" class="st1" d="M41.5,36.7c-1,0-1.5-0.7-1.5-2.1v-9.2c0-0.8,0.2-1.3,0.5-1.7c0.3-0.3,0.8-0.5,1.6-0.5h2.7
				c1.5,0,2.6,0.4,3.5,1.1c0.9,0.8,1.4,1.9,1.4,3.4c0,1.4-0.4,2.5-1.2,3.3c-0.8,0.8-2,1.2-3.4,1.2h-2v2.3
				C43.1,36,42.6,36.7,41.5,36.7z M43.1,29.6h1.3c1.4,0,2.1-0.6,2.1-1.8c0-1.2-0.7-1.7-2.1-1.7h-1.3V29.6z"/>
			<path id="XMLID_46_" class="st1" d="M52.9,36.7c-1,0-1.5-0.7-1.5-2.1v-9.2c0-0.8,0.2-1.3,0.5-1.7c0.3-0.3,0.8-0.5,1.6-0.5h2.7
				c1.5,0,2.6,0.4,3.5,1.1c0.9,0.8,1.4,1.9,1.4,3.4c0,1.4-0.4,2.5-1.2,3.3c-0.8,0.8-2,1.2-3.4,1.2h-2v2.3
				C54.4,36,53.9,36.7,52.9,36.7z M54.4,29.6h1.3c1.4,0,2.1-0.6,2.1-1.8c0-1.2-0.7-1.7-2.1-1.7h-1.3V29.6z"/>
			<path id="XMLID_44_" class="st1" d="M70.3,23.2c0.4,0,0.7,0.1,0.9,0.4c0.3,0.3,0.4,0.6,0.4,0.9c0,0.4-0.2,0.9-0.7,1.5l-3.1,4.3
				v4.3c0,1.4-0.5,2.1-1.5,2.1c-1,0-1.5-0.7-1.5-2.1v-4.3L61.8,26c-0.4-0.6-0.7-1.1-0.7-1.5c0-0.4,0.1-0.7,0.4-1
				c0.3-0.3,0.6-0.4,1-0.4c0.5,0,1,0.4,1.5,1.2l2.3,3.2l2.3-3.3C69.2,23.5,69.8,23.2,70.3,23.2z"/>
			<path id="XMLID_42_" class="st2" d="M71.7,30c0-1.9,0.5-3.5,1.5-4.7c1.1-1.4,2.5-2,4.4-2c1.5,0,2.6,0.4,3.5,1.3
				c0.2,0.2,0.3,0.5,0.3,0.8c0,0.2-0.1,0.3-0.2,0.5c-0.1,0.1-0.3,0.2-0.5,0.2c-0.1,0-0.4-0.1-0.7-0.3l-0.7-0.5
				c-0.3-0.1-0.5-0.3-0.8-0.3c-0.3-0.1-0.7-0.1-1.2-0.1c-1.2,0-2.2,0.6-3,1.8c-0.7,1-1,2.2-1,3.5c0,1.3,0.3,2.5,1,3.5
				c0.7,1.2,1.7,1.7,3,1.7c0.9,0,1.7-0.2,2.3-0.5c0.2-0.1,0.4-0.2,0.6-0.4c0.3-0.1,0.5-0.2,0.7-0.2c0.4,0,0.6,0.2,0.6,0.7
				c0,0.3-0.1,0.5-0.3,0.6c-0.4,0.4-1,0.7-1.8,0.9c-0.7,0.2-1.4,0.3-2.1,0.3c-1.8,0-3.3-0.7-4.3-2.1C72.2,33.4,71.7,31.8,71.7,30z"
				/>
			<path id="XMLID_40_" class="st2" d="M83.4,35.8V23.1c0-0.2,0.1-0.4,0.2-0.6c0.1-0.2,0.3-0.3,0.6-0.3c0.6,0,0.8,0.3,0.8,0.8v12.8
				c0,0.6-0.3,0.9-0.8,0.9c-0.2,0-0.4-0.1-0.6-0.3C83.4,36.3,83.4,36.1,83.4,35.8z"/>
			<path id="XMLID_38_" class="st2" d="M91.1,35.3c1.5,0,2.3-0.8,2.3-2.5v-5.4c0-0.6,0.3-0.8,0.8-0.8c0.5,0,0.8,0.3,0.8,0.8v5.4
				c0,1.2-0.4,2.1-1.1,2.8c-0.7,0.7-1.7,1-2.9,1c-1.2,0-2.2-0.3-2.9-1c-0.7-0.7-1.1-1.6-1.1-2.8v-5.4c0-0.6,0.3-0.8,0.8-0.8
				c0.6,0,0.8,0.3,0.8,0.8v5.4C88.8,34.5,89.6,35.3,91.1,35.3z"/>
			<path id="XMLID_35_" class="st2" d="M98.8,27.9c0.7-0.9,1.6-1.3,2.7-1.3c1.3,0,2.4,0.5,3.2,1.6c0.7,1,1.1,2.1,1.1,3.5
				c0,1.4-0.4,2.6-1.1,3.5c-0.8,1-1.9,1.5-3.3,1.5c-1.2,0-2-0.4-2.5-1.3V36c0,0.2-0.1,0.4-0.3,0.5c-0.1,0.1-0.3,0.2-0.6,0.2
				c-0.2,0-0.4-0.1-0.6-0.3c-0.2-0.2-0.2-0.4-0.2-0.6V23.1c0-0.2,0.1-0.4,0.2-0.6c0.1-0.2,0.3-0.3,0.6-0.3c0.6,0,0.8,0.3,0.8,0.8
				V27.9z M104.1,31.6c0-0.9-0.2-1.7-0.6-2.4c-0.5-0.8-1.2-1.2-2-1.2c-0.4,0-0.8,0.1-1.1,0.3c-1.2,0.6-1.7,1.7-1.7,3.4
				c0,1,0.2,1.8,0.7,2.5c0.5,0.8,1.3,1.1,2.2,1.1c0.9,0,1.6-0.4,2.1-1.2C104,33.4,104.1,32.6,104.1,31.6z"/>
		</g>
		<path id="XMLID_31_" class="st2" d="M84,44.6c-0.2-0.4-0.5-0.7-0.8-1c-0.1-0.1-0.2-0.1-0.3-0.2c0.7-1,1.5-2,2.1-3.2
			c0.3-0.6,0.2-1.3-0.4-1.6c-0.6-0.3-1.3-0.2-1.6,0.4c-4.8,7.9-10.8,11.4-20.2,11.6c-2.5-0.1-15.1-1-20.2-11.5
			c-0.3-0.6-1-0.8-1.6-0.5c-0.6,0.3-0.8,1-0.5,1.6c2.1,4.4,5.7,7.8,10.5,10c4.8,2.2,9.4,2.7,11.7,2.8c0,0,0,0,0,0c0,0,0,0,0,0
			c5.1-0.1,9.4-1.1,12.9-3.2c0,0,0.1,0,0.1-0.1c0.8,1.3,2,2.2,3.4,2.7c1.4,0.5,3.2,0.5,4.5-0.4C86.4,50.3,85.5,46.7,84,44.6z
			 M83.8,49.1c0,0,0,0.1,0,0.1c0,0.1,0,0.2-0.1,0.3c0,0.1,0,0.1-0.1,0.2c0,0,0,0.1,0,0.1c-0.1,0.1-0.1,0.2-0.2,0.3
			c0,0-0.1,0.1-0.1,0.1c0,0-0.1,0.1-0.1,0.1c-0.1,0.1-0.1,0.1-0.2,0.2c0,0-0.1,0.1-0.1,0.1c-0.1,0-0.1,0.1-0.2,0.1
			c-0.2,0.1-0.5,0.2-0.8,0.3c-0.5,0.1-1.2,0-1.8-0.1c-1.2-0.3-2.1-1-2.7-2.1c0.7-0.5,1.3-1,2-1.5c0.1,0.1,0.2,0.2,0.3,0.2
			c0,0,0.1,0,0.1,0.1c0,0,0.1,0.1,0.2,0.1c0.1,0.1,0.3,0.3,0.3,0.4c0.3,0.3,0.5,0.7,0.7,1c0.3,0.4,0.7,0.5,1.1,0.3
			c0.4-0.2,0.6-0.8,0.3-1.1c-0.3-0.4-0.6-0.9-0.9-1.3c-0.2-0.3-0.5-0.7-0.9-0.9c0.5-0.5,0.9-1,1.4-1.5c0,0,0.1,0.1,0.1,0.1
			c0.1,0.1,0.2,0.2,0.2,0.3c0,0,0,0,0,0c0,0,0,0,0,0c0,0.1,0.1,0.1,0.1,0.2c0.2,0.3,0.3,0.5,0.5,0.8c0.1,0.1,0.1,0.3,0.2,0.4
			c0,0.1,0.1,0.1,0.1,0.2c0,0,0,0,0,0c0,0,0,0,0,0.1c0.1,0.3,0.2,0.6,0.3,0.9c0,0.1,0.1,0.2,0.1,0.4c0,0,0,0.1,0,0.1
			c0,0,0,0.1,0,0.1c0,0.1,0,0.3,0,0.4C83.8,48.9,83.8,49,83.8,49.1z"/>
	</g>
</g>
</svg>
