<?xml version="1.0" encoding="utf-8"?>
<!-- Generator: Adobe Illustrator 22.1.0, SVG Export Plug-In . SVG Version: 6.00 Build 0)  -->
<svg version="1.0" id="Layer_1" xmlns="http://www.w3.org/2000/svg" xmlns:xlink="http://www.w3.org/1999/xlink" x="0px" y="0px"
	 viewBox="0 0 120 60" style="enable-background:new 0 0 120 60;" xml:space="preserve">
<style type="text/css">
	.st0{fill:#D1D1D1;}
	.st1{fill:#AFAFAF;}
	.st2{fill:#BFBFBF;}
	.st3{fill:#7B7B7B;}
	.st4{fill:#555555;}
	.st5{fill:#3A3A3A;}
	.st6{fill:#929292;}
	.st7{fill:#717171;}
	.st8{fill:#9D9D9D;}
	.st9{fill:#4A4A4A;}
	.st10{fill:#383838;}
	.st11{fill:#222222;}
	.st12{fill:#A48900;}
	.st13{fill:#FDE35F;}
</style>
<g>
	<path class="st0" d="M55.8,44.9L70.1,53v1.6l-14.2-8.1V44.9z"/>
	<path class="st1" d="M84.3,44.9L70.1,53v1.6l14.2-8.1V44.9z"/>
	<path class="st2" d="M55.8,44.9L70.1,53l14.2-8.1l-14.2-8.1L55.8,44.9z"/>
	<g>
		<path class="st3" d="M65.2,23.3l4.9,2.9v20.8l-4.9-2.9V23.3z"/>
		<path class="st4" d="M74.9,23.3L70,26.2v20.8l4.9-2.9V23.3z"/>
		<path class="st5" d="M65.2,23.3l4.9,2.9l4.9-2.9L70,20.4L65.2,23.3z"/>
	</g>
	<g>
		<path class="st6" d="M57.4,17.5l2.4,1.5v8.7l-2.4-1.4V17.5z"/>
		<path class="st7" d="M71.9,11.7L59.8,19v8.7l12.1-7.3V11.7z"/>
		<path class="st8" d="M57.4,17.5l2.4,1.5l12.1-7.3l-2.4-1.5L57.4,17.5z"/>
		<g>
			<path class="st6" d="M59.8,25.3l7.3,4.4V32l-7.3-4.4L59.8,25.3z"/>
			<path class="st1" d="M79.2,22.4l-12.1,7.3V32l12.1-7.3V22.4z"/>
			<path class="st8" d="M59.8,25.3l7.3,4.4l12.1-7.3L71.9,18L59.8,25.3z"/>
		</g>
	</g>
	<g>
		<path class="st9" d="M52.5,21.3l7.3,4.4v8.7L52.5,30L52.5,21.3z"/>
		<path class="st10" d="M86.4,9.7l-26.7,16v8.7l26.7-16V9.7z"/>
		<path class="st9" d="M52.5,21.3l7.3,4.4l26.7-16l-7.3-4.4L52.5,21.3z"/>
		<g>
			<path class="st9" d="M44.5,21.8l10.9,6.5v13.1l-10.9-6.5V21.8z"/>
			<path class="st11" d="M62.7,24l-7.3,4.4v13.1l7.3-4.4V24z"/>
			<path class="st5" d="M44.5,21.8l10.9,6.5l7.3-4.4l-10.9-6.5L44.5,21.8z"/>
			<g>
				<path class="st0" d="M40.8,24l10.9,6.5v13.1L40.8,37V24z"/>
				<path class="st12" d="M55.4,28.3l-3.6,2.2v13.1l3.6-2.2V28.3z"/>
				<path class="st13" d="M40.8,24l10.9,6.5l3.6-2.2l-10.9-6.5L40.8,24z"/>
			</g>
			<g>
				<path class="st9" d="M33.6,28.3l10.9,6.5v13.1l-10.9-6.5V28.3z"/>
				<path class="st11" d="M51.8,30.5l-7.3,4.4v13.1l7.3-4.4L51.8,30.5z"/>
				<path class="st5" d="M33.6,28.3l10.9,6.5l7.3-4.4L40.8,24L33.6,28.3z"/>
			</g>
		</g>
	</g>
	<g>
		<path class="st6" d="M67,23.3l2.4,1.5v8.7L67,32V23.3z"/>
		<path class="st7" d="M81.6,17.5l-12.1,7.3v8.7l12.1-7.3V17.5z"/>
		<path class="st8" d="M67,23.3l2.4,1.5l12.1-7.3l-2.4-1.5L67,23.3z"/>
	</g>
</g>
</svg>
