<?xml version="1.0" encoding="utf-8"?>
<!-- Generator: Adobe Illustrator 22.1.0, SVG Export Plug-In . SVG Version: 6.00 Build 0)  -->
<svg version="1.1" id="Layer_1" xmlns="http://www.w3.org/2000/svg" xmlns:xlink="http://www.w3.org/1999/xlink" x="0px" y="0px"
	 viewBox="0 0 120 60" style="enable-background:new 0 0 120 60;" xml:space="preserve">
<style type="text/css">
	.st0{fill:#4A90E2;}
	.st1{fill:#F7AA00;}
	.st2{filter:url(#Adobe_OpacityMaskFilter);}
	.st3{fill:#FFFFFF;}
	.st4{mask:url(#b_1_);fill:#4A90E2;}
</style>
<g>
	<path class="st0" d="M23.7,33.3c-1.9,0-3.4-1.5-3.4-3.4c0-1.9,1.5-3.4,3.4-3.4c1.9,0,3.4,1.5,3.4,3.4
		C27.1,31.8,25.6,33.3,23.7,33.3 M23.7,21.3c-1.8,0-3.4,0.5-4.8,1.5c-4.8,3.2-7.7,8.6-7.7,14.3c0,0.9,0.1,1.7,0.2,2.5
		c0,0,0,0.1,0,0.1c0,0.3,0.1,0.5,0.1,0.8c0,0,0,0.1,0,0.1c0.6,1.8,2.3,3.1,4.2,3.1c1.9,0,3.6-1.3,4.2-3c0.4-1.4,1.7-2.4,3.2-2.4
		c0.1,0,0.2,0,0.4,0c4.7,0,8.5-3.8,8.5-8.6C32.2,25.1,28.4,21.3,23.7,21.3"/>
	<path class="st1" d="M18.5,17.3c-1.4-0.9-2.9-1.6-4.6-1.2c-1.4,0.4-2.7,1.4-3.4,2.7c-0.6,1.3-0.7,2.9-0.1,4.2
		c0.2,0.6,0.5,1.3,1.1,1.5c0.6,0.2,1.2,0.1,1.6-0.4c1.5-1.8,3.3-3.3,5.3-4.5C19.3,19.2,19.4,17.9,18.5,17.3"/>
	<path class="st0" d="M53.5,40c0,0.7,0,1.4-0.1,2.1c-0.2,1.1-0.9,1.9-2.2,1.9c-1.5,0-2.4-1-2.7-2.3c-0.2-1.1-0.2-2.3-0.2-3.5v-1.8
		c0-3.2,0.1-7.1,3.2-7.1c0.9,0,1.5,0.2,2.1,0.7c1.4,1.2,1.3,3.7,2.5,5c0,0,0,0,0.1,0c0.1,0,0.2-0.6,0.2-0.8v-0.2c0-0.7,0-1.3,0-2
		c0-1.1,0.2-1.9,0.8-2.4c0.4-0.4,1-0.6,1.5-0.6c0.8,0,1.7,0.4,2.2,1c0.6,0.8,0.8,1.7,0.8,2.9v0.2c0,1.1,0,2.2,0,3.2
		c0,1.3-0.1,2.5-0.3,3.8c-0.3,2-0.8,4.1-3.2,4.1c-1.9,0-2.6-0.7-3.2-2.7c-0.2-0.6-0.6-2-1-2.5c0,0-0.1-0.1-0.1-0.1
		c-0.1,0-0.2,0.2-0.2,0.5l0,0.5C53.5,39.8,53.5,40,53.5,40z"/>
	<g transform="translate(125 32.789)">
		<defs>
			<filter id="Adobe_OpacityMaskFilter" filterUnits="userSpaceOnUse" x="-30.5" y="-3.9" width="15.5" height="15.1">
				<feColorMatrix  type="matrix" values="1 0 0 0 0  0 1 0 0 0  0 0 1 0 0  0 0 0 1 0"/>
			</filter>
		</defs>
		<mask maskUnits="userSpaceOnUse" x="-30.5" y="-3.9" width="15.5" height="15.1" id="b_1_">
			<g class="st2">
				<path id="a_1_" class="st3" d="M-15-3.9v15.1h-15.5V-3.9L-15-3.9z"/>
			</g>
		</mask>
		<path class="st4" d="M-22.7,5.7c-1.2,0-2.1-1-2.1-2.1s0.9-2.1,2.1-2.1s2.1,1,2.1,2.1S-21.6,5.7-22.7,5.7 M-17.5-2
			c-1.4-1.2-3.3-1.9-5.2-1.9H-23c-2,0.1-4,1-5.4,2.5c-1.3,1.4-2,3.2-2,5.1c0,0.2,0,0.4,0,0.5c0.1,1.9,1,3.7,2.4,4.9
			c1.4,1.3,3.2,2,5.1,2h0.2c2,0,4-0.8,5.5-2.2c1.4-1.4,2.3-3.4,2.3-5.4V3.3C-15.1,1.2-16-0.7-17.5-2"/>
	</g>
	<path class="st0" d="M86.2,36.4c-1.2,0-2.1-1-2.1-2.1c0-1.2,0.9-2.1,2.1-2.1c1.2,0,2.1,1,2.1,2.1C88.3,35.5,87.3,36.4,86.2,36.4
		 M92.9,39.5c0-8.8-3.3-10.6-7.4-10.6c-3.2,0-6.1,2.2-6.1,10.6v0.6c0,1.3,0.2,3.7,2.7,3.7c2.3,0,2.5-1,2.9-3.2
		c0.5,0.1,0.9,0.1,1.4,0.1c0.4,0,0.8,0,1.1-0.1c0.5,2,0.9,3.1,2.9,3.1c2.3,0,2.6-2.1,2.6-3.4C92.9,40,92.9,39.7,92.9,39.5
		 M39.4,36.4c-1.2,0-2.1-1-2.1-2.1c0-1.2,0.9-2.1,2.1-2.1s2.1,1,2.1,2.1C41.5,35.5,40.6,36.4,39.4,36.4 M46.1,39.5
		c0-8.8-3.3-10.6-7.4-10.6c-3.2,0-6.1,2.2-6.1,10.6v0.6c0,1.3,0.2,3.7,2.7,3.7c2.3,0,2.5-1,2.9-3.2c0.5,0.1,0.9,0.1,1.4,0.1
		c0.4,0,0.8,0,1.1-0.1c0.5,2,0.9,3.1,2.9,3.1c2.3,0,2.6-2.1,2.6-3.4C46.2,40,46.1,39.7,46.1,39.5 M70.7,38.4c-1.2,0-2.1-1-2.1-2.1
		c0-1.2,0.9-2.1,2.1-2.1c1.2,0,2.1,1,2.1,2.1C72.8,37.5,71.9,38.4,70.7,38.4 M67.8,28.7c-1.3,0-2.6,0.2-3.4,0.9
		c-0.8,0.8-0.8,2.5-0.8,4.3v2c0,0.6,0,1.3,0,1.9c0,1.9,0.1,3.8,0.3,4.4c0.4,0.9,1.1,1.5,2.3,1.6c0.4,0,0.8,0.1,1.2,0.1
		c0.8,0,1.5-0.1,2.5-0.1h0.6c2,0,3.8-0.8,5.3-2.2c1.4-1.4,2.3-3.4,2.3-5.4V36C77.6,30.7,73.2,28.7,67.8,28.7"/>
</g>
</svg>
