<?xml version="1.0" encoding="utf-8"?>
<!-- Generator: Adobe Illustrator 22.1.0, SVG Export Plug-In . SVG Version: 6.00 Build 0)  -->
<svg version="1.0" id="Layer_1" xmlns="http://www.w3.org/2000/svg" xmlns:xlink="http://www.w3.org/1999/xlink" x="0px" y="0px"
	 viewBox="0 0 120 60" style="enable-background:new 0 0 120 60;" xml:space="preserve">
<style type="text/css">
	.st0{fill:#1A171B;}
</style>
<g id="Welcome">
	<g id="Панель" transform="translate(-18.000000, -14.000000)">
		<g id="Page-1-Copy-3" transform="translate(18.000000, 13.000000)">
			<polygon id="Fill-1" class="st0" points="81,25.1 81,35.1 87.9,35.1 87.9,33.5 82.7,33.5 82.7,30.8 86.6,30.8 86.6,29.2 
				82.7,29.2 82.7,26.7 87.9,26.7 87.9,25.1 			"/>
			<g id="Group-13" transform="translate(0.000000, 0.440883)">
				<path id="Fill-2" class="st0" d="M110,33h-2.9v-2.5h2.9c0.9,0,1.4,0.5,1.4,1.3C111.4,32.3,111.1,33,110,33L110,33z M109.6,28.9
					h-2.5v-4.2h-1.6v10h4.1c2.2,0,3.3-0.9,3.3-2.8C112.9,29.9,111.8,28.9,109.6,28.9L109.6,28.9z"/>
				<polygon id="Fill-4" class="st0" points="114.8,34.6 116.5,34.6 116.5,24.7 114.8,24.7 				"/>
				<path id="Fill-6" class="st0" d="M98.4,32.9h-4c0,0,1.2-2.3,1.4-6.5h2.6V32.9z M100.1,24.7h-5.7c0.2,5.2-1.8,8.3-1.8,8.3h-1.2
					v3.5h1.7v-1.9h6.5v1.9h1.6v-3.5h-1.2V24.7z"/>
				<path id="Fill-7" class="st0" d="M18.4,31.3c0.5-1.3,1.7-4.5,1.7-4.5s1.1,3.1,1.7,4.5C21.1,31.6,19.4,31.8,18.4,31.3L18.4,31.3z
					 M19.2,24.7l-3.8,10h1.8c0,0,0.5-1.2,0.7-1.9c1.3,0.4,2.9,0.5,4.5,0c0.2,0.4,0.7,1.9,0.7,1.9l1.7,0l-3.8-9.9H19.2z"/>
				<path id="Fill-8" class="st0" d="M33,28.8H30v-2.5h3c1.1,0,1.3,0.7,1.4,1.2C34.3,28.3,33.8,28.8,33,28.8 M32.5,24.7h-4.1v10H30
					v-4.2h2.5c2.2,0,3.3-0.9,3.3-2.9C35.8,25.6,34.7,24.7,32.5,24.7"/>
				<polygon id="Fill-9" class="st0" points="38.7,26.3 42,26.3 42,34.6 43.7,34.6 43.7,26.3 46.9,26.3 46.9,24.7 38.7,24.7 				"/>
				<polygon id="Fill-10" class="st0" points="52.5,31.3 52.5,24.7 50.8,24.7 50.8,34.6 51.2,34.6 57.6,28 57.6,34.6 59.3,34.6 
					59.3,24.7 58.8,24.7 				"/>
				<path id="Fill-11" class="st0" d="M69.8,28.8h-2.9c-0.9,0-1.4-0.5-1.4-1.3c0-0.5,0.3-1.2,1.4-1.2h0h2.9V28.8z M63.9,27.5
					c0,1.4,0.7,2.3,1.8,2.7c0,0,0.1,0,0.2,0.1c-0.1,0.6-0.8,2.6-2.5,2.8v1.6c2.9-0.1,4.2-3.1,4.3-4.2h2.1v4.2h1.6v-10h-4.1
					C65.1,24.7,63.9,25.6,63.9,27.5L63.9,27.5z"/>
				<polygon id="Fill-12" class="st0" points="3.5,34.6 5.2,34.6 5.2,26.3 10.1,26.3 10.1,34.6 11.8,34.6 11.8,24.7 3.5,24.7 				
					"/>
			</g>
		</g>
	</g>
</g>
</svg>
