<?xml version="1.0" encoding="utf-8"?>
<!-- Generator: Adobe Illustrator 22.1.0, SVG Export Plug-In . SVG Version: 6.00 Build 0)  -->
<svg version="1.1" id="Layer_1" xmlns="http://www.w3.org/2000/svg" xmlns:xlink="http://www.w3.org/1999/xlink" x="0px" y="0px"
	 viewBox="0 0 120 60" style="enable-background:new 0 0 120 60;" xml:space="preserve">
<style type="text/css">
	.st0{fill:#231F20;}
	.st1{filter:url(#Adobe_OpacityMaskFilter);}
	.st2{fill:#FFFFFF;}
	.st3{mask:url(#b_1_);fill:#231F20;}
	.st4{filter:url(#Adobe_OpacityMaskFilter_1_);}
	.st5{mask:url(#b_2_);fill:#231F20;}
</style>
<g>
	<path class="st0" d="M60.7,43.5c-1.1-0.4-1.7-0.4-1.7-1c0-0.3,0.4-0.5,0.9-0.5c0.6,0,1,0.2,1.3,0.5l1-0.7c-0.4-0.5-1.2-1.1-2.3-1.1
		c-1.2,0-2.3,0.7-2.3,1.8c0,1,0.7,1.6,1.7,1.9c0.9,0.3,1.7,0.5,1.7,1c0,0.3-0.3,0.6-1,0.6c-0.8,0-1.3-0.3-1.6-0.9l-1.1,0.7
		c0.4,0.8,1.3,1.4,2.7,1.4c1.7,0,2.4-0.8,2.4-2C62.4,44.5,61.9,43.9,60.7,43.5"/>
	<defs>
		<filter id="Adobe_OpacityMaskFilter" filterUnits="userSpaceOnUse" x="35" y="12.5" width="49.9" height="34.9">
			<feColorMatrix  type="matrix" values="1 0 0 0 0  0 1 0 0 0  0 0 1 0 0  0 0 0 1 0"/>
		</filter>
	</defs>
	<mask maskUnits="userSpaceOnUse" x="35" y="12.5" width="49.9" height="34.9" id="b_1_">
		<g class="st1">
			<path id="a_1_" class="st2" d="M35,47.4h49.9V12.5H35V47.4z"/>
		</g>
	</mask>
	<path class="st3" d="M49.1,47.3h1.5v-6.5h-1.5V47.3z M63,47.3h1.5v-6.5H63V47.3z M66.8,40.7h-1.5v6.5h3.9V46h-2.4V40.7z M71.3,45.1
		l-1.5-4.3h-1.6l2.4,6.5H72l2.3-6.5h-1.6L71.3,45.1z M74.8,47.3h4V46h-2.6v-1.1h2.1v-1.2h-2.1V42h2.6v-1.3h-4.1V47.3z M83.2,44.9
		c0.8-0.3,1.3-1.2,1.3-2c0-1.2-1-2.2-2.2-2.2h-2.6v6.5h1.4V42h1.1c0.5,0,0.8,0.4,0.8,0.9c0,0.6-0.4,0.9-0.9,0.9h-0.3V45l1.5,2.2h1.6
		L83.2,44.9z M46.7,44.3c0,1.1-0.5,1.6-1.3,1.6c-0.8,0-1.4-0.4-1.4-1.6v-3.6h-1.5v3.9c0,1.8,1.3,2.8,2.8,2.8c1.5,0,2.8-0.9,2.8-2.8
		v-3.9h-1.5L46.7,44.3L46.7,44.3z M42,44c0-1.9-1.6-3.4-3.5-3.4c-1.9,0-3.5,1.5-3.5,3.4c0,1.9,1.6,3.4,3.5,3.4c0.3,0,0.6,0,0.9-0.1
		l-0.9-1.2c-1.1,0-2-0.9-2-2.1c0-1.1,0.9-2.1,2.1-2.1c1.2,0,2.1,0.9,2.1,2.1c0,0.4-0.1,0.7-0.3,1.1l-1-1.2l-1.1,0.9l2.1,2.6h1.8
		l-0.9-1.1C41.7,45.6,42,44.8,42,44 M57.3,40.7h-1.8l-2.6,3.1v-3.1h-1.5v6.5h1.5v-1.3l0.9-1l1.9,2.4h1.8l-2.8-3.5L57.3,40.7z
		 M84.9,38.7H37.8c-1.6,0-2.8-1.3-2.8-2.6V25.6c2,0,3.8-1,4.5-1.4c4.2-3,7.7-8.8,12.2-10.7c1.3-0.6,3.9-1.5,7.1-0.6l3.8,3.8
		c0,0-2-0.9-5-0.9c-3.3,0-9.8,2.7-9.8,9.9c0,5.8,4,9.8,10.5,9.8h23.2L84.9,38.7L84.9,38.7z"/>
	<defs>
		<filter id="Adobe_OpacityMaskFilter_1_" filterUnits="userSpaceOnUse" x="51.2" y="18.7" width="28.3" height="14.6">
			<feColorMatrix  type="matrix" values="1 0 0 0 0  0 1 0 0 0  0 0 1 0 0  0 0 0 1 0"/>
		</filter>
	</defs>
	<mask maskUnits="userSpaceOnUse" x="51.2" y="18.7" width="28.3" height="14.6" id="b_2_">
		<g class="st4">
			<path id="a_2_" class="st2" d="M35,47.4h49.9V12.5H35V47.4z"/>
		</g>
	</mask>
	<path class="st5" d="M58,25.7c-0.2,0.2-0.1,0.5,0.2,0.5h2.7l1.9-1.6c0.4-0.4,0.8-0.3,0.8,0.1v3.1c0,0.5,0.4,0.5,0.7,0.2l1.9-1.8
		h2.5c0.2,0,0.3-0.3,0.1-0.5l-4.6-4.5c-0.3-0.3-1-0.3-1.4,0C62.7,21.3,58,25.7,58,25.7L58,25.7z M79.5,33.3H57.9
		c-2.5,0-5.7-1.2-6.7-3.4c0,0,9.7-9.8,10.2-10.3c1.2-1.1,3.2-1.1,4.2,0L79.5,33.3z"/>
</g>
</svg>
