<?xml version="1.0" encoding="utf-8"?>
<!-- Generator: Adobe Illustrator 22.1.0, SVG Export Plug-In . SVG Version: 6.00 Build 0)  -->
<svg version="1.0" id="Layer_1" xmlns="http://www.w3.org/2000/svg" xmlns:xlink="http://www.w3.org/1999/xlink" x="0px" y="0px"
	 viewBox="0 0 120 60" style="enable-background:new 0 0 120 60;" xml:space="preserve">
<path d="M102.2,30.4c0,6.3-4.1,12.6-12.1,12.6C82,43,78,36.6,78,30.4c0-6.3,4-12.6,12.1-12.6C98.1,17.8,102.2,24.1,102.2,30.4z
	 M97.5,30.4c0-4.1-2.5-8.2-7.3-8.2c-4.9,0-7.4,4.1-7.4,8.2c0,4.1,2.4,8.1,7.4,8.1C95,38.6,97.5,34.5,97.5,30.4z M67.8,18.2H53v4.1
	h14.8V18.2z M62.7,20.2H58v22.6h4.7V20.2z M75.2,18.3h-4.7v24.5h4.7V18.3z M22.5,18.2h-4.7v24.5h4.7V18.2z M29.3,42.8h5.1L28.1,29
	h-5L29.3,42.8z M34.3,25.5c0-5.2-3.9-7.2-7.9-7.2h-6.9v7.2v7.2h6.4C29.9,32.7,34.3,30.7,34.3,25.5L34.3,25.5
	C34.3,25.5,34.3,25.5,34.3,25.5C34.3,25.5,34.3,25.5,34.3,25.5L34.3,25.5z M29.6,25.5C29.6,25.5,29.6,25.5,29.6,25.5
	C29.6,25.5,29.6,25.5,29.6,25.5L29.6,25.5c0,2.1-1.9,2.8-3.4,2.8h-3.6v-2.8v-2.8h3.6C27.7,22.7,29.6,23.4,29.6,25.5L29.6,25.5z
	 M44.7,17L33.5,42.8h5.2l6-14.2l6,14.2h5.2L44.7,17z"/>
</svg>
