<?xml version="1.0" encoding="utf-8"?>
<!-- Generator: Adobe Illustrator 22.1.0, SVG Export Plug-In . SVG Version: 6.00 Build 0)  -->
<svg version="1.1" id="Layer_1" xmlns="http://www.w3.org/2000/svg" xmlns:xlink="http://www.w3.org/1999/xlink" x="0px" y="0px"
	 viewBox="0 0 120 60" style="enable-background:new 0 0 120 60;" xml:space="preserve">
<style type="text/css">
	.st0{fill:#1428A0;}
</style>
<path class="st0" d="M65.4,29.4c0,0-1.1-0.7-1.7-0.9c0,0-2.1-1-2.4-1.4c0,0-0.8-0.7-0.3-1.6c0,0,0.2-0.6,1-0.6c0,0,1.1,0.1,1.1,1
	v1.3h3.8v-1.8c0,0,0.3-3-4.6-3.2c0,0-3.9-0.2-5,1.8c0,0-0.4,0.4-0.4,2.1v1.2c0,0-0.1,1.3,0.7,2.2c0,0,0.4,0.6,1.3,1.2
	c0,0,2,1,3.1,1.6c0,0,1.2,0.7,1,1.7c0,0-0.1,1.1-1.3,1c0,0-1-0.1-1-1.1v-1.3h-4.2v1.8c0,0-0.1,3.5,5.3,3.5c0,0,5.2,0.1,5.4-3.5v-1.5
	C67.1,32.9,67.4,30.6,65.4,29.4z M45.2,22.6l-1.3,8.1h-0.3l-1.3-8h-6.6l-0.3,14.7h3.9l0.1-11.1h0.2l2.1,11.1h4.1l2.1-11.1h0.3
	l0.1,11.1h3.9l-0.4-14.8L45.2,22.6L45.2,22.6z M22,22.7l-2.6,14.7h4.2L25.2,26h0.4l1.5,11.4h4.2l-2.6-14.7H22L22,22.7z M110,29.2
	v2.1h1.1v2.4c0,1.1-1,1.2-1,1.2c-1.2,0-1.2-1.1-1.2-1.1v-8c0-0.8,1-0.9,1-0.9c1,0,1,1,1,1v1.3h4c0.1-2.4-0.4-2.9-0.4-2.9
	c-1-2.1-4.7-2.1-4.7-2.1c-5.7,0-5.1,4.3-5.1,4.3v7.8c0.1,4.1,5.7,3.6,5.8,3.6c2.5-0.3,3.2-1,3.2-1c0.4-0.3,0.7-0.7,0.9-1.2
	c0.2-0.4,0.2-1.7,0.2-1.7v-4.6L110,29.2L110,29.2z M96.9,31.7h-0.1l-4.1-9.1h-4.8v14.8h3.9l-0.2-9h0.1l4.1,9h4.6V22.6h-4L96.9,31.7
	L96.9,31.7z M78.4,33.7c0,0,0.1,1.2-1.1,1.2c0,0-1.2,0.1-1.2-1.2V22.6h-4.3v11.1c0,0-0.4,4.2,5.5,4.2c0,0,5.2,0.1,5.2-4V22.7h-4.2
	V33.7L78.4,33.7z M13.8,29.4c0,0-1-0.7-1.8-0.9c0,0-2.1-1-2.4-1.4c0,0-0.8-0.7-0.3-1.6c0,0,0.2-0.6,1-0.6c0,0,1.1,0.1,1.1,1v1.3h3.9
	v-1.8c0,0,0.3-3-4.6-3.2c0,0-0.4,0-0.9,0c0,0-3,0.1-4.1,1.8l0,0c0,0-0.4,0.4-0.4,2.1v1.3c0,0-0.1,1.3,0.7,2.2c0,0,0.4,0.6,1.3,1.2
	c0,0,2,1,3.1,1.6c0,0,1.2,0.7,1,1.7c0,0-0.1,1.1-1.3,1c0,0-1-0.1-1-1.1v-1.3H5v1.8c0,0-0.1,3.5,5.3,3.5c0,0,5.2,0.1,5.4-3.5v-1.5
	C15.7,32.9,15.8,30.6,13.8,29.4z"/>
</svg>
