<?xml version="1.0" encoding="utf-8"?>
<!-- Generator: Adobe Illustrator 22.1.0, SVG Export Plug-In . SVG Version: 6.00 Build 0)  -->
<svg version="1.1" id="Layer_1" xmlns="http://www.w3.org/2000/svg" xmlns:xlink="http://www.w3.org/1999/xlink" x="0px" y="0px"
	 viewBox="0 0 120 60" style="enable-background:new 0 0 120 60;" xml:space="preserve">
<style type="text/css">
	.st0{fill:#4C1E87;}
	.st1{fill:#E41D94;}
</style>
<g>
	<path class="st0" d="M5,30c0,5.6,4.4,9.8,10.2,9.8c2.1,0,3.8-0.4,5.4-1.6v-3.7c-1.5,1-3.5,1.6-5.4,1.6c-3.7,0-6.4-2.6-6.4-6.2
		c0-3.6,2.7-6.2,6.4-6.2c1.9,0,3.9,0.6,5.4,1.6v-3.7c-1.5-1.1-3.3-1.6-5.4-1.6C9.4,20.2,5,24.4,5,30z M92.3,25
		c-4.1,0-7.5,3.3-7.5,7.4c0,4.1,3.4,7.4,7.5,7.4c4.1,0,7.5-3.3,7.5-7.4S96.4,25,92.3,25z M92.3,36.8c-2.4,0-4.3-2-4.3-4.4
		c0-2.4,1.9-4.4,4.3-4.4c2.4,0,4.3,2,4.3,4.4C96.6,34.8,94.7,36.8,92.3,36.8z M111.8,25.3l-6.2,9.2v-9.2h-3.1v14.3h3.2l6.2-9.2v9.2
		h3.2V25.3C115,25.3,111.8,25.3,111.8,25.3z M34.9,32c0.8-0.5,1.5-1.5,1.5-2.7c0-2.3-1.7-4-4.1-4h-8v14.3h8.3c2.4,0,4.2-1.7,4.2-4.1
		C36.8,33.8,35.8,32.5,34.9,32L34.9,32z M27.5,28.1h4.3c0.8,0,1.4,0.6,1.4,1.4c0,0.8-0.6,1.4-1.4,1.4h-4.3
		C27.5,30.8,27.5,28.1,27.5,28.1z M32,36.7h-4.5v-3.1H32c0.9,0,1.6,0.7,1.6,1.5C33.6,36,32.9,36.7,32,36.7L32,36.7z M44.6,25.3
		c-2.8,0-4.9,2.1-4.9,4.9c0,2.3,1.4,4.1,3.5,4.7l-3.9,4.7h4.1l3.7-4.5h1.8v4.5H52V25.3C52,25.3,44.6,25.3,44.6,25.3z M45,28.1h3.8
		v4.2H45c-1.3,0-2.2-1-2.2-2.1C42.8,29,43.7,28.1,45,28.1z M72.8,25.3h-3.2v14.3h3.2v-5.8H79v5.8h3.2V25.3H79v5.7h-6.2
		C72.8,30.9,72.8,25.3,72.8,25.3z M55.2,38.7v-3.2c1.2,0.7,2.8,1.2,4.5,1.2c2.1,0,3.4-0.6,3.4-1.8c0-1-1.2-1.4-2.7-1.4h-2.4v-2.8
		h2.4c1.5,0,2.4-0.6,2.4-1.3c0-1.1-1.3-1.5-2.9-1.5c-1.8,0-3.2,0.5-4.4,1.1v-3.1c1.2-0.6,2.9-1.1,4.9-1.1c3.1,0,5.6,1.7,5.6,3.9
		c0,1.7-1,2.7-1.7,3c1,0.5,2.1,1.7,2.1,3.4c0,2.7-2.5,4.5-6.3,4.5C58,39.8,56.4,39.4,55.2,38.7z"/>
	<path class="st1" d="M108.4,24.5c2.5,0,4.3-1.5,4.5-3.8l-2.6-0.3c0,1-0.9,1.7-2,1.7s-2-0.7-2-1.7l-2.6,0.3
		C104.1,23,106,24.5,108.4,24.5"/>
</g>
</svg>
