<?xml version="1.0" encoding="utf-8"?>
<!-- Generator: Adobe Illustrator 22.1.0, SVG Export Plug-In . SVG Version: 6.00 Build 0)  -->
<svg version="1.1" id="Layer_1" xmlns="http://www.w3.org/2000/svg" xmlns:xlink="http://www.w3.org/1999/xlink" x="0px" y="0px"
	 viewBox="0 0 120 60" style="enable-background:new 0 0 120 60;" xml:space="preserve">
<style type="text/css">
	.st0{fill:#010101;}
	.st1{fill:#F7931E;}
</style>
<g>
	<path class="st0" d="M55.7,38.2c-1.4,0-2.4-0.5-3.2-1.6c-0.8-1.1-1.2-2.7-1.2-4.9c0-1,0.1-1.9,0.3-2.7c0.2-0.8,0.5-1.5,0.8-2.1
		c0.4-0.5,0.8-1,1.4-1.3c0.6-0.3,1.2-0.5,1.9-0.5c0.6,0,1,0.1,1.4,0.2c0.4,0.1,0.7,0.3,1,0.5l-0.3,1.9c-0.3-0.2-0.6-0.5-0.9-0.6
		c-0.4-0.2-0.7-0.3-1.1-0.3c-0.7,0-1.3,0.4-1.7,1.2c-0.5,0.8-0.7,2-0.7,3.6c0,1.6,0.2,2.8,0.6,3.7s1,1.3,1.8,1.3
		c0.5,0,0.9-0.1,1.3-0.2c0.4-0.2,0.7-0.3,0.9-0.6l0.5,1.4c-0.3,0.3-0.7,0.5-1.1,0.7C56.8,38.1,56.3,38.2,55.7,38.2z M45.6,31.7V38
		h-2V25.4h2v5.8l3-5.8h2l-3.1,5.9l3.6,6.7H49L45.6,31.7L45.6,31.7z M38.2,26.8c-0.6,0-1,0.3-1.3,1c-0.2,0.7-0.4,1.6-0.5,2.7h3.2
		c0-0.5,0-1-0.1-1.5c0-0.5-0.1-0.9-0.2-1.2c-0.1-0.3-0.3-0.6-0.5-0.8C38.7,26.9,38.5,26.8,38.2,26.8z M41.7,37.1
		c-0.4,0.3-0.9,0.6-1.4,0.7c-0.5,0.2-1.1,0.3-1.7,0.3c-1.3,0-2.3-0.5-3.1-1.5c-0.7-1-1.1-2.5-1.1-4.4c0-1,0.1-2,0.2-2.8
		c0.1-0.8,0.4-1.6,0.7-2.2c0.3-0.6,0.7-1.1,1.2-1.5c0.5-0.4,1.1-0.5,1.7-0.5c0.5,0,1,0.1,1.4,0.3c0.4,0.2,0.8,0.6,1.1,1
		c0.3,0.5,0.5,1.1,0.7,1.8c0.2,0.7,0.2,1.6,0.2,2.7v1.1h-5.3c0,1.4,0.2,2.5,0.6,3.3c0.4,0.7,1,1.1,1.8,1.1c0.6,0,1-0.1,1.5-0.3
		c0.4-0.2,0.8-0.4,1-0.6L41.7,37.1L41.7,37.1z M30.3,27h-2.2v0.2c0,0.7,0,1.4,0,2.2c0,0.8-0.1,1.6-0.2,2.4c-0.1,0.8-0.2,1.6-0.4,2.4
		c-0.1,0.7-0.3,1.5-0.6,2.2h3.4L30.3,27L30.3,27z M33.2,40.5h-1.8V38H26v2.5h-1.8v-4.1H25c0.3-0.7,0.5-1.4,0.7-2.2
		c0.2-0.8,0.3-1.6,0.4-2.5c0.1-0.9,0.1-1.7,0.2-2.6c0-0.9,0-1.8,0-2.6v-1.1h5.9v11h1V40.5L33.2,40.5z M23.1,25.3V38h-1.9v-5.7h-2.9
		V38h-2V25.3h2v5.4h2.9v-5.4H23.1L23.1,25.3z M89.9,20.1h6.6v1h-5.3v7.2h4.6v1h-4.6V37h5.4v1h-6.6V20.1z M100.7,32.8
		c-0.1,1-0.3,1.9-0.4,2.6c-0.2,0.7-0.4,1.2-0.8,1.6h4.8V26.4h-3.2c0,0.7,0,1.4-0.1,2.1c0,0.6-0.1,1.3-0.1,2.1
		C100.9,31.3,100.8,32,100.7,32.8z M105.6,38h-6.9l-0.1,2.5h-0.9V37h0.5c0.4-0.2,0.7-0.7,0.9-1.5c0.2-0.8,0.4-1.8,0.6-3
		c0.1-0.8,0.1-1.6,0.2-2.4c0-0.8,0.1-1.6,0.1-2.3c0-0.8,0.1-1.6,0.1-2.4h5.5V37h1.2v3.5h-0.9L105.6,38L105.6,38z M111.1,37.2
		c0.6,0,1.1-0.2,1.5-0.7c0.4-0.5,0.8-1.1,1-1.7v-3.5h-1.4c-1.1,0-1.8,0.2-2.3,0.7c-0.5,0.5-0.7,1.3-0.7,2.4c0,0.9,0.2,1.6,0.5,2.1
		C110,37,110.5,37.2,111.1,37.2z M113.9,38c0-0.2-0.1-0.4-0.2-0.6c-0.1-0.3-0.1-0.6-0.1-1.1c-0.3,0.6-0.6,1-1.1,1.4
		c-0.5,0.4-1,0.5-1.6,0.5c-0.8,0-1.5-0.3-2.1-1c-0.5-0.7-0.8-1.5-0.8-2.7c0-1.4,0.4-2.4,1.1-3.1c0.7-0.7,1.8-1,3.1-1h1.4v-1.6
		c0-1-0.2-1.7-0.5-2.1c-0.3-0.4-0.9-0.7-1.6-0.7c-0.5,0-1,0.1-1.5,0.4c-0.5,0.2-0.9,0.6-1.2,1l-0.3-1.1c0.2-0.3,0.6-0.6,1.1-0.9
		c0.5-0.3,1.1-0.4,1.8-0.4c1.1,0,1.9,0.3,2.4,0.9c0.6,0.6,0.8,1.5,0.8,2.8v6.9c0,0.4,0,0.9,0.1,1.3c0,0.4,0.1,0.8,0.2,1L113.9,38
		L113.9,38L113.9,38z"/>
	<path class="st1" d="M76.7,27.9c0,0,0-0.1,0-0.1c-0.1-0.1-0.1-0.3-0.2-0.4c-0.1-0.2-0.3-0.4-0.5-0.5c-0.2-0.2-0.4-0.3-0.6-0.4
		c-0.2-0.1-0.5-0.2-0.7-0.2c-0.3,0-0.5,0-0.8,0c-0.3,0-0.6,0.1-0.8,0.3c-0.3,0.1-0.5,0.3-0.7,0.5c-0.2,0.2-0.4,0.5-0.6,0.7
		c-0.2,0.3-0.3,0.6-0.4,0.9c-0.1,0.3-0.1,0.7-0.1,1c0,0.4,0.1,0.7,0.2,1c0.1,0.3,0.3,0.7,0.5,1c0.2,0.3,0.5,0.6,0.7,0.8
		c0.6,0.5,1.3,0.9,2.1,1c0.4,0.1,0.8,0.1,1.3,0c0.4,0,0.9-0.1,1.3-0.3c0.4-0.2,0.8-0.4,1.2-0.6c0.4-0.3,0.7-0.6,1-1
		c0.3-0.4,0.5-0.8,0.7-1.2c0.2-0.5,0.3-0.9,0.4-1.4c0.1-0.5,0.1-1,0-1.5c-0.1-0.5-0.2-1-0.4-1.5c-0.2-0.5-0.5-1-0.8-1.4
		c-0.3-0.4-0.7-0.8-1.2-1.2c-0.5-0.3-1-0.6-1.5-0.8c-0.5-0.2-1.1-0.4-1.7-0.4c-0.6-0.1-1.2-0.1-1.8,0c-0.6,0.1-1.2,0.3-1.8,0.5
		c-0.6,0.3-1.1,0.6-1.6,1c-0.5,0.4-0.9,0.9-1.3,1.4c-0.4,0.5-0.7,1.1-0.9,1.7c-0.2,0.6-0.4,1.3-0.5,2c-0.1,0.7,0,1.4,0.1,2.1
		c0.1,0.7,0.3,1.4,0.6,2c0.3,0.7,0.7,1.3,1.1,1.8c0.5,0.6,1,1.1,1.6,1.5c0.6,0.4,1.3,0.8,2,1c0.7,0.3,1.5,0.4,2.2,0.5
		c0.8,0.1,1.6,0,2.3-0.1c0.8-0.1,1.5-0.4,2.2-0.7c0.7-0.3,1.4-0.8,2-1.3c0.6-0.5,1.2-1.1,1.6-1.8c0.5-0.7,0.9-1.4,1.1-2.2
		c0.3-0.8,0.5-1.6,0.5-2.5c0.1-0.9,0-1.7-0.1-2.6c-0.2-0.9-0.4-1.7-0.8-2.5c-0.4-0.8-0.9-1.6-1.5-2.2c-0.6-0.7-1.3-1.3-2-1.8
		c-0.8-0.5-1.6-0.9-2.5-1.2c-0.9-0.3-1.8-0.5-2.8-0.6c-1-0.1-1.9,0-2.9,0.2c-1,0.2-1.9,0.5-2.8,0.9c-0.9,0.4-1.7,1-2.4,1.6
		c-0.8,0.7-1.4,1.4-2,2.3c-0.6,0.8-1,1.8-1.3,2.7c-0.3,1-0.5,2-0.6,3c-0.1,2.1,0.3,4.2,1.3,6.1c0.5,1,1.1,1.9,1.8,2.7
		c0.7,0.8,1.6,1.5,2.5,2.1c1.9,1.2,4,1.9,6.3,2.1c0.2,0,0.5,0,0.7,0c0.9,0,1.8-0.1,2.7-0.3c1.1-0.2,2.2-0.6,3.2-1.1
		c1-0.5,2-1.2,2.9-2L83,37c-0.7,0.7-1.5,1.2-2.4,1.7c-0.9,0.4-1.8,0.8-2.7,1c-0.9,0.2-1.9,0.3-2.8,0.2c-0.9-0.1-1.9-0.2-2.8-0.5
		c-0.9-0.3-1.7-0.7-2.5-1.2c-0.8-0.5-1.5-1.1-2.1-1.8c-0.6-0.7-1.1-1.4-1.5-2.2c-0.4-0.8-0.7-1.6-0.9-2.5c-0.2-0.8-0.2-1.7-0.2-2.6
		c0-0.8,0.2-1.7,0.5-2.5c0.3-0.8,0.6-1.5,1.1-2.2c0.5-0.7,1-1.3,1.6-1.8c0.6-0.5,1.3-1,2-1.3c0.7-0.3,1.5-0.6,2.2-0.8
		c0.8-0.1,1.5-0.2,2.3-0.1c0.7,0,1.5,0.2,2.2,0.4c0.7,0.2,1.4,0.6,2,1c0.6,0.4,1.2,0.9,1.6,1.4c0.5,0.5,0.9,1.1,1.2,1.8
		c0.3,0.6,0.5,1.3,0.7,2c0.1,0.7,0.2,1.4,0.1,2.1c0,0.7-0.2,1.3-0.4,2c-0.2,0.6-0.5,1.2-0.9,1.7c-0.4,0.5-0.8,1-1.3,1.4
		c-0.5,0.4-1,0.7-1.6,1c-0.6,0.3-1.1,0.4-1.7,0.6c-0.6,0.1-1.2,0.1-1.8,0.1c-0.6-0.1-1.1-0.2-1.7-0.4c-0.5-0.2-1-0.5-1.5-0.8
		c-0.4-0.3-0.9-0.7-1.2-1.1c-0.3-0.4-0.6-0.9-0.8-1.4c-0.2-0.5-0.4-1-0.5-1.5c-0.1-0.5-0.1-1,0-1.5c0-0.5,0.2-1,0.3-1.4
		c0.2-0.4,0.4-0.9,0.7-1.3c0.3-0.4,0.6-0.7,0.9-1c0.3-0.3,0.7-0.5,1.1-0.7c0.4-0.2,0.8-0.3,1.2-0.4c0.4-0.1,0.8-0.1,1.2,0
		c0.4,0,0.8,0.1,1.2,0.3c0.4,0.1,0.7,0.3,1,0.6c0.3,0.2,0.6,0.5,0.8,0.8c0.2,0.3,0.4,0.6,0.5,0.9c0.1,0.3,0.2,0.7,0.3,1
		c0,0.3,0,0.7,0,1c0,0.3-0.1,0.6-0.2,0.9c-0.1,0.3-0.3,0.5-0.5,0.7c-0.2,0.2-0.4,0.4-0.6,0.6c-0.2,0.2-0.5,0.3-0.7,0.4
		c-0.2,0.1-0.5,0.1-0.7,0.2c-0.2,0-0.5,0-0.7,0c-0.2,0-0.4-0.1-0.6-0.2c-0.2-0.1-0.4-0.2-0.5-0.3c-0.1-0.1-0.3-0.3-0.4-0.4
		c-0.1-0.1-0.2-0.3-0.2-0.5c0-0.1-0.1-0.3-0.1-0.5c0-0.1,0-0.3,0-0.4c0-0.1,0.1-0.2,0.1-0.4c0-0.1,0.1-0.2,0.2-0.3
		c0.1-0.1,0.2-0.1,0.2-0.2c0,0,0.1,0,0.2-0.1c0,0.7,0.6,1.2,1.3,1.2c0.7,0,1.3-0.6,1.3-1.3C76.7,28.1,76.7,28,76.7,27.9"/>
	<path class="st0" d="M11.9,21.7h-1c-0.4,0-0.8,0.1-1.1,0.2c-0.4,0.1-0.7,0.4-1,0.7c-0.3,0.3-0.5,0.7-0.7,1.2
		c-0.2,0.5-0.3,1.1-0.3,1.9c0,0.7,0.1,1.3,0.2,1.8c0.2,0.5,0.4,0.9,0.7,1.2c0.3,0.3,0.6,0.5,1,0.6c0.4,0.1,0.8,0.2,1.2,0.2h1
		L11.9,21.7L11.9,21.7z M10.3,31.1L7.2,38H5l3.4-7.3c-0.8-0.4-1.4-1-1.9-1.8C6,28.1,5.7,27,5.7,25.7c0-0.9,0.1-1.8,0.4-2.5
		s0.7-1.3,1.1-1.8c0.5-0.5,1-0.8,1.7-1.1c0.6-0.2,1.3-0.4,2-0.4h2.9V38h-1.9v-6.9L10.3,31.1L10.3,31.1L10.3,31.1z"/>
</g>
</svg>
