<?xml version="1.0" encoding="utf-8"?>
<!-- Generator: Adobe Illustrator 22.1.0, SVG Export Plug-In . SVG Version: 6.00 Build 0)  -->
<svg version="1.0" id="Layer_1" xmlns="http://www.w3.org/2000/svg" xmlns:xlink="http://www.w3.org/1999/xlink" x="0px" y="0px"
	 viewBox="0 0 300 150" style="enable-background:new 0 0 300 150;" xml:space="preserve">
<path id="Combined-Shape" d="M66.4,44.1h19.1L45.6,96.7L26.9,72.4v33.5H10V44.1h15l20.6,27.3L66.4,44.1z M275,44.1h15v61.8h-16.9
	V72.4l-18.7,22.2l-18.7-22.2v33.5h-16.9V44.1h15l20.6,27.3L275,44.1z M119.8,92.2c4.6,0,8.8-1.7,12.6-4.4l8.3,11.8
	c-6.2,4.8-13,7.7-20.9,7.7c-20,0-35.1-14.4-35.1-32.2s15.1-32.3,35.1-32.3c7.9,0,14.7,2.9,20.9,7.8l-8.3,11.7
	c-3.8-2.8-8-4.3-12.6-4.3c-10.6,0-18.6,7.5-18.6,17.1C101.1,84.6,109.2,92.2,119.8,92.2z M177.1,42.7c17.8,0,33.2,14.5,33.2,32.3
	s-15.4,32.2-33.2,32.2S143.8,92.9,143.8,75S159.2,42.7,177.1,42.7z M177.1,91.6c9.4,0,17-7.5,17-16.9s-7.6-17-17-17
	c-9.4,0-17,7.6-17,17S167.7,91.6,177.1,91.6z"/>
</svg>
