<?xml version="1.0" encoding="utf-8"?>
<!-- Generator: Adobe Illustrator 22.1.0, SVG Export Plug-In . SVG Version: 6.00 Build 0)  -->
<svg version="1.0" id="Layer_1" xmlns="http://www.w3.org/2000/svg" xmlns:xlink="http://www.w3.org/1999/xlink" x="0px" y="0px"
	 viewBox="0 0 360 360" style="enable-background:new 0 0 360 360;" xml:space="preserve">
<style type="text/css">
	.st0{fill:#D1D1D1;}
	.st1{fill:#AFAFAF;}
	.st2{fill:#BFBFBF;}
	.st3{fill:#FDD301;}
	.st4{fill:#FDE35F;}
	.st5{fill:#3A3A3A;}
	.st6{fill:#A48900;}
</style>
<g>
	<g>
		<path class="st0" d="M0,199.1l69.3,41.5v19.2L0,218.3V199.1z"/>
		<path class="st1" d="M237.8,139.5L69.3,240.7v19.2l168.5-101.1V139.5z"/>
		<path class="st2" d="M0,199.1l69.3,41.5l168.5-101.1L168.5,98L0,199.1z"/>
		<path class="st3" d="M0,164l69.3,41.5v35.1L0,199.1V164z"/>
		<path class="st4" d="M0,164l69.3,41.5l168.5-101L168.5,63L0,164z"/>
		<path class="st3" d="M99.2,69.4l69.3,41.5V146l-69.3-41.5V69.4z"/>
		<path class="st5" d="M99.2,69.4l69.3,41.5l69.3-41.5l-69.3-41.5L99.2,69.4z"/>
		<path class="st3" d="M110,67.3l42.7,25.5v8.7L110,76.1V67.3z"/>
		<path class="st6" d="M158,89.7l-5.3,3.2v8.7l5.3-3.2V89.7z"/>
		<path class="st4" d="M110,67.3l42.7,25.5l5.3-3.2l-42.7-25.5L110,67.3z"/>
		<path class="st3" d="M77.8,169.4l21.3,12.8v5.3l-21.3-12.8V169.4z"/>
		<path class="st4" d="M77.8,169.4l21.3,12.8l69.3-41.5l-21.3-12.8L77.8,169.4z"/>
		<path class="st3" d="M141.8,101.3l21.3,12.8v29.8l-21.3-12.8V101.3z"/>
		<path class="st4" d="M141.8,101.3l21.3,12.8l5.3-3.2l-21.3-12.8L141.8,101.3z"/>
		<g>
			<path class="st3" d="M29.9,140.7l21.3,12.8v5.3L29.9,146V140.7z"/>
			<path class="st6" d="M120.5,112l-69.3,41.5v5.3l69.3-41.5V112z"/>
			<path class="st4" d="M29.9,140.7l21.3,12.8l69.3-41.5L99.2,99.2L29.9,140.7z"/>
		</g>
		<g>
			<path class="st0" d="M50.9,139.9l42.7,25.5v5.3l-42.7-25.5C50.9,145.2,50.9,139.9,50.9,139.9z"/>
			<path class="st1" d="M98.8,162.3l-5.3,3.2v5.3l5.3-3.2V162.3z"/>
			<path class="st2" d="M50.9,139.9l42.7,25.5l5.3-3.2l-42.7-25.5L50.9,139.9z"/>
		</g>
		<g>
			<path class="st0" d="M66,131.6l42.7,25.5v5.3L66,137V131.6z"/>
			<path class="st1" d="M114,154l-5.3,3.2v5.3l5.3-3.2V154z"/>
			<path class="st2" d="M66,131.6l42.7,25.5l5.3-3.2l-42.7-25.5L66,131.6z"/>
		</g>
		<g>
			<path class="st0" d="M81,122.9l42.7,25.5v5.3L81,128.2V122.9z"/>
			<path class="st1" d="M129,145.3l-5.3,3.2v5.3l5.3-3.2V145.3z"/>
			<path class="st2" d="M81,122.9l42.7,25.5l5.3-3.2l-42.7-25.5L81,122.9z"/>
		</g>
		<g>
			<path class="st0" d="M96.2,114.6l42.7,25.5v5.3l-42.7-25.5V114.6z"/>
			<path class="st1" d="M144.2,137l-5.3,3.2v5.3l5.3-3.2V137z"/>
			<path class="st2" d="M96.2,114.6l42.7,25.5l5.3-3.2l-42.7-25.5L96.2,114.6z"/>
		</g>
		<g>
			<path class="st3" d="M93.8,72.5l21.3,12.8v29.8l-21.3-12.8V72.5z"/>
			<path class="st6" d="M120.5,82.1l-5.3,3.2v29.8l5.3-3.2V82.1z"/>
			<path class="st4" d="M93.8,72.6l21.3,12.8l5.3-3.2L99.2,69.4L93.8,72.6z"/>
		</g>
		<g>
			<path class="st0" d="M101.8,93.5l42.7,25.5v5.3l-42.7-25.5V93.5z"/>
			<path class="st1" d="M149.8,115.9l-5.3,3.2v5.3l5.3-3.2V115.9z"/>
			<path class="st2" d="M101.8,93.5l42.7,25.5l5.3-3.2l-42.7-25.5L101.8,93.5z"/>
		</g>
		<path class="st6" d="M69.3,240.8v-35.1l29.9-18.1v-5.3l64-38.3v-29.8l74.6-44.7v70.3L69.3,240.8z"/>
	</g>
</g>
</svg>
