<?xml version="1.0" encoding="utf-8"?>
<!-- Generator: Adobe Illustrator 22.1.0, SVG Export Plug-In . SVG Version: 6.00 Build 0)  -->
<svg version="1.0" id="Layer_1" xmlns="http://www.w3.org/2000/svg" xmlns:xlink="http://www.w3.org/1999/xlink" x="0px" y="0px"
	 viewBox="0 0 360 360" style="enable-background:new 0 0 360 360;" xml:space="preserve">
<style type="text/css">
	.st0{fill:#D1D1D1;}
	.st1{fill:#AFAFAF;}
	.st2{fill:#BFBFBF;}
	.st3{fill:#FDD301;}
	.st4{fill:#FDE35F;}
	.st5{fill:#3A3A3A;}
	.st6{fill:#A48900;}
	.st7{fill:#E7E7E7;}
	.st8{fill:#C8C8C8;}
	.st9{fill:#A6A6A6;}
</style>
<g>
	<path class="st0" d="M122.2,271.5l69.3,41.5v19.2l-69.3-41.5V271.5z"/>
	<path class="st1" d="M360,211.9L191.5,313v19.2L360,231V211.9z"/>
	<path class="st2" d="M122.2,271.5l69.3,41.5L360,211.9l-69.3-41.5L122.2,271.5z"/>
	<path class="st3" d="M122.2,236.3l69.3,41.5V313l-69.3-41.5V236.3z"/>
	<path class="st4" d="M122.2,236.3l69.3,41.5l168.5-101l-69.3-41.5L122.2,236.3z"/>
	<path class="st3" d="M221.4,141.7l69.3,41.5v35.1l-69.3-41.5L221.4,141.7L221.4,141.7z"/>
	<path class="st5" d="M221.4,141.7l69.3,41.5l69.3-41.5l-69.3-41.5L221.4,141.7z"/>
	<path class="st3" d="M232.3,139.7l42.7,25.5v8.7l-42.7-25.5V139.7z"/>
	<path class="st6" d="M280.2,162l-5.3,3.2v8.7l5.3-3.2V162z"/>
	<path class="st4" d="M232.3,139.7l42.7,25.5l5.3-3.2l-42.7-25.5L232.3,139.7z"/>
	<path class="st3" d="M200.1,241.8l21.3,12.8v5.3l-21.3-12.8V241.8z"/>
	<path class="st4" d="M200.1,241.8l21.3,12.8l69.3-41.5l-21.3-12.8L200.1,241.8z"/>
	<path class="st3" d="M264,173.6l21.3,12.8v29.8L264,203.4V173.6z"/>
	<path class="st4" d="M264,173.6l21.3,12.8l5.3-3.2l-21.3-12.8L264,173.6z"/>
	<path class="st3" d="M152.1,213l21.3,12.8v5.3l-21.3-12.8V213z"/>
	<path class="st6" d="M242.7,184.3l-69.3,41.5v5.3l69.3-41.5V184.3z"/>
	<path class="st4" d="M152.1,213l21.3,12.8l69.3-41.5l-21.3-12.8L152.1,213z"/>
	<g>
		<path class="st0" d="M173.1,212.3l42.7,25.5v5.3l-42.7-25.5V212.3z"/>
		<path class="st1" d="M221.1,234.6l-5.3,3.2v5.3l5.3-3.2V234.6z"/>
		<path class="st2" d="M173.1,212.3l42.7,25.5l5.3-3.2l-42.7-25.5L173.1,212.3z"/>
	</g>
	<g>
		<path class="st0" d="M188.2,204l42.7,25.5v5.3l-42.7-25.5V204z"/>
		<path class="st1" d="M236.2,226.3l-5.3,3.2v5.3l5.3-3.2V226.3z"/>
		<path class="st2" d="M188.2,204l42.7,25.5l5.3-3.2l-42.7-25.5L188.2,204z"/>
	</g>
	<g>
		<path class="st0" d="M203.3,195.2l42.7,25.5v5.3l-42.7-25.5V195.2z"/>
		<path class="st1" d="M251.2,217.6l-5.3,3.2v5.3l5.3-3.2V217.6z"/>
		<path class="st2" d="M203.3,195.2l42.7,25.5l5.3-3.2L208.6,192L203.3,195.2z"/>
	</g>
	<g>
		<path class="st0" d="M218.4,186.9l42.7,25.5v5.3l-42.7-25.5L218.4,186.9L218.4,186.9z"/>
		<path class="st1" d="M266.4,209.3l-5.3,3.2v5.3l5.3-3.2V209.3z"/>
		<path class="st2" d="M218.4,186.9l42.7,25.5l5.3-3.2l-42.7-25.5L218.4,186.9z"/>
	</g>
	<g>
		<path class="st3" d="M216.1,144.9l21.3,12.8v29.8l-21.3-12.8V144.9z"/>
		<path class="st6" d="M242.7,154.5l-5.3,3.2v29.8l5.3-3.2V154.5z"/>
		<path class="st4" d="M216.1,144.9l21.3,12.8l5.3-3.2l-21.3-12.8L216.1,144.9z"/>
	</g>
	<g>
		<path class="st0" d="M224,165.9l42.7,25.5v5.3L224,171.2V165.9z"/>
		<path class="st1" d="M272,188.2l-5.3,3.2v5.3l5.3-3.2V188.2z"/>
		<path class="st2" d="M224,165.9l42.7,25.5l5.3-3.2l-42.7-25.5L224,165.9z"/>
	</g>
	<path class="st6" d="M191.5,313.1V278l29.9-18.1v-5.3l64-38.3v-29.8l74.6-44.7V212L191.5,313.1z"/>
	<g>
		<path class="st7" d="M319.4,192.4l2.7-1.6v-3.2l18.7-11.2v3.2l2.7-1.6v22.4l-2.7,1.6v3.2L322,216.3v-3.2l-2.7,1.6v-22.3H319.4z"/>
		<path class="st5" d="M338.6,183.3l-14.4,8.7v17.4l14.4-8.7V183.3z"/>
		<path class="st8" d="M319.4,214.7l2.7-1.6v3.2L319.4,214.7z M316.7,213.1l2.7,1.6v-22.4l-2.7-1.6V213.1z"/>
		<path class="st9" d="M316.7,190.8l2.7-1.6l2.7,1.6l-2.7,1.6L316.7,190.8z"/>
		<path class="st8" d="M319.4,189.2V186l2.7,1.6v3.2L319.4,189.2z"/>
		<path class="st9" d="M319.4,186l2.7,1.6l18.7-11.2l-2.7-1.6L319.4,186z"/>
		<path class="st9" d="M340.7,179.6l2.7-1.6l-2.7-1.6V179.6z"/>
	</g>
</g>
</svg>
