<?xml version="1.0" encoding="utf-8"?>
<!-- Generator: Adobe Illustrator 22.1.0, SVG Export Plug-In . SVG Version: 6.00 Build 0)  -->
<svg version="1.0" id="Layer_1" xmlns="http://www.w3.org/2000/svg" xmlns:xlink="http://www.w3.org/1999/xlink" x="0px" y="0px"
	 viewBox="0 0 360 360" style="enable-background:new 0 0 360 360;" xml:space="preserve">
<style type="text/css">
	.st0{fill:#222222;}
	.st1{fill:#4A4A4A;}
	.st2{fill:#D1D1D1;}
	.st3{fill:#AFAFAF;}
	.st4{fill:#BFBFBF;}
	.st5{fill:#FDD301;}
	.st6{fill:#A48900;}
	.st7{fill:#FDE35F;}
	.st8{fill:#3A3A3A;}
	.st9{fill:#7B7B7B;}
	.st10{fill:#FDE672;}
	.st11{fill:#D8B501;}
	.st12{fill:#F4E28B;}
</style>
<g>
	<g>
		<path class="st0" d="M255,259.8l51.9-31.1v-17.3l10.4-6.2v-24.5l12.4-7.5V83.6L255,128.4V259.8z"/>
		<path class="st1" d="M255,128.4l-74.8-45v90l12.6,7.3v24.6l10.4,6.2v17.3l51.9,31.1V128.4z"/>
		<path class="st2" d="M173.1,75.9l82.1,49.3v14.8l-82.1-49.3V75.9z"/>
		<path class="st3" d="M337.3,75.9l-82.1,49.3v14.8l82.1-49.3V75.9z"/>
		<path class="st4" d="M173.1,75.9l82.1,49.3l82.1-49.3l-82.1-49.3L173.1,75.9z"/>
		<g>
			<path class="st2" d="M222.2,72.7L255,92.5v6l-32.8-19.8V72.7z"/>
			<path class="st3" d="M287.9,72.7L255,92.5v6l32.8-19.8V72.7z"/>
			<path class="st4" d="M222.2,72.7L255,92.5l32.8-19.8L255,52.9L222.2,72.7z"/>
		</g>
		<g>
			<path class="st5" d="M244,59.7l11.1,6.6v13.3L244,72.9L244,59.7z"/>
			<path class="st6" d="M266.1,59.7L255,66.3v13.3l11.1-6.6V59.7z"/>
			<path class="st7" d="M244,59.7l11.1,6.6l11.1-6.6L255,53L244,59.7z"/>
			<path class="st1" d="M244,46.4L255,53v13.3L244,59.7L244,46.4z"/>
			<path class="st0" d="M266.1,46.4L255,53v13.3l11.1-6.6V46.4z"/>
			<path class="st8" d="M244,46.4L255,53l11.1-6.6L255,39.8L244,46.4z"/>
			<path class="st5" d="M244,33.2l11.1,6.6V53L244,46.4L244,33.2z"/>
			<path class="st6" d="M266.1,33.2L255,39.8V53l11.1-6.6V33.2z"/>
			<path class="st7" d="M244,33.2l11.1,6.6l11.1-6.6L255,26.5L244,33.2z"/>
			<g>
				<path class="st1" d="M244,19.9l11.1,6.6v13.3L244,33.2L244,19.9z"/>
				<path class="st0" d="M266.1,19.9L255,26.5v13.3l11.1-6.6V19.9z"/>
				<path class="st8" d="M244,19.9l11.1,6.6l11.1-6.6L255,13.3L244,19.9z"/>
			</g>
			<g>
				<path class="st5" d="M244,6.6l11.1,6.6v13.3L244,19.9L244,6.6z"/>
				<path class="st6" d="M266.1,6.6L255,13.3v13.3l11.1-6.6V6.6z"/>
				<path class="st7" d="M244,6.6l11.1,6.6l11.1-6.6L255,0L244,6.6z"/>
			</g>
			<g>
				<path class="st1" d="M232.9,13.3l11.1,6.6v13.3l-11.1-6.6V13.3z"/>
				<path class="st0" d="M255,13.3L244,19.9v13.3l11.1-6.6V13.3z"/>
				<path class="st8" d="M232.9,13.3l11.1,6.6l11.1-6.6L244,6.6L232.9,13.3z"/>
			</g>
			<g>
				<path class="st5" d="M221.9,19.9l11.1,6.6v13.3l-11.1-6.6V19.9z"/>
				<path class="st6" d="M244,19.9l-11.1,6.6v13.3l11.1-6.6L244,19.9z"/>
				<path class="st7" d="M221.9,19.9l11.1,6.6l11.1-6.6l-11.1-6.6L221.9,19.9z"/>
			</g>
		</g>
		<g>
			<path class="st5" d="M22.7,281.2l98.5,59.1V360l-98.5-59.1V281.2z"/>
			<path class="st6" d="M121.2,340.3l98.5-59.1v19.7L121.2,360V340.3z"/>
			<path class="st7" d="M121.2,340.3l-98.5-59.1l98.5-59.1l98.5,59.1L121.2,340.3z"/>
			<path class="st2" d="M39.1,276.2l82.1,49.3v8.2l-82.1-49.3V276.2z"/>
			<path class="st3" d="M121.2,325.5l82.1-49.3v8.2l-82.1,49.3V325.5z"/>
			<path class="st9" d="M121.2,325.5l-82.1-49.3l82.1-49.3l82.1,49.3L121.2,325.5z"/>
			<path class="st1" d="M55.5,266.4l65.7,39.4v13.1l-65.7-39.4V266.4z"/>
			<path class="st0" d="M121.2,305.8l65.7-39.4v13.1l-65.7,39.4V305.8z"/>
			<path class="st8" d="M121.2,305.8l-65.7-39.4l65.7-39.4l65.7,39.4L121.2,305.8z"/>
			<g>
				<path class="st10" d="M107.7,256.5l49.3,29.6v4.9l-49.3-29.6V256.5z"/>
				<path class="st11" d="M157,286.1l49.3-29.6v4.9L157,291V286.1z"/>
				<path class="st12" d="M157,286.1l-49.3-29.6L157,227l49.3,29.6L157,286.1z"/>
			</g>
			<g>
				<path class="st10" d="M22.7,263.1l49.3,29.6v4.9L22.7,268V263.1z"/>
				<path class="st11" d="M71.9,292.7l49.3-29.6v4.9l-49.3,29.6V292.7z"/>
				<path class="st12" d="M71.9,292.7l-49.3-29.6l49.3-29.6l49.3,29.6L71.9,292.7z"/>
			</g>
			<g>
				<path class="st2" d="M39.1,245.4l82.1,49.3v8.2l-82.1-49.3V245.4z"/>
				<path class="st3" d="M121.2,294.6l82.1-49.3v8.2l-82.1,49.3V294.6z"/>
				<path class="st4" d="M121.2,294.6l-82.1-49.3l82.1-49.3l82.1,49.3L121.2,294.6z"/>
			</g>
			<g>
				<path class="st5" d="M22.7,218.8l98.5,59.1v19.7l-98.5-59.1V218.8z"/>
				<path class="st6" d="M121.2,277.9l98.5-59.1v19.7l-98.5,59.1V277.9z"/>
				<path class="st7" d="M121.2,277.9l-98.5-59.1l98.5-59.1l98.5,59.1L121.2,277.9z"/>
				<g>
					<path class="st5" d="M39.1,208.9l82.1,49.3v8.2l-82.1-49.3V208.9z"/>
					<path class="st6" d="M121.2,258.2l82.1-49.3v8.2l-82.1,49.3V258.2z"/>
					<path class="st7" d="M121.2,258.2l-82.1-49.3l82.1-49.3l82.1,49.3L121.2,258.2z"/>
				</g>
			</g>
		</g>
	</g>
</g>
</svg>
