<?xml version="1.0" encoding="utf-8"?>
<!-- Generator: Adobe Illustrator 22.1.0, SVG Export Plug-In . SVG Version: 6.00 Build 0)  -->
<svg version="1.0" id="Layer_5" xmlns="http://www.w3.org/2000/svg" xmlns:xlink="http://www.w3.org/1999/xlink" x="0px" y="0px"
	 viewBox="0 0 360 360" style="enable-background:new 0 0 360 360;" xml:space="preserve">
<style type="text/css">
	.st0{fill:#FDE35F;}
	.st1{fill:#FDD301;}
	.st2{fill:#A48900;}
</style>
<g>
	<path class="st0" d="M22.7,218.8l98.5-59.1l98.5,59.1l-32.8,19.7l-32.8-19.7l-32.8,19.7l-16.4-9.9l-32.8,19.7L22.7,218.8z"/>
	<path class="st1" d="M22.7,218.8v19.7L71.9,268v-19.7L22.7,218.8z"/>
	<path class="st2" d="M71.9,268l32.8-19.7v-19.7l-32.8,19.7V268z"/>
	<path class="st1" d="M104.8,248.3l16.4,9.9v-19.7l-16.4-9.9V248.3z"/>
	<path class="st2" d="M121.2,258.2l32.8-19.7v-19.7l-32.8,19.7V258.2z"/>
	<path class="st1" d="M154.1,238.5l32.8,19.7v-19.7l-32.8-19.7V238.5z"/>
	<path class="st2" d="M186.9,258.2v-19.7l32.8-19.7v19.7L186.9,258.2z"/>
	<g>
		<path class="st0" d="M36.5,213.2l82.1-49.3l82.1,49.3l-27.4,16.4l-27.4-16.4l-27.4,16.4l-13.7-8.2l-27.4,16.4L36.5,213.2z"/>
		<path class="st1" d="M36.5,213.2v7.6l41.1,24.6v-7.6L36.5,213.2z"/>
		<path class="st2" d="M77.5,245.4l27.3-16.3v-7.6l-27.3,16.3V245.4z"/>
		<path class="st1" d="M104.8,229l16.4,9.5v-7.6l-16.4-9.5V229z"/>
		<path class="st2" d="M121.2,238.5l32.8-19.7v-7.9l-32.8,20V238.5z"/>
		<path class="st1" d="M178.7,233.5V226L154,210.9v7.9C154,218.9,162.3,223.8,178.7,233.5L178.7,233.5z"/>
		<path class="st2" d="M178.7,233.6V226l21.9-12.8v7.6L178.7,233.6z"/>
	</g>
</g>
</svg>
