<?xml version="1.0" encoding="utf-8"?>
<!-- Generator: Adobe Illustrator 22.1.0, SVG Export Plug-In . SVG Version: 6.00 Build 0)  -->
<svg version="1.0" id="Layer_1" xmlns="http://www.w3.org/2000/svg" xmlns:xlink="http://www.w3.org/1999/xlink" x="0px" y="0px"
	 viewBox="0 0 360 360" style="enable-background:new 0 0 360 360;" xml:space="preserve">
<style type="text/css">
	.st0{fill:#FDD301;}
	.st1{fill:#FDE35F;}
	.st2{fill:#A48900;stroke:#979797;stroke-width:0.5;}
	.st3{fill:#4A4A4A;}
	.st4{fill:#D1D1D1;}
	.st5{fill:#A48900;}
	.st6{fill:#BFBFBF;}
	.st7{fill:#AFAFAF;}
</style>
<g>
	<path class="st0" d="M146,9.7v235.5l182.5,109.3V119L146,9.7z"/>
	<path class="st1" d="M153,5.5l182.5,109.3l-7,4.2L146,9.7L153,5.5z"/>
	<path class="st0" d="M142.5,20.6v223.7l173.4,103.9V124.4L142.5,20.6z"/>
	<path class="st2" d="M155.8,44.5l6.7,4v183.8l-6.7,4V44.5z"/>
	<path class="st1" d="M155.8,236.3l6.7-4l140.1,83.9v8L155.8,236.3z"/>
	<path class="st3" d="M162.5,48.5v183.8l140.1,83.9V132.4L162.5,48.5z"/>
	<g>
		<path class="st4" d="M251,177.2l16.1,9.6V206l-16.1-9.6V177.2z"/>
		<path class="st4" d="M235,167.5l16.1,9.6v19.2l-16.1-9.6V167.5z"/>
		<path class="st4" d="M235,148.3l16.1,9.6v19.2l-16.1-9.6V148.3z"/>
		<path class="st0" d="M267.1,141.9l16,9.6v19.2l-16.1-9.6L267.1,141.9z"/>
		<path class="st4" d="M186.8,138.7l16.1,9.6v19.2l-16.1-9.6V138.7z M202.9,148.3l16.1,9.6v19.2l-16.1-9.6V148.3z"/>
		<path class="st0" d="M202.9,167.5l16.1,9.6v19.2l-16.1-9.6V167.5z M202.9,206l16.1,9.6v19.2l-16.1-9.6V206z"/>
		<path class="st0" d="M202.9,186.8l16.1,9.6v19.2l-16.1-9.6V186.8z"/>
		<path class="st0" d="M218.9,177.2l16.1,9.6V206l-16.1-9.6V177.2z M218.9,215.6l16.1,9.6v19.2l-16.1-9.6V215.6z"/>
		<path class="st4" d="M218.9,138.7l16.1,9.6v19.2l-16.1-9.6V138.7z"/>
		<path class="st4" d="M218.9,119.5l16.1,9.6v19.2l-16.1-9.6V119.5z"/>
		<path class="st4" d="M202.9,129.1l16.1,9.6v19.2l-16.1-9.6V129.1z M218.9,157.9l16.1,9.6v19.2l-16.1-9.6V157.9z"/>
		<path class="st0" d="M218.9,196.4L235,206v19.2l-16.1-9.6V196.4z M235,186.8l16.1,9.6v19.2L235,206V186.8z M235,225.2l16.1,9.6
			V254l-16.1-9.6V225.2z"/>
		<path class="st0" d="M235,206l16.1,9.6v19.2l-16.1-9.6V206z"/>
	</g>
	<path class="st1" d="M149.2,16.6l173.4,103.9l-6.7,4L142.5,20.6L149.2,16.6z"/>
	<path class="st5" d="M315.9,124.4l6.7-4v223.7l-6.7,4V124.4z M328.5,119l7-4.2v235.5l-7,4.2V119z"/>
	<g>
		<path class="st6" d="M198.5,65.8l5,3l35-21.3l-5-3L198.5,65.8z"/>
		<path class="st4" d="M198.5,65.8l5,3v6.1l-5-3V65.8z"/>
		<path class="st7" d="M203.5,68.8l35-21.3v6.1l-35,21.3V68.8z"/>
		<g>
			<path class="st4" d="M194.5,62.2l10,6.1v12.2l-10-6.1V62.2z"/>
			<path class="st7" d="M207,66.8l-2.5,1.5v12.2L207,79V66.8z"/>
			<path class="st6" d="M194.5,62.2l10,6.1l2.5-1.5l-10-6.1L194.5,62.2z"/>
		</g>
	</g>
</g>
</svg>
