<?xml version="1.0" encoding="utf-8"?>
<!-- Generator: Adobe Illustrator 22.1.0, SVG Export Plug-In . SVG Version: 6.00 Build 0)  -->
<svg version="1.0" id="Layer_1" xmlns="http://www.w3.org/2000/svg" xmlns:xlink="http://www.w3.org/1999/xlink" x="0px" y="0px"
	 viewBox="0 0 360 360" style="enable-background:new 0 0 360 360;" xml:space="preserve">
<style type="text/css">
	.st0{fill:#D1D1D1;}
	.st1{fill:#AFAFAF;}
	.st2{fill:#BFBFBF;}
	.st3{fill:#4A4A4A;}
	.st4{fill:#BCBCBC;}
	.st5{filter:url(#Adobe_OpacityMaskFilter);}
	.st6{fill:#FFFFFF;}
	.st7{mask:url(#b_2_);}
	.st8{fill:#E8E8E8;}
	.st9{fill:#898989;}
	.st10{fill:#ECECEC;}
	.st11{fill:#B0B0B0;}
	.st12{fill:#222222;}
	.st13{fill:#3A3A3A;}
	.st14{fill:#A48900;}
	.st15{fill:#FDD301;}
	.st16{fill:#FDE35F;}
</style>
<g>
	<g>
		<path class="st0" d="M200.6,272.8l-68.2,40.9v8.2l68.2-40.9V272.8z"/>
		<path class="st1" d="M64.2,272.8l68.2,40.9v8.2L64.2,281V272.8z"/>
		<path class="st2" d="M200.6,272.8l-68.2,40.9l-68.2-40.9l68.2-40.9L200.6,272.8z"/>
	</g>
	<path class="st3" d="M272.2,14.2L26.6,160.9v192.7l245.5-146.7V14.2z"/>
	<g transform="matrix(-1 0 0 1 282.463 28.815)">
		<g>
			<path id="a_1_" class="st4" d="M22.2,0.7l219.9,131.3v174L22.2,174.7V0.7z"/>
		</g>
		<defs>
			<filter id="Adobe_OpacityMaskFilter" filterUnits="userSpaceOnUse">
				<feColorMatrix  type="matrix" values="1 0 0 0 0  0 1 0 0 0  0 0 1 0 0  0 0 0 1 0"/>
			</filter>
		</defs>
		<mask maskUnits="userSpaceOnUse" id="b_2_">
			<g class="st5">
				<path id="a_3_" class="st6" d="M22.2,0.7l219.9,131.3v174L22.2,174.7V0.7z"/>
			</g>
		</mask>
		<g class="st7">
			<path class="st0" d="M-70.3,166.9l8.5,5.1v10.2l-8.5-5.1V166.9z"/>
			<path class="st8" d="M-70.3,105.5l8.5,5.1v10.2l-8.5-5.1V105.5z"/>
			<path class="st0" d="M-70.3,136.2l8.5,5.1v10.2l-8.5-5.1V136.2z"/>
			<path class="st9" d="M-70.3,74.8l8.5,5.1v10.2l-8.5-5.1V74.8z"/>
			<path class="st0" d="M-70.3,156.6l8.5,5.1V172l-8.5-5.1V156.6z M-70.3,95.2l8.5,5.1v10.2l-8.5-5.1V95.2z M-70.3,125.9l8.5,5.1
				v10.2l-8.5-5.1V125.9z M-70.3,64.5l8.5,5.1v10.2l-8.5-5.1V64.5z"/>
			<path class="st0" d="M-70.3,146.4l8.5,5.1v10.2l-8.5-5.1V146.4z M-70.3,85l8.5,5.1v10.2l-8.5-5.1V85z"/>
			<path class="st8" d="M-70.3,115.7l8.5,5.1V131l-8.5-5.1V115.7z"/>
			<path class="st0" d="M-70.3,54.3l8.5,5.1v10.2l-8.5-5.1V54.3z"/>
			<path class="st9" d="M-10.7,202.7l8.5,5.1V218l-8.5-5.1L-10.7,202.7z"/>
			<path class="st8" d="M-10.7,141.3l8.5,5.1v10.2l-8.5-5.1L-10.7,141.3z"/>
			<path class="st10" d="M-10.7,172l8.5,5.1v10.2l-8.5-5.1L-10.7,172z"/>
			<path class="st0" d="M-10.7,110.6l8.5,5.1v10.2l-8.5-5.1L-10.7,110.6z"/>
			<path class="st9" d="M-10.7,192.5l8.5,5.1v10.2l-8.5-5.1L-10.7,192.5z"/>
			<path class="st0" d="M-10.7,131l8.5,5.1v10.2l-8.5-5.1L-10.7,131z M-10.7,161.7l8.5,5.1v10.2l-8.5-5.1L-10.7,161.7z"/>
			<path class="st11" d="M-10.7,100.3l8.5,5.1v10.2l-8.5-5.1L-10.7,100.3z"/>
			<path class="st0" d="M-10.7,182.2l8.5,5.1v10.2l-8.5-5.1L-10.7,182.2z"/>
			<path class="st9" d="M-10.7,120.8l8.5,5.1v10.2l-8.5-5.1L-10.7,120.8z"/>
			<path class="st10" d="M-10.7,151.5l8.5,5.1v10.2l-8.5-5.1L-10.7,151.5z"/>
			<path class="st0" d="M-10.7,90.1l8.5,5.1v10.2l-8.5-5.1L-10.7,90.1z"/>
			<path class="st11" d="M-61.8,172l8.5,5.1v10.2l-8.5-5.1V172z"/>
			<path class="st10" d="M-61.8,110.6l8.5,5.1v10.2l-8.5-5.1V110.6z"/>
			<path class="st8" d="M-61.8,141.3l8.5,5.1v10.2l-8.5-5.1V141.3z"/>
			<path class="st0" d="M-61.8,79.9l8.5,5.1v10.2l-8.5-5.1V79.9z"/>
			<path class="st8" d="M-61.8,161.7l8.5,5.1v10.2l-8.5-5.1V161.7z"/>
			<path class="st10" d="M-61.8,100.3l8.5,5.1v10.2l-8.5-5.1V100.3z M-61.8,131l8.5,5.1v10.2l-8.5-5.1V131z"/>
			<path class="st4" d="M-61.8,69.6l8.5,5.1V85l-8.5-5.1V69.6z"/>
			<path class="st0" d="M-61.8,151.5l8.5,5.1v10.2l-8.5-5.1V151.5z M-61.8,90.1l8.5,5.1v10.2l-8.5-5.1V90.1z M-61.8,120.8l8.5,5.1
				v10.2l-8.5-5.1V120.8z M-61.8,59.4l8.5,5.1v10.2l-8.5-5.1V59.4z M-2.1,207.8l8.5,5.1v10.2l-8.5-5.1V207.8z M-2.1,146.4l8.5,5.1
				v10.2l-8.5-5.1V146.4z M-2.1,177.1l8.5,5.1v10.2l-8.5-5.1V177.1z"/>
			<path class="st4" d="M-2.1,115.7l8.5,5.1V131l-8.5-5.1V115.7z"/>
			<path class="st0" d="M-2.1,197.6l8.5,5.1v10.2l-8.5-5.1V197.6z M-2.1,136.2l8.5,5.1v10.2l-8.5-5.1V136.2z"/>
			<path class="st4" d="M-2.1,166.9l8.5,5.1v10.2l-8.5-5.1V166.9z"/>
			<path class="st0" d="M-2.1,105.5l8.5,5.1v10.2l-8.5-5.1V105.5z"/>
			<path class="st4" d="M-2.1,187.3l8.5,5.1v10.2l-8.5-5.1V187.3z"/>
			<path class="st0" d="M-2.1,125.9l8.5,5.1v10.2l-8.5-5.1V125.9z M-2.1,156.6l8.5,5.1V172l-8.5-5.1V156.6z M-2.1,95.2l8.5,5.1v10.2
				l-8.5-5.1V95.2z"/>
			<path class="st11" d="M-53.3,177.1l8.5,5.1v10.2l-8.5-5.1V177.1z"/>
			<path class="st8" d="M-53.3,115.7l8.5,5.1V131l-8.5-5.1V115.7z"/>
			<path class="st0" d="M-53.3,146.4l8.5,5.1v10.2l-8.5-5.1V146.4z"/>
			<path class="st9" d="M-53.3,85l8.5,5.1v10.2l-8.5-5.1V85z"/>
			<path class="st0" d="M-53.3,166.9l8.5,5.1v10.2l-8.5-5.1V166.9z M-53.3,105.5l8.5,5.1v10.2l-8.5-5.1V105.5z"/>
			<path class="st4" d="M-53.3,136.2l8.5,5.1v10.2l-8.5-5.1V136.2z"/>
			<path class="st10" d="M-53.3,74.8l8.5,5.1v10.2l-8.5-5.1V74.8z"/>
			<path class="st0" d="M-53.3,156.6l8.5,5.1V172l-8.5-5.1V156.6z"/>
			<path class="st4" d="M-53.3,95.2l8.5,5.1v10.2l-8.5-5.1V95.2z"/>
			<path class="st0" d="M-53.3,125.9l8.5,5.1v10.2l-8.5-5.1V125.9z"/>
			<path class="st9" d="M-53.3,64.5l8.5,5.1v10.2l-8.5-5.1V64.5z"/>
			<path class="st4" d="M6.4,212.9l8.5,5.1v10.2l-8.5-5.1L6.4,212.9z"/>
			<path class="st9" d="M6.4,151.5l8.5,5.1v10.2l-8.5-5.1L6.4,151.5z"/>
			<path class="st0" d="M6.4,182.2l8.5,5.1v10.2l-8.5-5.1L6.4,182.2z M6.4,120.8l8.5,5.1v10.2L6.4,131L6.4,120.8z M6.4,202.7
				l8.5,5.1V218l-8.5-5.1L6.4,202.7z M6.4,141.3l8.5,5.1v10.2l-8.5-5.1L6.4,141.3z"/>
			<path class="st9" d="M6.4,172l8.5,5.1v10.2l-8.5-5.1L6.4,172z"/>
			<path class="st0" d="M6.4,110.6l8.5,5.1v10.2l-8.5-5.1L6.4,110.6z M6.4,192.5l8.5,5.1v10.2l-8.5-5.1L6.4,192.5z"/>
			<path class="st4" d="M6.4,131l8.5,5.1v10.2l-8.5-5.1L6.4,131z"/>
			<path class="st0" d="M6.4,161.7l8.5,5.1v10.2L6.4,172L6.4,161.7z M6.4,100.3l8.5,5.1v10.2l-8.5-5.1L6.4,100.3z M-44.8,182.2
				l8.5,5.1v10.2l-8.5-5.1L-44.8,182.2z"/>
			<path class="st11" d="M-44.8,120.8l8.5,5.1v10.2l-8.5-5.1L-44.8,120.8z"/>
			<path class="st0" d="M-44.8,151.5l8.5,5.1v10.2l-8.5-5.1L-44.8,151.5z"/>
			<path class="st9" d="M-44.8,90.1l8.5,5.1v10.2l-8.5-5.1L-44.8,90.1z"/>
			<path class="st0" d="M-44.8,172l8.5,5.1v10.2l-8.5-5.1L-44.8,172z M-44.8,110.6l8.5,5.1v10.2l-8.5-5.1L-44.8,110.6z M-44.8,141.3
				l8.5,5.1v10.2l-8.5-5.1L-44.8,141.3z M-44.8,79.9l8.5,5.1v10.2l-8.5-5.1L-44.8,79.9z"/>
			<path class="st8" d="M-44.8,161.7l8.5,5.1v10.2l-8.5-5.1L-44.8,161.7z"/>
			<path class="st0" d="M-44.8,100.3l8.5,5.1v10.2l-8.5-5.1L-44.8,100.3z"/>
			<path class="st4" d="M-44.8,131l8.5,5.1v10.2l-8.5-5.1L-44.8,131z"/>
			<path class="st0" d="M-44.8,69.6l8.5,5.1V85l-8.5-5.1L-44.8,69.6z"/>
			<path class="st10" d="M14.9,218l8.5,5.1v10.2l-8.5-5.1L14.9,218z"/>
			<path class="st0" d="M14.9,156.6l8.5,5.1V172l-8.5-5.1L14.9,156.6z M14.9,187.3l8.5,5.1v10.2l-8.5-5.1L14.9,187.3z M14.9,125.9
				l8.5,5.1v10.2l-8.5-5.1L14.9,125.9z M14.9,207.8l8.5,5.1v10.2l-8.5-5.1L14.9,207.8z M14.9,146.4l8.5,5.1v10.2l-8.5-5.1
				L14.9,146.4z"/>
			<path class="st4" d="M14.9,177.1l8.5,5.1v10.2l-8.5-5.1L14.9,177.1z"/>
			<path class="st0" d="M14.9,115.7l8.5,5.1V131l-8.5-5.1L14.9,115.7z"/>
			<path class="st8" d="M14.9,197.6l8.5,5.1v10.2l-8.5-5.1L14.9,197.6z"/>
			<path class="st0" d="M14.9,136.2l8.5,5.1v10.2l-8.5-5.1L14.9,136.2z"/>
			<path class="st8" d="M14.9,166.9l8.5,5.1v10.2l-8.5-5.1L14.9,166.9z M14.9,105.5l8.5,5.1v10.2l-8.5-5.1L14.9,105.5z"/>
			<path class="st11" d="M-36.2,187.3l8.5,5.1v10.2l-8.5-5.1L-36.2,187.3z"/>
			<path class="st0" d="M-36.2,125.9l8.5,5.1v10.2l-8.5-5.1L-36.2,125.9z"/>
			<path class="st10" d="M-36.2,156.6l8.5,5.1V172l-8.5-5.1L-36.2,156.6z"/>
			<path class="st0" d="M-36.2,95.2l8.5,5.1v10.2l-8.5-5.1L-36.2,95.2z"/>
			<path class="st11" d="M-36.2,177.1l8.5,5.1v10.2l-8.5-5.1L-36.2,177.1z"/>
			<path class="st9" d="M-36.2,115.7l8.5,5.1V131l-8.5-5.1L-36.2,115.7z"/>
			<path class="st11" d="M-36.2,146.4l8.5,5.1v10.2l-8.5-5.1L-36.2,146.4z"/>
			<path class="st8" d="M-36.2,85l8.5,5.1v10.2l-8.5-5.1L-36.2,85z"/>
			<path class="st0" d="M-36.2,166.9l8.5,5.1v10.2l-8.5-5.1L-36.2,166.9z M-36.2,105.5l8.5,5.1v10.2l-8.5-5.1L-36.2,105.5z
				 M-36.2,136.2l8.5,5.1v10.2l-8.5-5.1L-36.2,136.2z M-36.2,74.8l8.5,5.1v10.2l-8.5-5.1L-36.2,74.8z"/>
			<path class="st9" d="M23.4,223.2l8.5,5.1v10.2l-8.5-5.1V223.2z"/>
			<path class="st11" d="M23.4,161.7l8.5,5.1v10.2l-8.5-5.1V161.7z"/>
			<path class="st9" d="M23.4,192.5l8.5,5.1v10.2l-8.5-5.1V192.5z"/>
			<path class="st0" d="M23.4,131l8.5,5.1v10.2l-8.5-5.1V131z M23.4,212.9L32,218v10.2l-8.5-5.1V212.9z M23.4,151.5l8.5,5.1v10.2
				l-8.5-5.1V151.5z"/>
			<path class="st8" d="M23.4,182.2l8.5,5.1v10.2l-8.5-5.1V182.2z"/>
			<path class="st0" d="M23.4,120.8l8.5,5.1v10.2l-8.5-5.1V120.8z M23.4,202.7l8.5,5.1V218l-8.5-5.1V202.7z"/>
			<path class="st4" d="M23.4,141.3l8.5,5.1v10.2l-8.5-5.1V141.3z"/>
			<path class="st0" d="M23.4,172l8.5,5.1v10.2l-8.5-5.1V172z"/>
			<path class="st11" d="M23.4,110.6l8.5,5.1v10.2l-8.5-5.1V110.6z"/>
			<path class="st0" d="M-27.7,192.5l8.5,5.1v10.2l-8.5-5.1L-27.7,192.5z M-27.7,131l8.5,5.1v10.2l-8.5-5.1L-27.7,131z"/>
			<path class="st4" d="M-27.7,161.7l8.5,5.1v10.2l-8.5-5.1L-27.7,161.7z"/>
			<path class="st11" d="M-27.7,100.3l8.5,5.1v10.2l-8.5-5.1L-27.7,100.3z"/>
			<path class="st0" d="M-27.7,182.2l8.5,5.1v10.2l-8.5-5.1L-27.7,182.2z M-27.7,120.8l8.5,5.1v10.2l-8.5-5.1L-27.7,120.8z
				 M-27.7,151.5l8.5,5.1v10.2l-8.5-5.1L-27.7,151.5z M-27.7,90.1l8.5,5.1v10.2l-8.5-5.1L-27.7,90.1z"/>
			<path class="st9" d="M-27.7,172l8.5,5.1v10.2l-8.5-5.1L-27.7,172z"/>
			<path class="st4" d="M-27.7,110.6l8.5,5.1v10.2l-8.5-5.1L-27.7,110.6z"/>
			<path class="st0" d="M-27.7,141.3l8.5,5.1v10.2l-8.5-5.1L-27.7,141.3z M-27.7,79.9l8.5,5.1v10.2l-8.5-5.1L-27.7,79.9z M32,228.3
				l8.5,5.1v10.2l-8.5-5.1V228.3z M32,166.9l8.5,5.1v10.2l-8.5-5.1V166.9z M32,197.6l8.5,5.1v10.2l-8.5-5.1V197.6z M32,136.2
				l8.5,5.1v10.2l-8.5-5.1V136.2z"/>
			<path class="st11" d="M32,218l8.5,5.1v10.2l-8.5-5.1V218z"/>
			<path class="st0" d="M32,156.6l8.5,5.1V172l-8.5-5.1V156.6z"/>
			<path class="st11" d="M32,187.3l8.5,5.1v10.2l-8.5-5.1V187.3z"/>
			<path class="st0" d="M32,125.9l8.5,5.1v10.2l-8.5-5.1V125.9z"/>
			<path class="st4" d="M32,207.8l8.5,5.1v10.2L32,218V207.8z"/>
			<path class="st11" d="M32,146.4l8.5,5.1v10.2l-8.5-5.1V146.4z"/>
			<path class="st0" d="M32,177.1l8.5,5.1v10.2l-8.5-5.1V177.1z"/>
			<path class="st11" d="M32,115.7l8.5,5.1V131l-8.5-5.1V115.7z"/>
			<path class="st0" d="M-19.2,197.6l8.5,5.1v10.2l-8.5-5.1L-19.2,197.6z"/>
			<path class="st11" d="M-19.2,166.9l8.5,5.1v10.2l-8.5-5.1L-19.2,166.9z"/>
			<path class="st0" d="M-19.2,105.5l8.5,5.1v10.2l-8.5-5.1L-19.2,105.5z"/>
			<path class="st4" d="M-19.2,187.3l8.5,5.1v10.2l-8.5-5.1L-19.2,187.3z"/>
			<path class="st0" d="M-19.2,125.9l8.5,5.1v10.2l-8.5-5.1L-19.2,125.9z M-19.2,156.6l8.5,5.1V172l-8.5-5.1L-19.2,156.6z"/>
			<path class="st11" d="M-19.2,95.2l8.5,5.1v10.2l-8.5-5.1L-19.2,95.2z"/>
			<path class="st0" d="M-19.2,177.1l8.5,5.1v10.2l-8.5-5.1L-19.2,177.1z M-19.2,115.7l8.5,5.1V131l-8.5-5.1L-19.2,115.7z"/>
			<path class="st10" d="M-19.2,146.4l8.5,5.1v10.2l-8.5-5.1L-19.2,146.4z"/>
			<path class="st0" d="M-19.2,85l8.5,5.1v10.2l-8.5-5.1L-19.2,85z"/>
			<path class="st9" d="M40.5,233.4l8.5,5.1v10.2l-8.5-5.1V233.4z"/>
			<path class="st8" d="M40.5,172l8.5,5.1v10.2l-8.5-5.1V172z"/>
			<path class="st11" d="M40.5,202.7l8.5,5.1V218l-8.5-5.1V202.7z M40.5,141.3l8.5,5.1v10.2l-8.5-5.1V141.3z M40.5,223.2l8.5,5.1
				v10.2l-8.5-5.1V223.2z"/>
			<path class="st0" d="M40.5,161.7l8.5,5.1v10.2l-8.5-5.1V161.7z M40.5,192.5l8.5,5.1v10.2l-8.5-5.1V192.5z M40.5,131l8.5,5.1v10.2
				l-8.5-5.1V131z M40.5,212.9L49,218v10.2l-8.5-5.1V212.9z"/>
			<path class="st0" d="M40.5,151.5l8.5,5.1v10.2l-8.5-5.1V151.5z M40.5,182.2l8.5,5.1v10.2l-8.5-5.1V182.2z M40.5,120.8l8.5,5.1
				v10.2l-8.5-5.1V120.8z"/>
			<g>
				<path class="st0" d="M49,238.5l8.5,5.1v10.2l-8.5-5.1V238.5z"/>
				<path class="st8" d="M49,177.1l8.5,5.1v10.2l-8.5-5.1V177.1z"/>
				<path class="st0" d="M49,207.8l8.5,5.1v10.2L49,218V207.8z"/>
				<path class="st9" d="M49,146.4l8.5,5.1v10.2l-8.5-5.1V146.4z"/>
				<path class="st0" d="M49,228.3l8.5,5.1v10.2l-8.5-5.1V228.3z M49,166.9l8.5,5.1v10.2l-8.5-5.1V166.9z M49,197.6l8.5,5.1v10.2
					l-8.5-5.1V197.6z M49,136.2l8.5,5.1v10.2l-8.5-5.1V136.2z"/>
				<path class="st0" d="M49,218l8.5,5.1v10.2l-8.5-5.1V218z M49,156.6l8.5,5.1V172l-8.5-5.1V156.6z"/>
				<path class="st8" d="M49,187.3l8.5,5.1v10.2l-8.5-5.1V187.3z"/>
				<path class="st0" d="M49,125.9l8.5,5.1v10.2l-8.5-5.1V125.9z"/>
				<path class="st9" d="M108.7,274.3l8.5,5.1v10.2l-8.5-5.1L108.7,274.3z"/>
				<path class="st8" d="M108.7,212.9l8.5,5.1v10.2l-8.5-5.1L108.7,212.9z"/>
				<path class="st10" d="M108.7,243.6l8.5,5.1V259l-8.5-5.1L108.7,243.6z"/>
				<path class="st0" d="M108.7,182.2l8.5,5.1v10.2l-8.5-5.1L108.7,182.2z"/>
				<path class="st9" d="M108.7,264.1l8.5,5.1v10.2l-8.5-5.1L108.7,264.1z"/>
				<path class="st0" d="M108.7,202.7l8.5,5.1V218l-8.5-5.1L108.7,202.7z M108.7,233.4l8.5,5.1v10.2l-8.5-5.1L108.7,233.4z"/>
				<path class="st11" d="M108.7,172l8.5,5.1v10.2l-8.5-5.1L108.7,172z"/>
				<path class="st0" d="M108.7,253.9l8.5,5.1v10.2l-8.5-5.1L108.7,253.9z"/>
				<path class="st9" d="M108.7,192.5l8.5,5.1v10.2l-8.5-5.1L108.7,192.5z"/>
				<path class="st10" d="M108.7,223.2l8.5,5.1v10.2l-8.5-5.1L108.7,223.2z"/>
				<path class="st0" d="M108.7,161.7l8.5,5.1v10.2l-8.5-5.1L108.7,161.7z"/>
				<path class="st11" d="M57.5,243.6l8.5,5.1V259l-8.5-5.1L57.5,243.6z"/>
				<path class="st10" d="M57.5,182.2l8.5,5.1v10.2l-8.5-5.1L57.5,182.2z"/>
				<path class="st8" d="M57.5,212.9l8.5,5.1v10.2l-8.5-5.1L57.5,212.9z"/>
				<path class="st0" d="M57.5,151.5l8.5,5.1v10.2l-8.5-5.1L57.5,151.5z"/>
				<path class="st8" d="M57.5,233.4l8.5,5.1v10.2l-8.5-5.1L57.5,233.4z"/>
				<path class="st10" d="M57.5,172l8.5,5.1v10.2l-8.5-5.1L57.5,172z M57.5,202.7l8.5,5.1V218l-8.5-5.1L57.5,202.7z"/>
				<path class="st4" d="M57.5,141.3l8.5,5.1v10.2l-8.5-5.1L57.5,141.3z"/>
				<path class="st0" d="M57.5,223.2l8.5,5.1v10.2l-8.5-5.1L57.5,223.2z M57.5,161.7l8.5,5.1v10.2l-8.5-5.1L57.5,161.7z M57.5,192.5
					l8.5,5.1v10.2l-8.5-5.1L57.5,192.5z M57.5,131l8.5,5.1v10.2l-8.5-5.1L57.5,131z M117.2,279.4l8.5,5.1v10.2l-8.5-5.1L117.2,279.4
					z M117.2,218l8.5,5.1v10.2l-8.5-5.1L117.2,218z M117.2,248.7l8.5,5.1v10.2l-8.5-5.1L117.2,248.7z"/>
				<path class="st4" d="M117.2,187.3l8.5,5.1v10.2l-8.5-5.1L117.2,187.3z"/>
				<path class="st0" d="M117.2,269.2l8.5,5.1v10.2l-8.5-5.1L117.2,269.2z M117.2,207.8l8.5,5.1v10.2l-8.5-5.1L117.2,207.8z"/>
				<path class="st4" d="M117.2,238.5l8.5,5.1v10.2l-8.5-5.1L117.2,238.5z"/>
				<path class="st0" d="M117.2,177.1l8.5,5.1v10.2l-8.5-5.1L117.2,177.1z"/>
				<path class="st4" d="M117.2,259l8.5,5.1v10.2l-8.5-5.1L117.2,259z"/>
				<path class="st0" d="M117.2,197.6l8.5,5.1v10.2l-8.5-5.1L117.2,197.6z M117.2,228.3l8.5,5.1v10.2l-8.5-5.1L117.2,228.3z
					 M117.2,166.9l8.5,5.1v10.2l-8.5-5.1L117.2,166.9z"/>
				<path class="st11" d="M66.1,248.7l8.5,5.1v10.2l-8.5-5.1L66.1,248.7z"/>
				<path class="st8" d="M66.1,187.3l8.5,5.1v10.2l-8.5-5.1L66.1,187.3z"/>
				<path class="st0" d="M66.1,218l8.5,5.1v10.2l-8.5-5.1L66.1,218z"/>
				<path class="st9" d="M66.1,156.6l8.5,5.1V172l-8.5-5.1L66.1,156.6z"/>
				<path class="st0" d="M66.1,238.5l8.5,5.1v10.2l-8.5-5.1L66.1,238.5z M66.1,177.1l8.5,5.1v10.2l-8.5-5.1L66.1,177.1z"/>
				<path class="st4" d="M66.1,207.8l8.5,5.1v10.2l-8.5-5.1L66.1,207.8z"/>
				<path class="st10" d="M66.1,146.4l8.5,5.1v10.2l-8.5-5.1L66.1,146.4z"/>
				<path class="st0" d="M66.1,228.3l8.5,5.1v10.2l-8.5-5.1L66.1,228.3z"/>
				<path class="st4" d="M66.1,166.9l8.5,5.1v10.2l-8.5-5.1L66.1,166.9z"/>
				<path class="st0" d="M66.1,197.6l8.5,5.1v10.2l-8.5-5.1L66.1,197.6z"/>
				<path class="st9" d="M66.1,136.2l8.5,5.1v10.2l-8.5-5.1L66.1,136.2z"/>
				<path class="st4" d="M125.7,284.6l8.5,5.1v10.2l-8.5-5.1V284.6z"/>
				<path class="st9" d="M125.7,223.2l8.5,5.1v10.2l-8.5-5.1V223.2z"/>
				<path class="st0" d="M125.7,253.9l8.5,5.1v10.2l-8.5-5.1V253.9z M125.7,192.5l8.5,5.1v10.2l-8.5-5.1V192.5z M125.7,274.3
					l8.5,5.1v10.2l-8.5-5.1V274.3z M125.7,212.9l8.5,5.1v10.2l-8.5-5.1V212.9z"/>
				<path class="st9" d="M125.7,243.6l8.5,5.1V259l-8.5-5.1V243.6z"/>
				<path class="st0" d="M125.7,182.2l8.5,5.1v10.2l-8.5-5.1V182.2z M125.7,264.1l8.5,5.1v10.2l-8.5-5.1V264.1z"/>
				<path class="st4" d="M125.7,202.7l8.5,5.1V218l-8.5-5.1V202.7z"/>
				<path class="st0" d="M125.7,233.4l8.5,5.1v10.2l-8.5-5.1V233.4z M125.7,172l8.5,5.1v10.2l-8.5-5.1V172z M74.6,253.9l8.5,5.1
					v10.2l-8.5-5.1V253.9z"/>
				<path class="st11" d="M74.6,192.5l8.5,5.1v10.2l-8.5-5.1V192.5z"/>
				<path class="st0" d="M74.6,223.2l8.5,5.1v10.2l-8.5-5.1V223.2z"/>
				<path class="st9" d="M74.6,161.7l8.5,5.1v10.2l-8.5-5.1V161.7z"/>
				<path class="st0" d="M74.6,243.6l8.5,5.1V259l-8.5-5.1V243.6z M74.6,182.2l8.5,5.1v10.2l-8.5-5.1V182.2z M74.6,212.9l8.5,5.1
					v10.2l-8.5-5.1V212.9z M74.6,151.5l8.5,5.1v10.2l-8.5-5.1V151.5z"/>
				<path class="st8" d="M74.6,233.4l8.5,5.1v10.2l-8.5-5.1V233.4z"/>
				<path class="st0" d="M74.6,172l8.5,5.1v10.2l-8.5-5.1V172z"/>
				<path class="st4" d="M74.6,202.7l8.5,5.1V218l-8.5-5.1V202.7z"/>
				<path class="st0" d="M74.6,141.3l8.5,5.1v10.2l-8.5-5.1V141.3z"/>
				<path class="st10" d="M134.3,289.7l8.5,5.1V305l-8.5-5.1L134.3,289.7z"/>
				<path class="st0" d="M134.3,228.3l8.5,5.1v10.2l-8.5-5.1L134.3,228.3z M134.3,259l8.5,5.1v10.2l-8.5-5.1L134.3,259z
					 M134.3,197.6l8.5,5.1v10.2l-8.5-5.1L134.3,197.6z M134.3,279.4l8.5,5.1v10.2l-8.5-5.1L134.3,279.4z"/>
				<path class="st0" d="M134.3,218l8.5,5.1v10.2l-8.5-5.1L134.3,218z"/>
				<path class="st4" d="M134.3,248.7l8.5,5.1v10.2l-8.5-5.1L134.3,248.7z"/>
				<path class="st0" d="M134.3,187.3l8.5,5.1v10.2l-8.5-5.1L134.3,187.3z"/>
				<path class="st8" d="M134.3,269.2l8.5,5.1v10.2l-8.5-5.1L134.3,269.2z"/>
				<path class="st0" d="M134.3,207.8l8.5,5.1v10.2l-8.5-5.1L134.3,207.8z"/>
				<path class="st8" d="M134.3,238.5l8.5,5.1v10.2l-8.5-5.1L134.3,238.5z M134.3,177.1l8.5,5.1v10.2l-8.5-5.1L134.3,177.1z"/>
				<path class="st11" d="M83.1,259l8.5,5.1v10.2l-8.5-5.1V259z"/>
				<path class="st0" d="M83.1,197.6l8.5,5.1v10.2l-8.5-5.1V197.6z"/>
				<path class="st10" d="M83.1,228.3l8.5,5.1v10.2l-8.5-5.1V228.3z"/>
				<path class="st0" d="M83.1,166.9l8.5,5.1v10.2l-8.5-5.1V166.9z"/>
				<path class="st11" d="M83.1,248.7l8.5,5.1v10.2l-8.5-5.1V248.7z"/>
				<path class="st9" d="M83.1,187.3l8.5,5.1v10.2l-8.5-5.1V187.3z"/>
				<path class="st11" d="M83.1,218l8.5,5.1v10.2l-8.5-5.1V218z"/>
				<path class="st8" d="M83.1,156.6l8.5,5.1V172l-8.5-5.1V156.6z"/>
				<path class="st0" d="M83.1,238.5l8.5,5.1v10.2l-8.5-5.1V238.5z M83.1,177.1l8.5,5.1v10.2l-8.5-5.1V177.1z M83.1,207.8l8.5,5.1
					v10.2l-8.5-5.1V207.8z M83.1,146.4l8.5,5.1v10.2l-8.5-5.1V146.4z"/>
				<path class="st9" d="M142.8,294.8l8.5,5.1v10.2l-8.5-5.1V294.8z"/>
				<path class="st11" d="M142.8,233.4l8.5,5.1v10.2l-8.5-5.1V233.4z"/>
				<path class="st9" d="M142.8,264.1l8.5,5.1v10.2l-8.5-5.1V264.1z"/>
				<path class="st0" d="M142.8,202.7l8.5,5.1V218l-8.5-5.1V202.7z M142.8,284.6l8.5,5.1v10.2l-8.5-5.1V284.6z M142.8,223.2l8.5,5.1
					v10.2l-8.5-5.1V223.2z"/>
				<path class="st8" d="M142.8,253.9l8.5,5.1v10.2l-8.5-5.1V253.9z"/>
				<path class="st0" d="M142.8,192.5l8.5,5.1v10.2l-8.5-5.1V192.5z M142.8,274.3l8.5,5.1v10.2l-8.5-5.1V274.3z"/>
				<path class="st4" d="M142.8,212.9l8.5,5.1v10.2l-8.5-5.1V212.9z"/>
				<path class="st0" d="M142.8,243.6l8.5,5.1V259l-8.5-5.1V243.6z"/>
				<path class="st11" d="M142.8,182.2l8.5,5.1v10.2l-8.5-5.1V182.2z"/>
				<path class="st0" d="M91.6,264.1l8.5,5.1v10.2l-8.5-5.1L91.6,264.1z M91.6,202.7l8.5,5.1V218l-8.5-5.1L91.6,202.7z"/>
				<path class="st4" d="M91.6,233.4l8.5,5.1v10.2l-8.5-5.1L91.6,233.4z"/>
				<path class="st11" d="M91.6,172l8.5,5.1v10.2l-8.5-5.1L91.6,172z"/>
				<path class="st0" d="M91.6,253.9l8.5,5.1v10.2l-8.5-5.1L91.6,253.9z M91.6,192.5l8.5,5.1v10.2l-8.5-5.1L91.6,192.5z M91.6,223.2
					l8.5,5.1v10.2l-8.5-5.1L91.6,223.2z M91.6,161.7l8.5,5.1v10.2l-8.5-5.1L91.6,161.7z"/>
				<path class="st9" d="M91.6,243.6l8.5,5.1V259l-8.5-5.1L91.6,243.6z"/>
				<path class="st4" d="M91.6,182.2l8.5,5.1v10.2l-8.5-5.1L91.6,182.2z"/>
				<path class="st0" d="M91.6,212.9l8.5,5.1v10.2l-8.5-5.1L91.6,212.9z M91.6,151.5l8.5,5.1v10.2l-8.5-5.1L91.6,151.5z
					 M151.3,299.9l8.5,5.1v10.2l-8.5-5.1V299.9z M151.3,238.5l8.5,5.1v10.2l-8.5-5.1V238.5z M151.3,269.2l8.5,5.1v10.2l-8.5-5.1
					V269.2z M151.3,207.8l8.5,5.1v10.2l-8.5-5.1V207.8z"/>
				<path class="st11" d="M151.3,289.7l8.5,5.1V305l-8.5-5.1V289.7z"/>
				<path class="st0" d="M151.3,228.3l8.5,5.1v10.2l-8.5-5.1V228.3z"/>
				<path class="st11" d="M151.3,259l8.5,5.1v10.2l-8.5-5.1V259z"/>
				<path class="st0" d="M151.3,197.6l8.5,5.1v10.2l-8.5-5.1V197.6z"/>
				<path class="st4" d="M151.3,279.4l8.5,5.1v10.2l-8.5-5.1V279.4z"/>
				<path class="st11" d="M151.3,218l8.5,5.1v10.2l-8.5-5.1V218z"/>
				<path class="st0" d="M151.3,248.7l8.5,5.1v10.2l-8.5-5.1V248.7z"/>
				<path class="st11" d="M151.3,187.3l8.5,5.1v10.2l-8.5-5.1V187.3z"/>
				<path class="st0" d="M100.2,269.2l8.5,5.1v10.2l-8.5-5.1V269.2z"/>
				<path class="st11" d="M100.2,238.5l8.5,5.1v10.2l-8.5-5.1V238.5z"/>
				<path class="st0" d="M100.2,177.1l8.5,5.1v10.2l-8.5-5.1V177.1z"/>
				<path class="st4" d="M100.2,259l8.5,5.1v10.2l-8.5-5.1V259z"/>
				<path class="st0" d="M100.2,197.6l8.5,5.1v10.2l-8.5-5.1V197.6z M100.2,228.3l8.5,5.1v10.2l-8.5-5.1V228.3z"/>
				<path class="st11" d="M100.2,166.9l8.5,5.1v10.2l-8.5-5.1V166.9z"/>
				<path class="st0" d="M100.2,248.7l8.5,5.1v10.2l-8.5-5.1V248.7z M100.2,187.3l8.5,5.1v10.2l-8.5-5.1V187.3z"/>
				<path class="st10" d="M100.2,218l8.5,5.1v10.2l-8.5-5.1V218z"/>
				<path class="st0" d="M100.2,156.6l8.5,5.1V172l-8.5-5.1V156.6z"/>
				<path class="st9" d="M159.8,305l8.5,5.1v10.2l-8.5-5.1L159.8,305z"/>
				<path class="st8" d="M159.8,243.6l8.5,5.1V259l-8.5-5.1L159.8,243.6z"/>
				<path class="st11" d="M159.8,274.3l8.5,5.1v10.2l-8.5-5.1L159.8,274.3z M159.8,212.9l8.5,5.1v10.2l-8.5-5.1L159.8,212.9z
					 M159.8,294.8l8.5,5.1v10.2l-8.5-5.1L159.8,294.8z"/>
				<path class="st0" d="M159.8,233.4l8.5,5.1v10.2l-8.5-5.1L159.8,233.4z M159.8,264.1l8.5,5.1v10.2l-8.5-5.1L159.8,264.1z
					 M159.8,202.7l8.5,5.1V218l-8.5-5.1L159.8,202.7z M159.8,284.6l8.5,5.1v10.2l-8.5-5.1L159.8,284.6z"/>
				<path class="st0" d="M159.8,223.2l8.5,5.1v10.2l-8.5-5.1L159.8,223.2z M159.8,253.9l8.5,5.1v10.2l-8.5-5.1L159.8,253.9z
					 M159.8,192.5l8.5,5.1v10.2l-8.5-5.1L159.8,192.5z"/>
			</g>
			<g>
				<path class="st0" d="M168.4,310.1l8.5,5.1v10.2l-8.5-5.1L168.4,310.1z"/>
				<path class="st8" d="M168.4,248.7l8.5,5.1v10.2l-8.5-5.1L168.4,248.7z"/>
				<path class="st0" d="M168.4,279.4l8.5,5.1v10.2l-8.5-5.1L168.4,279.4z"/>
				<path class="st9" d="M168.4,218l8.5,5.1v10.2l-8.5-5.1L168.4,218z"/>
				<path class="st0" d="M168.4,299.9l8.5,5.1v10.2l-8.5-5.1L168.4,299.9z M168.4,238.5l8.5,5.1v10.2l-8.5-5.1L168.4,238.5z
					 M168.4,269.2l8.5,5.1v10.2l-8.5-5.1L168.4,269.2z M168.4,207.8l8.5,5.1v10.2l-8.5-5.1L168.4,207.8z M168.4,289.7l8.5,5.1V305
					l-8.5-5.1L168.4,289.7z M168.4,228.3l8.5,5.1v10.2l-8.5-5.1L168.4,228.3z"/>
				<path class="st8" d="M168.4,259l8.5,5.1v10.2l-8.5-5.1L168.4,259z"/>
				<path class="st0" d="M168.4,197.6l8.5,5.1v10.2l-8.5-5.1L168.4,197.6z"/>
				<path class="st8" d="M228,284.6l8.5,5.1v10.2l-8.5-5.1V284.6z"/>
				<path class="st10" d="M228,315.3l8.5,5.1v10.2l-8.5-5.1V315.3z"/>
				<path class="st0" d="M228,253.9l8.5,5.1v10.2l-8.5-5.1V253.9z M228,274.3l8.5,5.1v10.2l-8.5-5.1V274.3z M228,305l8.5,5.1v10.2
					l-8.5-5.1V305z"/>
				<path class="st11" d="M228,243.6l8.5,5.1V259l-8.5-5.1V243.6z"/>
				<path class="st9" d="M228,264.1l8.5,5.1v10.2l-8.5-5.1V264.1z"/>
				<path class="st10" d="M228,294.8l8.5,5.1v10.2L228,305V294.8z"/>
				<path class="st0" d="M228,233.4l8.5,5.1v10.2l-8.5-5.1V233.4z"/>
				<path class="st11" d="M176.9,315.3l8.5,5.1v10.2l-8.5-5.1V315.3z"/>
				<path class="st10" d="M176.9,253.9l8.5,5.1v10.2l-8.5-5.1V253.9z"/>
				<path class="st8" d="M176.9,284.6l8.5,5.1v10.2l-8.5-5.1V284.6z"/>
				<path class="st0" d="M176.9,223.2l8.5,5.1v10.2l-8.5-5.1V223.2z"/>
				<path class="st8" d="M176.9,305l8.5,5.1v10.2l-8.5-5.1V305z"/>
				<path class="st10" d="M176.9,243.6l8.5,5.1V259l-8.5-5.1V243.6z M176.9,274.3l8.5,5.1v10.2l-8.5-5.1V274.3z"/>
				<path class="st4" d="M176.9,212.9l8.5,5.1v10.2l-8.5-5.1V212.9z"/>
				<path class="st0" d="M176.9,294.8l8.5,5.1v10.2l-8.5-5.1V294.8z M176.9,233.4l8.5,5.1v10.2l-8.5-5.1V233.4z M176.9,264.1
					l8.5,5.1v10.2l-8.5-5.1V264.1z M176.9,202.7l8.5,5.1V218l-8.5-5.1V202.7z M236.5,289.7l8.5,5.1V305l-8.5-5.1V289.7z
					 M236.5,320.4l8.5,5.1v10.2l-8.5-5.1V320.4z"/>
				<path class="st4" d="M236.5,259l8.5,5.1v10.2l-8.5-5.1V259z"/>
				<path class="st0" d="M236.5,279.4l8.5,5.1v10.2l-8.5-5.1V279.4z"/>
				<path class="st4" d="M236.5,310.1l8.5,5.1v10.2l-8.5-5.1V310.1z"/>
				<path class="st0" d="M236.5,248.7l8.5,5.1v10.2l-8.5-5.1V248.7z M236.5,269.2l8.5,5.1v10.2l-8.5-5.1V269.2z M236.5,299.9
					l8.5,5.1v10.2l-8.5-5.1V299.9z M236.5,238.5l8.5,5.1v10.2l-8.5-5.1V238.5z"/>
				<path class="st11" d="M185.4,320.4l8.5,5.1v10.2l-8.5-5.1V320.4z"/>
				<path class="st8" d="M185.4,259l8.5,5.1v10.2l-8.5-5.1V259z"/>
				<path class="st0" d="M185.4,289.7l8.5,5.1V305l-8.5-5.1V289.7z"/>
				<path class="st9" d="M185.4,228.3l8.5,5.1v10.2l-8.5-5.1V228.3z"/>
				<path class="st0" d="M185.4,310.1l8.5,5.1v10.2l-8.5-5.1V310.1z M185.4,248.7l8.5,5.1v10.2l-8.5-5.1V248.7z"/>
				<path class="st4" d="M185.4,279.4l8.5,5.1v10.2l-8.5-5.1V279.4z"/>
				<path class="st10" d="M185.4,218l8.5,5.1v10.2l-8.5-5.1V218z"/>
				<path class="st0" d="M185.4,299.9l8.5,5.1v10.2l-8.5-5.1V299.9z"/>
				<path class="st4" d="M185.4,238.5l8.5,5.1v10.2l-8.5-5.1V238.5z"/>
				<path class="st0" d="M185.4,269.2l8.5,5.1v10.2l-8.5-5.1V269.2z"/>
				<path class="st9" d="M185.4,207.8l8.5,5.1v10.2l-8.5-5.1V207.8z M245.1,294.8l8.5,5.1v10.2l-8.5-5.1V294.8z"/>
				<path class="st0" d="M245.1,264.1l8.5,5.1v10.2l-8.5-5.1V264.1z M245.1,284.6l8.5,5.1v10.2l-8.5-5.1V284.6z"/>
				<path class="st9" d="M245.1,315.3l8.5,5.1v10.2l-8.5-5.1V315.3z"/>
				<path class="st0" d="M245.1,253.9l8.5,5.1v10.2l-8.5-5.1V253.9z"/>
				<path class="st4" d="M245.1,274.3l8.5,5.1v10.2l-8.5-5.1V274.3z"/>
				<path class="st0" d="M245.1,305l8.5,5.1v10.2l-8.5-5.1V305z M245.1,243.6l8.5,5.1V259l-8.5-5.1V243.6z"/>
				<path class="st11" d="M193.9,264.1l8.5,5.1v10.2l-8.5-5.1L193.9,264.1z"/>
				<path class="st0" d="M193.9,294.8l8.5,5.1v10.2l-8.5-5.1L193.9,294.8z"/>
				<path class="st9" d="M193.9,233.4l8.5,5.1v10.2l-8.5-5.1L193.9,233.4z"/>
				<path class="st0" d="M193.9,315.3l8.5,5.1v10.2l-8.5-5.1L193.9,315.3z M193.9,253.9l8.5,5.1v10.2l-8.5-5.1L193.9,253.9z
					 M193.9,284.6l8.5,5.1v10.2l-8.5-5.1L193.9,284.6z M193.9,223.2l8.5,5.1v10.2l-8.5-5.1L193.9,223.2z"/>
				<path class="st8" d="M193.9,305l8.5,5.1v10.2l-8.5-5.1L193.9,305z"/>
				<path class="st0" d="M193.9,243.6l8.5,5.1V259l-8.5-5.1L193.9,243.6z"/>
				<path class="st4" d="M193.9,274.3l8.5,5.1v10.2l-8.5-5.1L193.9,274.3z"/>
				<path class="st0" d="M193.9,212.9l8.5,5.1v10.2l-8.5-5.1L193.9,212.9z M253.6,299.9l8.5,5.1v10.2l-8.5-5.1V299.9z M253.6,269.2
					l8.5,5.1v10.2l-8.5-5.1V269.2z"/>
				<path class="st0" d="M253.6,289.7l8.5,5.1V305l-8.5-5.1V289.7z"/>
				<path class="st4" d="M253.6,320.4l8.5,5.1v10.2l-8.5-5.1V320.4z"/>
				<path class="st0" d="M253.6,259l8.5,5.1v10.2l-8.5-5.1V259z M253.6,279.4l8.5,5.1v10.2l-8.5-5.1V279.4z"/>
				<path class="st8" d="M253.6,310.1l8.5,5.1v10.2l-8.5-5.1V310.1z M253.6,248.7l8.5,5.1v10.2l-8.5-5.1V248.7z"/>
				<path class="st0" d="M202.5,269.2l8.5,5.1v10.2l-8.5-5.1V269.2z"/>
				<path class="st10" d="M202.5,299.9l8.5,5.1v10.2l-8.5-5.1V299.9z"/>
				<path class="st0" d="M202.5,238.5l8.5,5.1v10.2l-8.5-5.1V238.5z"/>
				<path class="st11" d="M202.5,320.4l8.5,5.1v10.2l-8.5-5.1V320.4z"/>
				<path class="st9" d="M202.5,259l8.5,5.1v10.2l-8.5-5.1V259z"/>
				<path class="st11" d="M202.5,289.7l8.5,5.1V305l-8.5-5.1V289.7z"/>
				<path class="st8" d="M202.5,228.3l8.5,5.1v10.2l-8.5-5.1V228.3z"/>
				<path class="st0" d="M202.5,310.1l8.5,5.1v10.2l-8.5-5.1V310.1z M202.5,248.7l8.5,5.1v10.2l-8.5-5.1V248.7z M202.5,279.4
					l8.5,5.1v10.2l-8.5-5.1V279.4z M202.5,218l8.5,5.1v10.2l-8.5-5.1V218z"/>
				<path class="st11" d="M262.1,305l8.5,5.1v10.2l-8.5-5.1L262.1,305z"/>
				<path class="st0" d="M262.1,274.3l8.5,5.1v10.2l-8.5-5.1L262.1,274.3z M262.1,294.8l8.5,5.1v10.2l-8.5-5.1L262.1,294.8z
					 M262.1,264.1l8.5,5.1v10.2l-8.5-5.1L262.1,264.1z"/>
				<path class="st4" d="M262.1,284.6l8.5,5.1v10.2l-8.5-5.1L262.1,284.6z"/>
				<path class="st0" d="M262.1,315.3l8.5,5.1v10.2l-8.5-5.1L262.1,315.3z"/>
				<path class="st11" d="M262.1,253.9l8.5,5.1v10.2l-8.5-5.1L262.1,253.9z"/>
				<path class="st0" d="M211,274.3l8.5,5.1v10.2l-8.5-5.1L211,274.3z"/>
				<path class="st4" d="M211,305l8.5,5.1v10.2l-8.5-5.1L211,305z"/>
				<path class="st11" d="M211,243.6l8.5,5.1V259l-8.5-5.1L211,243.6z"/>
				<path class="st0" d="M211,264.1l8.5,5.1v10.2l-8.5-5.1L211,264.1z M211,294.8l8.5,5.1v10.2L211,305L211,294.8z M211,233.4
					l8.5,5.1v10.2l-8.5-5.1L211,233.4z"/>
				<path class="st9" d="M211,315.3l8.5,5.1v10.2l-8.5-5.1L211,315.3z"/>
				<path class="st4" d="M211,253.9l8.5,5.1v10.2l-8.5-5.1L211,253.9z"/>
				<path class="st0" d="M211,284.6l8.5,5.1v10.2l-8.5-5.1L211,284.6z M211,223.2l8.5,5.1v10.2l-8.5-5.1L211,223.2z M270.6,310.1
					l8.5,5.1v10.2l-8.5-5.1L270.6,310.1z M270.6,279.4l8.5,5.1v10.2l-8.5-5.1L270.6,279.4z M270.6,299.9l8.5,5.1v10.2l-8.5-5.1
					L270.6,299.9z M270.6,269.2l8.5,5.1v10.2l-8.5-5.1L270.6,269.2z"/>
				<path class="st11" d="M270.6,289.7l8.5,5.1V305l-8.5-5.1L270.6,289.7z"/>
				<path class="st0" d="M270.6,320.4l8.5,5.1v10.2l-8.5-5.1L270.6,320.4z"/>
				<path class="st11" d="M270.6,259l8.5,5.1v10.2l-8.5-5.1L270.6,259z M219.5,310.1l8.5,5.1v10.2l-8.5-5.1L219.5,310.1z"/>
				<path class="st0" d="M219.5,248.7l8.5,5.1v10.2l-8.5-5.1L219.5,248.7z M219.5,269.2l8.5,5.1v10.2l-8.5-5.1L219.5,269.2z
					 M219.5,299.9l8.5,5.1v10.2l-8.5-5.1L219.5,299.9z"/>
				<path class="st11" d="M219.5,238.5l8.5,5.1v10.2l-8.5-5.1L219.5,238.5z"/>
				<path class="st0" d="M219.5,320.4l8.5,5.1v10.2l-8.5-5.1L219.5,320.4z M219.5,259l8.5,5.1v10.2l-8.5-5.1L219.5,259z"/>
				<path class="st10" d="M219.5,289.7l8.5,5.1V305l-8.5-5.1L219.5,289.7z"/>
				<path class="st0" d="M219.5,228.3l8.5,5.1v10.2l-8.5-5.1L219.5,228.3z"/>
			</g>
			<g>
				<path class="st0" d="M-70.3,44.1l8.5,5.1v10.2l-8.5-5.1V44.1z"/>
				<path class="st8" d="M-70.3-17.3l8.5,5.1V-2l-8.5-5.1V-17.3z"/>
				<path class="st0" d="M-70.3,13.4l8.5,5.1v10.2l-8.5-5.1V13.4z M-70.3,33.8l8.5,5.1v10.2l-8.5-5.1V33.8z M-70.3-27.6l8.5,5.1
					v10.2l-8.5-5.1V-27.6z"/>
				<path class="st0" d="M-70.3,3.1l8.5,5.1v10.2l-8.5-5.1V3.1z M-70.3,23.6l8.5,5.1v10.2l-8.5-5.1V23.6z M-70.3-37.8l8.5,5.1v10.2
					l-8.5-5.1V-37.8z"/>
				<path class="st8" d="M-70.3-7.1l8.5,5.1V8.2l-8.5-5.1V-7.1z"/>
				<path class="st9" d="M-10.7,79.9l8.5,5.1v10.2l-8.5-5.1L-10.7,79.9z"/>
				<path class="st8" d="M-10.7,18.5l8.5,5.1v10.2l-8.5-5.1L-10.7,18.5z"/>
				<path class="st10" d="M-10.7,49.2l8.5,5.1v10.2l-8.5-5.1L-10.7,49.2z"/>
				<path class="st0" d="M-10.7-12.2l8.5,5.1V3.1L-10.7-2L-10.7-12.2z"/>
				<path class="st9" d="M-10.7,69.6l8.5,5.1V85l-8.5-5.1L-10.7,69.6z"/>
				<path class="st0" d="M-10.7,8.2l8.5,5.1v10.2l-8.5-5.1L-10.7,8.2z M-10.7,38.9l8.5,5.1v10.2l-8.5-5.1L-10.7,38.9z"/>
				<path class="st11" d="M-10.7-22.5l8.5,5.1v10.2l-8.5-5.1V-22.5z"/>
				<path class="st0" d="M-10.7,59.4l8.5,5.1v10.2l-8.5-5.1L-10.7,59.4z"/>
				<path class="st9" d="M-10.7-2l8.5,5.1v10.2l-8.5-5.1L-10.7-2z"/>
				<path class="st10" d="M-10.7,28.7l8.5,5.1v10.2l-8.5-5.1L-10.7,28.7z"/>
				<path class="st0" d="M-10.7-32.7l8.5,5.1v10.2l-8.5-5.1L-10.7-32.7z"/>
				<path class="st11" d="M-61.8,49.2l8.5,5.1v10.2l-8.5-5.1V49.2z"/>
				<path class="st10" d="M-61.8-12.2l8.5,5.1V3.1L-61.8-2V-12.2z"/>
				<path class="st8" d="M-61.8,18.5l8.5,5.1v10.2l-8.5-5.1V18.5z M-61.8,38.9l8.5,5.1v10.2l-8.5-5.1V38.9z"/>
				<path class="st10" d="M-61.8-22.5l8.5,5.1v10.2l-8.5-5.1V-22.5z M-61.8,8.2l8.5,5.1v10.2l-8.5-5.1V8.2z"/>
				<path class="st0" d="M-61.8,28.7l8.5,5.1v10.2l-8.5-5.1V28.7z M-61.8-32.7l8.5,5.1v10.2l-8.5-5.1V-32.7z M-61.8-2l8.5,5.1v10.2
					l-8.5-5.1V-2z M-2.1,85l8.5,5.1v10.2l-8.5-5.1V85z M-2.1,23.6l8.5,5.1v10.2l-8.5-5.1V23.6z M-2.1,54.3l8.5,5.1v10.2l-8.5-5.1
					V54.3z"/>
				<path class="st4" d="M-2.1-7.1L6.4-2V8.2l-8.5-5.1V-7.1z"/>
				<path class="st0" d="M-2.1,74.8l8.5,5.1v10.2L-2.1,85V74.8z M-2.1,13.4l8.5,5.1v10.2l-8.5-5.1V13.4z"/>
				<path class="st4" d="M-2.1,44.1l8.5,5.1v10.2l-8.5-5.1V44.1z"/>
				<path class="st0" d="M-2.1-17.3l8.5,5.1V-2l-8.5-5.1V-17.3z"/>
				<path class="st4" d="M-2.1,64.5l8.5,5.1v10.2l-8.5-5.1V64.5z"/>
				<path class="st0" d="M-2.1,3.1l8.5,5.1v10.2l-8.5-5.1V3.1z M-2.1,33.8l8.5,5.1v10.2l-8.5-5.1V33.8z M-2.1-27.6l8.5,5.1v10.2
					l-8.5-5.1V-27.6z"/>
				<path class="st11" d="M-53.3,54.3l8.5,5.1v10.2l-8.5-5.1V54.3z"/>
				<path class="st8" d="M-53.3-7.1l8.5,5.1V8.2l-8.5-5.1V-7.1z"/>
				<path class="st0" d="M-53.3,23.6l8.5,5.1v10.2l-8.5-5.1V23.6z"/>
				<path class="st9" d="M-53.3-37.8l8.5,5.1v10.2l-8.5-5.1V-37.8z"/>
				<path class="st0" d="M-53.3,44.1l8.5,5.1v10.2l-8.5-5.1V44.1z M-53.3-17.3l8.5,5.1V-2l-8.5-5.1V-17.3z"/>
				<path class="st4" d="M-53.3,13.4l8.5,5.1v10.2l-8.5-5.1V13.4z"/>
				<path class="st0" d="M-53.3,33.8l8.5,5.1v10.2l-8.5-5.1V33.8z"/>
				<path class="st4" d="M-53.3-27.6l8.5,5.1v10.2l-8.5-5.1V-27.6z"/>
				<path class="st0" d="M-53.3,3.1l8.5,5.1v10.2l-8.5-5.1V3.1z"/>
				<path class="st4" d="M6.4,90.1l8.5,5.1v10.2l-8.5-5.1L6.4,90.1z"/>
				<path class="st9" d="M6.4,28.7l8.5,5.1v10.2l-8.5-5.1L6.4,28.7z"/>
				<path class="st0" d="M6.4,59.4l8.5,5.1v10.2l-8.5-5.1L6.4,59.4z M6.4-2l8.5,5.1v10.2L6.4,8.2L6.4-2z M6.4,79.9l8.5,5.1v10.2
					l-8.5-5.1L6.4,79.9z M6.4,18.5l8.5,5.1v10.2l-8.5-5.1L6.4,18.5z"/>
				<path class="st9" d="M6.4,49.2l8.5,5.1v10.2l-8.5-5.1L6.4,49.2z"/>
				<path class="st0" d="M6.4-12.2l8.5,5.1V3.1L6.4-2L6.4-12.2z M6.4,69.6l8.5,5.1V85l-8.5-5.1L6.4,69.6z"/>
				<path class="st4" d="M6.4,8.2l8.5,5.1v10.2l-8.5-5.1L6.4,8.2z"/>
				<path class="st0" d="M6.4,38.9l8.5,5.1v10.2l-8.5-5.1L6.4,38.9z M6.4-22.5l8.5,5.1v10.2l-8.5-5.1L6.4-22.5z M-44.8,59.4l8.5,5.1
					v10.2l-8.5-5.1L-44.8,59.4z"/>
				<path class="st11" d="M-44.8-2l8.5,5.1v10.2l-8.5-5.1L-44.8-2z"/>
				<path class="st0" d="M-44.8,28.7l8.5,5.1v10.2l-8.5-5.1L-44.8,28.7z"/>
				<path class="st9" d="M-44.8-32.7l8.5,5.1v10.2l-8.5-5.1L-44.8-32.7z"/>
				<path class="st0" d="M-44.8,49.2l8.5,5.1v10.2l-8.5-5.1L-44.8,49.2z M-44.8-12.2l8.5,5.1V3.1L-44.8-2L-44.8-12.2z M-44.8,18.5
					l8.5,5.1v10.2l-8.5-5.1L-44.8,18.5z"/>
				<path class="st8" d="M-44.8,38.9l8.5,5.1v10.2l-8.5-5.1L-44.8,38.9z"/>
				<path class="st0" d="M-44.8-22.5l8.5,5.1v10.2l-8.5-5.1L-44.8-22.5z"/>
				<path class="st4" d="M-44.8,8.2l8.5,5.1v10.2l-8.5-5.1L-44.8,8.2z"/>
				<path class="st10" d="M14.9,95.2l8.5,5.1v10.2l-8.5-5.1L14.9,95.2z"/>
				<path class="st0" d="M14.9,33.8l8.5,5.1v10.2l-8.5-5.1L14.9,33.8z M14.9,64.5l8.5,5.1v10.2l-8.5-5.1L14.9,64.5z M14.9,3.1
					l8.5,5.1v10.2l-8.5-5.1L14.9,3.1z M14.9,85l8.5,5.1v10.2l-8.5-5.1L14.9,85z M14.9,23.6l8.5,5.1v10.2l-8.5-5.1L14.9,23.6z"/>
				<path class="st4" d="M14.9,54.3l8.5,5.1v10.2l-8.5-5.1L14.9,54.3z"/>
				<path class="st0" d="M14.9-7.1L23.4-2V8.2l-8.5-5.1L14.9-7.1z"/>
				<path class="st8" d="M14.9,74.8l8.5,5.1v10.2L14.9,85L14.9,74.8z"/>
				<path class="st0" d="M14.9,13.4l8.5,5.1v10.2l-8.5-5.1L14.9,13.4z"/>
				<path class="st8" d="M14.9,44.1l8.5,5.1v10.2l-8.5-5.1L14.9,44.1z M14.9-17.3l8.5,5.1V-2l-8.5-5.1L14.9-17.3z"/>
				<path class="st11" d="M-36.2,64.5l8.5,5.1v10.2l-8.5-5.1L-36.2,64.5z"/>
				<path class="st0" d="M-36.2,3.1l8.5,5.1v10.2l-8.5-5.1L-36.2,3.1z"/>
				<path class="st10" d="M-36.2,33.8l8.5,5.1v10.2l-8.5-5.1L-36.2,33.8z"/>
				<path class="st0" d="M-36.2-27.6l8.5,5.1v10.2l-8.5-5.1L-36.2-27.6z"/>
				<path class="st11" d="M-36.2,54.3l8.5,5.1v10.2l-8.5-5.1L-36.2,54.3z"/>
				<path class="st9" d="M-36.2-7.1l8.5,5.1V8.2l-8.5-5.1L-36.2-7.1z"/>
				<path class="st11" d="M-36.2,23.6l8.5,5.1v10.2l-8.5-5.1L-36.2,23.6z"/>
				<path class="st8" d="M-36.2-37.8l8.5,5.1v10.2l-8.5-5.1L-36.2-37.8z"/>
				<path class="st0" d="M-36.2,44.1l8.5,5.1v10.2l-8.5-5.1L-36.2,44.1z M-36.2-17.3l8.5,5.1V-2l-8.5-5.1L-36.2-17.3z M-36.2,13.4
					l8.5,5.1v10.2l-8.5-5.1L-36.2,13.4z"/>
				<path class="st9" d="M23.4,100.3l8.5,5.1v10.2l-8.5-5.1V100.3z"/>
				<path class="st11" d="M23.4,38.9l8.5,5.1v10.2l-8.5-5.1V38.9z"/>
				<path class="st9" d="M23.4,69.6l8.5,5.1V85l-8.5-5.1V69.6z"/>
				<path class="st0" d="M23.4,8.2l8.5,5.1v10.2l-8.5-5.1V8.2z M23.4,90.1l8.5,5.1v10.2l-8.5-5.1V90.1z M23.4,28.7l8.5,5.1v10.2
					l-8.5-5.1V28.7z"/>
				<path class="st8" d="M23.4,59.4l8.5,5.1v10.2l-8.5-5.1V59.4z"/>
				<path class="st0" d="M23.4-2L32,3.1v10.2l-8.5-5.1V-2z M23.4,79.9L32,85v10.2l-8.5-5.1V79.9z"/>
				<path class="st4" d="M23.4,18.5l8.5,5.1v10.2l-8.5-5.1V18.5z"/>
				<path class="st0" d="M23.4,49.2l8.5,5.1v10.2l-8.5-5.1V49.2z"/>
				<path class="st11" d="M23.4-12.2L32-7.1V3.1L23.4-2V-12.2z"/>
				<path class="st0" d="M-27.7,69.6l8.5,5.1V85l-8.5-5.1L-27.7,69.6z M-27.7,8.2l8.5,5.1v10.2l-8.5-5.1L-27.7,8.2z"/>
				<path class="st4" d="M-27.7,38.9l8.5,5.1v10.2l-8.5-5.1L-27.7,38.9z"/>
				<path class="st11" d="M-27.7-22.5l8.5,5.1v10.2l-8.5-5.1L-27.7-22.5z"/>
				<path class="st0" d="M-27.7,59.4l8.5,5.1v10.2l-8.5-5.1L-27.7,59.4z M-27.7-2l8.5,5.1v10.2l-8.5-5.1L-27.7-2z M-27.7,28.7
					l8.5,5.1v10.2l-8.5-5.1L-27.7,28.7z M-27.7-32.7l8.5,5.1v10.2l-8.5-5.1L-27.7-32.7z"/>
				<path class="st9" d="M-27.7,49.2l8.5,5.1v10.2l-8.5-5.1L-27.7,49.2z"/>
				<path class="st4" d="M-27.7-12.2l8.5,5.1V3.1L-27.7-2L-27.7-12.2z"/>
				<path class="st0" d="M-27.7,18.5l8.5,5.1v10.2l-8.5-5.1L-27.7,18.5z M32,105.5l8.5,5.1v10.2l-8.5-5.1V105.5z M32,44.1l8.5,5.1
					v10.2L32,54.3V44.1z M32,74.8l8.5,5.1v10.2L32,85V74.8z M32,13.4l8.5,5.1v10.2L32,23.6V13.4z"/>
				<path class="st11" d="M32,95.2l8.5,5.1v10.2l-8.5-5.1V95.2z"/>
				<path class="st0" d="M32,33.8l8.5,5.1v10.2L32,44.1V33.8z"/>
				<path class="st11" d="M32,64.5l8.5,5.1v10.2L32,74.8V64.5z"/>
				<path class="st0" d="M32,3.1l8.5,5.1v10.2L32,13.4V3.1z"/>
				<path class="st4" d="M32,85l8.5,5.1v10.2L32,95.2V85z"/>
				<path class="st11" d="M32,23.6l8.5,5.1v10.2L32,33.8V23.6z"/>
				<path class="st0" d="M32,54.3l8.5,5.1v10.2L32,64.5V54.3z"/>
				<path class="st11" d="M32-7.1L40.5-2V8.2L32,3.1V-7.1z"/>
				<path class="st0" d="M-19.2,74.8l8.5,5.1v10.2l-8.5-5.1L-19.2,74.8z"/>
				<path class="st11" d="M-19.2,44.1l8.5,5.1v10.2l-8.5-5.1L-19.2,44.1z"/>
				<path class="st0" d="M-19.2-17.3l8.5,5.1V-2l-8.5-5.1L-19.2-17.3z"/>
				<path class="st4" d="M-19.2,64.5l8.5,5.1v10.2l-8.5-5.1L-19.2,64.5z"/>
				<path class="st0" d="M-19.2,3.1l8.5,5.1v10.2l-8.5-5.1L-19.2,3.1z M-19.2,33.8l8.5,5.1v10.2l-8.5-5.1L-19.2,33.8z"/>
				<path class="st11" d="M-19.2-27.6l8.5,5.1v10.2l-8.5-5.1L-19.2-27.6z"/>
				<path class="st0" d="M-19.2,54.3l8.5,5.1v10.2l-8.5-5.1L-19.2,54.3z M-19.2-7.1l8.5,5.1V8.2l-8.5-5.1L-19.2-7.1z"/>
				<path class="st10" d="M-19.2,23.6l8.5,5.1v10.2l-8.5-5.1L-19.2,23.6z"/>
				<path class="st0" d="M-19.2-37.8l8.5,5.1v10.2l-8.5-5.1L-19.2-37.8z"/>
				<path class="st9" d="M40.5,110.6l8.5,5.1v10.2l-8.5-5.1V110.6z"/>
				<path class="st8" d="M40.5,49.2l8.5,5.1v10.2l-8.5-5.1V49.2z"/>
				<path class="st11" d="M40.5,79.9L49,85v10.2l-8.5-5.1V79.9z M40.5,18.5l8.5,5.1v10.2l-8.5-5.1V18.5z M40.5,100.3l8.5,5.1v10.2
					l-8.5-5.1V100.3z"/>
				<path class="st0" d="M40.5,38.9l8.5,5.1v10.2l-8.5-5.1V38.9z M40.5,69.6l8.5,5.1V85l-8.5-5.1V69.6z M40.5,8.2l8.5,5.1v10.2
					l-8.5-5.1V8.2z M40.5,90.1l8.5,5.1v10.2l-8.5-5.1V90.1z"/>
				<path class="st0" d="M40.5,28.7l8.5,5.1v10.2l-8.5-5.1V28.7z M40.5,59.4l8.5,5.1v10.2l-8.5-5.1V59.4z M40.5-2L49,3.1v10.2
					l-8.5-5.1V-2z"/>
			</g>
			<g>
				<path class="st0" d="M49,115.7l8.5,5.1V131l-8.5-5.1V115.7z"/>
				<path class="st8" d="M49,54.3l8.5,5.1v10.2L49,64.5V54.3z"/>
				<path class="st0" d="M49,85l8.5,5.1v10.2L49,95.2V85z"/>
				<path class="st9" d="M49,23.6l8.5,5.1v10.2L49,33.8V23.6z"/>
				<path class="st0" d="M49,105.5l8.5,5.1v10.2l-8.5-5.1V105.5z M49,44.1l8.5,5.1v10.2L49,54.3V44.1z M49,74.8l8.5,5.1v10.2L49,85
					V74.8z M49,13.4l8.5,5.1v10.2L49,23.6V13.4z"/>
				<path class="st0" d="M49,95.2l8.5,5.1v10.2l-8.5-5.1V95.2z M49,33.8l8.5,5.1v10.2L49,44.1V33.8z"/>
				<path class="st8" d="M49,64.5l8.5,5.1v10.2L49,74.8V64.5z"/>
				<path class="st0" d="M49,3.1l8.5,5.1v10.2L49,13.4V3.1z"/>
				<path class="st9" d="M108.7,151.5l8.5,5.1v10.2l-8.5-5.1L108.7,151.5z"/>
				<path class="st8" d="M108.7,90.1l8.5,5.1v10.2l-8.5-5.1L108.7,90.1z"/>
				<path class="st10" d="M108.7,120.8l8.5,5.1v10.2l-8.5-5.1L108.7,120.8z"/>
				<path class="st0" d="M108.7,59.4l8.5,5.1v10.2l-8.5-5.1L108.7,59.4z"/>
				<path class="st9" d="M108.7,141.3l8.5,5.1v10.2l-8.5-5.1L108.7,141.3z"/>
				<path class="st0" d="M108.7,79.9l8.5,5.1v10.2l-8.5-5.1L108.7,79.9z M108.7,110.6l8.5,5.1v10.2l-8.5-5.1L108.7,110.6z"/>
				<path class="st11" d="M108.7,49.2l8.5,5.1v10.2l-8.5-5.1L108.7,49.2z"/>
				<path class="st0" d="M108.7,131l8.5,5.1v10.2l-8.5-5.1L108.7,131z"/>
				<path class="st9" d="M108.7,69.6l8.5,5.1V85l-8.5-5.1L108.7,69.6z"/>
				<path class="st10" d="M108.7,100.3l8.5,5.1v10.2l-8.5-5.1L108.7,100.3z"/>
				<path class="st0" d="M108.7,38.9l8.5,5.1v10.2l-8.5-5.1L108.7,38.9z"/>
				<path class="st11" d="M57.5,120.8l8.5,5.1v10.2l-8.5-5.1L57.5,120.8z"/>
				<path class="st10" d="M57.5,59.4l8.5,5.1v10.2l-8.5-5.1L57.5,59.4z"/>
				<path class="st8" d="M57.5,90.1l8.5,5.1v10.2l-8.5-5.1L57.5,90.1z"/>
				<path class="st0" d="M57.5,28.7l8.5,5.1v10.2l-8.5-5.1L57.5,28.7z"/>
				<path class="st8" d="M57.5,110.6l8.5,5.1v10.2l-8.5-5.1L57.5,110.6z"/>
				<path class="st10" d="M57.5,49.2l8.5,5.1v10.2l-8.5-5.1L57.5,49.2z M57.5,79.9l8.5,5.1v10.2l-8.5-5.1L57.5,79.9z"/>
				<path class="st4" d="M57.5,18.5l8.5,5.1v10.2l-8.5-5.1L57.5,18.5z"/>
				<path class="st0" d="M57.5,100.3l8.5,5.1v10.2l-8.5-5.1L57.5,100.3z M57.5,38.9l8.5,5.1v10.2l-8.5-5.1L57.5,38.9z M57.5,69.6
					l8.5,5.1V85l-8.5-5.1L57.5,69.6z M57.5,8.2l8.5,5.1v10.2l-8.5-5.1L57.5,8.2z M117.2,156.6l8.5,5.1V172l-8.5-5.1L117.2,156.6z
					 M117.2,95.2l8.5,5.1v10.2l-8.5-5.1L117.2,95.2z M117.2,125.9l8.5,5.1v10.2l-8.5-5.1L117.2,125.9z"/>
				<path class="st4" d="M117.2,64.5l8.5,5.1v10.2l-8.5-5.1L117.2,64.5z"/>
				<path class="st0" d="M117.2,146.4l8.5,5.1v10.2l-8.5-5.1L117.2,146.4z M117.2,85l8.5,5.1v10.2l-8.5-5.1L117.2,85z"/>
				<path class="st4" d="M117.2,115.7l8.5,5.1V131l-8.5-5.1L117.2,115.7z"/>
				<path class="st0" d="M117.2,54.3l8.5,5.1v10.2l-8.5-5.1L117.2,54.3z"/>
				<path class="st4" d="M117.2,136.2l8.5,5.1v10.2l-8.5-5.1L117.2,136.2z"/>
				<path class="st0" d="M117.2,74.8l8.5,5.1v10.2l-8.5-5.1L117.2,74.8z M117.2,105.5l8.5,5.1v10.2l-8.5-5.1L117.2,105.5z
					 M117.2,44.1l8.5,5.1v10.2l-8.5-5.1L117.2,44.1z"/>
				<path class="st11" d="M66.1,125.9l8.5,5.1v10.2l-8.5-5.1L66.1,125.9z"/>
				<path class="st8" d="M66.1,64.5l8.5,5.1v10.2l-8.5-5.1L66.1,64.5z"/>
				<path class="st0" d="M66.1,95.2l8.5,5.1v10.2l-8.5-5.1L66.1,95.2z"/>
				<path class="st9" d="M66.1,33.8l8.5,5.1v10.2l-8.5-5.1L66.1,33.8z"/>
				<path class="st0" d="M66.1,115.7l8.5,5.1V131l-8.5-5.1L66.1,115.7z M66.1,54.3l8.5,5.1v10.2l-8.5-5.1L66.1,54.3z"/>
				<path class="st4" d="M66.1,85l8.5,5.1v10.2l-8.5-5.1L66.1,85z"/>
				<path class="st10" d="M66.1,23.6l8.5,5.1v10.2l-8.5-5.1L66.1,23.6z"/>
				<path class="st0" d="M66.1,105.5l8.5,5.1v10.2l-8.5-5.1L66.1,105.5z"/>
				<path class="st4" d="M66.1,44.1l8.5,5.1v10.2l-8.5-5.1L66.1,44.1z"/>
				<path class="st0" d="M66.1,74.8l8.5,5.1v10.2L66.1,85L66.1,74.8z"/>
				<path class="st9" d="M66.1,13.4l8.5,5.1v10.2l-8.5-5.1L66.1,13.4z"/>
				<path class="st4" d="M125.7,161.7l8.5,5.1v10.2l-8.5-5.1V161.7z"/>
				<path class="st9" d="M125.7,100.3l8.5,5.1v10.2l-8.5-5.1V100.3z"/>
				<path class="st0" d="M125.7,131l8.5,5.1v10.2l-8.5-5.1V131z M125.7,69.6l8.5,5.1V85l-8.5-5.1V69.6z M125.7,151.5l8.5,5.1v10.2
					l-8.5-5.1V151.5z M125.7,90.1l8.5,5.1v10.2l-8.5-5.1V90.1z"/>
				<path class="st9" d="M125.7,120.8l8.5,5.1v10.2l-8.5-5.1V120.8z"/>
				<path class="st0" d="M125.7,59.4l8.5,5.1v10.2l-8.5-5.1V59.4z M125.7,141.3l8.5,5.1v10.2l-8.5-5.1V141.3z"/>
				<path class="st4" d="M125.7,79.9l8.5,5.1v10.2l-8.5-5.1V79.9z"/>
				<path class="st0" d="M125.7,110.6l8.5,5.1v10.2l-8.5-5.1V110.6z M125.7,49.2l8.5,5.1v10.2l-8.5-5.1V49.2z M74.6,131l8.5,5.1
					v10.2l-8.5-5.1V131z"/>
				<path class="st11" d="M74.6,69.6l8.5,5.1V85l-8.5-5.1V69.6z"/>
				<path class="st0" d="M74.6,100.3l8.5,5.1v10.2l-8.5-5.1V100.3z"/>
				<path class="st9" d="M74.6,38.9l8.5,5.1v10.2l-8.5-5.1V38.9z"/>
				<path class="st0" d="M74.6,120.8l8.5,5.1v10.2l-8.5-5.1V120.8z M74.6,59.4l8.5,5.1v10.2l-8.5-5.1V59.4z M74.6,90.1l8.5,5.1v10.2
					l-8.5-5.1V90.1z M74.6,28.7l8.5,5.1v10.2l-8.5-5.1V28.7z"/>
				<path class="st8" d="M74.6,110.6l8.5,5.1v10.2l-8.5-5.1V110.6z"/>
				<path class="st0" d="M74.6,49.2l8.5,5.1v10.2l-8.5-5.1V49.2z"/>
				<path class="st4" d="M74.6,79.9l8.5,5.1v10.2l-8.5-5.1V79.9z"/>
				<path class="st0" d="M74.6,18.5l8.5,5.1v10.2l-8.5-5.1V18.5z"/>
				<path class="st10" d="M134.3,166.9l8.5,5.1v10.2l-8.5-5.1L134.3,166.9z"/>
				<path class="st0" d="M134.3,105.5l8.5,5.1v10.2l-8.5-5.1L134.3,105.5z M134.3,136.2l8.5,5.1v10.2l-8.5-5.1L134.3,136.2z
					 M134.3,74.8l8.5,5.1v10.2l-8.5-5.1L134.3,74.8z M134.3,156.6l8.5,5.1V172l-8.5-5.1L134.3,156.6z"/>
				<path class="st0" d="M134.3,95.2l8.5,5.1v10.2l-8.5-5.1L134.3,95.2z"/>
				<path class="st4" d="M134.3,125.9l8.5,5.1v10.2l-8.5-5.1L134.3,125.9z"/>
				<path class="st0" d="M134.3,64.5l8.5,5.1v10.2l-8.5-5.1L134.3,64.5z"/>
				<path class="st8" d="M134.3,146.4l8.5,5.1v10.2l-8.5-5.1L134.3,146.4z"/>
				<path class="st0" d="M134.3,85l8.5,5.1v10.2l-8.5-5.1L134.3,85z"/>
				<path class="st8" d="M134.3,115.7l8.5,5.1V131l-8.5-5.1L134.3,115.7z M134.3,54.3l8.5,5.1v10.2l-8.5-5.1L134.3,54.3z"/>
				<path class="st11" d="M83.1,136.2l8.5,5.1v10.2l-8.5-5.1V136.2z"/>
				<path class="st0" d="M83.1,74.8l8.5,5.1v10.2L83.1,85V74.8z"/>
				<path class="st10" d="M83.1,105.5l8.5,5.1v10.2l-8.5-5.1V105.5z"/>
				<path class="st0" d="M83.1,44.1l8.5,5.1v10.2l-8.5-5.1V44.1z"/>
				<path class="st11" d="M83.1,125.9l8.5,5.1v10.2l-8.5-5.1V125.9z"/>
				<path class="st9" d="M83.1,64.5l8.5,5.1v10.2l-8.5-5.1V64.5z"/>
				<path class="st11" d="M83.1,95.2l8.5,5.1v10.2l-8.5-5.1V95.2z"/>
				<path class="st8" d="M83.1,33.8l8.5,5.1v10.2l-8.5-5.1V33.8z"/>
				<path class="st0" d="M83.1,115.7l8.5,5.1V131l-8.5-5.1V115.7z M83.1,54.3l8.5,5.1v10.2l-8.5-5.1V54.3z M83.1,85l8.5,5.1v10.2
					l-8.5-5.1V85z M83.1,23.6l8.5,5.1v10.2l-8.5-5.1V23.6z"/>
				<path class="st9" d="M142.8,172l8.5,5.1v10.2l-8.5-5.1V172z"/>
				<path class="st11" d="M142.8,110.6l8.5,5.1v10.2l-8.5-5.1V110.6z"/>
				<path class="st9" d="M142.8,141.3l8.5,5.1v10.2l-8.5-5.1V141.3z"/>
				<path class="st0" d="M142.8,79.9l8.5,5.1v10.2l-8.5-5.1V79.9z M142.8,161.7l8.5,5.1v10.2l-8.5-5.1V161.7z M142.8,100.3l8.5,5.1
					v10.2l-8.5-5.1V100.3z"/>
				<path class="st8" d="M142.8,131l8.5,5.1v10.2l-8.5-5.1V131z"/>
				<path class="st0" d="M142.8,69.6l8.5,5.1V85l-8.5-5.1V69.6z M142.8,151.5l8.5,5.1v10.2l-8.5-5.1V151.5z"/>
				<path class="st4" d="M142.8,90.1l8.5,5.1v10.2l-8.5-5.1V90.1z"/>
				<path class="st0" d="M142.8,120.8l8.5,5.1v10.2l-8.5-5.1V120.8z"/>
				<path class="st11" d="M142.8,59.4l8.5,5.1v10.2l-8.5-5.1V59.4z"/>
				<path class="st0" d="M91.6,141.3l8.5,5.1v10.2l-8.5-5.1L91.6,141.3z M91.6,79.9l8.5,5.1v10.2l-8.5-5.1L91.6,79.9z"/>
				<path class="st4" d="M91.6,110.6l8.5,5.1v10.2l-8.5-5.1L91.6,110.6z"/>
				<path class="st11" d="M91.6,49.2l8.5,5.1v10.2l-8.5-5.1L91.6,49.2z"/>
				<path class="st0" d="M91.6,131l8.5,5.1v10.2l-8.5-5.1L91.6,131z M91.6,69.6l8.5,5.1V85l-8.5-5.1L91.6,69.6z M91.6,100.3l8.5,5.1
					v10.2l-8.5-5.1L91.6,100.3z M91.6,38.9l8.5,5.1v10.2l-8.5-5.1L91.6,38.9z"/>
				<path class="st9" d="M91.6,120.8l8.5,5.1v10.2l-8.5-5.1L91.6,120.8z"/>
				<path class="st4" d="M91.6,59.4l8.5,5.1v10.2l-8.5-5.1L91.6,59.4z"/>
				<path class="st0" d="M91.6,90.1l8.5,5.1v10.2l-8.5-5.1L91.6,90.1z M91.6,28.7l8.5,5.1v10.2l-8.5-5.1V28.7z M151.3,177.1l8.5,5.1
					v10.2l-8.5-5.1V177.1z M151.3,115.7l8.5,5.1V131l-8.5-5.1V115.7z M151.3,146.4l8.5,5.1v10.2l-8.5-5.1V146.4z M151.3,85l8.5,5.1
					v10.2l-8.5-5.1V85z"/>
				<path class="st11" d="M151.3,166.9l8.5,5.1v10.2l-8.5-5.1V166.9z"/>
				<path class="st0" d="M151.3,105.5l8.5,5.1v10.2l-8.5-5.1V105.5z"/>
				<path class="st11" d="M151.3,136.2l8.5,5.1v10.2l-8.5-5.1V136.2z"/>
				<path class="st0" d="M151.3,74.8l8.5,5.1v10.2l-8.5-5.1V74.8z"/>
				<path class="st4" d="M151.3,156.6l8.5,5.1V172l-8.5-5.1V156.6z"/>
				<path class="st11" d="M151.3,95.2l8.5,5.1v10.2l-8.5-5.1V95.2z"/>
				<path class="st0" d="M151.3,125.9l8.5,5.1v10.2l-8.5-5.1V125.9z"/>
				<path class="st11" d="M151.3,64.5l8.5,5.1v10.2l-8.5-5.1V64.5z"/>
				<path class="st0" d="M100.2,146.4l8.5,5.1v10.2l-8.5-5.1V146.4z"/>
				<path class="st11" d="M100.2,115.7l8.5,5.1V131l-8.5-5.1V115.7z"/>
				<path class="st0" d="M100.2,54.3l8.5,5.1v10.2l-8.5-5.1V54.3z"/>
				<path class="st4" d="M100.2,136.2l8.5,5.1v10.2l-8.5-5.1V136.2z"/>
				<path class="st0" d="M100.2,74.8l8.5,5.1v10.2l-8.5-5.1V74.8z M100.2,105.5l8.5,5.1v10.2l-8.5-5.1V105.5z"/>
				<path class="st11" d="M100.2,44.1l8.5,5.1v10.2l-8.5-5.1V44.1z"/>
				<path class="st0" d="M100.2,125.9l8.5,5.1v10.2l-8.5-5.1V125.9z M100.2,64.5l8.5,5.1v10.2l-8.5-5.1V64.5z"/>
				<path class="st10" d="M100.2,95.2l8.5,5.1v10.2l-8.5-5.1V95.2z"/>
				<path class="st0" d="M100.2,33.8l8.5,5.1v10.2l-8.5-5.1V33.8z"/>
				<path class="st9" d="M159.8,182.2l8.5,5.1v10.2l-8.5-5.1L159.8,182.2z"/>
				<path class="st8" d="M159.8,120.8l8.5,5.1v10.2l-8.5-5.1L159.8,120.8z"/>
				<path class="st11" d="M159.8,151.5l8.5,5.1v10.2l-8.5-5.1L159.8,151.5z M159.8,90.1l8.5,5.1v10.2l-8.5-5.1L159.8,90.1z
					 M159.8,172l8.5,5.1v10.2l-8.5-5.1L159.8,172z"/>
				<path class="st0" d="M159.8,110.6l8.5,5.1v10.2l-8.5-5.1L159.8,110.6z M159.8,141.3l8.5,5.1v10.2l-8.5-5.1L159.8,141.3z
					 M159.8,79.9l8.5,5.1v10.2l-8.5-5.1L159.8,79.9z M159.8,161.7l8.5,5.1v10.2l-8.5-5.1L159.8,161.7z"/>
				<path class="st0" d="M159.8,100.3l8.5,5.1v10.2l-8.5-5.1L159.8,100.3z M159.8,131l8.5,5.1v10.2l-8.5-5.1L159.8,131z M159.8,69.6
					l8.5,5.1V85l-8.5-5.1L159.8,69.6z"/>
			</g>
			<g>
				<path class="st0" d="M168.4,187.3l8.5,5.1v10.2l-8.5-5.1L168.4,187.3z"/>
				<path class="st8" d="M168.4,125.9l8.5,5.1v10.2l-8.5-5.1L168.4,125.9z"/>
				<path class="st0" d="M168.4,156.6l8.5,5.1V172l-8.5-5.1L168.4,156.6z"/>
				<path class="st9" d="M168.4,95.2l8.5,5.1v10.2l-8.5-5.1L168.4,95.2z"/>
				<path class="st0" d="M168.4,177.1l8.5,5.1v10.2l-8.5-5.1L168.4,177.1z M168.4,115.7l8.5,5.1V131l-8.5-5.1L168.4,115.7z
					 M168.4,146.4l8.5,5.1v10.2l-8.5-5.1L168.4,146.4z M168.4,85l8.5,5.1v10.2l-8.5-5.1L168.4,85z"/>
				<path class="st0" d="M168.4,166.9l8.5,5.1v10.2l-8.5-5.1L168.4,166.9z M168.4,105.5l8.5,5.1v10.2l-8.5-5.1L168.4,105.5z"/>
				<path class="st8" d="M168.4,136.2l8.5,5.1v10.2l-8.5-5.1L168.4,136.2z"/>
				<path class="st0" d="M168.4,74.8l8.5,5.1v10.2l-8.5-5.1L168.4,74.8z"/>
				<path class="st9" d="M228,223.2l8.5,5.1v10.2l-8.5-5.1V223.2z"/>
				<path class="st8" d="M228,161.7l8.5,5.1v10.2L228,172V161.7z"/>
				<path class="st10" d="M228,192.5l8.5,5.1v10.2l-8.5-5.1V192.5z"/>
				<path class="st0" d="M228,131l8.5,5.1v10.2l-8.5-5.1V131z"/>
				<path class="st9" d="M228,212.9l8.5,5.1v10.2l-8.5-5.1V212.9z"/>
				<path class="st0" d="M228,151.5l8.5,5.1v10.2l-8.5-5.1V151.5z M228,182.2l8.5,5.1v10.2l-8.5-5.1V182.2z"/>
				<path class="st11" d="M228,120.8l8.5,5.1v10.2L228,131V120.8z"/>
				<path class="st0" d="M228,202.7l8.5,5.1V218l-8.5-5.1V202.7z"/>
				<path class="st9" d="M228,141.3l8.5,5.1v10.2l-8.5-5.1V141.3z"/>
				<path class="st10" d="M228,172l8.5,5.1v10.2l-8.5-5.1V172z"/>
				<path class="st0" d="M228,110.6l8.5,5.1v10.2l-8.5-5.1V110.6z"/>
				<path class="st11" d="M176.9,192.5l8.5,5.1v10.2l-8.5-5.1V192.5z"/>
				<path class="st10" d="M176.9,131l8.5,5.1v10.2l-8.5-5.1V131z"/>
				<path class="st8" d="M176.9,161.7l8.5,5.1v10.2l-8.5-5.1V161.7z"/>
				<path class="st0" d="M176.9,100.3l8.5,5.1v10.2l-8.5-5.1V100.3z"/>
				<path class="st8" d="M176.9,182.2l8.5,5.1v10.2l-8.5-5.1V182.2z"/>
				<path class="st10" d="M176.9,120.8l8.5,5.1v10.2l-8.5-5.1V120.8z M176.9,151.5l8.5,5.1v10.2l-8.5-5.1V151.5z"/>
				<path class="st4" d="M176.9,90.1l8.5,5.1v10.2l-8.5-5.1V90.1z"/>
				<path class="st0" d="M176.9,172l8.5,5.1v10.2l-8.5-5.1V172z M176.9,110.6l8.5,5.1v10.2l-8.5-5.1V110.6z M176.9,141.3l8.5,5.1
					v10.2l-8.5-5.1V141.3z M176.9,79.9l8.5,5.1v10.2l-8.5-5.1V79.9z M236.5,228.3l8.5,5.1v10.2l-8.5-5.1V228.3z M236.5,166.9
					l8.5,5.1v10.2l-8.5-5.1V166.9z M236.5,197.6l8.5,5.1v10.2l-8.5-5.1V197.6z"/>
				<path class="st4" d="M236.5,136.2l8.5,5.1v10.2l-8.5-5.1V136.2z"/>
				<path class="st0" d="M236.5,218l8.5,5.1v10.2l-8.5-5.1V218z M236.5,156.6l8.5,5.1V172l-8.5-5.1V156.6z"/>
				<path class="st4" d="M236.5,187.3l8.5,5.1v10.2l-8.5-5.1V187.3z"/>
				<path class="st0" d="M236.5,125.9l8.5,5.1v10.2l-8.5-5.1V125.9z"/>
				<path class="st4" d="M236.5,207.8l8.5,5.1v10.2l-8.5-5.1V207.8z"/>
				<path class="st0" d="M236.5,146.4l8.5,5.1v10.2l-8.5-5.1V146.4z M236.5,177.1l8.5,5.1v10.2l-8.5-5.1V177.1z M236.5,115.7
					l8.5,5.1V131l-8.5-5.1V115.7z"/>
				<path class="st11" d="M185.4,197.6l8.5,5.1v10.2l-8.5-5.1V197.6z"/>
				<path class="st8" d="M185.4,136.2l8.5,5.1v10.2l-8.5-5.1V136.2z"/>
				<path class="st0" d="M185.4,166.9l8.5,5.1v10.2l-8.5-5.1V166.9z"/>
				<path class="st9" d="M185.4,105.5l8.5,5.1v10.2l-8.5-5.1V105.5z"/>
				<path class="st0" d="M185.4,187.3l8.5,5.1v10.2l-8.5-5.1V187.3z M185.4,125.9l8.5,5.1v10.2l-8.5-5.1V125.9z"/>
				<path class="st4" d="M185.4,156.6l8.5,5.1V172l-8.5-5.1V156.6z"/>
				<path class="st10" d="M185.4,95.2l8.5,5.1v10.2l-8.5-5.1V95.2z"/>
				<path class="st0" d="M185.4,177.1l8.5,5.1v10.2l-8.5-5.1V177.1z"/>
				<path class="st4" d="M185.4,115.7l8.5,5.1V131l-8.5-5.1V115.7z"/>
				<path class="st0" d="M185.4,146.4l8.5,5.1v10.2l-8.5-5.1V146.4z"/>
				<path class="st9" d="M185.4,85l8.5,5.1v10.2l-8.5-5.1V85z"/>
				<path class="st4" d="M245.1,233.4l8.5,5.1v10.2l-8.5-5.1V233.4z"/>
				<path class="st9" d="M245.1,172l8.5,5.1v10.2l-8.5-5.1V172z"/>
				<path class="st0" d="M245.1,202.7l8.5,5.1V218l-8.5-5.1V202.7z M245.1,141.3l8.5,5.1v10.2l-8.5-5.1V141.3z M245.1,223.2l8.5,5.1
					v10.2l-8.5-5.1V223.2z M245.1,161.7l8.5,5.1v10.2l-8.5-5.1V161.7z"/>
				<path class="st9" d="M245.1,192.5l8.5,5.1v10.2l-8.5-5.1V192.5z"/>
				<path class="st0" d="M245.1,131l8.5,5.1v10.2l-8.5-5.1V131z M245.1,212.9l8.5,5.1v10.2l-8.5-5.1V212.9z"/>
				<path class="st4" d="M245.1,151.5l8.5,5.1v10.2l-8.5-5.1V151.5z"/>
				<path class="st0" d="M245.1,182.2l8.5,5.1v10.2l-8.5-5.1V182.2z M245.1,120.8l8.5,5.1v10.2l-8.5-5.1V120.8z M193.9,202.7
					l8.5,5.1V218l-8.5-5.1L193.9,202.7z"/>
				<path class="st11" d="M193.9,141.3l8.5,5.1v10.2l-8.5-5.1L193.9,141.3z"/>
				<path class="st0" d="M193.9,172l8.5,5.1v10.2l-8.5-5.1L193.9,172z"/>
				<path class="st9" d="M193.9,110.6l8.5,5.1v10.2l-8.5-5.1L193.9,110.6z"/>
				<path class="st0" d="M193.9,192.5l8.5,5.1v10.2l-8.5-5.1L193.9,192.5z M193.9,131l8.5,5.1v10.2l-8.5-5.1L193.9,131z
					 M193.9,161.7l8.5,5.1v10.2l-8.5-5.1L193.9,161.7z M193.9,100.3l8.5,5.1v10.2l-8.5-5.1L193.9,100.3z"/>
				<path class="st8" d="M193.9,182.2l8.5,5.1v10.2l-8.5-5.1L193.9,182.2z"/>
				<path class="st0" d="M193.9,120.8l8.5,5.1v10.2l-8.5-5.1L193.9,120.8z"/>
				<path class="st4" d="M193.9,151.5l8.5,5.1v10.2l-8.5-5.1L193.9,151.5z"/>
				<path class="st0" d="M193.9,90.1l8.5,5.1v10.2l-8.5-5.1L193.9,90.1z"/>
				<path class="st10" d="M253.6,238.5l8.5,5.1v10.2l-8.5-5.1V238.5z"/>
				<path class="st0" d="M253.6,177.1l8.5,5.1v10.2l-8.5-5.1V177.1z M253.6,207.8l8.5,5.1v10.2l-8.5-5.1V207.8z M253.6,146.4
					l8.5,5.1v10.2l-8.5-5.1V146.4z M253.6,228.3l8.5,5.1v10.2l-8.5-5.1V228.3z"/>
				<path class="st0" d="M253.6,166.9l8.5,5.1v10.2l-8.5-5.1V166.9z"/>
				<path class="st4" d="M253.6,197.6l8.5,5.1v10.2l-8.5-5.1V197.6z"/>
				<path class="st0" d="M253.6,136.2l8.5,5.1v10.2l-8.5-5.1V136.2z"/>
				<path class="st8" d="M253.6,218l8.5,5.1v10.2l-8.5-5.1V218z"/>
				<path class="st0" d="M253.6,156.6l8.5,5.1V172l-8.5-5.1V156.6z"/>
				<path class="st8" d="M253.6,187.3l8.5,5.1v10.2l-8.5-5.1V187.3z M253.6,125.9l8.5,5.1v10.2l-8.5-5.1V125.9z"/>
				<path class="st11" d="M202.5,207.8l8.5,5.1v10.2l-8.5-5.1V207.8z"/>
				<path class="st0" d="M202.5,146.4l8.5,5.1v10.2l-8.5-5.1V146.4z"/>
				<path class="st10" d="M202.5,177.1l8.5,5.1v10.2l-8.5-5.1V177.1z"/>
				<path class="st0" d="M202.5,115.7l8.5,5.1V131l-8.5-5.1V115.7z"/>
				<path class="st11" d="M202.5,197.6l8.5,5.1v10.2l-8.5-5.1V197.6z"/>
				<path class="st9" d="M202.5,136.2l8.5,5.1v10.2l-8.5-5.1V136.2z"/>
				<path class="st11" d="M202.5,166.9l8.5,5.1v10.2l-8.5-5.1V166.9z"/>
				<path class="st8" d="M202.5,105.5l8.5,5.1v10.2l-8.5-5.1V105.5z"/>
				<path class="st0" d="M202.5,187.3l8.5,5.1v10.2l-8.5-5.1V187.3z M202.5,125.9l8.5,5.1v10.2l-8.5-5.1V125.9z M202.5,156.6
					l8.5,5.1V172l-8.5-5.1V156.6z M202.5,95.2l8.5,5.1v10.2l-8.5-5.1V95.2z"/>
				<path class="st9" d="M262.1,243.6l8.5,5.1V259l-8.5-5.1L262.1,243.6z"/>
				<path class="st11" d="M262.1,182.2l8.5,5.1v10.2l-8.5-5.1L262.1,182.2z"/>
				<path class="st9" d="M262.1,212.9l8.5,5.1v10.2l-8.5-5.1L262.1,212.9z"/>
				<path class="st0" d="M262.1,151.5l8.5,5.1v10.2l-8.5-5.1L262.1,151.5z M262.1,233.4l8.5,5.1v10.2l-8.5-5.1L262.1,233.4z
					 M262.1,172l8.5,5.1v10.2l-8.5-5.1L262.1,172z"/>
				<path class="st8" d="M262.1,202.7l8.5,5.1V218l-8.5-5.1L262.1,202.7z"/>
				<path class="st0" d="M262.1,141.3l8.5,5.1v10.2l-8.5-5.1L262.1,141.3z M262.1,223.2l8.5,5.1v10.2l-8.5-5.1L262.1,223.2z"/>
				<path class="st4" d="M262.1,161.7l8.5,5.1v10.2l-8.5-5.1L262.1,161.7z"/>
				<path class="st0" d="M262.1,192.5l8.5,5.1v10.2l-8.5-5.1L262.1,192.5z"/>
				<path class="st11" d="M262.1,131l8.5,5.1v10.2l-8.5-5.1L262.1,131z"/>
				<path class="st0" d="M211,212.9l8.5,5.1v10.2l-8.5-5.1L211,212.9z M211,151.5l8.5,5.1v10.2l-8.5-5.1L211,151.5z"/>
				<path class="st4" d="M211,182.2l8.5,5.1v10.2l-8.5-5.1L211,182.2z"/>
				<path class="st11" d="M211,120.8l8.5,5.1v10.2L211,131L211,120.8z"/>
				<path class="st0" d="M211,202.7l8.5,5.1V218l-8.5-5.1L211,202.7z M211,141.3l8.5,5.1v10.2l-8.5-5.1L211,141.3z M211,172l8.5,5.1
					v10.2l-8.5-5.1L211,172z M211,110.6l8.5,5.1v10.2l-8.5-5.1L211,110.6z"/>
				<path class="st9" d="M211,192.5l8.5,5.1v10.2l-8.5-5.1L211,192.5z"/>
				<path class="st4" d="M211,131l8.5,5.1v10.2l-8.5-5.1L211,131z"/>
				<path class="st0" d="M211,161.7l8.5,5.1v10.2L211,172L211,161.7z M211,100.3l8.5,5.1v10.2l-8.5-5.1L211,100.3z M270.6,248.7
					l8.5,5.1v10.2l-8.5-5.1L270.6,248.7z M270.6,187.3l8.5,5.1v10.2l-8.5-5.1L270.6,187.3z M270.6,218l8.5,5.1v10.2l-8.5-5.1
					L270.6,218z M270.6,156.6l8.5,5.1V172l-8.5-5.1L270.6,156.6z"/>
				<path class="st11" d="M270.6,238.5l8.5,5.1v10.2l-8.5-5.1L270.6,238.5z"/>
				<path class="st0" d="M270.6,177.1l8.5,5.1v10.2l-8.5-5.1L270.6,177.1z"/>
				<path class="st11" d="M270.6,207.8l8.5,5.1v10.2l-8.5-5.1L270.6,207.8z"/>
				<path class="st0" d="M270.6,146.4l8.5,5.1v10.2l-8.5-5.1L270.6,146.4z"/>
				<path class="st4" d="M270.6,228.3l8.5,5.1v10.2l-8.5-5.1L270.6,228.3z"/>
				<path class="st11" d="M270.6,166.9l8.5,5.1v10.2l-8.5-5.1L270.6,166.9z"/>
				<path class="st0" d="M270.6,197.6l8.5,5.1v10.2l-8.5-5.1L270.6,197.6z"/>
				<path class="st11" d="M270.6,136.2l8.5,5.1v10.2l-8.5-5.1L270.6,136.2z"/>
				<path class="st0" d="M219.5,218l8.5,5.1v10.2l-8.5-5.1L219.5,218z"/>
				<path class="st11" d="M219.5,187.3l8.5,5.1v10.2l-8.5-5.1L219.5,187.3z"/>
				<path class="st0" d="M219.5,125.9l8.5,5.1v10.2l-8.5-5.1L219.5,125.9z"/>
				<path class="st4" d="M219.5,207.8l8.5,5.1v10.2l-8.5-5.1L219.5,207.8z"/>
				<path class="st0" d="M219.5,146.4l8.5,5.1v10.2l-8.5-5.1L219.5,146.4z M219.5,177.1l8.5,5.1v10.2l-8.5-5.1L219.5,177.1z"/>
				<path class="st11" d="M219.5,115.7l8.5,5.1V131l-8.5-5.1L219.5,115.7z"/>
				<path class="st0" d="M219.5,197.6l8.5,5.1v10.2l-8.5-5.1L219.5,197.6z M219.5,136.2l8.5,5.1v10.2l-8.5-5.1L219.5,136.2z"/>
				<path class="st10" d="M219.5,166.9l8.5,5.1v10.2l-8.5-5.1L219.5,166.9z"/>
				<path class="st0" d="M219.5,105.5l8.5,5.1v10.2l-8.5-5.1L219.5,105.5z"/>
			</g>
		</g>
	</g>
	<path class="st12" d="M9.6,150.7l17,10.2v192.7l-17-10.2L9.6,150.7z"/>
	<path class="st13" d="M272.2,14.2L26.6,160.9l-17-10.2L255.1,4L272.2,14.2z"/>
	<g>
		<path class="st0" d="M180.1,55.1l-68.2,40.9v8.5l68.2-40.9V55.1z"/>
		<path class="st1" d="M103.4,91l8.5,5.1v8.5l-8.5-5.1V91z"/>
		<path class="st2" d="M180.1,55.1l-68.2,40.9l-8.5-5.1L171.6,50L180.1,55.1z"/>
	</g>
	<g>
		<path d="M289.7,261.2l18.1-10.8l18.2,10.8l-18.2,10.3L289.7,261.2z"/>
		<path class="st14" d="M307.8,240.2l-34.1,20.5v10.2l34.1-20.5V240.2z"/>
		<path class="st15" d="M307.8,240.2l34.1,20.5v10.2l-34.1-20.5V240.2z"/>
		<path class="st16" d="M265.2,255.5l8.5,5.1l34.1-20.5v-8.5L265.2,255.5z M299.3,276l8.5,5.1l34.1-20.5v-8.5L299.3,276z"/>
		<path class="st16" d="M350.4,255.5l-8.5,5.1l-34.1-20.5v-8.5L350.4,255.5z M314.6,275.2l-8.5,5.1L272,259.8v-8.5L314.6,275.2z"/>
		<path class="st15" d="M265.2,255.5l42.6,25.6v51.2l-42.6-25.6V255.5z"/>
		<path class="st14" d="M307.8,281.1l42.6-25.6v51.2l-42.6,25.6V281.1z"/>
		<g>
			<path class="st15" d="M325.7,270.4l17,10.2v40.9l-17-10.2v-10.2l8.5,5.1v-20.5l-8.5-5.1V270.4z"/>
			<path class="st14" d="M342.7,280.6l8.5-5.1v40.9l-8.5,5.1V280.6z"/>
			<path class="st16" d="M325.7,301.1l8.5-5.1v10.2L325.7,301.1z M325.7,270.4l8.5-5.1l17,10.2l-8.5,5.1L325.7,270.4z"/>
		</g>
	</g>
</g>
</svg>
