<?xml version="1.0" encoding="utf-8"?>
<!-- Generator: Adobe Illustrator 22.1.0, SVG Export Plug-In . SVG Version: 6.00 Build 0)  -->
<svg version="1.0" id="Layer_1" xmlns="http://www.w3.org/2000/svg" xmlns:xlink="http://www.w3.org/1999/xlink" x="0px" y="0px"
	 viewBox="0 0 360 360" style="enable-background:new 0 0 360 360;" xml:space="preserve">
<style type="text/css">
	.st0{fill:#FFFFFF;}
	.st1{filter:url(#Adobe_OpacityMaskFilter);}
	.st2{mask:url(#b_1_);}
	.st3{fill:#BCBCBC;}
	.st4{fill:#898989;}
	.st5{fill:#D1D1D1;}
	.st6{fill:#ECECEC;}
	.st7{fill:#E8E8E8;}
	.st8{fill:#909090;}
	.st9{fill:#B0B0B0;}
</style>
<g transform="matrix(-1 0 0 1 282.563 28.815)">
	<g>
		<path id="a_1_" class="st0" d="M28.3-3.5l217.7,130v172.3L28.3,168.7V-3.5z"/>
	</g>
	<defs>
		<filter id="Adobe_OpacityMaskFilter" filterUnits="userSpaceOnUse">
			<feColorMatrix  type="matrix" values="1 0 0 0 0  0 1 0 0 0  0 0 1 0 0  0 0 0 1 0"/>
		</filter>
	</defs>
	<mask maskUnits="userSpaceOnUse" id="b_1_">
		<g class="st1">
			<path id="a_2_" class="st0" d="M28.3-3.5l217.7,130v172.3L28.3,168.7V-3.5z"/>
		</g>
	</mask>
	<g class="st2">
		<path class="st3" d="M12.6,206.6l8.4,5.1v10.1l-8.4-5.1V206.6z"/>
		<path class="st4" d="M12.6,145.8l8.4,5.1V161l-8.4-5.1V145.8z"/>
		<path class="st5" d="M12.6,176.2l8.4,5.1v10.1l-8.4-5.1V176.2z M12.6,115.4l8.4,5.1v10.1l-8.4-5.1V115.4z M12.6,196.5l8.4,5.1
			v10.1l-8.4-5.1V196.5z M12.6,135.7l8.4,5.1v10.1l-8.4-5.1V135.7z"/>
		<path class="st4" d="M12.6,166.1l8.4,5.1v10.1l-8.4-5.1V166.1z"/>
		<path class="st5" d="M12.6,105.3l8.4,5.1v10.1l-8.4-5.1V105.3z M12.6,186.3l8.4,5.1v10.1l-8.4-5.1V186.3z"/>
		<path class="st3" d="M12.6,125.5l8.4,5.1v10.1l-8.4-5.1V125.5z"/>
		<path class="st5" d="M12.6,155.9L21,161v10.1l-8.4-5.1V155.9z M12.6,95.1l8.4,5.1v10.1l-8.4-5.1V95.1z"/>
		<path class="st6" d="M21,211.7l8.4,5.1v10.1l-8.4-5.1V211.7z"/>
		<path class="st5" d="M21,150.9l8.4,5.1v10.1L21,161V150.9z M21,181.3l8.4,5.1v10.1l-8.4-5.1V181.3z M21,120.5l8.4,5.1v10.1
			l-8.4-5.1V120.5z M21,201.5l8.4,5.1v10.1l-8.4-5.1V201.5z"/>
		<path class="st5" d="M21,140.7l8.4,5.1v10.1l-8.4-5.1V140.7z"/>
		<path class="st3" d="M21,171.1l8.4,5.1v10.1l-8.4-5.1V171.1z"/>
		<path class="st5" d="M21,110.3l8.4,5.1v10.1l-8.4-5.1V110.3z"/>
		<path class="st7" d="M21,191.4l8.4,5.1v10.1l-8.4-5.1V191.4z"/>
		<path class="st5" d="M21,130.6l8.4,5.1v10.1l-8.4-5.1V130.6z"/>
		<path class="st7" d="M21,161l8.4,5.1v10.1l-8.4-5.1V161z M21,100.2l8.4,5.1v10.1l-8.4-5.1V100.2z"/>
		<path class="st4" d="M29.4,216.7l8.4,5.1v10.1l-8.4-5.1V216.7z"/>
		<path class="st8" d="M29.4,155.9l8.4,5.1v10.1l-8.4-5.1V155.9z"/>
		<path class="st4" d="M29.4,186.3l8.4,5.1v10.1l-8.4-5.1V186.3z"/>
		<path class="st5" d="M29.4,125.5l8.4,5.1v10.1l-8.4-5.1V125.5z M29.4,206.6l8.4,5.1v10.1l-8.4-5.1V206.6z M29.4,145.8l8.4,5.1V161
			l-8.4-5.1V145.8z"/>
		<path class="st7" d="M29.4,176.2l8.4,5.1v10.1l-8.4-5.1V176.2z"/>
		<path class="st5" d="M29.4,115.4l8.4,5.1v10.1l-8.4-5.1V115.4z M29.4,196.5l8.4,5.1v10.1l-8.4-5.1V196.5z"/>
		<path class="st8" d="M29.4,135.7l8.4,5.1v10.1l-8.4-5.1V135.7z"/>
		<path class="st5" d="M29.4,166.1l8.4,5.1v10.1l-8.4-5.1V166.1z"/>
		<path class="st9" d="M29.4,105.3l8.4,5.1v10.1l-8.4-5.1V105.3z"/>
		<path class="st5" d="M37.9,221.8l8.4,5.1V237l-8.4-5.1V221.8z M37.9,161l8.4,5.1v10.1l-8.4-5.1V161z M37.9,191.4l8.4,5.1v10.1
			l-8.4-5.1V191.4z M37.9,130.6l8.4,5.1v10.1l-8.4-5.1V130.6z"/>
		<path class="st9" d="M37.9,211.7l8.4,5.1v10.1l-8.4-5.1V211.7z"/>
		<path class="st5" d="M37.9,150.9l8.4,5.1v10.1l-8.4-5.1V150.9z"/>
		<path class="st9" d="M37.9,181.3l8.4,5.1v10.1l-8.4-5.1V181.3z"/>
		<path class="st5" d="M37.9,120.5l8.4,5.1v10.1l-8.4-5.1V120.5z"/>
		<path class="st3" d="M37.9,201.5l8.4,5.1v10.1l-8.4-5.1V201.5z"/>
		<path class="st9" d="M37.9,140.7l8.4,5.1v10.1l-8.4-5.1V140.7z"/>
		<path class="st5" d="M37.9,171.1l8.4,5.1v10.1l-8.4-5.1V171.1z"/>
		<path class="st9" d="M37.9,110.3l8.4,5.1v10.1l-8.4-5.1V110.3z"/>
		<path class="st4" d="M46.3,226.9l8.4,5.1v10.1l-8.4-5.1L46.3,226.9z"/>
		<path class="st7" d="M46.3,166.1l8.4,5.1v10.1l-8.4-5.1L46.3,166.1z"/>
		<path class="st9" d="M46.3,196.5l8.4,5.1v10.1l-8.4-5.1L46.3,196.5z M46.3,135.7l8.4,5.1v10.1l-8.4-5.1L46.3,135.7z M46.3,216.7
			l8.4,5.1v10.1l-8.4-5.1L46.3,216.7z"/>
		<path class="st0" d="M46.3,155.9l8.4,5.1v10.1l-8.4-5.1L46.3,155.9z"/>
		<path class="st5" d="M46.3,186.3l8.4,5.1v10.1l-8.4-5.1L46.3,186.3z"/>
		<path class="st8" d="M46.3,125.5l8.4,5.1v10.1l-8.4-5.1L46.3,125.5z"/>
		<path class="st5" d="M46.3,206.6l8.4,5.1v10.1l-8.4-5.1L46.3,206.6z"/>
		<path class="st8" d="M46.3,145.8l8.4,5.1V161l-8.4-5.1L46.3,145.8z"/>
		<path class="st5" d="M46.3,176.2l8.4,5.1v10.1l-8.4-5.1L46.3,176.2z M46.3,115.4l8.4,5.1v10.1l-8.4-5.1L46.3,115.4z"/>
		<g>
			<path class="st5" d="M54.8,231.9l8.4,5.1v10.1l-8.4-5.1V231.9z"/>
			<path class="st7" d="M54.8,171.1l8.4,5.1v10.1l-8.4-5.1V171.1z"/>
			<path class="st5" d="M54.8,201.5l8.4,5.1v10.1l-8.4-5.1V201.5z"/>
			<path class="st4" d="M54.8,140.7l8.4,5.1v10.1l-8.4-5.1V140.7z"/>
			<path class="st5" d="M54.8,221.8l8.4,5.1V237l-8.4-5.1V221.8z M54.8,161l8.4,5.1v10.1l-8.4-5.1V161z M54.8,191.4l8.4,5.1v10.1
				l-8.4-5.1V191.4z M54.8,130.6l8.4,5.1v10.1l-8.4-5.1V130.6z"/>
			<path class="st5" d="M54.8,211.7l8.4,5.1v10.1l-8.4-5.1V211.7z M54.8,150.9l8.4,5.1v10.1l-8.4-5.1V150.9z"/>
			<path class="st7" d="M54.8,181.3l8.4,5.1v10.1l-8.4-5.1V181.3z"/>
			<path class="st5" d="M54.8,120.5l8.4,5.1v10.1l-8.4-5.1V120.5z"/>
			<path class="st4" d="M113.8,267.4l8.4,5.1v10.1l-8.4-5.1V267.4z"/>
			<path class="st7" d="M113.8,206.6l8.4,5.1v10.1l-8.4-5.1V206.6z"/>
			<path class="st6" d="M113.8,237l8.4,5.1v10.1l-8.4-5.1V237z"/>
			<path class="st0" d="M113.8,176.2l8.4,5.1v10.1l-8.4-5.1V176.2z"/>
			<path class="st4" d="M113.8,257.3l8.4,5.1v10.1l-8.4-5.1V257.3z"/>
			<path class="st5" d="M113.8,196.5l8.4,5.1v10.1l-8.4-5.1V196.5z M113.8,226.9l8.4,5.1v10.1l-8.4-5.1V226.9z"/>
			<path class="st8" d="M113.8,166.1l8.4,5.1v10.1l-8.4-5.1V166.1z"/>
			<path class="st5" d="M113.8,247.1l8.4,5.1v10.1l-8.4-5.1V247.1z"/>
			<path class="st0" d="M113.8,186.3l8.4,5.1v10.1l-8.4-5.1V186.3z"/>
			<path class="st6" d="M113.8,216.7l8.4,5.1v10.1l-8.4-5.1V216.7z"/>
			<path class="st5" d="M113.8,155.9l8.4,5.1v10.1l-8.4-5.1V155.9z"/>
			<path class="st9" d="M63.2,237l8.4,5.1v10.1l-8.4-5.1V237z"/>
			<path class="st6" d="M63.2,176.2l8.4,5.1v10.1l-8.4-5.1V176.2z"/>
			<path class="st7" d="M63.2,206.6l8.4,5.1v10.1l-8.4-5.1V206.6z"/>
			<path class="st8" d="M63.2,145.8l8.4,5.1V161l-8.4-5.1V145.8z"/>
			<path class="st7" d="M63.2,226.9l8.4,5.1v10.1l-8.4-5.1V226.9z"/>
			<path class="st6" d="M63.2,166.1l8.4,5.1v10.1l-8.4-5.1V166.1z M63.2,196.5l8.4,5.1v10.1l-8.4-5.1V196.5z"/>
			<path class="st3" d="M63.2,135.7l8.4,5.1v10.1l-8.4-5.1V135.7z"/>
			<path class="st5" d="M63.2,216.7l8.4,5.1v10.1l-8.4-5.1V216.7z M63.2,155.9l8.4,5.1v10.1l-8.4-5.1V155.9z M63.2,186.3l8.4,5.1
				v10.1l-8.4-5.1V186.3z M63.2,125.5l8.4,5.1v10.1l-8.4-5.1V125.5z M122.3,272.5l8.4,5.1v10.1l-8.4-5.1V272.5z M122.3,211.7
				l8.4,5.1v10.1l-8.4-5.1V211.7z M122.3,242.1l8.4,5.1v10.1l-8.4-5.1V242.1z"/>
			<path class="st3" d="M122.3,181.3l8.4,5.1v10.1l-8.4-5.1V181.3z"/>
			<path class="st5" d="M122.3,262.3l8.4,5.1v10.1l-8.4-5.1V262.3z M122.3,201.5l8.4,5.1v10.1l-8.4-5.1V201.5z"/>
			<path class="st3" d="M122.3,231.9l8.4,5.1v10.1l-8.4-5.1V231.9z"/>
			<path class="st8" d="M122.3,171.1l8.4,5.1v10.1l-8.4-5.1V171.1z"/>
			<path class="st3" d="M122.3,252.2l8.4,5.1v10.1l-8.4-5.1V252.2z"/>
			<path class="st5" d="M122.3,191.4l8.4,5.1v10.1l-8.4-5.1V191.4z M122.3,221.8l8.4,5.1V237l-8.4-5.1V221.8z M122.3,161l8.4,5.1
				v10.1l-8.4-5.1V161z"/>
			<path class="st9" d="M71.6,242.1l8.4,5.1v10.1l-8.4-5.1V242.1z"/>
			<path class="st7" d="M71.6,181.3l8.4,5.1v10.1l-8.4-5.1V181.3z"/>
			<path class="st5" d="M71.6,211.7l8.4,5.1v10.1l-8.4-5.1V211.7z"/>
			<path class="st4" d="M71.6,150.9l8.4,5.1v10.1l-8.4-5.1V150.9z"/>
			<path class="st5" d="M71.6,231.9l8.4,5.1v10.1l-8.4-5.1V231.9z"/>
			<path class="st8" d="M71.6,171.1l8.4,5.1v10.1l-8.4-5.1V171.1z"/>
			<path class="st3" d="M71.6,201.5l8.4,5.1v10.1l-8.4-5.1V201.5z"/>
			<path class="st6" d="M71.6,140.7l8.4,5.1v10.1l-8.4-5.1V140.7z"/>
			<path class="st5" d="M71.6,221.8l8.4,5.1V237l-8.4-5.1V221.8z"/>
			<path class="st3" d="M71.6,161l8.4,5.1v10.1l-8.4-5.1V161z"/>
			<path class="st5" d="M71.6,191.4l8.4,5.1v10.1l-8.4-5.1V191.4z"/>
			<path class="st4" d="M71.6,130.6l8.4,5.1v10.1l-8.4-5.1V130.6z"/>
			<path class="st3" d="M130.7,277.5l8.4,5.1v10.1l-8.4-5.1V277.5z"/>
			<path class="st4" d="M130.7,216.7l8.4,5.1v10.1l-8.4-5.1V216.7z"/>
			<path class="st5" d="M130.7,247.1l8.4,5.1v10.1l-8.4-5.1V247.1z"/>
			<path class="st8" d="M130.7,186.3l8.4,5.1v10.1l-8.4-5.1V186.3z"/>
			<path class="st5" d="M130.7,267.4l8.4,5.1v10.1l-8.4-5.1V267.4z"/>
			<path class="st0" d="M130.7,206.6l8.4,5.1v10.1l-8.4-5.1V206.6z"/>
			<path class="st4" d="M130.7,237l8.4,5.1v10.1l-8.4-5.1V237z"/>
			<path class="st5" d="M130.7,176.2l8.4,5.1v10.1l-8.4-5.1V176.2z M130.7,257.3l8.4,5.1v10.1l-8.4-5.1V257.3z"/>
			<path class="st8" d="M130.7,196.5l8.4,5.1v10.1l-8.4-5.1V196.5z"/>
			<path class="st5" d="M130.7,226.9l8.4,5.1v10.1l-8.4-5.1V226.9z"/>
			<path class="st0" d="M130.7,166.1l8.4,5.1v10.1l-8.4-5.1V166.1z"/>
			<path class="st5" d="M80.1,247.1l8.4,5.1v10.1l-8.4-5.1L80.1,247.1z"/>
			<path class="st9" d="M80.1,186.3l8.4,5.1v10.1l-8.4-5.1L80.1,186.3z"/>
			<path class="st5" d="M80.1,216.7l8.4,5.1v10.1l-8.4-5.1L80.1,216.7z"/>
			<path class="st8" d="M80.1,155.9l8.4,5.1v10.1l-8.4-5.1L80.1,155.9z"/>
			<path class="st5" d="M80.1,237l8.4,5.1v10.1l-8.4-5.1L80.1,237z M80.1,176.2l8.4,5.1v10.1l-8.4-5.1L80.1,176.2z M80.1,206.6
				l8.4,5.1v10.1l-8.4-5.1L80.1,206.6z M80.1,145.8l8.4,5.1V161l-8.4-5.1L80.1,145.8z"/>
			<path class="st7" d="M80.1,226.9l8.4,5.1v10.1l-8.4-5.1L80.1,226.9z"/>
			<path class="st8" d="M80.1,166.1l8.4,5.1v10.1l-8.4-5.1L80.1,166.1z"/>
			<path class="st3" d="M80.1,196.5l8.4,5.1v10.1l-8.4-5.1L80.1,196.5z"/>
			<path class="st5" d="M80.1,135.7l8.4,5.1v10.1l-8.4-5.1L80.1,135.7z"/>
			<path class="st6" d="M139.1,282.6l8.4,5.1v10.1l-8.4-5.1V282.6z"/>
			<path class="st8" d="M139.1,221.8l8.4,5.1V237l-8.4-5.1V221.8z"/>
			<path class="st5" d="M139.1,252.2l8.4,5.1v10.1l-8.4-5.1V252.2z"/>
			<path class="st0" d="M139.1,191.4l8.4,5.1v10.1l-8.4-5.1V191.4z"/>
			<path class="st5" d="M139.1,272.5l8.4,5.1v10.1l-8.4-5.1V272.5z M139.1,211.7l8.4,5.1v10.1l-8.4-5.1V211.7z"/>
			<path class="st3" d="M139.1,242.1l8.4,5.1v10.1l-8.4-5.1V242.1z"/>
			<path class="st5" d="M139.1,181.3l8.4,5.1v10.1l-8.4-5.1V181.3z"/>
			<path class="st7" d="M139.1,262.3l8.4,5.1v10.1l-8.4-5.1V262.3z"/>
			<path class="st5" d="M139.1,201.5l8.4,5.1v10.1l-8.4-5.1V201.5z"/>
			<path class="st7" d="M139.1,231.9l8.4,5.1v10.1l-8.4-5.1V231.9z M139.1,171.1l8.4,5.1v10.1l-8.4-5.1V171.1z"/>
			<path class="st9" d="M88.5,252.2l8.4,5.1v10.1l-8.4-5.1V252.2z"/>
			<path class="st5" d="M88.5,191.4l8.4,5.1v10.1l-8.4-5.1V191.4z"/>
			<path class="st6" d="M88.5,221.8l8.4,5.1V237l-8.4-5.1V221.8z"/>
			<path class="st5" d="M88.5,161l8.4,5.1v10.1l-8.4-5.1V161z"/>
			<path class="st9" d="M88.5,242.1l8.4,5.1v10.1l-8.4-5.1V242.1z"/>
			<path class="st4" d="M88.5,181.3l8.4,5.1v10.1l-8.4-5.1V181.3z"/>
			<path class="st9" d="M88.5,211.7l8.4,5.1v10.1l-8.4-5.1V211.7z"/>
			<path class="st7" d="M88.5,150.9l8.4,5.1v10.1l-8.4-5.1V150.9z"/>
			<path class="st5" d="M88.5,231.9l8.4,5.1v10.1l-8.4-5.1V231.9z M88.5,171.1l8.4,5.1v10.1l-8.4-5.1V171.1z M88.5,201.5l8.4,5.1
				v10.1l-8.4-5.1V201.5z"/>
			<path class="st8" d="M88.5,140.7l8.4,5.1v10.1l-8.4-5.1V140.7z"/>
			<path class="st4" d="M147.6,287.7l8.4,5.1v10.1l-8.4-5.1L147.6,287.7z"/>
			<path class="st9" d="M147.6,226.9l8.4,5.1v10.1l-8.4-5.1L147.6,226.9z"/>
			<path class="st4" d="M147.6,257.3l8.4,5.1v10.1l-8.4-5.1L147.6,257.3z"/>
			<path class="st5" d="M147.6,196.5l8.4,5.1v10.1l-8.4-5.1L147.6,196.5z M147.6,277.5l8.4,5.1v10.1l-8.4-5.1L147.6,277.5z
				 M147.6,216.7l8.4,5.1v10.1l-8.4-5.1L147.6,216.7z"/>
			<path class="st7" d="M147.6,247.1l8.4,5.1v10.1l-8.4-5.1L147.6,247.1z"/>
			<path class="st5" d="M147.6,186.3l8.4,5.1v10.1l-8.4-5.1L147.6,186.3z M147.6,267.4l8.4,5.1v10.1l-8.4-5.1L147.6,267.4z"/>
			<path class="st3" d="M147.6,206.6l8.4,5.1v10.1l-8.4-5.1L147.6,206.6z"/>
			<path class="st5" d="M147.6,237l8.4,5.1v10.1l-8.4-5.1L147.6,237z"/>
			<path class="st9" d="M147.6,176.2l8.4,5.1v10.1l-8.4-5.1L147.6,176.2z"/>
			<path class="st5" d="M96.9,257.3l8.4,5.1v10.1l-8.4-5.1V257.3z"/>
			<path class="st0" d="M96.9,196.5l8.4,5.1v10.1l-8.4-5.1V196.5z"/>
			<path class="st3" d="M96.9,226.9l8.4,5.1v10.1l-8.4-5.1V226.9z"/>
			<path class="st9" d="M96.9,166.1l8.4,5.1v10.1l-8.4-5.1V166.1z"/>
			<path class="st5" d="M96.9,247.1l8.4,5.1v10.1l-8.4-5.1V247.1z"/>
			<path class="st8" d="M96.9,186.3l8.4,5.1v10.1l-8.4-5.1V186.3z"/>
			<path class="st5" d="M96.9,216.7l8.4,5.1v10.1l-8.4-5.1V216.7z M96.9,155.9l8.4,5.1v10.1l-8.4-5.1V155.9z"/>
			<path class="st4" d="M96.9,237l8.4,5.1v10.1l-8.4-5.1V237z"/>
			<path class="st3" d="M96.9,176.2l8.4,5.1v10.1l-8.4-5.1V176.2z"/>
			<path class="st5" d="M96.9,206.6l8.4,5.1v10.1l-8.4-5.1V206.6z M96.9,145.8l8.4,5.1V161l-8.4-5.1V145.8z M156,292.7l8.4,5.1v10.1
				l-8.4-5.1L156,292.7z M156,231.9l8.4,5.1v10.1l-8.4-5.1L156,231.9z M156,262.3l8.4,5.1v10.1l-8.4-5.1L156,262.3z M156,201.5
				l8.4,5.1v10.1l-8.4-5.1L156,201.5z"/>
			<path class="st9" d="M156,282.6l8.4,5.1v10.1l-8.4-5.1L156,282.6z"/>
			<path class="st8" d="M156,221.8l8.4,5.1V237l-8.4-5.1L156,221.8z"/>
			<path class="st9" d="M156,252.2l8.4,5.1v10.1l-8.4-5.1L156,252.2z"/>
			<path class="st5" d="M156,191.4l8.4,5.1v10.1l-8.4-5.1L156,191.4z"/>
			<path class="st3" d="M156,272.5l8.4,5.1v10.1l-8.4-5.1L156,272.5z"/>
			<path class="st9" d="M156,211.7l8.4,5.1v10.1l-8.4-5.1L156,211.7z"/>
			<path class="st5" d="M156,242.1l8.4,5.1v10.1l-8.4-5.1L156,242.1z"/>
			<path class="st9" d="M156,181.3l8.4,5.1v10.1l-8.4-5.1L156,181.3z"/>
			<path class="st5" d="M105.4,262.3l8.4,5.1v10.1l-8.4-5.1V262.3z"/>
			<path class="st9" d="M105.4,231.9l8.4,5.1v10.1l-8.4-5.1V231.9z"/>
			<path class="st5" d="M105.4,171.1l8.4,5.1v10.1l-8.4-5.1V171.1z"/>
			<path class="st3" d="M105.4,252.2l8.4,5.1v10.1l-8.4-5.1V252.2z"/>
			<path class="st5" d="M105.4,191.4l8.4,5.1v10.1l-8.4-5.1V191.4z M105.4,221.8l8.4,5.1V237l-8.4-5.1V221.8z"/>
			<path class="st9" d="M105.4,161l8.4,5.1v10.1l-8.4-5.1V161z"/>
			<path class="st5" d="M105.4,242.1l8.4,5.1v10.1l-8.4-5.1V242.1z M105.4,181.3l8.4,5.1v10.1l-8.4-5.1V181.3z"/>
			<path class="st6" d="M105.4,211.7l8.4,5.1v10.1l-8.4-5.1V211.7z"/>
			<path class="st5" d="M105.4,150.9l8.4,5.1v10.1l-8.4-5.1V150.9z"/>
			<path class="st4" d="M164.4,297.8l8.4,5.1V313l-8.4-5.1V297.8z"/>
			<path class="st7" d="M164.4,237l8.4,5.1v10.1l-8.4-5.1V237z"/>
			<path class="st9" d="M164.4,267.4l8.4,5.1v10.1l-8.4-5.1V267.4z M164.4,206.6l8.4,5.1v10.1l-8.4-5.1V206.6z M164.4,287.7l8.4,5.1
				v10.1l-8.4-5.1V287.7z"/>
			<path class="st0" d="M164.4,226.9l8.4,5.1v10.1l-8.4-5.1V226.9z"/>
			<path class="st5" d="M164.4,257.3l8.4,5.1v10.1l-8.4-5.1V257.3z M164.4,196.5l8.4,5.1v10.1l-8.4-5.1V196.5z M164.4,277.5l8.4,5.1
				v10.1l-8.4-5.1V277.5z M164.4,216.7l8.4,5.1v10.1l-8.4-5.1V216.7z"/>
			<path class="st5" d="M164.4,247.1l8.4,5.1v10.1l-8.4-5.1V247.1z M164.4,186.3l8.4,5.1v10.1l-8.4-5.1V186.3z"/>
		</g>
		<g>
			<path class="st5" d="M172.9,302.9l8.4,5.1v10.1l-8.4-5.1L172.9,302.9z"/>
			<path class="st8" d="M172.9,242.1l8.4,5.1v10.1l-8.4-5.1L172.9,242.1z"/>
			<path class="st5" d="M172.9,272.5l8.4,5.1v10.1l-8.4-5.1L172.9,272.5z"/>
			<path class="st8" d="M172.9,211.7l8.4,5.1v10.1l-8.4-5.1L172.9,211.7z"/>
			<path class="st5" d="M172.9,292.7l8.4,5.1v10.1l-8.4-5.1L172.9,292.7z"/>
			<path class="st0" d="M172.9,231.9l8.4,5.1v10.1l-8.4-5.1L172.9,231.9z"/>
			<path class="st5" d="M172.9,262.3l8.4,5.1v10.1l-8.4-5.1L172.9,262.3z M172.9,201.5l8.4,5.1v10.1l-8.4-5.1L172.9,201.5z
				 M172.9,282.6l8.4,5.1v10.1l-8.4-5.1L172.9,282.6z M172.9,221.8l8.4,5.1V237l-8.4-5.1L172.9,221.8z"/>
			<path class="st7" d="M172.9,252.2l8.4,5.1v10.1l-8.4-5.1L172.9,252.2z"/>
			<path class="st0" d="M172.9,191.4l8.4,5.1v10.1l-8.4-5.1L172.9,191.4z"/>
			<path class="st7" d="M231.9,277.5l8.4,5.1v10.1l-8.4-5.1L231.9,277.5z"/>
			<path class="st6" d="M231.9,307.9l8.4,5.1v10.1l-8.4-5.1L231.9,307.9z"/>
			<path class="st5" d="M231.9,247.1l8.4,5.1v10.1l-8.4-5.1L231.9,247.1z M231.9,267.4l8.4,5.1v10.1l-8.4-5.1L231.9,267.4z
				 M231.9,297.8l8.4,5.1V313l-8.4-5.1L231.9,297.8z"/>
			<path class="st9" d="M231.9,237l8.4,5.1v10.1l-8.4-5.1L231.9,237z"/>
			<path class="st4" d="M231.9,257.3l8.4,5.1v10.1l-8.4-5.1L231.9,257.3z"/>
			<path class="st6" d="M231.9,287.7l8.4,5.1v10.1l-8.4-5.1L231.9,287.7z"/>
			<path class="st5" d="M231.9,226.9l8.4,5.1v10.1l-8.4-5.1L231.9,226.9z"/>
			<path class="st9" d="M181.3,307.9l8.4,5.1v10.1l-8.4-5.1V307.9z"/>
			<path class="st6" d="M181.3,247.1l8.4,5.1v10.1l-8.4-5.1V247.1z"/>
			<path class="st7" d="M181.3,277.5l8.4,5.1v10.1l-8.4-5.1V277.5z"/>
			<path class="st5" d="M181.3,216.7l8.4,5.1v10.1l-8.4-5.1V216.7z"/>
			<path class="st7" d="M181.3,297.8l8.4,5.1V313l-8.4-5.1V297.8z"/>
			<path class="st8" d="M181.3,237l8.4,5.1v10.1l-8.4-5.1V237z"/>
			<path class="st6" d="M181.3,267.4l8.4,5.1v10.1l-8.4-5.1V267.4z"/>
			<path class="st0" d="M181.3,206.6l8.4,5.1v10.1l-8.4-5.1V206.6z"/>
			<path class="st5" d="M181.3,287.7l8.4,5.1v10.1l-8.4-5.1V287.7z M181.3,226.9l8.4,5.1v10.1l-8.4-5.1V226.9z M181.3,257.3l8.4,5.1
				v10.1l-8.4-5.1V257.3z M181.3,196.5l8.4,5.1v10.1l-8.4-5.1V196.5z M240.4,282.6l8.4,5.1v10.1l-8.4-5.1V282.6z M240.4,313l8.4,5.1
				v10.1l-8.4-5.1V313z"/>
			<path class="st3" d="M240.4,252.2l8.4,5.1v10.1l-8.4-5.1V252.2z"/>
			<path class="st5" d="M240.4,272.5l8.4,5.1v10.1l-8.4-5.1V272.5z"/>
			<path class="st3" d="M240.4,302.9l8.4,5.1v10.1l-8.4-5.1V302.9z"/>
			<path class="st5" d="M240.4,242.1l8.4,5.1v10.1l-8.4-5.1V242.1z M240.4,262.3l8.4,5.1v10.1l-8.4-5.1V262.3z M240.4,292.7l8.4,5.1
				v10.1l-8.4-5.1V292.7z M240.4,231.9l8.4,5.1v10.1l-8.4-5.1V231.9z"/>
			<path class="st9" d="M189.8,313l8.4,5.1v10.1l-8.4-5.1V313z"/>
			<path class="st7" d="M189.8,252.2l8.4,5.1v10.1l-8.4-5.1V252.2z"/>
			<path class="st5" d="M189.8,282.6l8.4,5.1v10.1l-8.4-5.1V282.6z"/>
			<path class="st4" d="M189.8,221.8l8.4,5.1V237l-8.4-5.1V221.8z"/>
			<path class="st5" d="M189.8,302.9l8.4,5.1v10.1l-8.4-5.1V302.9z M189.8,242.1l8.4,5.1v10.1l-8.4-5.1V242.1z"/>
			<path class="st3" d="M189.8,272.5l8.4,5.1v10.1l-8.4-5.1V272.5z"/>
			<path class="st8" d="M189.8,211.7l8.4,5.1v10.1l-8.4-5.1V211.7z"/>
			<path class="st5" d="M189.8,292.7l8.4,5.1v10.1l-8.4-5.1V292.7z"/>
			<path class="st3" d="M189.8,231.9l8.4,5.1v10.1l-8.4-5.1V231.9z"/>
			<path class="st5" d="M189.8,262.3l8.4,5.1v10.1l-8.4-5.1V262.3z"/>
			<path class="st4" d="M189.8,201.5l8.4,5.1v10.1l-8.4-5.1V201.5z M248.8,287.7l8.4,5.1v10.1l-8.4-5.1V287.7z"/>
			<path class="st5" d="M248.8,257.3l8.4,5.1v10.1l-8.4-5.1V257.3z M248.8,277.5l8.4,5.1v10.1l-8.4-5.1V277.5z"/>
			<path class="st4" d="M248.8,307.9l8.4,5.1v10.1l-8.4-5.1V307.9z"/>
			<path class="st5" d="M248.8,247.1l8.4,5.1v10.1l-8.4-5.1V247.1z"/>
			<path class="st3" d="M248.8,267.4l8.4,5.1v10.1l-8.4-5.1V267.4z"/>
			<path class="st5" d="M248.8,297.8l8.4,5.1V313l-8.4-5.1V297.8z M248.8,237l8.4,5.1v10.1l-8.4-5.1V237z"/>
			<path class="st9" d="M198.2,257.3l8.4,5.1v10.1l-8.4-5.1L198.2,257.3z"/>
			<path class="st5" d="M198.2,287.7l8.4,5.1v10.1l-8.4-5.1L198.2,287.7z"/>
			<path class="st4" d="M198.2,226.9l8.4,5.1v10.1l-8.4-5.1L198.2,226.9z"/>
			<path class="st5" d="M198.2,307.9l8.4,5.1v10.1l-8.4-5.1L198.2,307.9z M198.2,247.1l8.4,5.1v10.1l-8.4-5.1L198.2,247.1z
				 M198.2,277.5l8.4,5.1v10.1l-8.4-5.1L198.2,277.5z"/>
			<path class="st8" d="M198.2,216.7l8.4,5.1v10.1l-8.4-5.1L198.2,216.7z"/>
			<path class="st7" d="M198.2,297.8l8.4,5.1V313l-8.4-5.1L198.2,297.8z"/>
			<path class="st0" d="M198.2,237l8.4,5.1v10.1l-8.4-5.1L198.2,237z"/>
			<path class="st3" d="M198.2,267.4l8.4,5.1v10.1l-8.4-5.1L198.2,267.4z"/>
			<path class="st5" d="M198.2,206.6l8.4,5.1v10.1l-8.4-5.1L198.2,206.6z M257.3,292.7l8.4,5.1v10.1l-8.4-5.1V292.7z M257.3,262.3
				l8.4,5.1v10.1l-8.4-5.1V262.3z"/>
			<path class="st5" d="M257.3,282.6l8.4,5.1v10.1l-8.4-5.1V282.6z"/>
			<path class="st3" d="M257.3,313l8.4,5.1v10.1l-8.4-5.1V313z"/>
			<path class="st5" d="M257.3,252.2l8.4,5.1v10.1l-8.4-5.1V252.2z M257.3,272.5l8.4,5.1v10.1l-8.4-5.1V272.5z"/>
			<path class="st7" d="M257.3,302.9l8.4,5.1v10.1l-8.4-5.1V302.9z M257.3,242.1l8.4,5.1v10.1l-8.4-5.1V242.1z"/>
			<path class="st8" d="M206.6,262.3l8.4,5.1v10.1l-8.4-5.1V262.3z"/>
			<path class="st6" d="M206.6,292.7l8.4,5.1v10.1l-8.4-5.1V292.7z"/>
			<path class="st5" d="M206.6,231.9l8.4,5.1v10.1l-8.4-5.1V231.9z"/>
			<path class="st9" d="M206.6,313l8.4,5.1v10.1l-8.4-5.1V313z"/>
			<path class="st0" d="M206.6,252.2l8.4,5.1v10.1l-8.4-5.1V252.2z"/>
			<path class="st9" d="M206.6,282.6l8.4,5.1v10.1l-8.4-5.1V282.6z"/>
			<path class="st7" d="M206.6,221.8l8.4,5.1V237l-8.4-5.1V221.8z"/>
			<path class="st5" d="M206.6,302.9l8.4,5.1v10.1l-8.4-5.1V302.9z M206.6,242.1l8.4,5.1v10.1l-8.4-5.1V242.1z M206.6,272.5l8.4,5.1
				v10.1l-8.4-5.1V272.5z M206.6,211.7l8.4,5.1v10.1l-8.4-5.1V211.7z"/>
			<path class="st9" d="M265.7,297.8l8.4,5.1V313l-8.4-5.1V297.8z"/>
			<path class="st5" d="M265.7,267.4l8.4,5.1v10.1l-8.4-5.1V267.4z M265.7,287.7l8.4,5.1v10.1l-8.4-5.1V287.7z"/>
			<path class="st5" d="M265.7,257.3l8.4,5.1v10.1l-8.4-5.1V257.3z"/>
			<path class="st3" d="M265.7,277.5l8.4,5.1v10.1l-8.4-5.1V277.5z"/>
			<path class="st5" d="M265.7,307.9l8.4,5.1v10.1l-8.4-5.1V307.9z"/>
			<path class="st9" d="M265.7,247.1l8.4,5.1v10.1l-8.4-5.1V247.1z"/>
			<path class="st5" d="M215.1,267.4l8.4,5.1v10.1l-8.4-5.1V267.4z"/>
			<path class="st3" d="M215.1,297.8l8.4,5.1V313l-8.4-5.1V297.8z"/>
			<path class="st9" d="M215.1,237l8.4,5.1v10.1l-8.4-5.1V237z"/>
			<path class="st8" d="M215.1,257.3l8.4,5.1v10.1l-8.4-5.1V257.3z"/>
			<path class="st5" d="M215.1,287.7l8.4,5.1v10.1l-8.4-5.1V287.7z M215.1,226.9l8.4,5.1v10.1l-8.4-5.1V226.9z"/>
			<path class="st4" d="M215.1,307.9l8.4,5.1v10.1l-8.4-5.1V307.9z"/>
			<path class="st3" d="M215.1,247.1l8.4,5.1v10.1l-8.4-5.1V247.1z"/>
			<path class="st5" d="M215.1,277.5l8.4,5.1v10.1l-8.4-5.1V277.5z"/>
			<path class="st0" d="M215.1,216.7l8.4,5.1v10.1l-8.4-5.1V216.7z"/>
			<path class="st5" d="M274.1,302.9l8.4,5.1v10.1l-8.4-5.1V302.9z M274.1,272.5l8.4,5.1v10.1l-8.4-5.1V272.5z"/>
			<path class="st5" d="M274.1,292.7l8.4,5.1v10.1l-8.4-5.1V292.7z M274.1,262.3l8.4,5.1v10.1l-8.4-5.1V262.3z"/>
			<path class="st9" d="M274.1,282.6l8.4,5.1v10.1l-8.4-5.1V282.6z"/>
			<path class="st5" d="M274.1,313l8.4,5.1v10.1l-8.4-5.1V313z"/>
			<path class="st9" d="M274.1,252.2l8.4,5.1v10.1l-8.4-5.1V252.2z M223.5,302.9l8.4,5.1v10.1l-8.4-5.1L223.5,302.9z"/>
			<path class="st0" d="M223.5,242.1l8.4,5.1v10.1l-8.4-5.1L223.5,242.1z"/>
			<path class="st5" d="M223.5,262.3l8.4,5.1v10.1l-8.4-5.1L223.5,262.3z M223.5,292.7l8.4,5.1v10.1l-8.4-5.1L223.5,292.7z"/>
			<path class="st8" d="M223.5,231.9l8.4,5.1v10.1l-8.4-5.1L223.5,231.9z"/>
			<path class="st5" d="M223.5,313l8.4,5.1v10.1l-8.4-5.1L223.5,313z M223.5,252.2l8.4,5.1v10.1l-8.4-5.1L223.5,252.2z"/>
			<path class="st6" d="M223.5,282.6l8.4,5.1v10.1l-8.4-5.1L223.5,282.6z"/>
			<path class="st5" d="M223.5,221.8l8.4,5.1V237l-8.4-5.1L223.5,221.8z"/>
		</g>
		<g>
			<path class="st3" d="M12.6,85l8.4,5.1v10.1l-8.4-5.1V85z"/>
			<path class="st4" d="M12.6,24.2l8.4,5.1v10.1l-8.4-5.1V24.2z"/>
			<path class="st5" d="M12.6,54.6l8.4,5.1v10.1l-8.4-5.1V54.6z M12.6-6.2L21-1.1V9l-8.4-5.1V-6.2z M12.6,74.9l8.4,5.1v10.1L12.6,85
				V74.9z M12.6,14.1l8.4,5.1v10.1l-8.4-5.1V14.1z"/>
			<path class="st4" d="M12.6,44.5l8.4,5.1v10.1l-8.4-5.1V44.5z"/>
			<path class="st5" d="M12.6-16.3l8.4,5.1v10.1l-8.4-5.1V-16.3z M12.6,64.7l8.4,5.1v10.1l-8.4-5.1V64.7z"/>
			<path class="st3" d="M12.6,3.9L21,9v10.1l-8.4-5.1V3.9z"/>
			<path class="st5" d="M12.6,34.3l8.4,5.1v10.1l-8.4-5.1V34.3z M12.6-26.5l8.4,5.1v10.1l-8.4-5.1V-26.5z"/>
			<path class="st6" d="M21,90.1l8.4,5.1v10.1l-8.4-5.1V90.1z"/>
			<path class="st5" d="M21,29.3l8.4,5.1v10.1L21,39.4V29.3z M21,59.7l8.4,5.1v10.1L21,69.8V59.7z M21-1.1l8.4,5.1v10.1L21,9V-1.1z
				 M21,79.9l8.4,5.1v10.1L21,90.1V79.9z"/>
			<path class="st5" d="M21,19.1l8.4,5.1v10.1L21,29.3V19.1z"/>
			<path class="st3" d="M21,49.5l8.4,5.1v10.1L21,59.7V49.5z"/>
			<path class="st5" d="M21-11.3l8.4,5.1V3.9L21-1.1V-11.3z"/>
			<path class="st7" d="M21,69.8l8.4,5.1V85L21,79.9V69.8z"/>
			<path class="st5" d="M21,9l8.4,5.1v10.1L21,19.1V9z"/>
			<path class="st7" d="M21,39.4l8.4,5.1v10.1L21,49.5V39.4z M21-21.4l8.4,5.1v10.1L21-11.3V-21.4z"/>
			<path class="st4" d="M29.4,95.1l8.4,5.1v10.1l-8.4-5.1V95.1z"/>
			<path class="st0" d="M29.4,34.3l8.4,5.1v10.1l-8.4-5.1V34.3z"/>
			<path class="st4" d="M29.4,64.7l8.4,5.1v10.1l-8.4-5.1V64.7z"/>
			<path class="st5" d="M29.4,3.9L37.9,9v10.1l-8.4-5.1V3.9z M29.4,85l8.4,5.1v10.1l-8.4-5.1V85z M29.4,24.2l8.4,5.1v10.1l-8.4-5.1
				V24.2z"/>
			<path class="st7" d="M29.4,54.6l8.4,5.1v10.1l-8.4-5.1V54.6z"/>
			<path class="st5" d="M29.4-6.2l8.4,5.1V9l-8.4-5.1V-6.2z M29.4,74.9l8.4,5.1v10.1L29.4,85V74.9z"/>
			<path class="st3" d="M29.4,14.1l8.4,5.1v10.1l-8.4-5.1V14.1z"/>
			<path class="st5" d="M29.4,44.5l8.4,5.1v10.1l-8.4-5.1V44.5z"/>
			<path class="st9" d="M29.4-16.3l8.4,5.1v10.1l-8.4-5.1V-16.3z"/>
			<path class="st0" d="M37.9,100.2l8.4,5.1v10.1l-8.4-5.1V100.2z"/>
			<path class="st8" d="M37.9,39.4l8.4,5.1v10.1l-8.4-5.1V39.4z M37.9,69.8l8.4,5.1V85l-8.4-5.1V69.8z"/>
			<path class="st0" d="M37.9,9l8.4,5.1v10.1l-8.4-5.1V9z"/>
			<path class="st8" d="M37.9,90.1l8.4,5.1v10.1l-8.4-5.1V90.1z"/>
			<path class="st5" d="M37.9,29.3l8.4,5.1v10.1l-8.4-5.1V29.3z"/>
			<path class="st9" d="M37.9,59.7l8.4,5.1v10.1l-8.4-5.1V59.7z"/>
			<path class="st5" d="M37.9-1.1l8.4,5.1v10.1L37.9,9V-1.1z"/>
			<path class="st3" d="M37.9,79.9l8.4,5.1v10.1l-8.4-5.1V79.9z"/>
			<path class="st8" d="M37.9,19.1l8.4,5.1v10.1l-8.4-5.1V19.1z"/>
			<path class="st5" d="M37.9,49.5l8.4,5.1v10.1l-8.4-5.1V49.5z"/>
			<path class="st9" d="M37.9-11.3l8.4,5.1V3.9l-8.4-5.1V-11.3z"/>
			<path class="st4" d="M46.3,105.3l8.4,5.1v10.1l-8.4-5.1L46.3,105.3z"/>
			<path class="st7" d="M46.3,44.5l8.4,5.1v10.1l-8.4-5.1L46.3,44.5z"/>
			<path class="st9" d="M46.3,74.9l8.4,5.1v10.1L46.3,85L46.3,74.9z"/>
			<path class="st0" d="M46.3,14.1l8.4,5.1v10.1l-8.4-5.1L46.3,14.1z"/>
			<path class="st9" d="M46.3,95.1l8.4,5.1v10.1l-8.4-5.1L46.3,95.1z"/>
			<path class="st5" d="M46.3,34.3l8.4,5.1v10.1l-8.4-5.1L46.3,34.3z"/>
			<path class="st8" d="M46.3,64.7l8.4,5.1v10.1l-8.4-5.1L46.3,64.7z"/>
			<path class="st5" d="M46.3,3.9L54.8,9v10.1l-8.4-5.1L46.3,3.9z M46.3,85l8.4,5.1v10.1l-8.4-5.1L46.3,85z"/>
			<path class="st0" d="M46.3,24.2l8.4,5.1v10.1l-8.4-5.1V24.2z"/>
			<path class="st5" d="M46.3,54.6l8.4,5.1v10.1l-8.4-5.1L46.3,54.6z M46.3-6.2l8.4,5.1V9l-8.4-5.1V-6.2z"/>
		</g>
		<g>
			<path class="st8" d="M54.8,110.3l8.4,5.1v10.1l-8.4-5.1V110.3z"/>
			<path class="st0" d="M54.8,49.5l8.4,5.1v10.1l-8.4-5.1V49.5z"/>
			<path class="st5" d="M54.8,79.9l8.4,5.1v10.1l-8.4-5.1V79.9z"/>
			<path class="st4" d="M54.8,19.1l8.4,5.1v10.1l-8.4-5.1V19.1z"/>
			<path class="st5" d="M54.8,100.2l8.4,5.1v10.1l-8.4-5.1V100.2z M54.8,39.4l8.4,5.1v10.1l-8.4-5.1V39.4z M54.8,69.8l8.4,5.1V85
				l-8.4-5.1V69.8z M54.8,9l8.4,5.1v10.1l-8.4-5.1V9z"/>
			<path class="st5" d="M54.8,90.1l8.4,5.1v10.1l-8.4-5.1V90.1z M54.8,29.3l8.4,5.1v10.1l-8.4-5.1V29.3z"/>
			<path class="st7" d="M54.8,59.7l8.4,5.1v10.1l-8.4-5.1V59.7z"/>
			<path class="st5" d="M54.8-1.1l8.4,5.1v10.1L54.8,9V-1.1z"/>
			<path class="st4" d="M113.8,145.8l8.4,5.1V161l-8.4-5.1V145.8z"/>
			<path class="st7" d="M113.8,85l8.4,5.1v10.1l-8.4-5.1V85z"/>
			<path class="st6" d="M113.8,115.4l8.4,5.1v10.1l-8.4-5.1V115.4z"/>
			<path class="st5" d="M113.8,54.6l8.4,5.1v10.1l-8.4-5.1V54.6z"/>
			<path class="st8" d="M113.8,135.7l8.4,5.1v10.1l-8.4-5.1V135.7z"/>
			<path class="st5" d="M113.8,74.9l8.4,5.1v10.1l-8.4-5.1V74.9z M113.8,105.3l8.4,5.1v10.1l-8.4-5.1V105.3z"/>
			<path class="st9" d="M113.8,44.5l8.4,5.1v10.1l-8.4-5.1V44.5z"/>
			<path class="st5" d="M113.8,125.5l8.4,5.1v10.1l-8.4-5.1V125.5z"/>
			<path class="st4" d="M113.8,64.7l8.4,5.1v10.1l-8.4-5.1V64.7z"/>
			<path class="st8" d="M113.8,95.1l8.4,5.1v10.1l-8.4-5.1V95.1z"/>
			<path class="st5" d="M113.8,34.3l8.4,5.1v10.1l-8.4-5.1V34.3z"/>
			<path class="st9" d="M63.2,115.4l8.4,5.1v10.1l-8.4-5.1V115.4z"/>
			<path class="st0" d="M63.2,54.6l8.4,5.1v10.1l-8.4-5.1V54.6z"/>
			<path class="st7" d="M63.2,85l8.4,5.1v10.1l-8.4-5.1V85z"/>
			<path class="st8" d="M63.2,24.2l8.4,5.1v10.1l-8.4-5.1V24.2z"/>
			<path class="st7" d="M63.2,105.3l8.4,5.1v10.1l-8.4-5.1V105.3z"/>
			<path class="st6" d="M63.2,44.5l8.4,5.1v10.1l-8.4-5.1V44.5z"/>
			<path class="st8" d="M63.2,74.9l8.4,5.1v10.1L63.2,85V74.9z"/>
			<path class="st3" d="M63.2,14.1l8.4,5.1v10.1l-8.4-5.1V14.1z"/>
			<path class="st8" d="M63.2,95.1l8.4,5.1v10.1l-8.4-5.1V95.1z"/>
			<path class="st5" d="M63.2,34.3l8.4,5.1v10.1l-8.4-5.1V34.3z M63.2,64.7l8.4,5.1v10.1l-8.4-5.1V64.7z M63.2,3.9L71.6,9v10.1
				l-8.4-5.1V3.9z M122.3,150.9l8.4,5.1v10.1l-8.4-5.1V150.9z M122.3,90.1l8.4,5.1v10.1l-8.4-5.1V90.1z M122.3,120.5l8.4,5.1v10.1
				l-8.4-5.1V120.5z"/>
			<path class="st3" d="M122.3,59.7l8.4,5.1v10.1l-8.4-5.1V59.7z"/>
			<path class="st5" d="M122.3,140.7l8.4,5.1v10.1l-8.4-5.1V140.7z"/>
			<path class="st8" d="M122.3,79.9l8.4,5.1v10.1l-8.4-5.1V79.9z"/>
			<path class="st0" d="M122.3,110.3l8.4,5.1v10.1l-8.4-5.1V110.3z"/>
			<path class="st8" d="M122.3,49.5l8.4,5.1v10.1l-8.4-5.1V49.5z M122.3,130.6l8.4,5.1v10.1l-8.4-5.1V130.6z"/>
			<path class="st5" d="M122.3,69.8l8.4,5.1V85l-8.4-5.1V69.8z M122.3,100.2l8.4,5.1v10.1l-8.4-5.1V100.2z M122.3,39.4l8.4,5.1v10.1
				l-8.4-5.1V39.4z"/>
			<path class="st8" d="M71.6,120.5l8.4,5.1v10.1l-8.4-5.1V120.5z"/>
			<path class="st7" d="M71.6,59.7l8.4,5.1v10.1l-8.4-5.1V59.7z"/>
			<path class="st5" d="M71.6,90.1l8.4,5.1v10.1l-8.4-5.1V90.1z"/>
			<path class="st8" d="M71.6,29.3l8.4,5.1v10.1l-8.4-5.1V29.3z"/>
			<path class="st5" d="M71.6,110.3l8.4,5.1v10.1l-8.4-5.1V110.3z M71.6,49.5l8.4,5.1v10.1l-8.4-5.1V49.5z"/>
			<path class="st3" d="M71.6,79.9l8.4,5.1v10.1l-8.4-5.1V79.9z"/>
			<path class="st6" d="M71.6,19.1l8.4,5.1v10.1l-8.4-5.1V19.1z"/>
			<path class="st0" d="M71.6,100.2l8.4,5.1v10.1l-8.4-5.1V100.2z"/>
			<path class="st3" d="M71.6,39.4l8.4,5.1v10.1l-8.4-5.1V39.4z"/>
			<path class="st5" d="M71.6,69.8l8.4,5.1V85l-8.4-5.1V69.8z"/>
			<path class="st4" d="M71.6,9l8.4,5.1v10.1l-8.4-5.1V9z"/>
			<path class="st0" d="M130.7,155.9l8.4,5.1v10.1l-8.4-5.1V155.9z"/>
			<path class="st4" d="M130.7,95.1l8.4,5.1v10.1l-8.4-5.1V95.1z"/>
			<path class="st5" d="M130.7,125.5l8.4,5.1v10.1l-8.4-5.1V125.5z M130.7,64.7l8.4,5.1v10.1l-8.4-5.1V64.7z M130.7,145.8l8.4,5.1
				V161l-8.4-5.1V145.8z"/>
			<path class="st0" d="M130.7,85l8.4,5.1v10.1l-8.4-5.1V85z"/>
			<path class="st4" d="M130.7,115.4l8.4,5.1v10.1l-8.4-5.1V115.4z"/>
			<path class="st5" d="M130.7,54.6l8.4,5.1v10.1l-8.4-5.1V54.6z M130.7,135.7l8.4,5.1v10.1l-8.4-5.1V135.7z"/>
			<path class="st0" d="M130.7,74.9l8.4,5.1v10.1l-8.4-5.1V74.9z"/>
			<path class="st5" d="M130.7,105.3l8.4,5.1v10.1l-8.4-5.1V105.3z M130.7,44.5l8.4,5.1v10.1l-8.4-5.1V44.5z M80.1,125.5l8.4,5.1
				v10.1l-8.4-5.1L80.1,125.5z"/>
			<path class="st0" d="M80.1,64.7l8.4,5.1v10.1l-8.4-5.1L80.1,64.7z"/>
			<path class="st5" d="M80.1,95.1l8.4,5.1v10.1l-8.4-5.1L80.1,95.1z"/>
			<path class="st0" d="M80.1,34.3l8.4,5.1v10.1l-8.4-5.1L80.1,34.3z"/>
			<path class="st5" d="M80.1,115.4l8.4,5.1v10.1l-8.4-5.1L80.1,115.4z"/>
			<path class="st0" d="M80.1,54.6l8.4,5.1v10.1l-8.4-5.1L80.1,54.6z"/>
			<path class="st8" d="M80.1,85l8.4,5.1v10.1l-8.4-5.1L80.1,85z"/>
			<path class="st5" d="M80.1,24.2l8.4,5.1v10.1l-8.4-5.1L80.1,24.2z"/>
			<path class="st7" d="M80.1,105.3l8.4,5.1v10.1l-8.4-5.1L80.1,105.3z"/>
			<path class="st8" d="M80.1,44.5l8.4,5.1v10.1l-8.4-5.1L80.1,44.5z"/>
			<path class="st3" d="M80.1,74.9l8.4,5.1v10.1L80.1,85L80.1,74.9z"/>
			<path class="st5" d="M80.1,14.1l8.4,5.1v10.1l-8.4-5.1L80.1,14.1z"/>
			<path class="st8" d="M139.1,161l8.4,5.1v10.1l-8.4-5.1V161z"/>
			<path class="st5" d="M139.1,100.2l8.4,5.1v10.1l-8.4-5.1V100.2z M139.1,130.6l8.4,5.1v10.1l-8.4-5.1V130.6z"/>
			<path class="st0" d="M139.1,69.8l8.4,5.1V85l-8.4-5.1V69.8z"/>
			<path class="st5" d="M139.1,150.9l8.4,5.1v10.1l-8.4-5.1V150.9z"/>
			<path class="st0" d="M139.1,90.1l8.4,5.1v10.1l-8.4-5.1V90.1z"/>
			<path class="st3" d="M139.1,120.5l8.4,5.1v10.1l-8.4-5.1V120.5z"/>
			<path class="st8" d="M139.1,59.7l8.4,5.1v10.1l-8.4-5.1V59.7z"/>
			<path class="st7" d="M139.1,140.7l8.4,5.1v10.1l-8.4-5.1V140.7z"/>
			<path class="st5" d="M139.1,79.9l8.4,5.1v10.1l-8.4-5.1V79.9z"/>
			<path class="st8" d="M139.1,110.3l8.4,5.1v10.1l-8.4-5.1V110.3z"/>
			<path class="st7" d="M139.1,49.5l8.4,5.1v10.1l-8.4-5.1V49.5z"/>
			<path class="st8" d="M88.5,130.6l8.4,5.1v10.1l-8.4-5.1V130.6z"/>
			<path class="st5" d="M88.5,69.8l8.4,5.1V85l-8.4-5.1V69.8z"/>
			<path class="st6" d="M88.5,100.2l8.4,5.1v10.1l-8.4-5.1V100.2z"/>
			<path class="st5" d="M88.5,39.4l8.4,5.1v10.1l-8.4-5.1V39.4z"/>
			<path class="st9" d="M88.5,120.5l8.4,5.1v10.1l-8.4-5.1V120.5z"/>
			<path class="st8" d="M88.5,59.7l8.4,5.1v10.1l-8.4-5.1V59.7z"/>
			<path class="st9" d="M88.5,90.1l8.4,5.1v10.1l-8.4-5.1V90.1z"/>
			<path class="st7" d="M88.5,29.3l8.4,5.1v10.1l-8.4-5.1V29.3z"/>
			<path class="st5" d="M88.5,110.3l8.4,5.1v10.1l-8.4-5.1V110.3z M88.5,49.5l8.4,5.1v10.1l-8.4-5.1V49.5z M88.5,79.9l8.4,5.1v10.1
				l-8.4-5.1V79.9z M88.5,19.1l8.4,5.1v10.1l-8.4-5.1V19.1z"/>
			<path class="st4" d="M147.6,166.1l8.4,5.1v10.1l-8.4-5.1L147.6,166.1z"/>
			<path class="st9" d="M147.6,105.3l8.4,5.1v10.1l-8.4-5.1L147.6,105.3z"/>
			<path class="st8" d="M147.6,135.7l8.4,5.1v10.1l-8.4-5.1L147.6,135.7z"/>
			<path class="st5" d="M147.6,74.9l8.4,5.1v10.1l-8.4-5.1L147.6,74.9z M147.6,155.9l8.4,5.1v10.1l-8.4-5.1L147.6,155.9z"/>
			<path class="st8" d="M147.6,95.1l8.4,5.1v10.1l-8.4-5.1L147.6,95.1z M147.6,125.5l8.4,5.1v10.1l-8.4-5.1L147.6,125.5z"/>
			<path class="st5" d="M147.6,64.7l8.4,5.1v10.1l-8.4-5.1L147.6,64.7z M147.6,145.8l8.4,5.1V161l-8.4-5.1L147.6,145.8z"/>
			<path class="st3" d="M147.6,85l8.4,5.1v10.1l-8.4-5.1L147.6,85z"/>
			<path class="st5" d="M147.6,115.4l8.4,5.1v10.1l-8.4-5.1L147.6,115.4z"/>
			<path class="st9" d="M147.6,54.6l8.4,5.1v10.1l-8.4-5.1L147.6,54.6z"/>
			<path class="st5" d="M96.9,135.7l8.4,5.1v10.1l-8.4-5.1V135.7z M96.9,74.9l8.4,5.1v10.1L96.9,85V74.9z"/>
			<path class="st3" d="M96.9,105.3l8.4,5.1v10.1l-8.4-5.1V105.3z"/>
			<path class="st9" d="M96.9,44.5l8.4,5.1v10.1l-8.4-5.1V44.5z"/>
			<path class="st5" d="M96.9,125.5l8.4,5.1v10.1l-8.4-5.1V125.5z M96.9,64.7l8.4,5.1v10.1l-8.4-5.1V64.7z"/>
			<path class="st8" d="M96.9,95.1l8.4,5.1v10.1l-8.4-5.1V95.1z"/>
			<path class="st5" d="M96.9,34.3l8.4,5.1v10.1l-8.4-5.1V34.3z"/>
			<path class="st4" d="M96.9,115.4l8.4,5.1v10.1l-8.4-5.1V115.4z"/>
			<path class="st3" d="M96.9,54.6l8.4,5.1v10.1l-8.4-5.1V54.6z"/>
			<path class="st0" d="M96.9,85l8.4,5.1v10.1l-8.4-5.1V85z"/>
			<path class="st5" d="M96.9,24.2l8.4,5.1v10.1l-8.4-5.1V24.2z"/>
			<path class="st0" d="M156,171.1l8.4,5.1v10.1l-8.4-5.1L156,171.1z"/>
			<path class="st5" d="M156,110.3l8.4,5.1v10.1l-8.4-5.1V110.3z M156,140.7l8.4,5.1v10.1l-8.4-5.1L156,140.7z"/>
			<path class="st0" d="M156,79.9l8.4,5.1v10.1l-8.4-5.1L156,79.9z"/>
			<path class="st9" d="M156,161l8.4,5.1v10.1l-8.4-5.1L156,161z"/>
			<path class="st5" d="M156,100.2l8.4,5.1v10.1l-8.4-5.1L156,100.2z"/>
			<path class="st0" d="M156,130.6l8.4,5.1v10.1l-8.4-5.1L156,130.6z"/>
			<path class="st8" d="M156,69.8l8.4,5.1V85l-8.4-5.1L156,69.8z"/>
			<path class="st3" d="M156,150.9l8.4,5.1v10.1L156,161L156,150.9z"/>
			<path class="st9" d="M156,90.1l8.4,5.1v10.1l-8.4-5.1L156,90.1z"/>
			<path class="st5" d="M156,120.5l8.4,5.1v10.1l-8.4-5.1L156,120.5z"/>
			<path class="st9" d="M156,59.7l8.4,5.1v10.1l-8.4-5.1L156,59.7z"/>
			<path class="st5" d="M105.4,140.7l8.4,5.1v10.1l-8.4-5.1V140.7z"/>
			<path class="st9" d="M105.4,110.3l8.4,5.1v10.1l-8.4-5.1V110.3z"/>
			<path class="st5" d="M105.4,49.5l8.4,5.1v10.1l-8.4-5.1V49.5z"/>
			<path class="st0" d="M105.4,130.6l8.4,5.1v10.1l-8.4-5.1V130.6z"/>
			<path class="st8" d="M105.4,69.8l8.4,5.1V85l-8.4-5.1V69.8z"/>
			<path class="st5" d="M105.4,100.2l8.4,5.1v10.1l-8.4-5.1V100.2z"/>
			<path class="st9" d="M105.4,39.4l8.4,5.1v10.1l-8.4-5.1V39.4z"/>
			<path class="st5" d="M105.4,120.5l8.4,5.1v10.1l-8.4-5.1V120.5z"/>
			<path class="st8" d="M105.4,59.7l8.4,5.1v10.1l-8.4-5.1V59.7z"/>
			<path class="st6" d="M105.4,90.1l8.4,5.1v10.1l-8.4-5.1V90.1z"/>
			<path class="st5" d="M105.4,29.3l8.4,5.1v10.1l-8.4-5.1V29.3z"/>
			<path class="st4" d="M164.4,176.2l8.4,5.1v10.1l-8.4-5.1V176.2z"/>
			<path class="st7" d="M164.4,115.4l8.4,5.1v10.1l-8.4-5.1V115.4z"/>
			<path class="st9" d="M164.4,145.8l8.4,5.1V161l-8.4-5.1V145.8z M164.4,85l8.4,5.1v10.1l-8.4-5.1V85z M164.4,166.1l8.4,5.1v10.1
				l-8.4-5.1V166.1z"/>
			<path class="st5" d="M164.4,105.3l8.4,5.1v10.1l-8.4-5.1V105.3z M164.4,135.7l8.4,5.1v10.1l-8.4-5.1V135.7z M164.4,74.9l8.4,5.1
				v10.1l-8.4-5.1V74.9z M164.4,155.9l8.4,5.1v10.1l-8.4-5.1V155.9z"/>
			<path class="st0" d="M164.4,95.1l8.4,5.1v10.1l-8.4-5.1V95.1z"/>
			<path class="st5" d="M164.4,125.5l8.4,5.1v10.1l-8.4-5.1V125.5z M164.4,64.7l8.4,5.1v10.1l-8.4-5.1V64.7z"/>
		</g>
		<g>
			<path class="st5" d="M172.9,181.3l8.4,5.1v10.1l-8.4-5.1L172.9,181.3z"/>
			<path class="st0" d="M172.9,120.5l8.4,5.1v10.1l-8.4-5.1L172.9,120.5z"/>
			<path class="st8" d="M172.9,150.9l8.4,5.1v10.1l-8.4-5.1L172.9,150.9z"/>
			<path class="st4" d="M172.9,90.1l8.4,5.1v10.1l-8.4-5.1L172.9,90.1z"/>
			<path class="st5" d="M172.9,171.1l8.4,5.1v10.1l-8.4-5.1L172.9,171.1z"/>
			<path class="st8" d="M172.9,110.3l8.4,5.1v10.1l-8.4-5.1V110.3z"/>
			<path class="st0" d="M172.9,140.7l8.4,5.1v10.1l-8.4-5.1L172.9,140.7z"/>
			<path class="st5" d="M172.9,79.9l8.4,5.1v10.1l-8.4-5.1L172.9,79.9z M172.9,161l8.4,5.1v10.1l-8.4-5.1L172.9,161z"/>
			<path class="st0" d="M172.9,100.2l8.4,5.1v10.1l-8.4-5.1L172.9,100.2z"/>
			<path class="st8" d="M172.9,130.6l8.4,5.1v10.1l-8.4-5.1L172.9,130.6z"/>
			<path class="st5" d="M172.9,69.8l8.4,5.1V85l-8.4-5.1L172.9,69.8z"/>
			<path class="st4" d="M231.9,216.7l8.4,5.1v10.1l-8.4-5.1L231.9,216.7z"/>
			<path class="st7" d="M231.9,155.9l8.4,5.1v10.1l-8.4-5.1L231.9,155.9z"/>
			<path class="st8" d="M231.9,186.3l8.4,5.1v10.1l-8.4-5.1L231.9,186.3z"/>
			<path class="st5" d="M231.9,125.5l8.4,5.1v10.1l-8.4-5.1L231.9,125.5z"/>
			<path class="st0" d="M231.9,206.6l8.4,5.1v10.1l-8.4-5.1L231.9,206.6z"/>
			<path class="st5" d="M231.9,145.8l8.4,5.1V161l-8.4-5.1L231.9,145.8z M231.9,176.2l8.4,5.1v10.1l-8.4-5.1L231.9,176.2z"/>
			<path class="st9" d="M231.9,115.4l8.4,5.1v10.1l-8.4-5.1L231.9,115.4z"/>
			<path class="st5" d="M231.9,196.5l8.4,5.1v10.1l-8.4-5.1L231.9,196.5z"/>
			<path class="st8" d="M231.9,135.7l8.4,5.1v10.1l-8.4-5.1L231.9,135.7z"/>
			<path class="st6" d="M231.9,166.1l8.4,5.1v10.1l-8.4-5.1L231.9,166.1z"/>
			<path class="st5" d="M231.9,105.3l8.4,5.1v10.1l-8.4-5.1L231.9,105.3z"/>
			<path class="st9" d="M181.3,186.3l8.4,5.1v10.1l-8.4-5.1V186.3z"/>
			<path class="st6" d="M181.3,125.5l8.4,5.1v10.1l-8.4-5.1V125.5z"/>
			<path class="st7" d="M181.3,155.9l8.4,5.1v10.1l-8.4-5.1V155.9z"/>
			<path class="st8" d="M181.3,95.1l8.4,5.1v10.1l-8.4-5.1V95.1z M181.3,176.2l8.4,5.1v10.1l-8.4-5.1V176.2z"/>
			<path class="st6" d="M181.3,115.4l8.4,5.1v10.1l-8.4-5.1V115.4z M181.3,145.8l8.4,5.1V161l-8.4-5.1V145.8z"/>
			<path class="st3" d="M181.3,85l8.4,5.1v10.1l-8.4-5.1V85z"/>
			<path class="st0" d="M181.3,166.1l8.4,5.1v10.1l-8.4-5.1V166.1z"/>
			<path class="st5" d="M181.3,105.3l8.4,5.1v10.1l-8.4-5.1V105.3z M181.3,135.7l8.4,5.1v10.1l-8.4-5.1V135.7z M181.3,74.9l8.4,5.1
				v10.1l-8.4-5.1V74.9z M240.4,221.8l8.4,5.1V237l-8.4-5.1V221.8z M240.4,161l8.4,5.1v10.1l-8.4-5.1V161z M240.4,191.4l8.4,5.1
				v10.1l-8.4-5.1V191.4z"/>
			<path class="st3" d="M240.4,130.6l8.4,5.1v10.1l-8.4-5.1V130.6z"/>
			<path class="st8" d="M240.4,211.7l8.4,5.1v10.1l-8.4-5.1V211.7z"/>
			<path class="st5" d="M240.4,150.9l8.4,5.1v10.1l-8.4-5.1V150.9z"/>
			<path class="st3" d="M240.4,181.3l8.4,5.1v10.1l-8.4-5.1V181.3z"/>
			<path class="st5" d="M240.4,120.5l8.4,5.1v10.1l-8.4-5.1V120.5z"/>
			<path class="st3" d="M240.4,201.5l8.4,5.1v10.1l-8.4-5.1V201.5z"/>
			<path class="st5" d="M240.4,140.7l8.4,5.1v10.1l-8.4-5.1V140.7z M240.4,171.1l8.4,5.1v10.1l-8.4-5.1V171.1z M240.4,110.3l8.4,5.1
				v10.1l-8.4-5.1V110.3z"/>
			<path class="st9" d="M189.8,191.4l8.4,5.1v10.1l-8.4-5.1V191.4z"/>
			<path class="st7" d="M189.8,130.6l8.4,5.1v10.1l-8.4-5.1V130.6z"/>
			<path class="st5" d="M189.8,161l8.4,5.1v10.1l-8.4-5.1V161z"/>
			<path class="st4" d="M189.8,100.2l8.4,5.1v10.1l-8.4-5.1V100.2z"/>
			<path class="st5" d="M189.8,181.3l8.4,5.1v10.1l-8.4-5.1V181.3z"/>
			<path class="st8" d="M189.8,120.5l8.4,5.1v10.1l-8.4-5.1V120.5z"/>
			<path class="st3" d="M189.8,150.9l8.4,5.1v10.1l-8.4-5.1V150.9z"/>
			<path class="st6" d="M189.8,90.1l8.4,5.1v10.1l-8.4-5.1V90.1z"/>
			<path class="st8" d="M189.8,171.1l8.4,5.1v10.1l-8.4-5.1V171.1z"/>
			<path class="st3" d="M189.8,110.3l8.4,5.1v10.1l-8.4-5.1V110.3z"/>
			<path class="st5" d="M189.8,140.7l8.4,5.1v10.1l-8.4-5.1V140.7z"/>
			<path class="st4" d="M189.8,79.9l8.4,5.1v10.1l-8.4-5.1V79.9z"/>
			<path class="st3" d="M248.8,226.9l8.4,5.1v10.1l-8.4-5.1V226.9z"/>
			<path class="st4" d="M248.8,166.1l8.4,5.1v10.1l-8.4-5.1V166.1z"/>
			<path class="st5" d="M248.8,196.5l8.4,5.1v10.1l-8.4-5.1V196.5z M248.8,135.7l8.4,5.1v10.1l-8.4-5.1V135.7z M248.8,216.7l8.4,5.1
				v10.1l-8.4-5.1V216.7z M248.8,155.9l8.4,5.1v10.1l-8.4-5.1V155.9z"/>
			<path class="st4" d="M248.8,186.3l8.4,5.1v10.1l-8.4-5.1V186.3z"/>
			<path class="st5" d="M248.8,125.5l8.4,5.1v10.1l-8.4-5.1V125.5z M248.8,206.6l8.4,5.1v10.1l-8.4-5.1V206.6z"/>
			<path class="st3" d="M248.8,145.8l8.4,5.1V161l-8.4-5.1V145.8z"/>
			<path class="st5" d="M248.8,176.2l8.4,5.1v10.1l-8.4-5.1V176.2z M248.8,115.4l8.4,5.1v10.1l-8.4-5.1V115.4z"/>
			<path class="st8" d="M198.2,196.5l8.4,5.1v10.1l-8.4-5.1L198.2,196.5z"/>
			<path class="st9" d="M198.2,135.7l8.4,5.1v10.1l-8.4-5.1L198.2,135.7z"/>
			<path class="st5" d="M198.2,166.1l8.4,5.1v10.1l-8.4-5.1L198.2,166.1z"/>
			<path class="st4" d="M198.2,105.3l8.4,5.1v10.1l-8.4-5.1L198.2,105.3z"/>
			<path class="st5" d="M198.2,186.3l8.4,5.1v10.1l-8.4-5.1L198.2,186.3z M198.2,125.5l8.4,5.1v10.1l-8.4-5.1L198.2,125.5z"/>
			<path class="st8" d="M198.2,155.9l8.4,5.1v10.1l-8.4-5.1L198.2,155.9z M198.2,95.1l8.4,5.1v10.1l-8.4-5.1L198.2,95.1z"/>
			<path class="st7" d="M198.2,176.2l8.4,5.1v10.1l-8.4-5.1L198.2,176.2z"/>
			<path class="st5" d="M198.2,115.4l8.4,5.1v10.1l-8.4-5.1L198.2,115.4z"/>
			<path class="st8" d="M198.2,145.8l8.4,5.1V161l-8.4-5.1L198.2,145.8z"/>
			<path class="st5" d="M198.2,85l8.4,5.1v10.1l-8.4-5.1L198.2,85z"/>
			<path class="st6" d="M257.3,231.9l8.4,5.1v10.1l-8.4-5.1V231.9z"/>
			<path class="st5" d="M257.3,171.1l8.4,5.1v10.1l-8.4-5.1V171.1z M257.3,201.5l8.4,5.1v10.1l-8.4-5.1V201.5z M257.3,140.7l8.4,5.1
				v10.1l-8.4-5.1V140.7z M257.3,221.8l8.4,5.1V237l-8.4-5.1V221.8z"/>
			<path class="st5" d="M257.3,161l8.4,5.1v10.1l-8.4-5.1V161z"/>
			<path class="st3" d="M257.3,191.4l8.4,5.1v10.1l-8.4-5.1V191.4z"/>
			<path class="st5" d="M257.3,130.6l8.4,5.1v10.1l-8.4-5.1V130.6z"/>
			<path class="st7" d="M257.3,211.7l8.4,5.1v10.1l-8.4-5.1V211.7z"/>
			<path class="st5" d="M257.3,150.9l8.4,5.1v10.1l-8.4-5.1V150.9z"/>
			<path class="st7" d="M257.3,181.3l8.4,5.1v10.1l-8.4-5.1V181.3z M257.3,120.5l8.4,5.1v10.1l-8.4-5.1V120.5z"/>
			<path class="st9" d="M206.6,201.5l8.4,5.1v10.1l-8.4-5.1V201.5z"/>
			<path class="st5" d="M206.6,140.7l8.4,5.1v10.1l-8.4-5.1V140.7z"/>
			<path class="st6" d="M206.6,171.1l8.4,5.1v10.1l-8.4-5.1V171.1z"/>
			<path class="st5" d="M206.6,110.3l8.4,5.1v10.1l-8.4-5.1V110.3z"/>
			<path class="st9" d="M206.6,191.4l8.4,5.1v10.1l-8.4-5.1V191.4z"/>
			<path class="st4" d="M206.6,130.6l8.4,5.1v10.1l-8.4-5.1V130.6z"/>
			<path class="st9" d="M206.6,161l8.4,5.1v10.1l-8.4-5.1V161z"/>
			<path class="st7" d="M206.6,100.2l8.4,5.1v10.1l-8.4-5.1V100.2z"/>
			<path class="st0" d="M206.6,181.3l8.4,5.1v10.1l-8.4-5.1V181.3z"/>
			<path class="st5" d="M206.6,120.5l8.4,5.1v10.1l-8.4-5.1V120.5z M206.6,150.9l8.4,5.1v10.1l-8.4-5.1V150.9z M206.6,90.1l8.4,5.1
				v10.1l-8.4-5.1V90.1z"/>
			<path class="st4" d="M265.7,237l8.4,5.1v10.1l-8.4-5.1V237z"/>
			<path class="st9" d="M265.7,176.2l8.4,5.1v10.1l-8.4-5.1V176.2z"/>
			<path class="st4" d="M265.7,206.6l8.4,5.1v10.1l-8.4-5.1V206.6z"/>
			<path class="st5" d="M265.7,145.8l8.4,5.1V161l-8.4-5.1V145.8z M265.7,226.9l8.4,5.1v10.1l-8.4-5.1V226.9z M265.7,166.1l8.4,5.1
				v10.1l-8.4-5.1V166.1z"/>
			<path class="st7" d="M265.7,196.5l8.4,5.1v10.1l-8.4-5.1V196.5z"/>
			<path class="st5" d="M265.7,135.7l8.4,5.1v10.1l-8.4-5.1V135.7z M265.7,216.7l8.4,5.1v10.1l-8.4-5.1V216.7z"/>
			<path class="st3" d="M265.7,155.9l8.4,5.1v10.1l-8.4-5.1V155.9z"/>
			<path class="st5" d="M265.7,186.3l8.4,5.1v10.1l-8.4-5.1V186.3z"/>
			<path class="st9" d="M265.7,125.5l8.4,5.1v10.1l-8.4-5.1V125.5z"/>
			<path class="st5" d="M215.1,206.6l8.4,5.1v10.1l-8.4-5.1V206.6z M215.1,145.8l8.4,5.1V161l-8.4-5.1V145.8z"/>
			<path class="st3" d="M215.1,176.2l8.4,5.1v10.1l-8.4-5.1V176.2z"/>
			<path class="st8" d="M215.1,115.4l8.4,5.1v10.1l-8.4-5.1V115.4z"/>
			<path class="st0" d="M215.1,196.5l8.4,5.1v10.1l-8.4-5.1V196.5z M215.1,135.7l8.4,5.1v10.1l-8.4-5.1V135.7z"/>
			<path class="st5" d="M215.1,166.1l8.4,5.1v10.1l-8.4-5.1V166.1z M215.1,105.3l8.4,5.1v10.1l-8.4-5.1V105.3z"/>
			<path class="st4" d="M215.1,186.3l8.4,5.1v10.1l-8.4-5.1V186.3z"/>
			<path class="st8" d="M215.1,125.5l8.4,5.1v10.1l-8.4-5.1V125.5z"/>
			<path class="st5" d="M215.1,155.9l8.4,5.1v10.1l-8.4-5.1V155.9z M215.1,95.1l8.4,5.1v10.1l-8.4-5.1V95.1z M274.1,242.1l8.4,5.1
				v10.1l-8.4-5.1V242.1z M274.1,181.3l8.4,5.1v10.1l-8.4-5.1V181.3z M274.1,211.7l8.4,5.1v10.1l-8.4-5.1V211.7z M274.1,150.9
				l8.4,5.1v10.1l-8.4-5.1V150.9z"/>
			<path class="st9" d="M274.1,231.9l8.4,5.1v10.1l-8.4-5.1V231.9z"/>
			<path class="st5" d="M274.1,171.1l8.4,5.1v10.1l-8.4-5.1V171.1z"/>
			<path class="st9" d="M274.1,201.5l8.4,5.1v10.1l-8.4-5.1V201.5z"/>
			<path class="st5" d="M274.1,140.7l8.4,5.1v10.1l-8.4-5.1V140.7z"/>
			<path class="st3" d="M274.1,221.8l8.4,5.1V237l-8.4-5.1V221.8z"/>
			<path class="st9" d="M274.1,161l8.4,5.1v10.1l-8.4-5.1V161z"/>
			<path class="st5" d="M274.1,191.4l8.4,5.1v10.1l-8.4-5.1V191.4z"/>
			<path class="st9" d="M274.1,130.6l8.4,5.1v10.1l-8.4-5.1V130.6z"/>
			<path class="st5" d="M223.5,211.7l8.4,5.1v10.1l-8.4-5.1L223.5,211.7z"/>
			<path class="st8" d="M223.5,181.3l8.4,5.1v10.1l-8.4-5.1L223.5,181.3z M223.5,120.5l8.4,5.1v10.1l-8.4-5.1L223.5,120.5z"/>
			<path class="st3" d="M223.5,201.5l8.4,5.1v10.1l-8.4-5.1L223.5,201.5z"/>
			<path class="st5" d="M223.5,140.7l8.4,5.1v10.1l-8.4-5.1L223.5,140.7z"/>
			<path class="st8" d="M223.5,171.1l8.4,5.1v10.1l-8.4-5.1L223.5,171.1z"/>
			<path class="st9" d="M223.5,110.3l8.4,5.1v10.1l-8.4-5.1V110.3z"/>
			<path class="st5" d="M223.5,191.4l8.4,5.1v10.1l-8.4-5.1L223.5,191.4z M223.5,130.6l8.4,5.1v10.1l-8.4-5.1L223.5,130.6z"/>
			<path class="st0" d="M223.5,161l8.4,5.1v10.1l-8.4-5.1L223.5,161z"/>
			<path class="st5" d="M223.5,100.2l8.4,5.1v10.1l-8.4-5.1L223.5,100.2z"/>
		</g>
	</g>
</g>
</svg>
