<?xml version="1.0" encoding="utf-8"?>
<!-- Generator: Adobe Illustrator 22.1.0, SVG Export Plug-In . SVG Version: 6.00 Build 0)  -->
<svg version="1.0" id="Layer_1" xmlns="http://www.w3.org/2000/svg" xmlns:xlink="http://www.w3.org/1999/xlink" x="0px" y="0px"
	 viewBox="0 0 360 360" style="enable-background:new 0 0 360 360;" xml:space="preserve">
<style type="text/css">
	.st0{fill:#A48900;}
	.st1{fill:#FDD301;}
	.st2{fill:#FDE35F;}
</style>
<g>
	<path d="M289.7,261.2l18.1-10.8l18.2,10.8l-18.2,10.3L289.7,261.2z"/>
	<path class="st0" d="M307.8,240.2l-34.1,20.5v10.2l34.1-20.5V240.2z"/>
	<path class="st1" d="M307.8,240.2l34.1,20.5v10.2l-34.1-20.5V240.2z"/>
	<path class="st2" d="M265.2,255.5l8.5,5.1l34.1-20.5v-8.5L265.2,255.5z M299.3,276l8.5,5.1l34.1-20.5v-8.5L299.3,276z"/>
	<path class="st2" d="M350.4,255.5l-8.5,5.1l-34.1-20.5v-8.5L350.4,255.5z M314.6,275.2l-8.5,5.1L272,259.8v-8.5L314.6,275.2z"/>
	<path class="st1" d="M265.2,255.5l42.6,25.6v51.2l-42.6-25.6V255.5z"/>
	<path class="st0" d="M307.8,281.1l42.6-25.6v51.2l-42.6,25.6V281.1z"/>
	<g>
		<path class="st1" d="M325.7,270.4l17,10.2v40.9l-17-10.2v-10.2l8.5,5.1v-20.5l-8.5-5.1V270.4z"/>
		<path class="st0" d="M342.7,280.6l8.5-5.1v40.9l-8.5,5.1V280.6z"/>
		<path class="st2" d="M325.7,301.1l8.5-5.1v10.2L325.7,301.1z M325.7,270.4l8.5-5.1l17,10.2l-8.5,5.1L325.7,270.4z"/>
	</g>
</g>
</svg>
