<?xml version="1.0" encoding="utf-8"?>
<!-- Generator: Adobe Illustrator 22.1.0, SVG Export Plug-In . SVG Version: 6.00 Build 0)  -->
<svg version="1.0" id="Layer_1" xmlns="http://www.w3.org/2000/svg" xmlns:xlink="http://www.w3.org/1999/xlink" x="0px" y="0px"
	 viewBox="0 0 50 50" style="enable-background:new 0 0 50 50;" xml:space="preserve">
<style type="text/css">
	.st0{fill:#FFFFFF;}
</style>
<g>
	<path class="st0" d="M30.8,40H19.2c-4.8,0-8.8-3.9-8.8-8.8V18.8c-0.1-4.8,3.9-8.8,8.8-8.8h11.5c4.8,0,8.8,3.9,8.8,8.8v12.5
		C39.7,36.1,35.6,40,30.8,40z M19.2,13.2c-3.1,0-5.7,2.5-5.7,5.7v12.5c0,3.1,2.5,5.7,5.7,5.7h11.5c3.1,0,5.7-2.5,5.7-5.7V18.8
		c0-3.1-2.5-5.7-5.7-5.7H19.2V13.2z"/>
	<path class="st0" d="M25,33.3c-4.6,0-8.3-3.7-8.3-8.3c0-4.7,3.8-8.4,8.4-8.3c2.5,0.1,4.7,0.9,6.2,2.5c1.4,1.5,2.1,3.6,2.1,5.9
		c0,2.2-0.9,4.3-2.4,5.9C29.3,32.4,27.2,33.3,25,33.3z M24.8,20.5c-1.2,0-2.2,0.5-3,1.3c-0.8,0.8-1.3,2-1.3,3.1c0,2.4,2,4.5,4.5,4.5
		c2.4,0,4.4-2,4.5-4.5c0-0.9-0.1-2.2-1-3.1c-0.8-0.8-2-1.3-3.5-1.3C24.9,20.5,24.9,20.5,24.8,20.5z"/>
	<path class="st0" d="M34.7,17c0,1-0.8,1.8-1.8,1.8c-1,0-1.8-0.8-1.8-1.8s0.8-1.8,1.8-1.8C33.9,15.3,34.7,16.1,34.7,17z"/>
</g>
</svg>
