<?xml version="1.0" encoding="utf-8"?>
<!-- Generator: Adobe Illustrator 22.1.0, SVG Export Plug-In . SVG Version: 6.00 Build 0)  -->
<svg version="1.0" id="Layer_1" xmlns="http://www.w3.org/2000/svg" xmlns:xlink="http://www.w3.org/1999/xlink" x="0px" y="0px"
	 viewBox="0 0 30 30" style="enable-background:new 0 0 30 30;" xml:space="preserve">
<g>
	<path d="M18.8,25h-7.7c-3.2,0-5.8-2.6-5.8-5.8v-8.3C5.2,7.6,7.9,5,11.2,5h7.7c3.2,0,5.8,2.6,5.8,5.8v8.3C24.8,22.4,22.1,25,18.8,25
		z M11.2,7.2c-2.1,0-3.8,1.7-3.8,3.8v8.3c0,2.1,1.7,3.8,3.8,3.8h7.7c2.1,0,3.8-1.7,3.8-3.8v-8.4c0-2.1-1.7-3.8-3.8-3.8L11.2,7.2
		L11.2,7.2z"/>
	<path d="M15,20.5c-3.1,0-5.5-2.5-5.5-5.5c0-3.2,2.5-5.6,5.6-5.5c1.7,0.1,3.2,0.6,4.2,1.7c0.9,1,1.4,2.4,1.4,3.9
		c0,1.5-0.6,2.8-1.6,3.9C17.8,19.9,16.5,20.5,15,20.5z M14.8,12c-0.8,0-1.5,0.3-2,0.8c-0.5,0.5-0.8,1.3-0.8,2.1c0,1.6,1.3,3,3,3
		c1.6,0,2.9-1.3,3-3c0-0.6-0.1-1.5-0.7-2.1C16.8,12.3,16,12,15,12C14.9,12,14.9,12,14.8,12z"/>
	<path d="M21.5,9.7c0,0.7-0.5,1.2-1.2,1.2c-0.7,0-1.2-0.5-1.2-1.2c0-0.7,0.5-1.2,1.2-1.2C20.9,8.5,21.5,9.1,21.5,9.7z"/>
</g>
</svg>
