<svg xmlns="http://www.w3.org/2000/svg" xmlns:xlink="http://www.w3.org/1999/xlink" width="110" height="50" viewBox="0 0 110 50">
    <defs>
        <path id="a" d="M62.332 6.508c.28 0 .528.083.745.262.241.19.328.48.26.848-.048.28-.115.799-.212 1.567-.096.768-.192 1.656-.298 2.664a97.344 97.344 0 0 0-.28 3.103 58.082 58.082 0 0 0-.135 2.944c-.01.898.02 1.626.087 2.185.067.559.202.818.414.788.193-.03.386-.25.598-.658.203-.41.405-.878.608-1.407.193-.529.366-1.048.511-1.547.145-.499.241-.868.28-1.097.067-.23.164-.4.308-.5.135-.099.28-.139.415-.129.135.01.25.08.347.2.096.12.116.299.068.529a70 70 0 0 1-.3 1.347 12.737 12.737 0 0 1-.694 2.095 8.541 8.541 0 0 1-1.176 1.996c-.482.608-1.051.958-1.707 1.057-.482.07-.859-.08-1.119-.449s-.463-.888-.598-1.536a5.047 5.047 0 0 1-.694 1.247c-.29.379-.646.678-1.07.898-.473.25-.869.33-1.216.25a1.94 1.94 0 0 1-1.456-.839c-.357-.499-.598-1.097-.733-1.806a6.887 6.887 0 0 1-.03-2.275 7.256 7.256 0 0 1 .676-2.225c.338-.678.781-1.237 1.34-1.666.56-.43 1.235-.639 2.016-.609.424.01.791.19 1.11.549.096-1.297.211-2.505.327-3.632.126-1.118.193-1.966.193-2.535.01-.548.145-.948.424-1.197.28-.25.579-.39.897-.42l.094-.002zm-4.78 14.85c.144.33.356.49.626.49.28 0 .54-.17.781-.52.251-.349.463-.788.646-1.307a8.769 8.769 0 0 0 .415-1.706 5.798 5.798 0 0 0 .068-1.716 3.804 3.804 0 0 0-.232-.908c-.116-.3-.29-.45-.52-.46-.338-.02-.647.14-.917.47-.27.329-.492.738-.665 1.227a8.616 8.616 0 0 0-.386 1.587c-.077.568-.106 1.107-.077 1.606.029.499.116.908.26 1.237z"/>
    </defs>
    <g fill="#000" fill-rule="evenodd" transform="translate(5 6)">
        <path d="M10.764.227a.44.44 0 0 0-.451.437v6.014H3.69V.664c0-.238-.163-.437-.412-.437H.525c-.23 0-.48.189-.48.437v15.82c0 .239.25.417.48.417h2.754c.25 0 .412-.178.412-.417v-6.332h6.622v6.332c0 .239.201.417.45.417h2.755c.23 0 .441-.178.441-.417V.654a.441.441 0 0 0-.441-.427h-2.754zM19.417.227a.44.44 0 0 0-.451.437v15.82c0 .239.202.417.451.417h9.581c.25 0 .442-.178.442-.417v-2.6a.44.44 0 0 0-.442-.447h-6.477v-3.275h5.343c.23 0 .423-.149.423-.407v-2.6c0-.238-.192-.457-.423-.457h-5.343V3.721h6.477c.25 0 .442-.199.442-.437v-2.6c0-.268-.182-.457-.442-.457h-9.58zM40.807.01h.23c.164 0 .327.139.395.277l6.53 14.46a3.566 3.566 0 0 0-.5.356c-.49.416-.825 1.019-.95 1.71-.01.04-.01.1-.02.1h-.172a1.973 1.973 0 0 0-.605-.791 2.208 2.208 0 0 0-1.086-.406l-.557-1.275h-6.29l-.835 1.898c-.115.287-.375.573-.836.573h-2.545c-.345 0-.528-.306-.393-.613L40.413.287c.068-.138.231-.276.394-.276zm.106 7.315l-1.738 3.855h3.515l-1.758-3.855h-.02zM52.61.237c-.233 0-.408.189-.408.437v14.848c0-.01.146-.02.223-.03l.049-.02h.077c.678 0 1.24.328 1.462.893.087.199.107.338.116.536h.32a6.783 6.783 0 0 1 1.075-2.322c.3-.447.706-.854 1.162-1.152h-.91V3.701h2.284a4.4 4.4 0 0 1 3.612 1.846c.28-.07.571-.09.862-.06.677.07 1.239.447 1.53.993.184.337.242.744.184 1.151-.214 1.46-.359 2.978-.475 4.278a112.848 112.848 0 0 0-.223 3.077 8.423 8.423 0 0 0 2.934-6.422c0-4.585-3.68-8.327-8.182-8.327H52.61zM69.942 4.81c0 2.878 2.507 4.481 4.504 5.298 1.581.647 2.391 1.414 2.391 2.42 0 .836-.675 1.433-1.6 1.433-1.534 0-3.202-1.274-3.299-1.314-.164-.12-.607-.17-.79.14l-1.09 1.99c-.184.34-.116.429.115.668.53.548 2.209 1.842 5.227 1.842 3.385.02 5.459-2.47 5.459-4.939 0-3.256-2.884-4.72-4.687-5.467-1.832-.766-2.527-1.434-2.527-2.33 0-.647.627-1.224 1.466-1.224 1.418 0 3.115 1.314 3.318 1.433.212.17.626-.05.79-.308l1.187-1.842c.096-.17.135-.598-.135-.767C79.576 1.315 77.715.04 75.304.04c-3.578 0-5.362 2.4-5.362 4.77zM26.068 21.926c-.25 0-.442.228-.442.467v5.991h-6.621v-5.991c0-.239-.173-.467-.422-.467h-2.755c-.23 0-.47.228-.47.467V38.23c0 .238.24.487.47.487h2.755c.249 0 .422-.249.422-.487v-6.27h6.621v6.27c0 .238.182.487.442.487h2.754c.23 0 .46-.249.46-.487V22.393c0-.239-.23-.467-.46-.467h-2.754zM43.284 26.388l.107-.14 5.327 11.837c.136.31-.048.638-.395.638h-2.577c-.415 0-.599-.14-.811-.598l-.84-1.893h-6.322l-.84 1.913c-.115.29-.376.578-.84.578h-2.557c-.347 0-.53-.329-.396-.638l5.135-11.418c.116.16.251.309.396.448l.038.04c.56.478 1.226.737 1.892.737.116 0 .242-.01.357-.03l.039-.01c.878-.169 1.689-.687 2.287-1.464zm-2.384 2.57l-1.747 3.986h3.533l-1.766-3.986h-.02zM64.703 21.926c-.03 0-.048.07-.077.1-.451.556-1.008.994-1.612 1.242l-.077.03c-.182.06-.413.14-.7.18v7.41h-.01l-7.888-7.858a3.131 3.131 0 0 1-.633.467c-.384.22-.864.319-1.373.299-.115-.01-.23-.02-.345-.04l.02 14.522c0 .24.21.468.44.468h2.755c.25 0 .412-.249.412-.487v-8.963h.048l9.126 9.52c.048.05.23.129.298.129h.374c.23 0 .422-.18.422-.418V22.393c0-.238-.192-.467-.422-.467h-.758zM71.75 21.926h5.694c4.502 0 8.181 3.775 8.181 8.376 0 4.64-3.679 8.416-8.181 8.416H71.75c-.242 0-.455-.249-.455-.487V22.393c0-.239.223-.467.455-.467zm3.234 3.477v9.738h2.227c2.634 0 4.541-2.157 4.551-4.879 0-2.703-1.917-4.859-4.55-4.859h-2.228zM89.01 26.446c0 2.877 2.507 4.48 4.503 5.297 1.582.647 2.392 1.414 2.392 2.42 0 .836-.675 1.433-1.6 1.433-1.534 0-3.203-1.274-3.3-1.314-.163-.12-.607-.17-.79.14l-1.09 1.991c-.183.339-.115.428.116.667.53.548 2.208 1.842 5.227 1.842 3.414 0 5.478-2.49 5.478-4.958-.02-3.237-2.903-4.7-4.706-5.447-1.833-.767-2.527-1.434-2.527-2.33 0-.648.627-1.225 1.466-1.225 1.417 0 3.115 1.314 3.317 1.434.213.169.627-.05.791-.309l1.186-1.842c.097-.17.135-.598-.135-.767-.694-.528-2.555-1.802-4.966-1.802-3.578 0-5.362 2.4-5.362 4.77z"/>
        <path d="M40.171 16.81c.495-.431 1.122-.658 1.851-.658a3.6 3.6 0 0 1 .178.004c.31.02.573.129.806.327.233.198.417.415.572.663a1.14 1.14 0 0 1 .66-.436c.263-.059.515-.059.758.01.242.07.436.198.582.386.155.188.204.436.165.733-.087.415-.175.93-.252 1.553a23.932 23.932 0 0 0-.156 1.772c-.02.564-.01 1.039.04 1.435.048.396.164.584.339.554.126-.02.291-.218.476-.594.184-.376.368-.811.562-1.306.185-.495.36-.99.515-1.485.155-.494.252-.86.3-1.118.069-.237.176-.396.33-.505.156-.099.302-.148.438-.128.136.01.262.079.359.198.097.118.116.287.048.494-.048.139-.116.406-.213.792-.097.386-.223.812-.379 1.277-.155.475-.34.96-.543 1.474-.204.515-.447.97-.719 1.376a4.042 4.042 0 0 1-.912.99c-.34.247-.699.346-1.087.296-.631-.089-1.087-.405-1.369-.97a6.522 6.522 0 0 1-.718 1.564c-.31.485-.699.861-1.175 1.128-.456.228-.864.317-1.213.277-.63-.089-1.136-.415-1.504-.99-.37-.573-.622-1.266-.758-2.077a8.878 8.878 0 0 1-.029-2.593 8.45 8.45 0 0 1 .68-2.534c.34-.772.796-1.405 1.368-1.91zm.292 8.035c.145.386.349.574.64.574.282 0 .553-.198.806-.594.252-.395.466-.89.66-1.474.184-.584.33-1.227.427-1.93a7.934 7.934 0 0 0 .049-1.97 4.963 4.963 0 0 0-.243-1.078c-.117-.346-.301-.525-.544-.534-.35-.02-.66.158-.932.524-.271.366-.495.831-.679 1.396-.175.564-.3 1.177-.379 1.83a10.824 10.824 0 0 0-.068 1.831c.03.564.117 1.04.263 1.425z"/>
        <path d="M49.105 15.478c-.314.069-.62.237-.915.504-.305.266-.487.632-.553 1.086a7.735 7.735 0 0 0-.124 1.541c-.01.563 0 1.136.019 1.729l.057 1.68c.019.533.01.987-.01 1.372-.028.346.086.573.315.692.238.118.496.158.782.118.286-.04.553-.158.801-.336.239-.177.382-.414.43-.71a7.82 7.82 0 0 1 .162-1.008c.085-.405.19-.79.295-1.166.115-.375.23-.701.344-.988.114-.276.228-.454.333-.513.048.108.048.365.029.78-.029.415 0 .83.086 1.254.076.415.248.78.515 1.087.267.306.706.405 1.316.316.362-.06.734-.306 1.116-.75a10.4 10.4 0 0 0 1.058-1.512c.325-.553.601-1.116.84-1.69.238-.562.39-1.007.457-1.333.048-.207.029-.365-.057-.474a.393.393 0 0 0-.315-.168.712.712 0 0 0-.4.129c-.143.089-.229.237-.277.444-.086.296-.219.662-.4 1.077-.181.415-.382.81-.591 1.185a8.42 8.42 0 0 1-.64.978c-.219.277-.39.425-.515.445-.104.01-.18-.139-.219-.455a9.557 9.557 0 0 1-.057-1.126c0-.434.028-.87.086-1.304.057-.434.114-.76.18-.968.115-.296.087-.523-.085-.652-.172-.138-.39-.187-.667-.158-.277.03-.563.129-.859.296a2.114 2.114 0 0 0-.706.623c-.238.365-.467.81-.696 1.323-.229.514-.429 1.077-.6 1.71a4.485 4.485 0 0 1 .018-.86c.039-.346.086-.721.153-1.126.057-.405.134-.8.21-1.205.076-.405.133-.77.181-1.087.038-.346-.057-.583-.286-.701a1.07 1.07 0 0 0-.496-.116c-.1 0-.206.012-.315.037z"/>
        <use xlink:href="#a"/>
    </g>
</svg>
