<?xml version="1.0" encoding="utf-8"?>
<!-- Generator: Adobe Illustrator 22.1.0, SVG Export Plug-In . SVG Version: 6.00 Build 0)  -->
<svg version="1.0" id="Layer_1" xmlns="http://www.w3.org/2000/svg" xmlns:xlink="http://www.w3.org/1999/xlink" x="0px" y="0px"
	 viewBox="0 0 110 50" style="enable-background:new 0 0 110 50;" xml:space="preserve">
<style type="text/css">
	.st0{fill:#FFFFFF;}
</style>
<g transform="translate(5 6)">
	<path class="st0" d="M10.8,0.2c-0.2,0-0.4,0.2-0.5,0.4c0,0,0,0,0,0v6H3.7v-6c0-0.2-0.2-0.4-0.4-0.4H0.5C0.3,0.2,0,0.4,0,0.7v15.8
		c0,0.2,0.2,0.4,0.5,0.4h2.8c0.2,0,0.4-0.2,0.4-0.4v-6.3h6.6v6.3c0,0.2,0.2,0.4,0.4,0.4h2.8c0.2,0,0.4-0.2,0.4-0.4V0.7
		c0-0.2-0.2-0.4-0.4-0.4H10.8z M19.4,0.2c-0.2,0-0.4,0.2-0.5,0.4c0,0,0,0,0,0v15.8c0,0.2,0.2,0.4,0.5,0.4H29c0.2,0,0.4-0.2,0.4-0.4
		v-2.6c0-0.2-0.2-0.4-0.4-0.4c0,0,0,0,0,0h-6.5v-3.3h5.3c0.2,0,0.4-0.1,0.4-0.4V7.2c0-0.2-0.2-0.5-0.4-0.5h-5.3v-3H29
		c0.2,0,0.4-0.2,0.4-0.4V0.7c0-0.3-0.2-0.5-0.4-0.5L19.4,0.2L19.4,0.2z M40.8,0H41c0.2,0,0.3,0.1,0.4,0.3L48,14.7
		c-0.2,0.1-0.3,0.2-0.5,0.4c-0.5,0.4-0.8,1-1,1.7c0,0,0,0.1,0,0.1h-0.2c-0.1-0.3-0.3-0.6-0.6-0.8c-0.3-0.2-0.7-0.4-1.1-0.4l-0.6-1.3
		h-6.3l-0.8,1.9c-0.1,0.3-0.4,0.6-0.8,0.6h-2.5c-0.3,0-0.5-0.3-0.4-0.6l7.2-16C40.5,0.1,40.6,0,40.8,0L40.8,0z M40.9,7.3l-1.7,3.9
		h3.5L40.9,7.3L40.9,7.3L40.9,7.3z M52.6,0.2c-0.2,0-0.4,0.2-0.4,0.4v14.8c0,0,0.1,0,0.2,0l0,0h0.1c0.7,0,1.2,0.3,1.5,0.9
		c0.1,0.2,0.1,0.3,0.1,0.5h0.3c0.2-0.8,0.6-1.6,1.1-2.3c0.3-0.4,0.7-0.9,1.2-1.2h-0.9V3.7h2.3c1.4,0,2.8,0.7,3.6,1.8
		c0.3-0.1,0.6-0.1,0.9-0.1c0.7,0.1,1.2,0.4,1.5,1c0.2,0.3,0.2,0.7,0.2,1.2c-0.2,1.5-0.4,3-0.5,4.3c-0.1,1-0.2,2.1-0.2,3.1
		c1.9-1.6,2.9-4,2.9-6.4c0-4.6-3.7-8.3-8.2-8.3C58.3,0.2,52.6,0.2,52.6,0.2z M69.9,4.8c0,2.9,2.5,4.5,4.5,5.3
		c1.6,0.6,2.4,1.4,2.4,2.4c0,0.8-0.7,1.4-1.6,1.4c-1.5,0-3.2-1.3-3.3-1.3c-0.2-0.1-0.6-0.2-0.8,0.1l-1.1,2c-0.2,0.3-0.1,0.4,0.1,0.7
		c0.5,0.5,2.2,1.8,5.2,1.8c3.4,0,5.5-2.5,5.5-4.9c0-3.3-2.9-4.7-4.7-5.5c-1.8-0.8-2.5-1.4-2.5-2.3c0-0.6,0.6-1.2,1.5-1.2
		c1.4,0,3.1,1.3,3.3,1.4c0.2,0.2,0.6-0.1,0.8-0.3l1.2-1.8c0.1-0.2,0.1-0.6-0.1-0.8c-0.7-0.5-2.6-1.8-5-1.8C71.7,0,69.9,2.4,69.9,4.8
		z M26.1,21.9c-0.2,0-0.4,0.2-0.4,0.5v6H19v-6c0-0.2-0.2-0.5-0.4-0.5h-2.8c-0.2,0-0.5,0.2-0.5,0.5v15.8c0,0.2,0.2,0.5,0.5,0.5h2.8
		c0.2,0,0.4-0.2,0.4-0.5V32h6.6v6.3c0,0.2,0.2,0.5,0.4,0.5h2.8c0.2,0,0.5-0.2,0.5-0.5V22.4c0-0.2-0.2-0.5-0.5-0.5
		C28.8,21.9,26.1,21.9,26.1,21.9z M43.3,26.4l0.1-0.1l5.3,11.8c0.1,0.3,0,0.6-0.4,0.6h-2.6c-0.4,0-0.6-0.1-0.8-0.6l-0.8-1.9h-6.3
		l-0.8,1.9c-0.1,0.3-0.4,0.6-0.8,0.6h-2.6c-0.3,0-0.5-0.3-0.4-0.6l5.1-11.4c0.1,0.2,0.3,0.3,0.4,0.4l0,0c0.6,0.5,1.2,0.7,1.9,0.7
		c0.1,0,0.2,0,0.4,0l0,0C41.9,27.7,42.7,27.2,43.3,26.4z M40.9,29l-1.7,4h3.5L40.9,29L40.9,29z M64.7,21.9c0,0,0,0.1-0.1,0.1
		c-0.5,0.6-1,1-1.6,1.2l-0.1,0c-0.2,0.1-0.4,0.1-0.7,0.2v7.4h0L54.3,23c-0.2,0.2-0.4,0.3-0.6,0.5c-0.4,0.2-0.9,0.3-1.4,0.3
		c-0.1,0-0.2,0-0.3,0l0,14.5c0,0.2,0.2,0.5,0.4,0.5h2.8c0.2,0,0.4-0.2,0.4-0.5v-9h0l9.1,9.5c0,0,0.2,0.1,0.3,0.1h0.4
		c0.2,0,0.4-0.2,0.4-0.4V22.4c0-0.2-0.2-0.5-0.4-0.5C65.5,21.9,64.7,21.9,64.7,21.9z M71.8,21.9h5.7c4.5,0,8.2,3.8,8.2,8.4
		c0,4.6-3.7,8.4-8.2,8.4h-5.7c-0.2,0-0.5-0.2-0.5-0.5V22.4C71.3,22.2,71.5,21.9,71.8,21.9z M75,25.4v9.7h2.2c2.6,0,4.5-2.2,4.6-4.9
		c0-2.7-1.9-4.9-4.6-4.9H75z M89,26.4c0,2.9,2.5,4.5,4.5,5.3c1.6,0.6,2.4,1.4,2.4,2.4c0,0.8-0.7,1.4-1.6,1.4c-1.5,0-3.2-1.3-3.3-1.3
		c-0.2-0.1-0.6-0.2-0.8,0.1l-1.1,2c-0.2,0.3-0.1,0.4,0.1,0.7c0.5,0.5,2.2,1.8,5.2,1.8c3.4,0,5.5-2.5,5.5-5c0-3.2-2.9-4.7-4.7-5.4
		c-1.8-0.8-2.5-1.4-2.5-2.3c0-0.6,0.6-1.2,1.5-1.2c1.4,0,3.1,1.3,3.3,1.4c0.2,0.2,0.6,0,0.8-0.3l1.2-1.8c0.1-0.2,0.1-0.6-0.1-0.8
		c-0.7-0.5-2.6-1.8-5-1.8C90.8,21.7,89,24.1,89,26.4L89,26.4z"/>
	<path class="st0" d="M40.2,16.8c0.5-0.4,1.1-0.7,1.9-0.7c0.1,0,0.1,0,0.2,0c0.3,0,0.6,0.1,0.8,0.3c0.2,0.2,0.4,0.4,0.6,0.7
		c0.2-0.2,0.4-0.4,0.7-0.4c0.3-0.1,0.5-0.1,0.8,0c0.2,0.1,0.4,0.2,0.6,0.4c0.2,0.2,0.2,0.4,0.2,0.7c-0.1,0.4-0.2,0.9-0.3,1.6
		c-0.1,0.6-0.1,1.2-0.2,1.8c0,0.6,0,1,0,1.4c0,0.4,0.2,0.6,0.3,0.6c0.1,0,0.3-0.2,0.5-0.6c0.2-0.4,0.4-0.8,0.6-1.3
		c0.2-0.5,0.4-1,0.5-1.5c0.2-0.5,0.3-0.9,0.3-1.1c0.1-0.2,0.2-0.4,0.3-0.5c0.2-0.1,0.3-0.1,0.4-0.1c0.1,0,0.3,0.1,0.4,0.2
		c0.1,0.1,0.1,0.3,0,0.5c0,0.1-0.1,0.4-0.2,0.8s-0.2,0.8-0.4,1.3c-0.2,0.5-0.3,1-0.5,1.5c-0.2,0.5-0.4,1-0.7,1.4
		c-0.2,0.4-0.6,0.7-0.9,1c-0.3,0.2-0.7,0.3-1.1,0.3c-0.6-0.1-1.1-0.4-1.4-1c-0.2,0.6-0.4,1.1-0.7,1.6c-0.3,0.5-0.7,0.9-1.2,1.1
		c-0.5,0.2-0.9,0.3-1.2,0.3c-0.6-0.1-1.1-0.4-1.5-1c-0.4-0.6-0.6-1.3-0.8-2.1c-0.1-0.9-0.1-1.7,0-2.6c0.1-0.9,0.3-1.7,0.7-2.5
		C39.1,17.9,39.6,17.3,40.2,16.8L40.2,16.8z M40.5,24.8c0.1,0.4,0.3,0.6,0.6,0.6c0.3,0,0.6-0.2,0.8-0.6c0.3-0.4,0.5-0.9,0.7-1.5
		c0.2-0.6,0.3-1.2,0.4-1.9c0.1-0.7,0.1-1.3,0-2c0-0.4-0.1-0.7-0.2-1.1c-0.1-0.3-0.3-0.5-0.5-0.5c-0.3,0-0.7,0.2-0.9,0.5
		c-0.3,0.4-0.5,0.8-0.7,1.4c-0.2,0.6-0.3,1.2-0.4,1.8c-0.1,0.6-0.1,1.2-0.1,1.8C40.2,24,40.3,24.5,40.5,24.8z"/>
	<path class="st0" d="M49.1,15.5c-0.3,0.1-0.6,0.2-0.9,0.5c-0.3,0.3-0.5,0.6-0.6,1.1c-0.1,0.5-0.1,1-0.1,1.5c0,0.6,0,1.1,0,1.7
		l0.1,1.7c0,0.5,0,1,0,1.4c0,0.3,0.1,0.6,0.3,0.7c0.2,0.1,0.5,0.2,0.8,0.1c0.3,0,0.6-0.2,0.8-0.3c0.2-0.2,0.4-0.4,0.4-0.7
		c0-0.3,0.1-0.7,0.2-1c0.1-0.4,0.2-0.8,0.3-1.2c0.1-0.4,0.2-0.7,0.3-1c0.1-0.3,0.2-0.5,0.3-0.5c0,0.1,0,0.4,0,0.8
		c0,0.4,0,0.8,0.1,1.3c0.1,0.4,0.2,0.8,0.5,1.1c0.3,0.3,0.7,0.4,1.3,0.3c0.4-0.1,0.7-0.3,1.1-0.8c0.4-0.5,0.8-1,1.1-1.5
		c0.3-0.6,0.6-1.1,0.8-1.7c0.2-0.6,0.4-1,0.5-1.3c0-0.2,0-0.4-0.1-0.5c-0.1-0.1-0.2-0.2-0.3-0.2c-0.1,0-0.3,0-0.4,0.1
		c-0.1,0.1-0.2,0.2-0.3,0.4c-0.1,0.3-0.2,0.7-0.4,1.1c-0.2,0.4-0.4,0.8-0.6,1.2c-0.2,0.3-0.4,0.7-0.6,1c-0.2,0.3-0.4,0.4-0.5,0.4
		c-0.1,0-0.2-0.1-0.2-0.5c0-0.4-0.1-0.7-0.1-1.1c0-0.4,0-0.9,0.1-1.3c0.1-0.4,0.1-0.8,0.2-1c0.1-0.3,0.1-0.5-0.1-0.7
		c-0.2-0.1-0.4-0.2-0.7-0.2c-0.3,0-0.6,0.1-0.9,0.3c-0.3,0.2-0.5,0.4-0.7,0.6c-0.2,0.4-0.5,0.8-0.7,1.3c-0.2,0.5-0.4,1.1-0.6,1.7
		c0-0.3,0-0.6,0-0.9c0-0.3,0.1-0.7,0.2-1.1c0.1-0.4,0.1-0.8,0.2-1.2s0.1-0.8,0.2-1.1c0-0.3-0.1-0.6-0.3-0.7
		c-0.2-0.1-0.3-0.1-0.5-0.1C49.3,15.4,49.2,15.5,49.1,15.5z"/>
	<g>
		<path id="a" class="st0" d="M62.3,6.5c0.3,0,0.5,0.1,0.7,0.3c0.2,0.2,0.3,0.5,0.3,0.8c0,0.3-0.1,0.8-0.2,1.6
			c-0.1,0.8-0.2,1.7-0.3,2.7c-0.1,1-0.2,2.1-0.3,3.1c-0.1,1-0.1,2-0.1,2.9c0,0.9,0,1.6,0.1,2.2s0.2,0.8,0.4,0.8
			c0.2,0,0.4-0.2,0.6-0.7c0.2-0.4,0.4-0.9,0.6-1.4c0.2-0.5,0.4-1,0.5-1.5c0.1-0.5,0.2-0.9,0.3-1.1c0.1-0.2,0.2-0.4,0.3-0.5
			c0.1-0.1,0.3-0.1,0.4-0.1s0.2,0.1,0.3,0.2c0.1,0.1,0.1,0.3,0.1,0.5c-0.1,0.4-0.2,0.9-0.3,1.3c-0.2,0.7-0.4,1.4-0.7,2.1
			c-0.3,0.7-0.7,1.4-1.2,2c-0.5,0.6-1.1,1-1.7,1.1c-0.5,0.1-0.9-0.1-1.1-0.4s-0.5-0.9-0.6-1.5c-0.2,0.4-0.4,0.9-0.7,1.2
			c-0.3,0.4-0.6,0.7-1.1,0.9c-0.5,0.2-0.9,0.3-1.2,0.2c-0.6,0-1.1-0.4-1.5-0.8c-0.4-0.5-0.6-1.1-0.7-1.8c-0.1-0.8-0.1-1.5,0-2.3
			c0.1-0.8,0.3-1.5,0.7-2.2c0.3-0.7,0.8-1.2,1.3-1.7c0.6-0.4,1.2-0.6,2-0.6c0.4,0,0.8,0.2,1.1,0.5c0.1-1.3,0.2-2.5,0.3-3.6
			c0.1-1.1,0.2-2,0.2-2.5c0-0.5,0.1-0.9,0.4-1.2C61.6,6.7,61.9,6.5,62.3,6.5C62.2,6.5,62.3,6.5,62.3,6.5z M57.6,21.4
			c0.1,0.3,0.4,0.5,0.6,0.5c0.3,0,0.5-0.2,0.8-0.5c0.3-0.3,0.5-0.8,0.6-1.3c0.2-0.6,0.3-1.1,0.4-1.7c0.1-0.6,0.1-1.1,0.1-1.7
			c0-0.3-0.1-0.6-0.2-0.9c-0.1-0.3-0.3-0.4-0.5-0.5c-0.3,0-0.6,0.1-0.9,0.5c-0.3,0.3-0.5,0.7-0.7,1.2c-0.2,0.5-0.3,1-0.4,1.6
			c-0.1,0.6-0.1,1.1-0.1,1.6S57.4,21,57.6,21.4L57.6,21.4z"/>
	</g>
</g>
</svg>
