<?xml version="1.0" encoding="utf-8"?>
<!-- Generator: Adobe Illustrator 22.1.0, SVG Export Plug-In . SVG Version: 6.00 Build 0)  -->
<svg version="1.0" id="Layer_1" xmlns="http://www.w3.org/2000/svg" xmlns:xlink="http://www.w3.org/1999/xlink" x="0px" y="0px"
	 viewBox="0 0 110 50" style="enable-background:new 0 0 110 50;" xml:space="preserve">
<style type="text/css">
	.st0{fill:#FFFFFF;}
	.st1{fill:#D91D1F;}
</style>
<path class="st0" d="M20.7,28.3c-0.2-0.1,0.3-2,0.3-2s0.9,0.2,1.4,1C22.4,27.3,21,28.5,20.7,28.3 M20.6,25.6c-1.6,0-2.9,1.3-2.9,2.9
	s1.3,2.9,2.9,2.9s2.9-1.3,2.9-2.9S22.2,25.6,20.6,25.6"/>
<path class="st0" d="M17.6,27.6c0.2-0.6,0.6-1.2,1.1-1.6c-0.1-0.1-0.3-0.1-0.5-0.1c-0.5,0-1,0.4-1,1C17.3,27.1,17.4,27.4,17.6,27.6
	 M20.6,31.6c-0.3,0-0.7-0.1-1-0.2c0.1,0.5,0.5,0.9,1,0.9s0.9-0.4,1-0.9C21.3,31.6,21,31.6,20.6,31.6 M23.6,27.6
	c0.4-0.4,0.4-1,0.1-1.4c-0.3-0.3-0.8-0.4-1.2-0.2C23.1,26.4,23.5,26.9,23.6,27.6"/>
<path class="st0" d="M23.9,26.6l-0.4-0.5l0.6-0.2l0.2,0.2L23.9,26.6z M17.7,26.1l-0.4,0.5L17,26.1l0.2-0.2L17.7,26.1z M20.3,32.3
	h0.6l-0.2,0.6h-0.3L20.3,32.3z M23.8,29c-0.1,0.9-0.7,1.7-1.4,2.2c1.4,1.4,3.6,3,5.5,4.3c1.1-1.1,1.9-2.5,2.4-4
	C28.1,30.6,25.7,29.5,23.8,29 M32.9,33c-0.3-0.2-0.6-0.3-0.9-0.5c-0.5,1.6-1.4,3-2.5,4.2c0.3,0.2,0.6,0.4,0.9,0.6
	c2.9,1.7,4.8,1.5,5.5,0.3C36.8,36.1,36.3,34.9,32.9,33 M18.9,31.1c-0.8-0.5-1.3-1.4-1.4-2.3c-2.2,0.7-5.1,1.9-7.3,3
	c0.5,1.5,1.3,2.9,2.4,4.1C14.7,34.6,17.2,32.7,18.9,31.1 M9.2,32.4c-0.3,0.2-0.6,0.3-0.8,0.4c-2.9,1.7-3.7,3.4-3,4.6
	c0.7,1.2,2.6,1.3,5.5-0.3c0.3-0.1,0.5-0.3,0.8-0.5C10.5,35.4,9.7,33.9,9.2,32.4"/>
<g transform="translate(17.796 11.371)">
	<path class="st0" d="M2.8,5c0.9,0,1.7,0.1,2.6,0.3c0-0.3,0-0.6,0-0.9c0-3.4-1.1-4.9-2.5-4.9C1.6-0.6,0.5,1,0.5,4.4
		c0,0.3,0,0.5,0,0.9C1.3,5.1,2,5,2.8,5"/>
</g>
<path class="st0" d="M20.6,16.9c-0.8,0-1.6,0.1-2.3,0.2c0,0.3,0,0.7,0.1,1c0.8,0,1.8,0.1,2.6,0.3c-0.8,0.2-1.8,0.4-2.5,0.6
	c0.2,2.2,0.5,4.6,0.9,6.4c0.4-0.2,0.8-0.3,1.3-0.3s1,0.1,1.4,0.3c0.6-2.4,1-5.9,1.1-8.5C22.3,17,21.5,16.9,20.6,16.9 M28.2,35.8
	c0,0,1.4-1,2.1-2.2c-0.7,1.5-1.3,2.8-1.3,2.8L28.2,35.8z"/>
<g transform="translate(92.678 18.978)">
	<path class="st1" d="M0.2-0.5v4h3.5v9.9h4.9V3.5h3.5v-4H0.2z"/>
</g>
<path class="st1" d="M35.2,22.4h3.5v9.9h4.9v-9.9h3.5v-4h-12L35.2,22.4z M61.2,32.3h5V18.5h-5C61.2,18.5,61.2,32.3,61.2,32.3z
	 M87.2,26.9H91v-2.8h-3.8v-1.7h4.4v-4h-8.9v13.8H92v-3.7h-4.8V26.9z M76.5,23.1l0.1,2.6l-4.3-7.3h-4.9v13.8h4.8v-5L72,25l4.3,7.2
	h4.9V18.5h-4.8L76.5,23.1z M54.4,25h-1.6v-3h1.5c1,0,1.5,0.5,1.5,1.5C55.7,24.5,55.3,25,54.4,25 M58.2,26.9c1-0.9,1.5-2,1.5-3.4
	c0-1.8-0.5-3-1.5-3.8s-2.4-1.2-4.3-1.2h-5.8v13.8h4.6v-2.2l-0.2-2.2l0.5,0.8l2.1,3.6H60l-2.8-4.8C57.7,27.3,58,27.1,58.2,26.9"/>
<path class="st0" d="M50.7,34.9H52l0.4,2.4l0.7-2.4h1.2l0.7,2.4l0.4-2.4h1.2l-0.9,4.2h-1.3l-0.7-2.7L53,39.1h-1.3L50.7,34.9z
	 M57.1,34.9h3.5v0.9h-2.2v0.7h2v0.9h-2v0.8h2.3v1h-3.6V34.9z M62.7,38.2h0.7c0.2,0,0.4,0,0.5-0.1s0.1-0.2,0.1-0.3s0-0.2-0.1-0.3
	s-0.3-0.1-0.5-0.1h-0.7C62.7,37.4,62.7,38.2,62.7,38.2z M62.7,36.6h0.6c0.2,0,0.3,0,0.4-0.1c0.1-0.1,0.1-0.2,0.1-0.3s0-0.2-0.1-0.3
	s-0.2-0.1-0.4-0.1h-0.6V36.6z M61.3,34.9h2.4c0.4,0,0.7,0.1,0.9,0.3s0.3,0.5,0.3,0.8c0,0.2-0.1,0.5-0.2,0.6s-0.3,0.2-0.5,0.3
	c0.3,0.1,0.5,0.2,0.7,0.4c0.1,0.2,0.2,0.4,0.2,0.7c0,0.2-0.1,0.4-0.2,0.6c-0.1,0.2-0.2,0.3-0.4,0.4c-0.1,0.1-0.3,0.1-0.5,0.1
	c-0.3,0-0.5,0.1-0.6,0.1h-2.3L61.3,34.9L61.3,34.9z M67.9,34.9h3.2v0.9h-1.9v0.7h1.6v0.9h-1.6v1.7h-1.3
	C67.9,39.1,67.9,34.9,67.9,34.9z M73.6,37.5L73.2,36l-0.5,1.5H73.6L73.6,37.5z M73.9,38.4h-1.5l-0.2,0.7h-1.3l1.6-4.2h1.4l1.6,4.2
	h-1.4L73.9,38.4L73.9,38.4z M78.6,37.4l1.1,0.3c-0.1,0.3-0.2,0.6-0.4,0.8c-0.2,0.2-0.4,0.4-0.6,0.5s-0.6,0.2-0.9,0.2
	c-0.5,0-0.8-0.1-1.1-0.2c-0.3-0.1-0.5-0.4-0.8-0.7c-0.2-0.3-0.3-0.8-0.3-1.3c0-0.7,0.2-1.2,0.6-1.6c0.4-0.4,0.9-0.6,1.6-0.6
	c0.5,0,1,0.1,1.3,0.3s0.5,0.5,0.7,1l-1.2,0.3c0-0.1-0.1-0.2-0.1-0.3c-0.1-0.1-0.2-0.2-0.3-0.2c-0.1-0.1-0.2-0.1-0.4-0.1
	c-0.3,0-0.5,0.1-0.7,0.4c-0.1,0.2-0.2,0.5-0.2,0.8c0,0.5,0.1,0.8,0.2,1s0.3,0.3,0.6,0.3c0.2,0,0.4-0.1,0.6-0.2
	C78.5,37.9,78.5,37.7,78.6,37.4 M83.1,34.9h1.3v2.5c0,0.3,0,0.5-0.1,0.7s-0.2,0.4-0.4,0.6c-0.1,0.2-0.3,0.3-0.5,0.3
	c-0.3,0.1-0.6,0.1-0.9,0.1c-0.2,0-0.4,0-0.7,0c-0.2,0-0.4-0.1-0.6-0.2c-0.2-0.1-0.3-0.2-0.4-0.4c-0.1-0.1-0.2-0.3-0.3-0.5
	c-0.1-0.3-0.1-0.5-0.1-0.7v-2.5h1.3v2.6c0,0.2,0.1,0.4,0.2,0.5s0.3,0.2,0.5,0.2s0.4-0.1,0.5-0.2c0.1-0.1,0.2-0.3,0.2-0.5V34.9
	L83.1,34.9z M85.3,34.9h1.3v3.2h2v1h-3.3V34.9z M88.7,34.9h4v1h-1.3v3.2H90v-3.2h-1.3V34.9z M93.2,34.9h3.5v0.9h-2.2v0.7h2v0.9h-2
	v0.8h2.3v1h-3.6C93.2,39.2,93.2,34.9,93.2,34.9z M97.2,34.9h4v1h-1.3v3.2h-1.3v-3.2h-1.3L97.2,34.9L97.2,34.9z"/>
</svg>
