<?xml version="1.0" encoding="utf-8"?>
<!-- Generator: Adobe Illustrator 22.1.0, SVG Export Plug-In . SVG Version: 6.00 Build 0)  -->
<svg version="1.0" id="Layer_2" xmlns="http://www.w3.org/2000/svg" xmlns:xlink="http://www.w3.org/1999/xlink" x="0px" y="0px"
	 viewBox="0 0 500 500" style="enable-background:new 0 0 500 500;" xml:space="preserve">
<style type="text/css">
	.st0{fill:#222222;}
	.st1{fill:#4A4A4A;}
	.st2{fill:#3A3A3A;}
	.st3{fill:#AFAFAF;}
	.st4{fill:#D1D1D1;}
	.st5{fill:#BFBFBF;}
</style>
<g>
	<path class="st0" d="M325,228.8l15-9v-18L445,139v18l15-9v125.8l-15,9v18l-105,62.9v-18l-15,9V228.8z"/>
	<path class="st1" d="M325,354.7l15-9v18L325,354.7z M310,345.7l15,9V228.9l-15-9V345.7z"/>
	<path class="st2" d="M310,219.9l15-9l15,9l-15,9L310,219.9z"/>
	<path class="st1" d="M325,210.9v-18l15,9v18L325,210.9z"/>
	<path class="st2" d="M325,192.9l15,9L445,139l-15-9L325,192.9z M445,157l15-9l-15-9V157z"/>
	<g>
		<path class="st3" d="M378.4,224.4l45-27v53.9l-30,18v18l30-18v18l-45,27v-53.9l30-18v-18l-30,18V224.4z"/>
		<path class="st4" d="M400.9,228.8v9l7.5,4.5v-18L400.9,228.8z"/>
		<path class="st5" d="M370.9,219.9l7.5,4.5l45-27l-7.5-4.5L370.9,219.9z"/>
		<path class="st4" d="M370.9,237.8l7.5,4.5v-18l-7.5-4.5V237.8z"/>
		<path class="st5" d="M400.9,237.8l7.5,4.5l-30,18l-7.5-4.5L400.9,237.8z"/>
		<path class="st4" d="M370.9,255.8v53.9l7.5,4.5v-53.9L370.9,255.8z"/>
		<path class="st5" d="M393.4,278.3l22.5-13.5l7.5,4.5l-30,18V278.3z"/>
	</g>
</g>
</svg>
