<?xml version="1.0" encoding="utf-8"?>
<!-- Generator: Adobe Illustrator 22.1.0, SVG Export Plug-In . SVG Version: 6.00 Build 0)  -->
<svg version="1.0" id="Layer_1" xmlns="http://www.w3.org/2000/svg" xmlns:xlink="http://www.w3.org/1999/xlink" x="0px" y="0px"
	 viewBox="0 0 500 500" style="enable-background:new 0 0 500 500;" xml:space="preserve">
<style type="text/css">
	.st0{fill:#D1D1D1;}
	.st1{fill:#AFAFAF;}
	.st2{fill:#FDD301;}
	.st3{fill:#A48900;}
	.st4{fill:#3A3A3A;}
	.st5{fill:#222222;}
	.st6{fill:#4A4A4A;}
</style>
<g>
	<path class="st0" d="M208.3,390v45.5l18.9,11.4v-45.5L208.3,390z"/>
	<path class="st1" d="M227.2,401.3l18.9-11.4v45.5l-18.9,11.4V401.3z"/>
	<path class="st2" d="M208.3,390V276.3l18.9,11.4v113.7L208.3,390z"/>
	<path class="st3" d="M227.2,401.3l18.9-11.4V276.3l-18.9,11.4V401.3z"/>
	<g>
		<path class="st4" d="M168.5,265.3l79.6-47.7l26.5,15.9L195,281.2L168.5,265.3z"/>
		<path class="st5" d="M195,281.2V313l79.6-47.7v-31.8L195,281.2z"/>
		<path class="st6" d="M195,313l-26.5-15.9v-31.8l26.5,15.9V313z"/>
	</g>
</g>
</svg>
