<?xml version="1.0" encoding="utf-8"?>
<!-- Generator: Adobe Illustrator 22.1.0, SVG Export Plug-In . SVG Version: 6.00 Build 0)  -->
<svg version="1.0" id="Layer_1" xmlns="http://www.w3.org/2000/svg" xmlns:xlink="http://www.w3.org/1999/xlink" x="0px" y="0px"
	 viewBox="0 0 500 500" style="enable-background:new 0 0 500 500;" xml:space="preserve">
<style type="text/css">
	.st0{fill:#222222;}
	.st1{fill:#4A4A4A;}
	.st2{fill:#D1D1D1;}
	.st3{fill:#AFAFAF;}
	.st4{fill:#BFBFBF;}
	.st5{fill:#FDD301;}
	.st6{fill:#A48900;}
	.st7{fill:#FDE35F;}
	.st8{fill:#3A3A3A;}
	.st9{fill:#7B7B7B;}
	.st10{fill:#FDE672;}
	.st11{fill:#D8B501;}
	.st12{fill:#F4E28B;}
</style>
<g>
	<g>
		<path class="st0" d="M354.2,360.8l72.1-43.2v-24l14.4-8.6v-34l17.2-10.4V116.1l-103.8,62.2V360.8z"/>
		<path class="st1" d="M354.2,178.3l-103.9-62.5v125l17.5,10.1v34.2l14.4,8.6v24l72.1,43.2V178.3H354.2z"/>
		<path class="st2" d="M240.5,105.4l114,68.5v20.6l-114-68.5V105.4z"/>
		<path class="st3" d="M468.5,105.4l-114,68.5v20.6l114-68.5V105.4z"/>
		<path class="st4" d="M240.5,105.4l114,68.5l114-68.5l-114-68.5L240.5,105.4z"/>
		<g>
			<path class="st2" d="M308.7,101l45.6,27.5v8.3l-45.6-27.5V101z"/>
			<path class="st3" d="M399.9,101l-45.7,27.5v8.3l45.6-27.5V101H399.9z"/>
			<path class="st4" d="M308.7,101l45.6,27.5l45.6-27.5l-45.6-27.5L308.7,101z"/>
		</g>
		<g>
			<path class="st5" d="M339,82.9l15.4,9.2v18.5l-15.4-9.3V82.9z"/>
			<path class="st6" d="M369.7,82.9l-15.4,9.2v18.5l15.4-9.2V82.9z"/>
			<path class="st7" d="M339,82.9l15.4,9.2l15.4-9.2l-15.6-9.3L339,82.9z"/>
			<path class="st1" d="M339,64.4l15.3,9.2v18.5L339,82.9V64.4z"/>
			<path class="st0" d="M369.7,64.4l-15.4,9.2v18.5l15.4-9.2V64.4z"/>
			<path class="st8" d="M339,64.4l15.3,9.2l15.4-9.2l-15.4-9.2L339,64.4z"/>
			<path class="st5" d="M339,46.1l15.4,9.2v18.3L339,64.4V46.1z"/>
			<path class="st6" d="M369.7,46.1l-15.4,9.2v18.3l15.4-9.2V46.1z"/>
			<path class="st7" d="M339,46.1l15.4,9.2l15.4-9.2l-15.6-9.3L339,46.1z"/>
			<g>
				<path class="st1" d="M339,27.6l15.4,9.2v18.5L339,46.1V27.6z"/>
				<path class="st0" d="M369.7,27.6l-15.4,9.2v18.5l15.4-9.2V27.6z"/>
				<path class="st8" d="M339,27.6l15.4,9.2l15.4-9.2l-15.6-9.2L339,27.6z"/>
			</g>
			<g>
				<path class="st5" d="M339,9.2l15.4,9.2v18.5L339,27.6V9.2z"/>
				<path class="st6" d="M369.7,9.2l-15.4,9.3v18.5l15.4-9.2V9.2z"/>
				<path class="st7" d="M339,9.2l15.4,9.2l15.4-9.2L354.2,0L339,9.2z"/>
			</g>
			<g>
				<path class="st1" d="M323.5,18.5l15.4,9.2v18.5l-15.4-9.2V18.5z"/>
				<path class="st0" d="M354.2,18.5L339,27.6v18.5l15.4-9.2V18.5H354.2z"/>
				<path class="st8" d="M323.5,18.5l15.4,9.2l15.4-9.2L339,9.2L323.5,18.5z"/>
			</g>
			<g>
				<path class="st5" d="M308.3,27.6l15.4,9.2v18.5l-15.4-9.2V27.6z"/>
				<path class="st6" d="M339,27.6l-15.4,9.2v18.5l15.4-9.2V27.6z"/>
				<path class="st7" d="M308.3,27.6l15.4,9.2l15.4-9.2l-15.4-9.2L308.3,27.6z"/>
			</g>
		</g>
		<g>
			<path class="st5" d="M31.6,390.6l136.8,82.1V500L31.6,417.9C31.6,417.9,31.6,390.6,31.6,390.6z"/>
			<path class="st6" d="M168.4,472.6l136.8-82.1v27.4L168.4,500V472.6z"/>
			<path class="st7" d="M168.4,472.6L31.6,390.6l136.8-82.1l136.8,82.1L168.4,472.6z"/>
			<path class="st2" d="M54.4,383.6l114,68.5v11.4L54.4,395V383.6z"/>
			<path class="st3" d="M168.4,452.1l114-68.5V395l-114,68.5C168.4,463.5,168.4,452.1,168.4,452.1z"/>
			<path class="st9" d="M168.4,452.1l-114-68.5l114-68.5l114,68.5L168.4,452.1z"/>
			<path class="st1" d="M77.2,370l91.2,54.7v18.2l-91.2-54.7V370z"/>
			<path class="st0" d="M168.4,424.7l91.2-54.7v18.2l-91.2,54.7V424.7z"/>
			<path class="st8" d="M168.4,424.7L77.2,370l91.2-54.7l91.2,54.7L168.4,424.7z"/>
			<g>
				<path class="st10" d="M149.7,356.2l68.5,41.1v6.8l-68.5-41.1V356.2z"/>
				<path class="st11" d="M218.1,397.4l68.5-41.1v6.8l-68.5,41.1V397.4z"/>
				<path class="st12" d="M218.1,397.4l-68.5-41.1l68.5-41l68.5,41.1L218.1,397.4z"/>
			</g>
			<g>
				<path class="st10" d="M31.6,365.4l68.5,41.1v6.8l-68.5-41.1V365.4z"/>
				<path class="st11" d="M99.9,406.5l68.5-41.1v6.8l-68.5,41.1C99.9,413.3,99.9,406.5,99.9,406.5z"/>
				<path class="st12" d="M99.9,406.5l-68.5-41.1l68.5-41.1l68.5,41.1L99.9,406.5z"/>
			</g>
			<g>
				<path class="st2" d="M54.4,340.8l114,68.5v11.4l-114-68.5V340.8z"/>
				<path class="st3" d="M168.4,409.2l114-68.5v11.4l-114,68.5C168.4,420.6,168.4,409.2,168.4,409.2z"/>
				<path class="st4" d="M168.4,409.2l-114-68.5l114-68.5l114,68.5L168.4,409.2z"/>
			</g>
			<g>
				<path class="st5" d="M31.6,303.9L168.4,386v27.4L31.6,331.2C31.6,331.2,31.6,303.9,31.6,303.9z"/>
				<path class="st6" d="M168.4,386l136.8-82.1v27.4l-136.8,82.1V386z"/>
				<path class="st7" d="M168.4,386L31.6,303.9l136.8-82.1l136.8,82.1L168.4,386z"/>
				<g>
					<path class="st5" d="M54.4,290.1l114,68.5V370l-114-68.5V290.1z"/>
					<path class="st6" d="M168.4,358.6l114-68.5v11.4l-114,68.5C168.4,370,168.4,358.6,168.4,358.6z"/>
					<path class="st7" d="M168.4,358.6l-114-68.5l114-68.5l114,68.5L168.4,358.6z"/>
				</g>
			</g>
		</g>
	</g>
</g>
</svg>
