<?xml version="1.0" encoding="utf-8"?>
<!-- Generator: Adobe Illustrator 22.1.0, SVG Export Plug-In . SVG Version: 6.00 Build 0)  -->
<svg version="1.0" id="Layer_1" xmlns="http://www.w3.org/2000/svg" xmlns:xlink="http://www.w3.org/1999/xlink" x="0px" y="0px"
	 viewBox="0 0 500 500" style="enable-background:new 0 0 500 500;" xml:space="preserve">
<style type="text/css">
	.st0{fill:#222222;}
	.st1{fill:#4A4A4A;}
	.st2{fill:#D1D1D1;}
	.st3{fill:#AFAFAF;}
	.st4{fill:#BFBFBF;}
	.st5{fill:#FDD301;}
	.st6{fill:#A48900;}
	.st7{fill:#FDE35F;}
	.st8{fill:#3A3A3A;}
</style>
<path class="st0" d="M230.1,435.1l42-25.2v-14l8.4-5v-19.8l10-6.1v-72.5l-60.4,36.2V435.1z"/>
<path class="st1" d="M230.1,328.8l-60.5-36.4v72.8l10.2,5.9V391l8.4,5v14l42,25.2L230.1,328.8L230.1,328.8z"/>
<path class="st2" d="M163.9,286.3l66.4,39.9v12l-66.4-39.9V286.3z"/>
<path class="st3" d="M296.7,286.3l-66.4,39.9v12l66.4-39.9V286.3z"/>
<path class="st4" d="M163.9,286.3l66.4,39.9l66.4-39.9l-66.4-39.9L163.9,286.3z"/>
<g>
	<path class="st2" d="M203.6,283.7l26.5,16v4.9l-26.5-16V283.7z"/>
	<path class="st3" d="M256.7,283.7l-26.6,16v4.9l26.5-16L256.7,283.7L256.7,283.7z"/>
	<path class="st4" d="M203.6,283.7l26.5,16l26.5-16l-26.5-16L203.6,283.7z"/>
</g>
<g>
	<path class="st5" d="M221.2,273.2l9,5.3v10.8l-9-5.4V273.2z"/>
	<path class="st6" d="M239.1,273.2l-9,5.3v10.8l9-5.3V273.2z"/>
	<path class="st7" d="M221.2,273.2l9,5.3l9-5.3l-9.1-5.4L221.2,273.2z"/>
	<path class="st1" d="M221.2,262.4l8.9,5.3v10.8l-8.9-5.3V262.4z"/>
	<path class="st0" d="M239.1,262.4l-9,5.3v10.8l9-5.3V262.4z"/>
	<path class="st8" d="M221.2,262.4l8.9,5.3l9-5.3l-9-5.3L221.2,262.4z"/>
	<path class="st5" d="M221.2,251.7l9,5.3v10.7l-9-5.3V251.7z"/>
	<path class="st6" d="M239.1,251.7l-9,5.3v10.7l9-5.3V251.7z"/>
	<path class="st7" d="M221.2,251.7l9,5.3l9-5.3l-9.1-5.4L221.2,251.7z"/>
	<g>
		<path class="st1" d="M221.2,241l9,5.3v10.8l-9-5.3V241z"/>
		<path class="st0" d="M239.1,241l-9,5.3v10.8l9-5.3V241z"/>
		<path class="st8" d="M221.2,241l9,5.3l9-5.3l-9.1-5.3L221.2,241z"/>
	</g>
	<g>
		<path class="st5" d="M221.2,230.2l9,5.3v10.8l-9-5.3V230.2z"/>
		<path class="st6" d="M239.1,230.2l-9,5.4v10.8l9-5.3V230.2z"/>
		<path class="st7" d="M221.2,230.2l9,5.3l9-5.3l-9.1-5.3L221.2,230.2z"/>
	</g>
	<g>
		<path class="st1" d="M212.2,235.6l9,5.3v10.8l-9-5.3V235.6z"/>
		<path class="st0" d="M230.1,235.6l-8.9,5.3v10.8l9-5.3L230.1,235.6L230.1,235.6z"/>
		<path class="st8" d="M212.2,235.6l9,5.3l9-5.3l-9-5.4L212.2,235.6z"/>
	</g>
	<g>
		<path class="st5" d="M203.3,241l9,5.3v10.8l-9-5.3V241z"/>
		<path class="st6" d="M221.2,241l-9,5.3v10.8l9-5.3V241z"/>
		<path class="st7" d="M203.3,241l9,5.3l9-5.3l-9-5.3L203.3,241z"/>
	</g>
</g>
</svg>
