<?xml version="1.0" encoding="utf-8"?>
<!-- Generator: Adobe Illustrator 22.1.0, SVG Export Plug-In . SVG Version: 6.00 Build 0)  -->
<svg version="1.0" id="Layer_2" xmlns="http://www.w3.org/2000/svg" xmlns:xlink="http://www.w3.org/1999/xlink" x="0px" y="0px"
	 viewBox="0 0 500 500" style="enable-background:new 0 0 500 500;" xml:space="preserve">
<style type="text/css">
	.st0{fill:#222222;}
	.st1{fill:#4A4A4A;}
	.st2{fill:#3A3A3A;}
	.st3{fill:#AFAFAF;}
	.st4{fill:#D1D1D1;}
	.st5{fill:#BFBFBF;}
</style>
<g>
	<g>
		<path class="st0" d="M325,228.8l15-9v-18L445,139v18l15-9v125.8l-15,9v18l-105,62.9v-18l-15,9V228.8z"/>
		<path class="st1" d="M325,354.7l15-9v18L325,354.7z M310,345.7l15,9V228.9l-15-9V345.7z"/>
		<path class="st2" d="M310,219.9l15-9l15,9l-15,9L310,219.9z"/>
		<path class="st1" d="M325,210.9v-18l15,9v18L325,210.9z"/>
		<path class="st2" d="M325,192.9l15,9L445,139l-15-9L325,192.9z M445,157l15-9l-15-9V157z"/>
		<g>
			<path class="st3" d="M378.7,217.9l44.9-26.9v89.6l-44.9,26.9V217.9z"/>
			<path class="st4" d="M401.1,222.4v44.8l7.5,4.5v-53.8L401.1,222.4z"/>
			<path class="st5" d="M393.6,271.7l7.5-4.5l7.5,4.5l-15,9V271.7z"/>
			<path class="st0" d="M393.6,271.7l7.5-4.5v-44.8l-7.5,4.5V271.7z"/>
			<path class="st4" d="M378.7,217.9l-7.5-4.5v89.6l7.5,4.5V217.9z"/>
			<path class="st5" d="M371.2,213.4l44.9-26.9l7.5,4.5l-44.9,26.9L371.2,213.4z"/>
		</g>
	</g>
</g>
</svg>
