<?xml version="1.0" encoding="utf-8"?>
<!-- Generator: Adobe Illustrator 22.1.0, SVG Export Plug-In . SVG Version: 6.00 Build 0)  -->
<svg version="1.0" id="Layer_1" xmlns="http://www.w3.org/2000/svg" xmlns:xlink="http://www.w3.org/1999/xlink" x="0px" y="0px"
	 viewBox="0 0 500 500" style="enable-background:new 0 0 500 500;" xml:space="preserve">
<style type="text/css">
	.st0{fill:#FDD301;}
	.st1{fill:#A48900;}
	.st2{fill:#FDE35F;}
</style>
<path class="st0" d="M40.3,148.6l135.4,81.1c15.8,85.5,14.3,176,0,270.3L40.3,418.9V148.6z"/>
<path class="st1" d="M401.3,94.6L175.6,229.7V500l225.6-135.1L401.3,94.6z"/>
<g>
	<path class="st0" d="M198.2,163.5l22.6,13.5v27l-22.6-13.5V163.5z"/>
	<path class="st1" d="M243.3,163.5L220.8,177v27l22.6-13.5v-27H243.3z"/>
	<path class="st2" d="M198.2,163.5l22.6,13.5l22.6-13.5L220.8,150L198.2,163.5z"/>
	<g>
		<path class="st0" d="M311,95.9l22.6,13.5v27L311,123V95.9z"/>
		<path class="st1" d="M356.1,95.9l-22.6,13.5v27l22.6-13.5V95.9z"/>
		<path class="st2" d="M311,95.9l22.6,13.5l22.6-13.5l-22.6-13.5L311,95.9z"/>
	</g>
	<g>
		<path class="st0" d="M220.8,123l22.6,13.5v27L220.8,150V123z"/>
		<path class="st1" d="M333.6,82.4l-90.3,54.1v27l90.3-54.1V82.4z"/>
		<path class="st2" d="M220.8,123l22.6,13.5l90.3-54.1L311,68.9L220.8,123z"/>
	</g>
</g>
</svg>
