<?xml version="1.0" encoding="utf-8"?>
<!-- Generator: Adobe Illustrator 22.1.0, SVG Export Plug-In . SVG Version: 6.00 Build 0)  -->
<svg version="1.0" id="Layer_2" xmlns="http://www.w3.org/2000/svg" xmlns:xlink="http://www.w3.org/1999/xlink" x="0px" y="0px"
	 viewBox="0 0 500 500" style="enable-background:new 0 0 500 500;" xml:space="preserve">
<style type="text/css">
	.st0{fill:#222222;}
	.st1{fill:#4A4A4A;}
	.st2{fill:#3A3A3A;}
	.st3{fill:#AFAFAF;}
	.st4{fill:#BFBFBF;}
	.st5{fill:#D1D1D1;}
</style>
<g>
	<path class="st0" d="M325,228.8l15-9v-18L445,139v18l15-9v125.8l-15,9v18l-105,62.9v-18l-15,9V228.8z"/>
	<path class="st1" d="M325,354.7l15-9v18L325,354.7z M310,345.7l15,9V228.9l-15-9V345.7z"/>
	<path class="st2" d="M310,219.9l15-9l15,9l-15,9L310,219.9z"/>
	<path class="st1" d="M325,210.9v-18l15,9v18L325,210.9z"/>
	<path class="st2" d="M325,192.9l15,9L445,139l-15-9L325,192.9z M445,157l15-9l-15-9V157z"/>
	<g>
		<path class="st3" d="M376.3,224.4l15-9v35.9l15-9v-35.9l15-9v89.9l-15,9v-35.9l-30,18V224.4z"/>
		<path class="st4" d="M398.8,201.9l7.5,4.5l15-9l-7.5-4.5L398.8,201.9z M368.8,219.9l7.5,4.5l15-9l-7.5-4.5L368.8,219.9z
			 M391.3,242.3l7.5-4.5l7.5,4.5l-15,9V242.3z"/>
		<path class="st5" d="M398.8,237.8v-35.9l7.5,4.5v35.9L398.8,237.8z M368.8,219.9l7.5,4.5v53.9l-7.5-4.5V219.9z M398.8,264.8v27
			l7.5,4.5v-35.9L398.8,264.8z"/>
	</g>
</g>
</svg>
