<?xml version="1.0" encoding="utf-8"?>
<!-- Generator: Adobe Illustrator 22.1.0, SVG Export Plug-In . SVG Version: 6.00 Build 0)  -->
<svg version="1.0" id="Layer_1" xmlns="http://www.w3.org/2000/svg" xmlns:xlink="http://www.w3.org/1999/xlink" x="0px" y="0px"
	 viewBox="0 0 500 500" style="enable-background:new 0 0 500 500;" xml:space="preserve">
<style type="text/css">
	.st0{fill:#4A4A4A;}
	.st1{fill:#222222;}
	.st2{fill:#3A3A3A;}
	.st3{fill:#FDD301;}
	.st4{fill:#A48900;}
	.st5{fill:#FDE35F;}
	.st6{fill:#444444;}
	.st7{fill:#333333;}
	.st8{fill:#D1D1D1;}
	.st9{fill:#AFAFAF;}
	.st10{fill:#BFBFBF;}
</style>
<g>
	<g>
		<path class="st0" d="M155.6,275.9l33.1,19.8v52.9l-33.1-19.9V275.9z"/>
		<path class="st1" d="M232.8,269.3l-44.1,26.4v52.9l44.1-26.4V269.3z"/>
		<path class="st2" d="M155.6,275.9l33.1,19.8l44.1-26.4l-33.1-19.8L155.6,275.9z"/>
		<path class="st3" d="M188.7,295.7l13.2,7.7v52.9l-13.2-7.7V295.7z"/>
		<path class="st4" d="M246.1,277l-44.1,26.4v52.9l44.1-26.4V277z"/>
		<path class="st5" d="M188.7,295.7l13.2,7.7l44.1-26.4l-13.2-7.7L188.7,295.7z"/>
		<path class="st0" d="M201.9,303.6l44.1,26.4V383l-44.1-26.4V303.6z"/>
		<path class="st1" d="M290.1,303.6L246,330.1V383l44.1-26.4V303.6z"/>
		<path class="st2" d="M201.9,303.6l44.1,26.4l44.1-26.4l-44.1-26.4L201.9,303.6z"/>
		<g>
			<path class="st0" d="M252.6,332.5l33.1,19.8V392l-33.1-19.8V332.5z"/>
			<path class="st1" d="M318.8,332.5l-33.1,19.8V392l33.1-19.8V332.5z"/>
			<path class="st2" d="M252.6,332.5l33.1,19.8l33.1-19.8l-33.1-19.8L252.6,332.5z"/>
		</g>
		<g>
			<path class="st6" d="M168.2,239.1l4.4,2.6v21.2l-4.4-2.6V239.1z"/>
			<path class="st1" d="M190.2,231.2l-17.7,10.6v21.2l17.7-10.6V231.2z"/>
			<path class="st7" d="M168.2,239.1l4.4,2.6l17.7-10.6l-4.4-2.6L168.2,239.1z"/>
		</g>
		<g>
			<path class="st6" d="M276.9,346.2l11,6.6v52.9l-11-6.6V346.2z"/>
			<path class="st1" d="M332.1,326.4l-44.1,26.4v52.9l44.1-26.4V326.4z"/>
			<path class="st7" d="M276.9,346.2l11,6.6l44.1-26.4l-11-6.6L276.9,346.2z"/>
			<g>
				<path class="st1" d="M293.4,359.4l53-31.8v63.5l-53,31.8V359.4z"/>
				<path class="st2" d="M306.7,383.2v15.9l26.5-15.9l-13.2-7.9L306.7,383.2z"/>
				<path class="st0" d="M319.9,375.3v-15.9l13.2-7.9v31.8L319.9,375.3z"/>
				<path class="st4" d="M306.7,383.3v-15.9l13.2-7.9v15.9L306.7,383.3z"/>
				<path class="st0" d="M280.2,351.5l13.2,7.9v63.5l-13.2-7.9V351.5z"/>
				<path class="st2" d="M280.2,351.5l53-31.7l13.2,7.9l-53,31.8L280.2,351.5z"/>
			</g>
		</g>
		<g>
			<path class="st0" d="M155.6,340.7l13.2,7.9v47.6l-13.2-7.9V340.7z"/>
			<path class="st2" d="M155.6,340.7l13.2,7.9c18.7-8.2,36.3-18.9,53-31.8l-13.2-7.9L155.6,340.7z"/>
			<path class="st1" d="M221.8,316.9l-53,31.8v47.6l53-31.8V316.9z"/>
		</g>
		<g>
			<path class="st0" d="M230.6,302.4v-13.2l-33.1-19.8v13.2l-11-6.6v-13.2l-11-6.6v-13.2l66.2,39.7V309L230.6,302.4z"/>
			<path class="st1" d="M241.6,309v-26.4l11-6.6v26.4L241.6,309z"/>
			<path class="st2" d="M252.6,275.9l-66.2-39.7l-11,6.6l66.2,39.7L252.6,275.9z"/>
			<path class="st1" d="M197.5,282.5v-13.2l11,6.6L197.5,282.5z"/>
		</g>
		<g>
			<path class="st8" d="M237.2,270l26.5,15.9v15.9l-26.5-15.9V270z"/>
			<path class="st9" d="M276.9,277.9l-13.2,7.9v15.9l13.2-8V277.9z"/>
			<path class="st10" d="M237.2,270l26.5,15.9l13.2-7.9l-26.5-15.9L237.2,270z"/>
		</g>
	</g>
</g>
</svg>
