<?xml version="1.0" encoding="utf-8"?>
<!-- Generator: Adobe Illustrator 22.1.0, SVG Export Plug-In . SVG Version: 6.00 Build 0)  -->
<svg version="1.0" id="Layer_1" xmlns="http://www.w3.org/2000/svg" xmlns:xlink="http://www.w3.org/1999/xlink" x="0px" y="0px"
	 viewBox="0 0 500 500" style="enable-background:new 0 0 500 500;" xml:space="preserve">
<style type="text/css">
	.st0{fill:#D1D1D1;}
	.st1{fill:#AFAFAF;}
	.st2{fill:#BFBFBF;}
	.st3{fill:#FDD301;}
	.st4{fill:#FDE35F;}
	.st5{fill:#3A3A3A;}
	.st6{fill:#A48900;}
	.st7{fill:#E7E7E7;}
	.st8{fill:#C8C8C8;}
	.st9{fill:#A6A6A6;}
</style>
<g>
	<g>
		<path class="st0" d="M110,342.8l46.2,27.7v12.8L110,355.5V342.8z"/>
		<path class="st1" d="M268.5,303l-112.3,67.5v12.8l112.3-67.4V303z"/>
		<path class="st2" d="M110,342.8l46.2,27.7L268.5,303l-46.2-27.7L110,342.8z"/>
		<path class="st3" d="M110,319.3l46.2,27.7v23.4L110,342.8V319.3z"/>
		<path class="st4" d="M110,319.3l46.2,27.7l112.3-67.3L222.3,252L110,319.3z"/>
		<path class="st3" d="M176.1,256.3l46.2,27.7v23.4l-46.2-27.7V256.3z"/>
		<path class="st5" d="M176.1,256.3l46.2,27.7l46.2-27.7l-46.2-27.7L176.1,256.3z"/>
		<path class="st3" d="M183.3,254.9l28.5,17v5.8l-28.5-16.9V254.9z"/>
		<path class="st6" d="M215.3,269.8l-3.5,2.1v5.8l3.5-2.1V269.8z"/>
		<path class="st4" d="M183.3,254.9l28.5,17l3.5-2.1l-28.5-17L183.3,254.9z"/>
		<path class="st3" d="M161.9,322.9l14.2,8.5v3.5l-14.2-8.5V322.9z"/>
		<path class="st4" d="M161.9,322.9l14.2,8.5l46.2-27.7l-14.2-8.5L161.9,322.9z"/>
		<path class="st3" d="M204.5,277.5l14.2,8.5v19.9l-14.2-8.5V277.5z"/>
		<path class="st4" d="M204.5,277.5l14.2,8.5l3.5-2.1l-14.2-8.5L204.5,277.5z"/>
		<g>
			<path class="st3" d="M129.9,303.8l14.2,8.5v3.5l-14.2-8.5V303.8z"/>
			<path class="st6" d="M190.3,284.7l-46.2,27.7v3.5l46.2-27.7V284.7z"/>
			<path class="st4" d="M129.9,303.8l14.2,8.5l46.2-27.7l-14.2-8.5L129.9,303.8z"/>
		</g>
		<g>
			<path class="st0" d="M143.9,303.3l28.5,17v3.5l-28.5-17C143.9,306.8,143.9,303.3,143.9,303.3z"/>
			<path class="st1" d="M175.9,318.2l-3.5,2.1v3.5l3.5-2.1V318.2z"/>
			<path class="st2" d="M143.9,303.3l28.5,17l3.5-2.1l-28.5-17L143.9,303.3z"/>
		</g>
		<g>
			<path class="st0" d="M154,297.8l28.5,17v3.5L154,301.3V297.8z"/>
			<path class="st1" d="M186,312.7l-3.5,2.1v3.5l3.5-2.1V312.7z"/>
			<path class="st2" d="M154,297.8l28.5,17l3.5-2.1l-28.5-17L154,297.8z"/>
		</g>
		<g>
			<path class="st0" d="M164,291.9l28.5,17v3.5l-28.5-17V291.9z"/>
			<path class="st1" d="M196,306.9l-3.5,2.1v3.5l3.5-2.1V306.9z"/>
			<path class="st2" d="M164,291.9l28.5,17l3.5-2.1l-28.5-17L164,291.9z"/>
		</g>
		<g>
			<path class="st0" d="M174.1,286.4l28.5,17v3.5l-28.5-17V286.4z"/>
			<path class="st1" d="M206.1,301.3l-3.5,2.1v3.5l3.5-2.1V301.3z"/>
			<path class="st2" d="M174.1,286.4l28.5,17l3.5-2.1l-28.5-17L174.1,286.4z"/>
		</g>
		<g>
			<path class="st3" d="M172.5,258.3l14.2,8.5v19.9l-14.2-8.5V258.3z"/>
			<path class="st6" d="M190.3,264.8l-3.5,2.1v19.9l3.5-2.1V264.8z"/>
			<path class="st4" d="M172.5,258.4l14.2,8.5l3.5-2.1l-14.1-8.5L172.5,258.4z"/>
		</g>
		<g>
			<path class="st0" d="M177.9,272.3l28.5,17v3.5l-28.5-17V272.3z"/>
			<path class="st1" d="M209.9,287.3l-3.5,2.1v3.5l3.5-2.1V287.3z"/>
			<path class="st2" d="M177.9,272.3l28.5,17l3.5-2.1l-28.5-17L177.9,272.3z"/>
		</g>
		<path class="st6" d="M156.2,370.5v-23.4l19.9-12.1v-3.5l42.7-25.5v-19.9l49.7-29.8v46.9L156.2,370.5z"/>
		<g>
			<path class="st0" d="M191.5,391l46.2,27.7v12.8l-46.2-27.7V391z"/>
			<path class="st1" d="M350,351.3l-112.3,67.4v12.8L350,364V351.3z"/>
			<path class="st2" d="M191.5,391l46.2,27.7L350,351.3l-46.2-27.7L191.5,391z"/>
			<path class="st3" d="M191.5,367.5l46.2,27.7v23.5L191.5,391V367.5z"/>
			<path class="st4" d="M191.5,367.5l46.2,27.7L350,327.9l-46.2-27.7L191.5,367.5z"/>
			<path class="st3" d="M257.6,304.5l46.2,27.7v23.4l-46.2-27.7V304.5L257.6,304.5z"/>
			<path class="st5" d="M257.6,304.5l46.2,27.7l46.2-27.7l-46.2-27.7L257.6,304.5z"/>
			<path class="st3" d="M264.9,303.1l28.5,17v5.8l-28.5-17V303.1z"/>
			<path class="st6" d="M296.8,318l-3.5,2.1v5.8l3.5-2.1V318z"/>
			<path class="st4" d="M264.9,303.1l28.5,17l3.5-2.1l-28.5-17L264.9,303.1z"/>
			<path class="st3" d="M243.4,371.2l14.2,8.5v3.5l-14.2-8.5V371.2z"/>
			<path class="st4" d="M243.4,371.2l14.2,8.5l46.2-27.7l-14.2-8.5L243.4,371.2z"/>
			<path class="st3" d="M286,325.8l14.2,8.5v19.9l-14.2-8.5V325.8z"/>
			<path class="st4" d="M286,325.8l14.2,8.5l3.5-2.1l-14.2-8.5L286,325.8z"/>
			<path class="st3" d="M211.4,352l14.2,8.5v3.5l-14.2-8.5V352z"/>
			<path class="st6" d="M271.8,332.9l-46.2,27.7v3.5l46.2-27.7V332.9z"/>
			<path class="st4" d="M211.4,352l14.2,8.5l46.2-27.7l-14.2-8.5L211.4,352z"/>
			<g>
				<path class="st0" d="M225.4,351.5l28.5,17v3.5l-28.5-17V351.5z"/>
				<path class="st1" d="M257.4,366.4l-3.5,2.1v3.5l3.5-2.1V366.4z"/>
				<path class="st2" d="M225.4,351.5l28.5,17l3.5-2.1l-28.5-17L225.4,351.5z"/>
			</g>
			<g>
				<path class="st0" d="M235.5,346l28.5,17v3.5l-28.5-17V346z"/>
				<path class="st1" d="M267.5,360.9l-3.5,2.1v3.5l3.5-2.1V360.9z"/>
				<path class="st2" d="M235.5,346l28.5,17l3.5-2.1l-28.5-17L235.5,346z"/>
			</g>
			<g>
				<path class="st0" d="M245.5,340.1l28.5,17v3.5l-28.5-17V340.1z"/>
				<path class="st1" d="M277.5,355.1l-3.5,2.1v3.5l3.5-2.1V355.1z"/>
				<path class="st2" d="M245.5,340.1l28.5,17l3.5-2.1l-28.5-17L245.5,340.1z"/>
			</g>
			<g>
				<path class="st0" d="M255.6,334.6l28.5,17v3.5l-28.5-17L255.6,334.6L255.6,334.6z"/>
				<path class="st1" d="M287.6,349.5l-3.5,2.1v3.5l3.5-2.1V349.5z"/>
				<path class="st2" d="M255.6,334.6l28.5,17l3.5-2.1l-28.5-17L255.6,334.6z"/>
			</g>
			<g>
				<path class="st3" d="M254.1,306.6l14.2,8.5V335l-14.2-8.5V306.6z"/>
				<path class="st6" d="M271.8,313l-3.5,2.1V335l3.5-2.1V313z"/>
				<path class="st4" d="M254.1,306.6l14.2,8.5l3.5-2.1l-14.2-8.5L254.1,306.6z"/>
			</g>
			<g>
				<path class="st0" d="M259.3,320.6l28.5,17v3.5l-28.5-17V320.6z"/>
				<path class="st1" d="M291.3,335.5l-3.5,2.1v3.5l3.5-2.1V335.5z"/>
				<path class="st2" d="M259.3,320.6l28.5,17l3.5-2.1l-28.5-17L259.3,320.6z"/>
			</g>
			<path class="st6" d="M237.7,418.8v-23.4l19.9-12.1v-3.5l42.7-25.5v-19.9l49.7-29.8v46.8L237.7,418.8z"/>
			<g>
				<path class="st7" d="M322.9,338.3l1.8-1.1v-2.1l12.5-7.5v2.1l1.8-1.1v14.9l-1.8,1.1v2.1l-12.5,7.4v-2.1l-1.8,1.1L322.9,338.3
					L322.9,338.3z"/>
				<path class="st5" d="M335.7,332.2l-9.6,5.8v11.6l9.6-5.8V332.2z"/>
				<path class="st8" d="M322.9,353.1l1.8-1.1v2.1L322.9,353.1z M321.1,352.1l1.8,1.1v-14.9l-1.8-1.1V352.1z"/>
				<path class="st9" d="M321.1,337.2l1.8-1.1l1.8,1.1l-1.8,1.1L321.1,337.2z"/>
				<path class="st8" d="M322.9,336.1V334l1.8,1.1v2.1L322.9,336.1z"/>
				<path class="st9" d="M322.9,334l1.8,1.1l12.5-7.5l-1.8-1.1L322.9,334z"/>
				<path class="st9" d="M337.1,329.8l1.8-1.1l-1.8-1.1V329.8z"/>
			</g>
		</g>
	</g>
</g>
</svg>
