<?xml version="1.0" encoding="utf-8"?>
<!-- Generator: Adobe Illustrator 22.1.0, SVG Export Plug-In . SVG Version: 6.00 Build 0)  -->
<svg version="1.0" id="Layer_1" xmlns="http://www.w3.org/2000/svg" xmlns:xlink="http://www.w3.org/1999/xlink" x="0px" y="0px"
	 viewBox="0 0 60 60" style="enable-background:new 0 0 60 60;" xml:space="preserve">
<g>
	<g>
		<path d="M39.5,23.2c-0.1-0.4-0.3-0.8-0.5-1.2c-1.8-4.4-5.9-6-9.1-6c-4.4,0-9.2,2.9-9.8,9v1.2c0,0.1,0,0.5,0,0.7
			c0.4,2.9,2.6,5.9,4.3,8.8c1.8,3.1,3.7,6.1,5.6,9.2c1.2-2,2.3-4,3.4-5.9c0.3-0.6,0.7-1.1,1-1.7c0.2-0.4,0.6-0.7,0.8-1.1
			c1.8-3.3,4.8-6.7,4.8-10v-1.4C39.9,24.5,39.5,23.3,39.5,23.2L39.5,23.2z M29.9,29.4c-1.3,0-2.7-0.6-3.4-2.4
			c-0.1-0.3-0.1-0.9-0.1-0.9v-0.8c0-2.3,1.9-3.3,3.6-3.3c2.1,0,3.6,1.6,3.6,3.7S32,29.4,29.9,29.4L29.9,29.4z"/>
	</g>
</g>
</svg>
