<?xml version="1.0" encoding="utf-8"?>
<!-- Generator: Adobe Illustrator 22.1.0, SVG Export Plug-In . SVG Version: 6.00 Build 0)  -->
<svg version="1.1" id="Layer_1" xmlns="http://www.w3.org/2000/svg" xmlns:xlink="http://www.w3.org/1999/xlink" x="0px" y="0px"
	 viewBox="0 0 500 280" style="enable-background:new 0 0 500 280;" xml:space="preserve">
<style type="text/css">
	.st0{enable-background:new    ;}
</style>
<g id="MCOM2019">
	<g id="Group" transform="translate(-4.000000, 0.000000)">
		<g class="st0">
			<path d="M19.1,235.6c8.7,0,14.5,4.1,14.5,11.3s-6,11.4-12,14.9c-5.9,3.5-11.7,6.4-11.8,12l24.1-0.1v5H4v-2.5
				c0-10.3,7.6-14.3,14.2-18.1c5.3-3.1,10.1-5.7,10.1-11.2c0-4.2-3.6-6.4-9.7-6.4c-4.3,0-8.8,1.4-13.2,4.5v-5.2
				C9.7,236.8,14.4,235.6,19.1,235.6z"/>
			<path d="M58.9,235.6c12.9,0,18.8,9.4,18.8,21.9s-5.9,21.9-18.8,21.9c-12.8,0-18.7-9.4-18.7-21.9S46.1,235.6,58.9,235.6z
				 M58.9,240.6c-9.2,0-13.4,6.4-13.4,17s4.2,17,13.4,17c9.3,0,13.5-6.4,13.5-17C72.4,246.9,68.2,240.6,58.9,240.6z"/>
			<path d="M98.3,236.3v37.4h7.9v5h-22v-5h8.9v-31.9l-8.9,3.4v-5l10.3-3.9L98.3,236.3L98.3,236.3z"/>
			<path d="M125.2,235.6c12.3,0,17.9,8.2,17.9,21.3c0,15.6-8.4,22.6-19.3,22.6c-3.6,0-7.2-0.9-10.3-2.4v-5c3.2,1.7,6.8,2.4,10.2,2.4
				c7.1,0,13.5-4.1,14.1-15.8c-4.3,2.9-8.4,4.1-13.3,4.1c-7,0-14.5-4.4-14.5-13.3C110,240.4,117,235.6,125.2,235.6z M115.3,249.2
				c0,6.7,5,8.7,10.5,8.7c4.2,0,8.5-1.4,11.9-4.4c-0.8-8.9-5.2-13-12.2-13C119.9,240.4,115.3,242.8,115.3,249.2z"/>
		</g>
		<path id="Combined-Shape" d="M109.4,2.9H143L72.6,95.7l-33-42.8V112H9.8V2.9h26.5L72.6,51L109.4,2.9z M477.5,2.9H504V112h-29.8
			V52.9l-33,39.3l-33-39.3V112h-29.8V2.9h26.5L441.2,51L477.5,2.9z M203.5,87.8c8.1,0,15.6-3,22.3-7.8l14.6,20.9
			c-10.9,8.4-22.9,13.6-36.9,13.6c-35.4,0-62-25.4-62-56.9s26.6-57,62-57c14,0,26,5.1,36.9,13.7L225.8,35c-6.7-5-14.2-7.6-22.3-7.6
			c-18.7,0-32.9,13.2-32.9,30.2C170.7,74.4,184.8,87.8,203.5,87.8z M304.7,0.5c31.5,0,58.6,25.6,58.6,57s-27.1,56.9-58.6,56.9
			S245.9,89,245.9,57.5S273.2,0.5,304.7,0.5z M304.7,86.7c16.5,0,29.9-13.2,29.9-29.8S321.2,27,304.7,27s-29.9,13.4-29.9,30
			S288.2,86.7,304.7,86.7z"/>
		<g>
			<path d="M5.6,197.9c3.9-11.3,17.3-36.7,29.1-55.5c-3.1-1.7-4.5-4.4-5.1-6.8c-0.4-1.7,0.4-2.5,2.9-2.5c7.7,0,13.5-0.8,19.9-1.9
				c4.7-0.8,9.1-1.3,12.3-1.3c6.4,0,10.1,2.7,12,7.2c0.7,1.5,0,2.9-2.8,2.9c-6.8-0.1-13.3,1.3-26.1,3.6c-4.4,7.3-9.6,16.5-15.9,28
				c2.5-0.4,4.4-0.5,6.4-0.7c7.6-0.5,11.2,2.3,12.4,6.5c0.5,1.9,0.3,3.1-2.7,3.3c-6.1,0.5-15.6,1.7-22.9,3.6
				c-4.9,9.6-8.8,17.9-13.5,27.9c-0.8,1.7-2.7,2.1-4.5,0.9c-1.9-1.2-3.1-4-3.1-7.2C4,204.1,4.5,201.3,5.6,197.9z"/>
			<path d="M125,159.5c3.9,0,6.3,1.5,8.8,4.9c3.7,4.4,7.5,5.3,6.3,16.7c3.5,0,3.7,1.2,2.7,2.5c-0.9,1.1-2,1.6-3.5,1.9
				c-2.8,11.1-11.3,24.1-21.5,27.6c-1.2,0.4-2.8,0.8-4.8,0.8c-4.4,0-9.3-1.9-13.1-6.8c-2.5-3.3-3.7-7.3-3.7-11.6
				c0-3.7,0.7-6.8,2.1-10.8c-1.5,0.4-3.2,0.7-4.7,0.8c-2.8,11.1-11.3,24.1-21.5,27.6c-1.2,0.4-2.8,0.8-4.8,0.8
				c-4.4,0-9.3-1.9-13.1-6.8c-2.5-3.3-3.7-7.3-3.7-11.6c0-5.9,2.1-12.4,5.6-18.7c6-10.7,14.4-17.3,23.2-17.3c3.9,0,6.3,1.5,8.8,4.9
				c3.7,4.4,7.1,5.5,6.4,15.3c4.1-1.3,8.4-5.3,11.5-9.3C111.6,164.9,116.9,159.5,125,159.5z M64.3,207.1c3.5,0,8.8-4.9,13.7-14
				c2-3.5,3.6-6.8,4.4-9.6c-4.3-2.7-7.1-6.1-8.1-10.8c-2.8,2.7-5.3,6-7.6,10c-3.5,6.4-5.6,13.9-5.6,18.8
				C61.1,205.5,62.3,207.1,64.3,207.1z M86.4,170.5c0-2-1.1-2.8-2-2.8c-0.8,0-2,1.1-2,3.2c0,2.4,0.7,5.9,2.1,7.6
				C85.9,175.4,86.4,172.2,86.4,170.5z M109.9,207.1c3.5,0,8.8-4.9,13.7-14c2-3.5,3.6-6.8,4.4-9.6c-4.3-2.7-7.1-6.1-8.1-10.8
				c-2.8,2.7-5.3,6-7.6,10c-3.5,6.4-5.6,13.9-5.6,18.8C106.7,205.5,107.9,207.1,109.9,207.1z M132,170.5c0-2-1.1-2.8-2-2.8
				c-0.8,0-2,1.1-2,3.2c0,2.4,0.7,5.9,2.1,7.6C131.4,175.4,132,172.2,132,170.5z"/>
			<path d="M180.8,197.5c-1.6,3.5-2.4,6.4-2.4,8.5c0,2,0.5,2.9,1.7,2.9c4.7,0,11.2-8.8,15.7-17.6c1.3-2.5,3.1-2.4,4.3,0
				c0.7,1.2,1.2,4.9-0.5,8.7c-3.6,7.2-11.9,14.1-19.6,14.1c-6.5,0-10.9-2.3-12-8.1c-4.1,4.3-9.3,7.7-15.2,7.7c-7.7,0-12-5.7-12-13.6
				c0-5.6,2.4-12.9,7.1-19.7c10.4-15.1,21.5-21.3,28.4-21.3c4.5,0,7.5,1.9,8.5,5.3c6.7-12.5,15.3-27.6,19.7-33.9
				c2.4-3.3,4.3-3.1,5.6,0.1c0.7,1.6,1.2,3.3,1.2,5.2c0,3.6-1.7,8.8-5.2,15.1C198.4,165.7,187,184.3,180.8,197.5z M178.4,167.3
				c-3.7-0.1-12.5,8-19.6,19.2c-4,6.3-6.1,12.9-6.1,17.3c0,2.4,0.5,4.1,2,4.1c4.3,0,10.7-7.5,16.7-19.1
				C178.5,175.1,180.9,167.4,178.4,167.3z"/>
			<path d="M198,187.9c2.7-6.5,7.7-17.1,13.1-26.7c-4.1-0.5-6.5-2-7.6-3.6c-1.9-2.8-0.5-4.1,2.5-4c3.1,0.1,6.7,0,9.6-0.3
				c4.1-7.2,6.9-11.6,10-16c2-2.9,3.6-2.8,5.1-0.3c0.9,1.6,1.5,3.9,1.5,5.5c0,2.4-0.5,5.5-2.1,9.2c4.1,0.5,6.4,2.7,7.3,4.3
				c1.3,2.4,0.4,4-2.8,3.6c-2.4-0.3-5.9,0-8.8,0.4c-5.1,8.7-12.7,21.9-17.3,32c-1.6,3.6-2.4,7.1-2.4,10c0,4,1.3,6.8,3.6,6.8
				c5.2,0,12.1-8.4,16.8-18.4c1.5-3.2,4.5-3.5,5.5,0.1c0.7,2.8,0.1,4.8-1.3,7.9c-1.9,4-10.8,15.5-22,15.5c-7.1,0-13.2-5.7-13.2-14.9
				C195.3,196.1,196.1,192.3,198,187.9z"/>
			<path d="M244.9,193.8c-3.2,0-6.4-0.9-9.5-2.9c-0.8,2.7-1.2,5.5-1.2,7.9c0,5.9,2.4,10,6.4,10c10.1,0,19.1-9.9,24.5-18.1
				c1.5-2.1,3.2-2.4,4.3,0.3c0.4,1.2,0.5,5.1-1.9,8.7c-5.6,8.1-16.3,14.4-26.7,14.5c-12.4,0.1-19.2-8-19.2-18.7
				c0-4.8,1.3-10,4.1-15.3c6.9-14.1,17.7-21.2,25.5-21.2c1.9,0,3.3,0.3,4.7,1.1c3.7,2.1,6.4,4.3,8.3,6.9c0.8,1.2,1.3,3.2,1.3,4.9
				C265.6,179.8,256.6,193.8,244.9,193.8z M237.3,185.8c1.1,0.7,2,0.9,2.9,0.9c3.2,0,7.5-4,10.1-7.6c3.9-5.2,6.7-11.5,5.2-12.7
				C253.6,164.9,243.7,173,237.3,185.8z"/>
			<path d="M305.9,167.7c2,4.4-0.1,9.3-2.7,14.5c-1.1,2-1.9,4-2.4,5.5c-0.9,2.5-2.1,2.8-4.8,1.5c-2.4-1.5-4.7-4-4.7-7.6
				c0-1.7,0.7-4.4,3.1-9.9c1.3-2.7,2.3-5.1,1.7-5.6c-1.6-1.3-10.3,7.3-15.6,18.1c-2.7,5.5-4,10.9-4,14.9c0,5.9,2.4,9.5,6,9.6
				c10,0.1,19.2-10.1,24.5-18.1c1.2-2,3.2-2.5,4-0.3c0.7,1.7,0.7,5.2-1.7,8.9c-5.1,8-15.9,14.5-26.3,14.7
				c-12.3,0.1-19.1-7.7-19.1-18.4c0-4.8,1.3-10.1,4.1-15.5c6.8-13.7,17.3-20.9,25.1-20.9C298.2,159.1,303.8,163.7,305.9,167.7z"/>
			<path d="M339.4,214.1c-8.8,0-12.8-4.4-12.8-11.3c0-8.4,6.5-20,11.6-27.9c2.5-4.4,4.5-7.6,3.6-7.6c-1.2,0-13.9,8.4-20.9,19.9
				c-4.5,7.5-9.3,16.7-12.5,24.7c-1.1,2.4-3.1,2.8-4.7,0.8c-2.1-2.5-4-5.7-0.7-14.5c5.3-14,31.7-58.7,42.5-72.5
				c2.1-2.7,4.1-2.1,5.3,0.5c0.7,1.5,1.1,3.2,1.1,5.1c0,3.6-1.6,8.5-4.8,14.1c-2.7,4.4-10.9,16.8-12.3,18.7c4-2.9,8.7-4.5,11.2-4.5
				c3.9,0,7.7,4.1,7.7,9.3c0,1.9-0.4,3.7-1.5,5.6c-7.3,13.1-10.7,18.7-12.1,21.9c-1.2,2.9-1.7,5.7-1.7,7.9c0,2.8,0.7,4.5,2.5,4.5
				c4.7,0,11.7-9.5,15.7-17.6c0.9-2,3.1-2.3,4.1,0c0.7,1.6,1.6,4.7-0.4,8.7C356.6,207.4,347.9,214.1,339.4,214.1z"/>
		</g>
	</g>
</g>
</svg>
