<?xml version="1.0" encoding="utf-8"?>
<!-- Generator: Adobe Illustrator 22.1.0, SVG Export Plug-In . SVG Version: 6.00 Build 0)  -->
<svg version="1.0" id="Layer_1" xmlns="http://www.w3.org/2000/svg" xmlns:xlink="http://www.w3.org/1999/xlink" x="0px" y="0px"
	 viewBox="0 0 360 530" style="enable-background:new 0 0 360 530;" xml:space="preserve">
<style type="text/css">
	.st0{fill:#D1D1D1;}
	.st1{fill:#AFAFAF;}
	.st2{fill:#BFBFBF;}
	.st3{fill:#7B7B7B;}
	.st4{fill:#555555;}
	.st5{fill:#3A3A3A;}
	.st6{fill:#929292;}
	.st7{fill:#717171;}
	.st8{fill:#9D9D9D;}
	.st9{fill:#4A4A4A;}
	.st10{fill:#383838;}
	.st11{fill:#222222;}
	.st12{fill:#A48900;}
	.st13{fill:#FDE35F;}
</style>
<g>
	<g>
		<path class="st0" d="M109.8,437.4l125.1,75v15l-125.1-75V437.4z"/>
		<path class="st1" d="M360,437.4l-125.1,75v15l125.1-75L360,437.4z"/>
		<path class="st2" d="M109.8,437.4l125.1,75l125.1-75l-125.1-75L109.8,437.4z"/>
		<g>
			<path class="st3" d="M203.6,118.8l31.3,18.7v318l-31.3-18.7L203.6,118.8z"/>
			<path class="st4" d="M266.2,118.8l-31.3,18.7v318l31.3-18.7V118.8z"/>
			<path class="st5" d="M203.6,118.8l31.3,18.7l31.3-18.7L234.9,100L203.6,118.8z"/>
		</g>
		<g>
			<path class="st6" d="M153.6,81.3l15.6,9.4v56.2l-15.6-9.4L153.6,81.3z"/>
			<path class="st7" d="M247.4,43.8l-78.2,46.9v56.2l78.2-46.9V43.8z"/>
			<path class="st8" d="M153.6,81.3l15.6,9.4l78.2-46.9l-15.6-9.4L153.6,81.3z"/>
			<g>
				<path class="st6" d="M169.2,131.3l46.9,28.1V175l-46.9-28.1V131.3z"/>
				<path class="st1" d="M294.3,112.5l-78.2,46.9V175l78.2-46.9V112.5z"/>
				<path class="st8" d="M169.2,131.3l46.9,28.1l78.2-46.9l-46.9-28.1L169.2,131.3z"/>
			</g>
		</g>
		<g>
			<path class="st9" d="M122,105.8l46.9,28.1v56.2L122,162V105.8z"/>
			<path class="st10" d="M340.8,30.8l-172,103.1v56.2L340.8,87L340.8,30.8z"/>
			<path class="st9" d="M122,105.8l46.9,28.1l172-103.1L293.9,2.7L122,105.8z"/>
			<g>
				<path class="st9" d="M70.4,108.9l70.4,42.2v84.3l-70.4-42.2L70.4,108.9z"/>
				<path class="st11" d="M187.6,122.9l-46.9,28.1v84.3l46.9-28.1L187.6,122.9z"/>
				<path class="st5" d="M70.4,108.9l70.4,42.2l46.9-28.1l-70.4-42.2L70.4,108.9z"/>
				<g>
					<path class="st0" d="M46.9,122.9l70.4,42.2v84.3l-70.4-42.2V122.9z"/>
					<path class="st12" d="M140.7,151.1l-23.5,14.1v84.3l23.5-14.1V151.1z"/>
					<path class="st13" d="M46.9,122.9l70.4,42.2l23.5-14.1l-70.4-42.2L46.9,122.9z"/>
				</g>
				<g>
					<path class="st9" d="M0,151.1l70.4,42.2v84.3L0,235.4V151.1z"/>
					<path class="st11" d="M117.3,165.1l-46.9,28.1v84.3l46.9-28.1V165.1z"/>
					<path class="st5" d="M0,151.1l70.4,42.2l46.9-28.1l-70.4-42.2L0,151.1z"/>
				</g>
			</g>
		</g>
		<g>
			<path class="st6" d="M215.6,118.7l15.6,9.4v56.2l-15.6-9.4V118.7z"/>
			<path class="st7" d="M309.4,81.2l-78.2,46.9v56.2l78.2-46.9V81.2z"/>
			<path class="st8" d="M215.6,118.7l15.6,9.4l78.2-46.9l-15.6-9.4L215.6,118.7z"/>
		</g>
	</g>
</g>
</svg>
