<?xml version="1.0" encoding="utf-8"?>
<!-- Generator: Adobe Illustrator 22.1.0, SVG Export Plug-In . SVG Version: 6.00 Build 0)  -->
<svg version="1.0" id="Layer_2" xmlns="http://www.w3.org/2000/svg" xmlns:xlink="http://www.w3.org/1999/xlink" x="0px" y="0px"
	 viewBox="0 0 360 530" style="enable-background:new 0 0 360 530;" xml:space="preserve">
<style type="text/css">
	.st0{fill:#D1D1D1;}
	.st1{fill:#AFAFAF;}
	.st2{fill:#BFBFBF;}
	.st3{fill:#7B7B7B;}
	.st4{fill:#555555;}
	.st5{fill:#3A3A3A;}
	.st6{fill:#929292;}
	.st7{fill:#717171;}
	.st8{fill:#9D9D9D;}
</style>
<g>
	<g>
		<path class="st0" d="M103.6,442.1l122.2,73.2V530l-122.2-73.2V442.1z"/>
		<path class="st1" d="M348,442.1l-122.2,73.2V530L348,456.8L348,442.1z"/>
		<path class="st2" d="M103.6,442.1l122.2,73.2L348,442.1l-122.2-73.2L103.6,442.1z"/>
		<g>
			<path class="st3" d="M195.3,168.3l30.5,18.3v273.3l-30.5-18.3V168.3z"/>
			<path class="st4" d="M256.4,168.3l-30.5,18.3v273.3l30.5-18.3V168.3z"/>
			<path class="st5" d="M195.3,168.3l30.5,18.3l30.5-18.3l-30.5-18.3L195.3,168.3z"/>
		</g>
		<g>
			<path class="st6" d="M146.4,131.6l15.3,9.2v54.9l-15.3-9.2L146.4,131.6z"/>
			<path class="st7" d="M238,95l-76.4,45.8v54.9l76.4-45.8V95z"/>
			<path class="st8" d="M146.4,131.6l15.3,9.2L238,95l-15.3-9.2L146.4,131.6z"/>
			<g>
				<path class="st6" d="M161.7,180.5l45.8,27.5v15.3l-45.8-27.5L161.7,180.5z"/>
				<path class="st1" d="M283.9,162.2l-76.4,45.8v15.3l76.4-45.8L283.9,162.2z"/>
				<path class="st8" d="M161.7,180.5l45.8,27.5l76.4-45.8L238,134.7L161.7,180.5z"/>
			</g>
		</g>
	</g>
</g>
</svg>
