<?xml version="1.0" encoding="utf-8"?>
<!-- Generator: Adobe Illustrator 22.1.0, SVG Export Plug-In . SVG Version: 6.00 Build 0)  -->
<svg version="1.0" id="Layer_3" xmlns="http://www.w3.org/2000/svg" xmlns:xlink="http://www.w3.org/1999/xlink" x="0px" y="0px"
	 viewBox="0 0 360 530" style="enable-background:new 0 0 360 530;" xml:space="preserve">
<style type="text/css">
	.st0{fill:#4A4A4A;}
	.st1{fill:#383838;}
	.st2{fill:#222222;}
	.st3{fill:#3A3A3A;}
	.st4{fill:#D1D1D1;}
	.st5{fill:#A48900;}
	.st6{fill:#FDE35F;}
</style>
<g>
	<g>
		<path class="st0" d="M131.1,140.3l45.8,27.5v54.9l-45.8-27.5V140.3z"/>
		<path class="st1" d="M344.9,67l-168,100.7v54.9l168-100.7L344.9,67z"/>
		<path class="st0" d="M131.1,140.3l45.8,27.5L344.9,67l-45.8-27.5L131.1,140.3z"/>
		<g>
			<path class="st0" d="M80.7,143.3l68.7,41.2v82.4l-68.7-41.2V143.3z"/>
			<path class="st2" d="M195.3,157l-45.8,27.5v82.4l45.8-27.5L195.3,157z"/>
			<path class="st3" d="M80.7,143.3l68.7,41.2l45.8-27.5l-68.7-41.2L80.7,143.3z"/>
			<g>
				<path class="st4" d="M57.8,157l68.7,41.2v82.4l-68.7-41.2V157z"/>
				<path class="st5" d="M149.5,184.5l-22.9,13.7v82.4l22.9-13.7V184.5z"/>
				<path class="st6" d="M57.8,157l68.7,41.2l22.9-13.7l-68.7-41.2L57.8,157z"/>
			</g>
			<g>
				<path class="st0" d="M12,184.5l68.7,41.2v82.4L12,266.9V184.5z"/>
				<path class="st2" d="M126.5,198.2l-45.8,27.5v82.4l45.8-27.5V198.2z"/>
				<path class="st3" d="M12,184.5l68.7,41.2l45.8-27.5L57.8,157L12,184.5z"/>
			</g>
		</g>
	</g>
</g>
</svg>
