<?xml version="1.0" encoding="utf-8"?>
<!-- Generator: Adobe Illustrator 22.1.0, SVG Export Plug-In . SVG Version: 6.00 Build 0)  -->
<svg version="1.0" id="Layer_1" xmlns="http://www.w3.org/2000/svg" xmlns:xlink="http://www.w3.org/1999/xlink" x="0px" y="0px"
	 viewBox="0 0 360 360" style="enable-background:new 0 0 360 360;" xml:space="preserve">
<style type="text/css">
	.st0{fill:#222222;}
	.st1{fill:#4A4A4A;}
	.st2{fill:#3A3A3A;}
	.st3{fill:#AFAFAF;}
	.st4{fill:#BFBFBF;}
	.st5{fill:#D1D1D1;}
	.st6{fill:#D8D8D8;}
</style>
<g>
	<g>
		<path class="st0" d="M103,156.8l19.3-11.6v-23.1L257,41.6v23.1l19.3-11.6v161.5L257,226.1v23.1L122.2,330v-23.1L103,318.4V156.8z"
			/>
		<path class="st1" d="M103,318.4l19.3-11.6V330L103,318.4z M83.7,306.9l19.3,11.6V157l-19.3-11.6V306.9z"/>
		<path class="st2" d="M83.7,145.4l19.3-11.6l19.3,11.6L103,157L83.7,145.4z"/>
		<path class="st1" d="M103,133.9v-23.1l19.3,11.6v23.1L103,133.9z"/>
		<path class="st2" d="M103,110.7l19.3,11.6L257,41.6L237.8,30L103,110.7z M257,64.7l19.3-11.6L257,41.6V64.7z"/>
		<g>
			<path class="st3" d="M173.5,145.4l38.5-23.1v92.3l19.3-11.6v23.1l-57.8,34.7v-23.1l19.3-11.6V157l-19.3,11.6V145.4z"/>
			<path class="st4" d="M212,203l9.6-5.8l9.6,5.8L212,214.6V203z"/>
			<path class="st5" d="M173.5,260.7l-9.6-5.8v-23.1l9.6,5.8V260.7z"/>
			<path class="st4" d="M163.8,231.9l19.3-11.6l9.6,5.8l-19.3,11.6L163.8,231.9z"/>
			<path class="st6" d="M183.1,162.6l9.6-5.8V226l-9.6-5.8V162.6z"/>
			<path class="st5" d="M163.8,162.6l9.6,5.8v-23.1l-9.6-5.8V162.6z"/>
			<path class="st4" d="M163.8,139.6l38.5-23.1l9.6,5.8l-38.5,23.1L163.8,139.6z"/>
		</g>
	</g>
</g>
</svg>
