<?xml version="1.0" encoding="utf-8"?>
<!-- Generator: Adobe Illustrator 22.1.0, SVG Export Plug-In . SVG Version: 6.00 Build 0)  -->
<svg version="1.0" id="Layer_1" xmlns="http://www.w3.org/2000/svg" xmlns:xlink="http://www.w3.org/1999/xlink" x="0px" y="0px"
	 viewBox="0 0 360 360" style="enable-background:new 0 0 360 360;" xml:space="preserve">
<style type="text/css">
	.st0{fill:#222222;}
	.st1{fill:#4A4A4A;}
	.st2{fill:#3A3A3A;}
	.st3{fill:#AFAFAF;}
	.st4{fill:#BFBFBF;}
	.st5{fill:#D1D1D1;}
</style>
<g>
	<path class="st0" d="M103,156.8l19.3-11.6v-23.1L257,41.6v23.1l19.3-11.6v161.5L257,226.1v23.1L122.2,330v-23.1L103,318.4V156.8z"
		/>
	<path class="st1" d="M103,318.4l19.3-11.6V330L103,318.4z M83.7,306.9l19.3,11.6V157l-19.3-11.6V306.9z"/>
	<path class="st2" d="M83.7,145.4l19.3-11.6l19.3,11.6L103,157L83.7,145.4z"/>
	<path class="st1" d="M103,133.9v-23.1l19.3,11.6v23.1L103,133.9z"/>
	<path class="st2" d="M103,110.7l19.3,11.6L257,41.6L237.8,30L103,110.7z M257,64.7l19.3-11.6L257,41.6V64.7z"/>
	<g>
		<path class="st3" d="M170.8,151.2l57.8-34.7v115.4l-57.8,34.7v-23.1l38.5-23.1v-23.1l-38.5,23.1v-23.1l38.5-23.1v-23.1l-38.5,23.1
			V151.2z"/>
		<path class="st4" d="M161.1,145.4l9.6,5.8l57.8-34.7l-9.6-5.8L161.1,145.4z"/>
		<path class="st5" d="M161.1,145.4v23.1l9.6,5.8v-23.1L161.1,145.4z M199.6,156.8v11.6l9.6,5.8v-23.1L199.6,156.8z"/>
		<path class="st4" d="M161.1,191.5l9.6,5.8l38.5-23.1l-9.6-5.8L161.1,191.5z"/>
		<path class="st5" d="M161.1,191.5v23.1l9.6,5.8v-23.1L161.1,191.5z M199.6,203l9.6-5.8v23.1l-9.6-5.8V203z"/>
		<path class="st4" d="M161.1,237.7l38.5-23.1l9.6,5.8l-38.5,23.1L161.1,237.7z"/>
		<path class="st5" d="M161.1,237.7v23.1l9.6,5.8v-23.1L161.1,237.7z"/>
	</g>
</g>
</svg>
