<?xml version="1.0" encoding="utf-8"?>
<!-- Generator: Adobe Illustrator 22.1.0, SVG Export Plug-In . SVG Version: 6.00 Build 0)  -->
<svg version="1.1" id="Layer_3" xmlns="http://www.w3.org/2000/svg" xmlns:xlink="http://www.w3.org/1999/xlink" x="0px" y="0px"
	 viewBox="0 0 1200 240" style="enable-background:new 0 0 1200 240;" xml:space="preserve">
<style type="text/css">
	.st0{fill:#F93838;}
	.st1{fill:#FFFFFF;}
</style>
<g>
	<path d="M126.9,60c14.9,0,30.8,3.4,42.1,9.5v32.8c-11.1-7-25.2-11.1-38-11c-7.7,0-10.2,2-10.2,5.1c0,12,55.7,6.6,55.7,46.4
		c0,29.3-21.8,37.2-48.2,37.2c-17.4,0-33-3.8-45.6-10.8v-34.3c14.3,9.3,29.5,13.4,41.8,13.4c10,0,12.9-1.8,12.9-5.6
		c0-11.8-55.7-7.2-55.7-47.2C81.8,71.5,102,60,126.9,60z"/>
	<path d="M276.3,60c41.3,0,62.1,27,62.1,60c0,32.9-20.8,60-62.1,60s-62.1-27-62.1-60C214.2,87,235,60,276.3,60z M276.3,94.3
		c-14.8,0-23.3,10-23.3,25.8s8.5,25.7,23.3,25.7s23.3-10,23.3-25.7S291.1,94.3,276.3,94.3z"/>
	<path d="M418.9,62.6v81.6h49v33.1H381V62.6H418.9z"/>
	<path d="M554.2,62.6c41.2,0,59.5,23.8,59.5,57.4s-18.4,57.4-59.5,57.4h-49.5V62.6H554.2z M553.2,94.4h-10.7v51.1h10.7
		c13.4,0,21.6-6.9,21.6-25.6S566.7,94.4,553.2,94.4z"/>
	<path d="M773.7,60c41.3,0,62.1,27,62.1,60c0,32.9-20.8,60-62.1,60s-62.1-27-62.1-60C711.6,87,732.4,60,773.7,60z M773.7,94.3
		c-14.8,0-23.3,10-23.3,25.8s8.5,25.7,23.3,25.7s23.3-10,23.3-25.7S788.5,94.3,773.7,94.3z"/>
	<path d="M983.7,62.6v70.2c0,35.4-26.1,47.2-53.3,47.2s-53.3-11.8-53.3-47.2V62.6H915V131c0,10.7,5.6,15.1,15.4,15.1
		c10,0,15.6-4.4,15.6-15.1V62.6H983.7z"/>
	<path d="M1118.2,62.6v33.1h-30.8v81.6h-37.7V95.7h-30.8V62.6H1118.2z"/>
</g>
<rect x="270" y="90" class="st0" width="660" height="60"/>
<g>
	<path class="st1" d="M351.4,128.9v-25.2H372v25.2h-3v-22.3h-14.5v22.3H351.4z"/>
	<path class="st1" d="M387.5,111.1c4.9,0,8.6,3.9,8.6,9.1s-3.7,9.1-8.6,9.1c-3.3,0-5.4-1.5-6.7-3v10.5H378v-25.2h2.6v2.9
		C382.1,112.7,384.2,111.1,387.5,111.1z M387.2,113.8c-3.1,0-5.4,2-6.4,4.2v4.3c1,2.2,3.3,4.2,6.4,4.2c3.3,0,6.1-2.4,6.1-6.4
		S390.6,113.8,387.2,113.8z"/>
	<path class="st1" d="M408.4,111.1c4.7,0,9.2,3.2,9.2,9.1s-4.5,9.1-9.2,9.1c-4.7,0-9.2-3.2-9.2-9.1S403.7,111.1,408.4,111.1z
		 M408.4,113.9c-3.5,0-6.3,2.3-6.3,6.3s2.8,6.3,6.3,6.3c3.5,0,6.3-2.3,6.3-6.3S411.9,113.9,408.4,113.9z"/>
	<path class="st1" d="M419.5,133.5v-7.3h2.3c2.2-3.8,3-8.2,3-14.7h12.9v14.7h2.5v7.3h-2.8v-4.7h-15v4.7H419.5z M425,126.3h9.8v-12.1
		h-7.2C427.4,119.4,426.5,123,425,126.3z"/>
	<path class="st1" d="M459.4,126.6c0.4,0,0.9-0.1,1.3-0.3v2.3c-0.7,0.3-1.4,0.4-2.2,0.4c-1.4,0-2.7-0.6-3.2-2.1
		c-1.7,1.4-3.9,2.3-6.7,2.3c-3.1,0-6.1-1.6-6.1-5.3c0-4.5,4.1-5.8,7.8-5.8c1.5,0,3.3,0.2,4.8,0.5v-0.6c0-2.6-1.8-4.3-4.9-4.3
		c-2.7,0-4.8,0.6-6.3,1.3v-2.8c1.4-0.5,3.7-1.2,6.6-1.2c4.6,0,7.5,2.5,7.5,7.3v6.8C458.1,126.3,458.6,126.6,459.4,126.6z
		 M449.3,126.8c2.2,0,4.4-0.9,5.9-2.5v-3.2c-1.2-0.3-3-0.5-4.4-0.5c-2.5,0-5.3,0.8-5.3,3.3C445.5,125.9,447.4,126.8,449.3,126.8z"/>
	<path class="st1" d="M484.8,128.9l-5.9-7.2h-2.8v7.2h-2.9v-7.2h-2.8l-5.9,7.2h-3.2l6.9-8.7l-6.1-8.6h3.2l5.3,7.4h2.6v-7.4h2.9v7.4
		h2.6l5.3-7.4h3.2l-6.1,8.6l6.9,8.7H484.8z"/>
	<path class="st1" d="M491,128.9v-17.3h2.9v12.6l10.6-12.6h2.4v17.3H504v-12.6l-10.6,12.6H491z"/>
	<path class="st1" d="M529.2,129.3c-5.2,0-9-3.6-9-10.1c0-5.8,2.2-9.8,5.3-11.7c5-3.1,8.4-1.8,10.9-4.2v3c-2.5,1.8-5.3,1-9.2,3.3
		c-2.4,1.4-3.4,3.8-4.1,6c1.2-1.9,3.7-3.2,6.4-3.2c4.5,0,8.5,3.3,8.5,8.4C538.1,126.1,534.5,129.3,529.2,129.3z M529.2,126.6
		c3.8,0,6-2.5,6-5.8s-2.2-5.8-6-5.8c-3.6,0-6,2.8-6,5.8C523.2,124.1,525.5,126.6,529.2,126.6z"/>
	<path class="st1" d="M542.2,128.9v-17.3h2.9v12.6l10.6-12.6h2.4v17.3h-2.9v-12.6l-10.6,12.6H542.2z"/>
	<path class="st1" d="M563.3,129.1c-0.6,0-1.3-0.1-2.1-0.4v-2.3c0.4,0.1,0.8,0.2,1.2,0.2c3.1,0,4.1-5.8,4.4-15.1h12.7v17.3h-2.9
		v-14.6h-7C569,123.1,567.8,129.1,563.3,129.1z"/>
	<path class="st1" d="M592.2,111.1c6.7,0,9.1,5.4,8,10.3h-13.8c0.4,3.6,3.6,5.1,7.1,5.1c2.1,0,4.2-0.6,5.7-1.4v2.8
		c-1.6,0.8-3.9,1.3-6.1,1.3c-5.1,0-9.6-2.9-9.6-9.1C583.6,114.2,588.1,111.1,592.2,111.1z M592.4,113.8c-3,0-5.7,1.8-5.9,5.1h11.2
		C598,117.1,596.8,113.8,592.4,113.8z"/>
	<path class="st1" d="M608.4,128.9v-14.6h-6.4v-2.7h15.6v2.7h-6.3v14.6H608.4z"/>
	<path class="st1" d="M628.4,111.1c4.7,0,9.2,3.2,9.2,9.1s-4.5,9.1-9.2,9.1c-4.7,0-9.2-3.2-9.2-9.1S623.7,111.1,628.4,111.1z
		 M628.4,113.9c-3.5,0-6.3,2.3-6.3,6.3s2.8,6.3,6.3,6.3s6.3-2.3,6.3-6.3S631.9,113.9,628.4,113.9z"/>
	<path class="st1" d="M641.7,128.9v-17.3h9.5c3,0,5.3,1.6,5.3,4.7c0,1.8-1,3.2-2.3,3.8c1.4,0.5,2.8,1.8,2.8,4c0,2.8-1.8,4.8-5.6,4.8
		H641.7z M644.6,118.9h6.3c1.5,0,2.7-0.6,2.7-2.3c0-1.9-1.5-2.4-2.7-2.4h-6.3V118.9z M644.6,126.3h6.5c1.8,0,3.1-0.5,3.1-2.4
		c0-2.1-1.5-2.5-3-2.5h-6.6V126.3z"/>
	<path class="st1" d="M675.6,129.3c-2.4,0-4.8-0.5-6.4-1.3v-2.7c1.5,0.8,3.9,1.4,6,1.4c2.7,0,5.3-0.5,5.3-2.7c0-2.1-2.1-2.5-3.8-2.5
		h-3.8v-2.7h3.8c1.9,0,3.5-0.6,3.5-2.2c0-1.9-2.1-2.7-4.8-2.7c-2.1,0-4.3,0.6-5.9,1.4v-2.7c1.7-0.8,3.9-1.3,6.2-1.3
		c4.8,0,7.3,2,7.3,5c0,2.1-1.3,3.5-3.2,3.9c1.9,0.5,3.6,2,3.6,4.2C683.4,127.5,680.4,129.3,675.6,129.3z"/>
	<path class="st1" d="M703,126.6c0.4,0,0.9-0.1,1.3-0.3v2.3c-0.7,0.3-1.4,0.4-2.2,0.4c-1.4,0-2.7-0.6-3.2-2.1
		c-1.7,1.4-3.9,2.3-6.7,2.3c-3.1,0-6.1-1.6-6.1-5.3c0-4.5,4.1-5.8,7.8-5.8c1.5,0,3.3,0.2,4.8,0.5v-0.6c0-2.6-1.8-4.3-4.9-4.3
		c-2.7,0-4.8,0.6-6.3,1.3v-2.8c1.4-0.5,3.7-1.2,6.6-1.2c4.6,0,7.5,2.5,7.5,7.3v6.8C701.6,126.3,702.2,126.6,703,126.6z M692.9,126.8
		c2.2,0,4.4-0.9,5.9-2.5v-3.2c-1.2-0.3-3-0.5-4.4-0.5c-2.5,0-5.3,0.8-5.3,3.3C689.1,125.9,691,126.8,692.9,126.8z"/>
	<path class="st1" d="M707.4,128.9v-17.3h2.9v7.2h3.5l5.5-7.2h3.3l-6.6,8.6l7.3,8.7H720l-6.3-7.4h-3.4v7.4H707.4z"/>
	<path class="st1" d="M733.4,111.1c4.7,0,9.2,3.2,9.2,9.1s-4.5,9.1-9.2,9.1c-4.7,0-9.2-3.2-9.2-9.1S728.7,111.1,733.4,111.1z
		 M733.4,113.9c-3.5,0-6.3,2.3-6.3,6.3s2.8,6.3,6.3,6.3c3.5,0,6.3-2.3,6.3-6.3S736.9,113.9,733.4,113.9z"/>
	<path class="st1" d="M746.8,128.9v-17.3h2.9v7.3h10v-7.3h2.9v17.3h-2.9v-7.3h-10v7.3H746.8z"/>
	<path class="st1" d="M778.5,128.9v-6c-1.6,0.6-3,0.9-5.1,0.9c-4,0-6.7-1.9-6.7-6.2v-6h2.9v5.8c0,2.9,1.8,3.7,4.6,3.7
		c1.7,0,3-0.2,4.3-0.8v-8.7h2.9v17.3H778.5z"/>
	<path class="st1" d="M794.1,111.1c6.7,0,9.1,5.4,8,10.3h-13.8c0.4,3.6,3.6,5.1,7.1,5.1c2.1,0,4.2-0.6,5.7-1.4v2.8
		c-1.6,0.8-3.9,1.3-6.1,1.3c-5.1,0-9.6-2.9-9.6-9.1C785.5,114.2,790,111.1,794.1,111.1z M794.3,113.8c-3,0-5.7,1.8-5.9,5.1h11.2
		C799.8,117.1,798.7,113.8,794.3,113.8z"/>
	<path class="st1" d="M806.3,128.9v-17.3h2.9v7.3h10v-7.3h2.9v17.3h-2.9v-7.3h-10v7.3H806.3z"/>
	<path class="st1" d="M827.4,128.9v-17.3h2.9v6h5.3c4.2,0,6.7,2.4,6.7,5.6c0,3.2-2.5,5.6-6.7,5.6H827.4z M830.3,126.3h5
		c2.5,0,4.1-1,4.1-3s-1.6-3-4.1-3h-5V126.3z M845.7,128.9v-17.3h2.9v17.3H845.7z"/>
</g>
</svg>
