<?xml version="1.0" encoding="utf-8"?>
<!-- Generator: Adobe Illustrator 22.1.0, SVG Export Plug-In . SVG Version: 6.00 Build 0)  -->
<svg version="1.0" id="Layer_1" xmlns="http://www.w3.org/2000/svg" xmlns:xlink="http://www.w3.org/1999/xlink" x="0px" y="0px"
	 viewBox="0 0 100 100" style="enable-background:new 0 0 100 100;" xml:space="preserve">
<style type="text/css">
	.st0{fill:#FCD130;}
	.st1{fill:#222222;}
	.st2{fill:#4A4A4A;}
	.st3{fill:#3A3A3A;}
	.st4{fill:#AFAFAF;}
	.st5{fill:#D1D1D1;}
	.st6{fill:#BFBFBF;}
</style>
<rect class="st0" width="100" height="100"/>
<g>
	<path class="st1" d="M29.5,43.8l5.1-3.1v-6.2l35.9-21.5v6.2l5.1-3.1v43.1l-5.1,3.1v6.2L34.6,90v-6.2l-5.1,3.1V43.8z"/>
	<path class="st2" d="M29.5,86.9l5.1-3.1V90L29.5,86.9z M24.3,83.8l5.1,3.1V43.9l-5.1-3.1V83.8z"/>
	<path class="st3" d="M24.3,40.8l5.1-3.1l5.1,3.1l-5.1,3.1L24.3,40.8z"/>
	<path class="st2" d="M29.5,37.7v-6.2l5.1,3.1v6.2L29.5,37.7z"/>
	<path class="st3" d="M29.5,31.5l5.1,3.1l35.9-21.5L65.4,10L29.5,31.5z M70.5,19.2l5.1-3.1l-5.1-3.1V19.2z"/>
	<g>
		<path class="st4" d="M47.7,42.3l15.4-9.2v18.5l-10.3,6.2v6.2l10.3-6.2v6.2l-15.4,9.2V54.6L58,48.5v-6.2l-10.3,6.2V42.3z"/>
		<path class="st5" d="M55.4,43.8v3.1l2.6,1.5v-6.2L55.4,43.8z"/>
		<path class="st6" d="M45.2,40.8l2.6,1.5l15.4-9.2l-2.6-1.5L45.2,40.8z"/>
		<path class="st5" d="M45.2,46.9l2.6,1.5v-6.2l-2.6-1.5V46.9z"/>
		<path class="st6" d="M55.4,46.9l2.6,1.5l-10.3,6.2l-2.6-1.5L55.4,46.9z"/>
		<path class="st5" d="M45.2,53.1v18.5l2.6,1.5V54.6L45.2,53.1z"/>
		<path class="st6" d="M52.9,60.8l7.7-4.6l2.6,1.5l-10.3,6.2V60.8z"/>
	</g>
</g>
</svg>
