<?xml version="1.0" encoding="utf-8"?>
<!-- Generator: Adobe Illustrator 22.1.0, SVG Export Plug-In . SVG Version: 6.00 Build 0)  -->
<svg version="1.0" id="Layer_1" xmlns="http://www.w3.org/2000/svg" xmlns:xlink="http://www.w3.org/1999/xlink" x="0px" y="0px"
	 viewBox="0 0 30 30" style="enable-background:new 0 0 30 30;" xml:space="preserve">
<path d="M28.7,8.1c-0.3-1.2-1.3-2.2-2.5-2.5C23.9,5,15,5,15,5S6.1,5,3.8,5.6C2.6,5.9,1.6,6.9,1.3,8.1C0.7,10.3,0.7,15,0.7,15
	s0,4.7,0.6,6.9c0.3,1.2,1.3,2.2,2.5,2.5C6.1,25,15,25,15,25s8.9,0,11.2-0.6c1.2-0.3,2.2-1.3,2.5-2.5c0.6-2.2,0.6-6.9,0.6-6.9
	S29.3,10.3,28.7,8.1z M12.1,19.3v-8.6l7.4,4.3L12.1,19.3z"/>
</svg>
