<?xml version="1.0" encoding="utf-8"?>
<!-- Generator: Adobe Illustrator 22.1.0, SVG Export Plug-In . SVG Version: 6.00 Build 0)  -->
<svg version="1.0" id="Layer_1" xmlns="http://www.w3.org/2000/svg" xmlns:xlink="http://www.w3.org/1999/xlink" x="0px" y="0px"
	 viewBox="0 0 50 50" style="enable-background:new 0 0 50 50;" xml:space="preserve">
<style type="text/css">
	.st0{fill:#FFFFFF;}
</style>
<path class="st0" d="M45.5,14.7c-0.5-1.8-1.9-3.3-3.8-3.8C38.4,10,25,10,25,10s-13.4,0-16.7,0.9c-1.8,0.5-3.3,1.9-3.8,3.8
	C3.6,18,3.6,25,3.6,25s0,7,0.9,10.3c0.5,1.8,1.9,3.3,3.8,3.8C11.6,40,25,40,25,40s13.4,0,16.7-0.9c1.8-0.5,3.3-1.9,3.8-3.8
	C46.4,32,46.4,25,46.4,25S46.4,18,45.5,14.7z M20.7,31.4V18.6L31.9,25L20.7,31.4z"/>
</svg>
